<!-- Generator: Adobe Illustrator 19.2.0, SVG Export Plug-In  -->
<svg version="1.1"
   xmlns="http://www.w3.org/2000/svg" xmlns:xlink="http://www.w3.org/1999/xlink" xmlns:a="http://ns.adobe.com/AdobeSVGViewerExtensions/3.0/"
   x="0px" y="0px" width="199.1px" height="68.1px" viewBox="0 0 199.1 68.1" style="enable-background:new 0 0 199.1 68.1;"
   xml:space="preserve">
<style type="text/css">
  .st0{fill:#484B9F;}
</style>
<defs>
</defs>
<g>
  <g>
    <g>
      <g>
        <g>
          <g>
            <path class="st0" d="M5.3,64.2C5.2,64,5,64.1,5,64.5l0.3,0.3L5.3,64.2z"/>
            <path class="st0" d="M4.9,66.4c0.6-0.2,1-0.4,1-0.7C5.5,66,5.5,65.9,5,66.1c0,0-0.1,0-0.1,0c0-0.3,0.1-0.6,0.2-0.6
              c-0.1-0.1,0.1-0.4-0.1-0.6c-0.2,0.4-0.3,1-0.1,1.3c0.1,0,0.2,0,0.3-0.1C5.2,66.3,5,66.4,4.9,66.4z"/>
            <path class="st0" d="M41.9,67l-0.2,0C41.7,66.9,41.8,66.9,41.9,67z"/>
            <path class="st0" d="M64.9,67.1c-0.2,0-0.2,0-0.3,0.1C64.8,67.2,64.9,67.2,64.9,67.1z"/>
            <path class="st0" d="M68.8,67.5c-0.1,0-0.2,0-0.2,0C68.6,67.5,68.7,67.5,68.8,67.5z"/>
            <path class="st0" d="M41.9,67l0.6,0.1C42.6,66.9,42.2,67,41.9,67z"/>
            <path class="st0" d="M9.9,65.6c-0.1,0-0.2,0-0.3,0.1L9.9,65.6C9.9,65.7,9.9,65.7,9.9,65.6z"/>
            <path class="st0" d="M31.8,67.2l-0.2,0c-0.1,0-0.1,0.1-0.2,0.1L31.8,67.2z"/>
            <path class="st0" d="M24,67.3c0.2,0,0.2-0.3,0.3-0.4c-0.1,0.1-0.2,0.2-0.4,0.2C23.9,67.1,23.9,67.2,24,67.3z"/>
            <path class="st0" d="M11.7,66.8l-0.2,0C11.5,66.8,11.6,66.8,11.7,66.8z"/>
            <path class="st0" d="M37.3,67.3c0,0,0,0.1,0.1,0.1C37.4,67.3,37.4,67.3,37.3,67.3z"/>
            <path class="st0" d="M196.3,9.5C196.3,9.5,196.3,9.5,196.3,9.5C196.3,9.4,196.3,9.4,196.3,9.5z"/>
            <path class="st0" d="M193.6,4.4l0.1,0c0-0.1,0-0.1,0-0.2L193.6,4.4z"/>
            <path class="st0" d="M76,67.9C75.9,67.9,75.9,67.9,76,67.9C75.7,67.9,75.8,67.9,76,67.9z"/>
            <path class="st0" d="M141.8,67.6c-0.7-0.3,1.2-0.3,0.1-0.6C142,67.2,140.9,67.5,141.8,67.6z"/>
            <path class="st0" d="M10.1,65.7l0.3,0C10.3,65.7,10.2,65.7,10.1,65.7z"/>
            <path class="st0" d="M141.9,67L141.9,67l-0.1,0C141.8,67,141.9,67,141.9,67z"/>
            <path class="st0" d="M92.5,67.7c0,0-0.1-0.1-0.2-0.1C92.3,67.6,92.4,67.6,92.5,67.7z"/>
            <path class="st0" d="M80.2,67.3l0.3,0C80.4,67.3,80.3,67.3,80.2,67.3z"/>
            <path class="st0" d="M98.9,67.3c0.2,0,0.2,0.1,0.4,0c0,0,0,0-0.1,0C99.2,67.3,99.1,67.3,98.9,67.3z"/>
            <path class="st0" d="M105.5,67.3c0,0-0.1,0-0.1-0.1c-0.1,0-0.1,0-0.2,0L105.5,67.3z"/>
            <path class="st0" d="M196.4,29.7c0.1-0.1,0.2-0.2,0.3-0.3C196.5,29.5,196.4,28.5,196.4,29.7z"/>
            <path class="st0" d="M9.9,65.8c0-0.1,0.1-0.1,0.2-0.1c-0.1,0-0.1,0-0.2,0C9.9,65.7,9.9,65.8,9.9,65.8z"/>
            <path class="st0" d="M99.2,65.1l1.1,0C99.9,65.1,99.5,65.1,99.2,65.1z"/>
            <path class="st0" d="M186.6,65.3l0.2,0C186.8,65.3,186.7,65.3,186.6,65.3z"/>
            <path class="st0" d="M103.3,65.1c0.2,0.1,0.4,0.2,0.6,0.2c0,0,0.1,0,0.1-0.1L103.3,65.1z"/>
            <path class="st0" d="M196.7,29.4L196.7,29.4L196.7,29.4z"/>
            <path class="st0" d="M196,22.4c0,1,0.4,0.5,0.6,0.7c0.1,1.2-0.3,0.6-0.5,1c0.1,0.8,0.4,1.3,0.4,1.9c-0.1,0-0.1,0.2-0.2,0
              c0.3,0.8,0,2.4,0.4,3.3c0,0.1-0.1,0.1-0.1,0.1c0.2-0.1,0.4-0.2,0.5-0.1c0,0.5,0.2,0.8,0,1c0-0.3-0.1-0.3-0.2-0.4l0.1,0.5
              c-0.3,0.4-0.1-0.6-0.4-0.6c0.1,0.9,0.4,2,0.3,2.7c-0.3,0.1-0.1-1.7-0.4-0.7l0.1-1.1c-0.5,0.8,0-0.7-0.5,0.1
              c-0.1,1.4,0.2,1.6,0.1,3c0.2,0.3,0.3-0.1,0.5,0.2c0.3,2-0.9,1.6-0.4,3.1c0.2,0.4,0.7,0.5,0.4,1.6l-0.4-0.4
              c0,1.4,0.6,0.8,0.3,2.3c-0.2-0.3-0.1-1.1-0.2-0.9c-0.3,0.9,0.2,0.7,0.2,1.4l-0.3,0.2c0.1,1.5,0.3,3.1,0.4,4.8
              c-0.1-0.1-0.2-0.4-0.3,0c0.2,2.1,0,4.4-0.2,6.4l0.3,0.8c0,0.2-0.1,0.3-0.2,0.1c-0.1,0.8,0.2,0,0.3,0.4c0,0.4-0.2,0.6-0.3,0.3
              c0.2,1.4,0.5,3.9,0.2,5.4l-0.1-0.3c-0.1,1.1,0.6,1.3,0.3,2.3l-0.1-0.2c0,0.9,0,1.8,0,2.7c0,0.4,0,0.8,0,1.1c0,0.2,0,0.4,0,0.5
              c-0.2,0-0.3,0-0.4-0.1c-0.1,0-0.1,0-0.2-0.1c0,0-0.1-0.1-0.2-0.1c-0.4,0.4-2.4-0.2-2.6,0.4c-1.4-0.3-1-0.4-3-0.6
              c-0.5,0-0.8,0.4-1.4,0.4l0-0.3l-0.9,0.3l-0.5-0.4l-0.6,0.1c0.2,0,0.5,0.1,0.5,0.2c-1,0.1-2.3-0.2-2.3-0.4l-2.3,0.3
              c0.1-0.1,0.4-0.2,0.7-0.2c-1.2,0.3-0.2-0.3-1.3,0c0.1,0.1-0.1,0.2-0.1,0.2c-0.5-0.2-1.8-0.2-2.7-0.1l0.2-0.2
              c-1.7-0.1-3.5,0.1-5.4,0.1c0.7,0.1,0.5,0.5,0,0.5l-0.2-0.3c-0.4,0.2,0.6,0.1-0.2,0.4c-0.7,0-0.5-0.4-0.1-0.5l-0.9,0.1
              c-0.1-0.1,0.1-0.1,0.2-0.3c-0.3,0.2-1.5-0.3-2,0l0-0.1c-1.9,0-2.7,0.1-4.3,0.1c0,0.3-0.6,0.2-1.1,0.4
              c-1.1-0.1-2.4-0.3-3.7-0.3c-1,0.1-0.3,0.2-0.7,0.4c-0.1-0.3-1.4-0.2-0.7-0.4c-1.6,0-2.1,0.1-4.1,0.3c0.2,0.1,0.5,0.2,0.3,0.2
              c-0.4,0-0.8-0.1-0.8-0.2l0.1,0c-2.3,0.4-5.3-0.7-7.2-0.2l0.1,0l-1.9,0.3c-0.9,0,0.5-0.2-0.1-0.4c-2.1,0.4-3.2-0.1-4.9,0.2
              c-1.3-0.8-4.6,0.1-6.4-0.4l0.1,0.2c-0.5,0.2-0.6-0.1-0.9-0.1c0,0.1,0.5,0.2,0.2,0.3c-3.9,0.2-8-0.3-12-0.4
              c-1.5,0-0.8,0.9-2.7,0.5l0.5-0.3c-2.9,0.4-6,0-8.9,0.3c0.2-0.1,0.2-0.2,0.5-0.2c-0.6-0.2-2.2,0-2.2,0.2
              c-0.4,0-0.1-0.2-0.4-0.3c-0.6-0.1-1.5,0.3-1.8,0.1c-0.1,0,0.2-0.1,0.3-0.1c-0.4,0.1-1.8,0-1.5,0.2c-1.1-0.1-2.1,0.1-2.9,0
              c-0.6,0.3-1.8-0.1-2,0.3c0.1-0.5-1.9-0.4-2.6-0.2c0.2-0.1-0.6-0.1-0.3-0.3c-0.8,0-1.5,0.1-1.4,0.3c-1.4-0.5-2.9,0.4-3.7-0.3
              c-2.3,0.2-4.4,0.4-6.5,0.5c0.1-0.5,2.3,0,2.2-0.5c-2,0.2-3.1,0.6-5.1,0.5c-0.5-0.1,0.3-0.2,0.5-0.3c-2,0.2-3.8,0-5.5,0.2
              c0,0,0.2-0.1,0.4-0.1c-0.3,0-0.8-0.1-0.8,0.1l0.3-0.1c0.6,0.3-1.4,0.6-1.4,0.8c0.6-0.6-1.7-0.1-0.8-0.9
              c-0.2,0-0.5,0.1-0.5,0.3c-0.3,0-0.4-0.1-0.1-0.3c-1.2,0.1-0.8,0.3-1.9,0.3c0-0.1,0.2-0.1,0.3-0.3c-0.6,0.2-1.1,0.4-2.1,0.3
              c0.1-0.1-0.1-0.1,0.2-0.1c-1.6,0-2.8,0.5-4.5,0.3c0.5-0.4-0.6-0.1-0.7-0.5l-1,0.1l0.4,0.2c-0.8,0-1.6,0.3-2.3,0.1l0.6-0.2
              l-1.6,0.1l0.9,0.1c-0.8,0.2,0.1,0.5-1,0.4c0.2,0-0.8,0-1.3-0.2l0,0c-0.4,0.1-0.8,0.2-1.5,0.2c-0.2-0.1,0.1-0.4,0-0.5
              c-0.4,0.3-2,0.1-2.5,0.4c0.2-0.1,0.2-0.3,0.1-0.3l-0.3,0.3c-0.4-0.1-0.4-0.1-0.4-0.3c-1.2,0,0.4,0.5-1,0.3
              c0.1,0,0.1-0.1,0.3-0.1c-1.4-0.1-2.7,0.2-4,0c-0.4-0.4,1.1-0.1,0.7-0.4c-1.8,0.1-3.8,0.5-5.6,0.4l0.3,0
              c-0.2,0.5-1.3-0.3-2.2,0c0.2,0,0.3-0.3,0.2-0.2c-1.2-0.1-2.5,0.1-4.4,0.3l0.2-0.1c-0.7-0.1-1.9-0.1-2.7-0.1
              c-0.2,0.1-0.7,0.1-0.4,0.3c-2.4-0.8-4.6,0.4-6.7-0.2c0.3,0,0.6-0.1,0.4-0.1l-1.8,0.1c0.1,0.2,0.2,0.1,0.6,0.3
              c-0.2,0.1-0.7,0.2-1.2,0.2c0.8-0.2,0-0.4-0.4-0.5c0.1,0.1-0.1,0.1,0,0.2c-0.9-0.4-0.2,0.5-1.5,0.2l0.1-0.1
              c-0.5,0.1-0.9,0.2-1.5,0.2c-0.2-0.3,0.5-0.1,0.5-0.3c-0.7,0-1.4,0.5-2.1,0.2c0.3-0.1,0.8-0.1,1.1-0.1
              c-0.7-0.3-0.8-0.2-1.3-0.3l0.1,0l-1.2-0.1l0.3,0.1c-0.9,0.7-1.9,0.1-3.1,0.6c1.2-0.4,0.2-0.2,0.3-0.6
              c-0.3-0.1-0.8-0.2-0.7-0.3c-0.6,0.2-1-0.2-1.8,0.2c0-0.1-0.6,0-0.5-0.3c-0.8,0.1,0.2,0.2,0.1,0.3c-1.2,0.3-2.8-0.4-4.4,0.1
              c-1.5,0.2-1.7,0.5-3.1,0.7c-0.5-0.2,0.4-0.4,0.4-0.4c-0.7-0.1-1.3-0.1-2,0c0.1-0.1,0-0.2-0.2-0.3c-0.6,0-0.4,0.4-1.1,0.2
              c0.1-0.1,0.3-0.3,0.6-0.4c-0.7,0.1-1.3,0.3-2,0.4c-0.2-0.2,0.4-0.3,0.6-0.4c-0.7,0.1-2,0.2-2.2,0.4c0,0,0.1,0,0.2,0
              c0.1,0,0.2,0,0.2,0c-0.3,0-0.1-0.2,0.1-0.3c0.7-0.2,0.9,0.1,1,0.2l-0.5,0.1c0.5,0.6,1.9-0.1,2.9-0.1l-0.4,0.4l1-0.3
              c0.2,0.1,0.4,0.3-0.1,0.4c0.7,0.2,0.6-0.1,1.2,0.1c0.1,0,0,0.1,0,0.1l0.7-0.1c-0.1,0.1,0.1,0.3-0.3,0.2c1.2,0.2,2-0.3,2.4,0
              l-0.1,0c1.7-0.1,0.2-0.3,1.4-0.7l0.9,0.8l0.2-0.3c0.2,0,0.5,0,0.5,0.2c0.7-0.2-0.1-0.1,0.3-0.3c0.8,0.3,2.3-0.1,2.5,0.4
              c0.3-0.2-0.8-0.2,0.1-0.3c0.3,0.5,1-0.1,1.8,0.2c-0.2,0.3-1,0.1-0.2,0.4c0.5-0.5,1.5,0.1,2.1,0c0-0.4,1.4-0.2,2.5-0.3
              c-0.1,0.1,2,0.2,3.1,0.3l0,0.1c0.2-0.4,1.2-0.3,2-0.4c0,0.2-0.2,0.3-0.6,0.4l0.7,0c0.2-0.1,0.4-0.2,0.9-0.2l-0.2,0.3
              c1,0,1.9-0.3,3.1-0.1c0.1-0.3-1-0.7,0.3-0.9c0,0.1,0.1,0.4-0.2,0.4c0.1,0,0.4-0.1,0.6-0.1l-0.5,0.2c0.6,0.1,0.3-0.2,0.7-0.2
              c0,0.2,0.3,0.1,0.3,0.3c-0.1,0-0.4-0.1-0.6,0c0.5,0,1.1,0.2,1.3,0.3c0-0.1,0-0.3,0.4-0.3c1,0,0.3,0.2,0.9,0.3
              c0.2-0.1,0.8,0,0.9-0.3c0.3,0,0.3,0.1,0.4,0.2c0.5-0.1,2.3,0,1.7-0.4l-0.1,0c0,0,0.1,0,0.1,0h0h0c1.6-0.3,3.4,0.2,5,0l0,0.1
              c1-0.1,2.1-0.1,2.8-0.3c0.3,0,0.7,0.2,0.5,0.3c0.7-0.1,0.8-0.2,1.9,0C51,67.2,52,67.2,51,67.1c0.9,0.1,1.2,0.2,2.2,0
              c-0.3,0.3,0.7,0.3,1.2,0.2l-0.7-0.2c0.5,0,1,0,1.4,0l-0.2,0.3c1.9,0.4,3.5-0.7,5,0c0.5-0.2-1.1-0.2-0.6-0.4
              c0.9,0,1.8,0.5,2.1,0.5c1.2,0.2,1.1-0.5,2.4-0.4c-0.2-0.1-0.3-0.4,0.6-0.5c0.9,0,1.1,0.5,0.5,0.6c-0.2,0-0.3,0-0.3-0.1
              c-0.3,0-0.7,0.1-0.3,0.2l0.1-0.1c0.4,0.1,1.7,0.1,1.4,0.3c0.7-0.1,0.3-0.2-0.2-0.3c1.1,0.2,1.8,0,3,0.1
              c-0.2-0.1-0.4-0.2-0.2-0.2c1.7,0.1,0.8-0.2,1.9-0.3c0.7,0.2-0.2,0.4,0.9,0.3c0.7,0.1,0.2,0.3-0.1,0.4c1.1-0.2,2,0.2,2.6,0.2
              L73.2,68c0.3-0.1,0.6-0.1,0.9-0.1l-0.3-0.2c0.3,0,0.6,0,0.6,0.1c0.3-0.2-0.3-0.4,0.4-0.6c0.4,0.1,1.4-0.1,1.5,0.2
              c-1.4-0.1,0.2,0.3-1,0.4c0.2,0,0.5,0,0.8,0c0.1,0,0,0.1-0.1,0.1c1.3,0.3,0.6-0.4,2-0.3c-0.2,0.2,0.3,0.3,0.5,0.3
              c-0.6,0-0.3-0.3,0.2-0.4c0.9,0.1,1-0.1,1.4-0.1l-0.5-0.1c0.2-0.2,0.6-0.2,1.2-0.2c0.1,0.1-0.6,0.1-0.3,0.2
              c0.7-0.3,1.6,0.3,2.5,0.1c0.4,0.1,0,0.3,0.4,0.4c1.1-0.2,1.2,0.2,2.3,0.1c-0.3-0.2-0.4-0.2,0.4-0.4l-1.9,0.2l1.2-0.3
              c-0.6,0-1.2,0.1-1.5,0.1c0.6-0.2,0.5-0.1,0.2-0.3c0.8,0.4,1.5-0.2,2.4,0l0,0.6c1.3,0.3,2.4-0.3,4.1-0.2l-0.6-0.1
              c0.2-0.2,1.1,0,1.6-0.1c-0.1,0.2,0.3,0.3,0.5,0.4c0-0.1,1.3,0,1.4-0.4l0.8,0.3c1.4,0.1,1.6-0.6,2.9-0.5
              c-0.4,0.2,0.2,0.4-0.7,0.5c0.4,0,0.9,0,0.9-0.1c0.3,0.1,1.2-0.3,1.7-0.1c0.2-0.1,0.3-0.3,0.8-0.3c0.1,0,0,0.1,0,0.1
              c0-0.1,0.8-0.1,0.3-0.4c1.4,0.6,3.9,0,5.1,0.5c1-0.1,2.2-0.1,3-0.1c-0.1,0.1,0,0.1-0.2,0.1c1.2,0.2,0.8-0.6,2.1-0.4
              c0.7,0.3-0.7,0.2-0.3,0.3c0.2,0.6,1.7-0.1,2.6,0.3l-0.2,0c0.7,0.2,1.7-0.2,2.9-0.2c0,0-0.1,0.1,0,0.1c0.8-0.3,2.3-0.4,3.4-0.5
              c-0.4,0.3-0.5,0.1-0.3,0.4c0.5,0-0.1-0.4,0.9-0.5c0.3,0.1,1.1,0.3,1.2,0.5l-0.9,0c0.5,0.4,1.2,0,1.7,0l-0.1,0.2
              c1.5-0.1,1.5-0.4,3-0.4l-0.2-0.1c0.9-0.4,0.7,0.2,1.6-0.1l0.3,0.4c0.6-0.1,2-0.4,3-0.5c-0.6,0.3-1.8,0.4-2.5,0.6
              c0.6,0,1.9,0,2.2-0.2c-0.2,0-0.5,0.1-0.7,0.1c0.7-0.3,1.6-0.5,2.7-0.5c-0.2,0.8,2.9,0.2,3.7,0.8c2-0.3,3.9,0.1,6.2,0.1
              c-0.8-0.6,0.7,0,0.5-0.6c0.5,0,0.7,0,0.8,0l1.6,0.4c0.4,0.2-0.5,0.1-0.5,0.3c1.2,0,0.5,0.3,1.3,0.4c-0.2-0.2,0.4-0.3,1.1-0.2
              l-0.9-0.3c1.6-0.3,1.4,0.5,3.1,0.2L147,68c0.8-0.1,3.1,0,4-0.5c0.1,0.1,0.3,0.2,0,0.3c2,0.1,4.5-0.5,6.1-0.2l-0.2,0.1
              c0.4,0,0.7-0.3,1.1-0.1c0,0.1-0.2,0.1,0,0.2c0.2-0.1,1-0.3,1.5-0.2l-0.4,0.2c2,0.2,3-0.4,4.7-0.5c0,0.4,1.5,0.6,2.3,0.7l0,0.1
              c2.3,0.1,3.9-0.4,6-0.5c1.3,0.5,4.5,0.2,6.6,0.5c-0.3-0.1,0.1-0.3,0.4-0.4c0.5,0.1,1.4-0.3,1.3,0.1l-0.2,0
              c0.4,0.4,1.4,0.3,2.2,0.3l0.1-0.5c2.1,0.8,5.5-0.3,6.6,0.4c0.5-0.1,1.1-0.1,1.6-0.3l0,0.3c1.4,0.1,2.1,0.1,3.8,0l-0.4,0.2
              c0.5,0,0.8-0.2,1.1-0.4c0.3-0.2,0.5-0.4,1.2-0.4c0,0,0.5,0.4,0.6,0.4c0.5,0,1,0,1.6,0c0-1.1,0.1-2.2,0.1-3.2
              c0-0.7,0-1.4-0.2-2.1c0.1,0,0.2,0.1,0.2,0.4c0-0.8,0.3-3.1-0.3-2.8c0.4,0,0-1.8-0.1-2.7l0.3,0.1c-0.4-0.8-0.5-0.8-0.6-1.9
              c0-0.3,0.2-0.2,0.2,0.1c0.1-0.9-0.3-0.7-0.1-1.7l0.2,0.4c0-0.9-0.1-0.8-0.3-1.3c-0.1-0.6,0.1-1.7,0.3-1.8
              c-0.2-0.1-0.4-0.6-0.3-1.1c0.1-0.1,0.2,0.1,0.2,0.2c0.2-1.5-0.3-2.2-0.1-3.2c0.1,0,0.1-0.1,0.2-0.2c0,1.2,0,2.1,0,2
              c0.3,0,0.3-0.9,0.7-0.2c-0.2-0.8-0.6-2.1-0.5-3c0,0,0-0.1,0.1-0.1l0,0.1c0-0.2,0-0.4,0-0.6c0-0.3,0.1-0.5,0.1-0.8
              c0.2-0.1,0.1-1.1,0.1-1.6c-0.3,0-0.2-0.6-0.5,0c0-0.1,0,0.1,0,0.4c0,0.1,0,0.2,0,0.2l0,0c0,0.3,0,0.7,0,1.2
              c-0.1-0.4-0.3-0.8-0.1-1.3c-0.2-0.2-0.4-0.5-0.5-0.7c0.4-0.6,0.6-1.9,0.8-2.1c-0.2-1.4-0.1-3.4-0.6-4.3
              c-0.1-0.4,0.2-0.5,0.2-0.6c0.1,0.2,0,0.5,0.1,0.6c-0.1-0.8-0.1-2.4-0.4-2.6c0.2-1,0.3,0.6,0.3-0.8l0.1,0.2
              c0.6-2.8-0.9-4.5-0.2-7.6c0,0.2-0.1,0.3-0.1,0.4c0.3-3.5-0.3-7.3,0.2-10.7c0.1-1-0.1-1.1-0.3-1.7l0.3-0.2l-0.3-1
              c-0.3-1.5,0.7-2.5,0.3-4.4L198.1,8c0-0.7-0.1-2.1,0.1-2c0-0.1-0.2-0.2-0.1-0.6l0.2-0.1L198.1,4l-0.9,0.1
              c-0.7-0.1-0.7-0.2-0.6-0.4c0-0.1,0-0.1-0.2-0.2c-0.3-0.1-0.5-0.1-1-0.1c-0.7,0.1-2,0.5-1.7,0.6c0.3,0,0.7,0.1,0.7,0.3
              l-0.6,0.1c-0.1,0.5-0.6,0.9,0.9,1.3l1.1-0.3c0,0,0.1,0.1,0.2,0.1c0.1,0.1,0.1,0.1,0.1,0.1l-0.8,0c0.3,0.1,0.5,0.1,0.7,0.1
              l0.1,0c0,0,0,0,0,0c0,0,0.1-0.1,0.1-0.1c0,0.1,0,0.2,0,0.2c0.1-0.1,0.3-0.2,0.5-0.3c0,0,0.1,0,0.1,0c-0.2,0.2-0.4,0.2-0.5,0.4
              c0.1,0,0.2-0.1,0.3-0.2c0.1-0.1,0.2-0.2,0.2,0c-0.1,0.2-0.2,0.2-0.2,0.3c0,0,0,0,0,0.1c0,0,0,0,0,0.1c0,0.1,0,0.1,0.1,0.2
              c-0.1,0.1-0.2-0.1-0.2-0.2c0.1,0.4,0.1,1.4,0.3,1.6c-0.3,0.5,0.1,1.8-0.4,1.8c0.1,0.2,0.3,0.9,0.4,1.4c-0.5-0.9,0,1.8-0.6,1.6
              c0.5,0.7,0.2,2.4,0.5,3.6c0-0.1-0.1-0.2-0.1-0.3c0,0.7-0.2,0.9-0.3,1.3c0.4,0.1,0.5,1.1,0.7,1.7c-0.4,0.8-0.5-0.5-0.8-0.2
              c0.3,0,0.3,1.4,0.6,1.1c-0.2,0.6-0.1,0.5-0.4,0.9c0.5,0.1,0.1,0.6,0.4,1.1c-0.2,0.9-0.5,0.2-0.3,1.2
              C196.2,23.3,196,22.4,196,22.4z M196.9,46L196.9,46c0-0.2,0-0.4,0-0.5C196.9,45.6,196.9,45.7,196.9,46z M196.9,48
              c0-0.2,0-0.5,0-0.9c0.1-0.1,0.2,0,0.2,0.2C197,47.2,197,47.7,196.9,48z M198.8,43.8c0,0.3,0,0.4-0.1,0.5c0-0.1,0-0.3,0-0.5
              c0,0,0,0,0,0C198.7,43.7,198.8,43.7,198.8,43.8z"/>
            <path class="st0" d="M198.5,43.2c0,0,0-0.1,0-0.1C198.4,43.1,198.4,43.2,198.5,43.2c-0.1,0.1,0,0.1,0,0.2
              C198.5,43.3,198.5,43.3,198.5,43.2z"/>
            <path class="st0" d="M41.6,66.9L41.6,66.9C41.6,66.9,41.6,66.9,41.6,66.9C41.6,66.9,41.6,66.9,41.6,66.9z"/>
            <polygon class="st0" points="188.8,65.2 188.8,65.3 189,65.2             "/>
            <path class="st0" d="M30.7,65.9c0,0-0.1-0.1-0.1-0.1C30.6,65.9,30.6,65.9,30.7,65.9z"/>
            <path class="st0" d="M26,65.9l-0.7-0.1C25.6,65.8,25.8,65.9,26,65.9z"/>
            <path class="st0" d="M22.4,65.7c0,0-0.1,0.1-0.1,0.1l0,0L22.4,65.7z"/>
            <path class="st0" d="M79.9,65.4c0,0,0.1,0,0.1,0C80.4,65.3,80.2,65.4,79.9,65.4z"/>
            <path class="st0" d="M62.8,66.1c0.2-0.1,0.4-0.1,0.6-0.1C63,65.9,62.8,65.9,62.8,66.1z"/>
            <polygon class="st0" points="99,65.1 99,65.1 99.2,65.1            "/>
            <path class="st0" d="M64.1,65.9c-0.3-0.1-0.6,0-0.8,0C63.6,66,63.9,66,64.1,65.9z"/>
            <path class="st0" d="M6.7,65.6l-0.2,0c0,0,0,0,0,0L6.7,65.6z"/>
            <path class="st0" d="M6.5,65.6l-0.2,0C6.4,65.7,6.5,65.7,6.5,65.6z"/>
            <path class="st0" d="M6.1,65.7c0,0,0.2-0.1,0.3-0.1C6.2,65.7,6.2,65.7,6.1,65.7z"/>
            <path class="st0" d="M11.5,65.7l0.1-0.1C11.5,65.7,11.5,65.7,11.5,65.7z"/>
            <path class="st0" d="M13,65.7c-0.3,0-0.9-0.2-1.4-0.2l0,0.1C11.8,65.5,12.6,65.9,13,65.7z"/>
            <path class="st0" d="M19,67l-1.2-0.1c0.2,0.1,0.5,0.3-0.1,0.3C19.3,67.5,17.4,66.9,19,67z"/>
            <path class="st0" d="M22.8,67.1c-0.7,0.1,0,0.2,0,0.2C23.2,67.2,23.3,67.2,22.8,67.1z"/>
            <path class="st0" d="M50.1,67.1l-0.1,0.3C50.6,67.3,50.1,67.3,50.1,67.1z"/>
            <polygon class="st0" points="55.4,65.8 54.9,65.6 54.6,65.9            "/>
            <polygon class="st0" points="58.5,67.6 58.2,67.7 59.1,67.6            "/>
            <path class="st0" d="M104.4,67.5l-0.2-0.3C103.9,67.3,103.8,67.6,104.4,67.5z"/>
            <path class="st0" d="M124.2,67.2c0.2,0.2,0.8,0.3,1.1,0.1C124.8,67.3,124.4,67.2,124.2,67.2z"/>
            <polygon class="st0" points="183.6,67.7 183.2,67.8 183.9,67.7             "/>
          </g>
        </g>
      </g>
    </g>
  </g>
  <g>
    <g>
      <g>
        <g>
          <g>
            <path class="st0" d="M194,63.5c0.1,0.3,0.3,0.1,0.2-0.6l-0.3-0.5L194,63.5z"/>
            <path class="st0" d="M194.6,58.5c-0.2-0.9-0.4-1.9-0.7-1.3c0.3,0.9,0.2,1.1,0.6,2c0,0.7-0.1,1.3-0.2,1.2
              c0.1,0.3-0.1,1.1,0.1,1.5c0.3-1,0.3-2.2,0.1-3.5C194.4,58.2,194.5,58.4,194.6,58.5z"/>
            <path class="st0" d="M179.3,1l0.5,0C179.7,1,179.5,1,179.3,1z"/>
            <path class="st0" d="M134.5,0.8c0.3,0,0.5,0,0.5-0.1C134.7,0.8,134.4,0.8,134.5,0.8z"/>
            <path class="st0" d="M126.9,0.5c0.2,0,0.3,0,0.5,0C127.1,0.5,127,0.5,126.9,0.5z"/>
            <path class="st0" d="M179.3,1l-1.2-0.1C178,1,178.7,1,179.3,1z"/>
            <path class="st0" d="M193.8,48.5c0,0.3,0,0.5,0.1,0.7C193.8,49,193.8,48.8,193.8,48.5C193.8,48.6,193.8,48.6,193.8,48.5z"/>
            <path class="st0" d="M195.3,5.9l0,0.4c0,0.1,0.1,0.2,0.1,0.3L195.3,5.9z"/>
            <path class="st0" d="M195.4,21.1c0-0.3-0.3-0.5-0.4-0.6c0.1,0.2,0.2,0.4,0.2,0.7C195.3,21.3,195.3,21.2,195.4,21.1z"/>
            <path class="st0" d="M194.9,45.1l0,0.4C194.9,45.5,194.9,45.3,194.9,45.1z"/>
            <path class="st0" d="M188.2,0.7c0,0-0.1-0.1-0.1-0.1C188.1,0.6,188.1,0.7,188.2,0.7z"/>
            <path class="st0" d="M177,62.2C177,62.2,177,62.2,177,62.2C177.1,62.2,177.2,62.2,177,62.2z"/>
            <path class="st0" d="M194.6,63.6l-0.2,0c0,0.1-0.1,0.1-0.1,0.2L194.6,63.6z"/>
            <path class="st0" d="M112.9,0.1C112.9,0.1,112.9,0.1,112.9,0.1C113.3,0.1,113.1,0.1,112.9,0.1z"/>
            <path class="st0" d="M0.5,18.8c0.3-1.5,0.3,2.4,0.6,0.2C0.9,19.2,0.6,17,0.5,18.8z"/>
            <path class="st0" d="M193.8,48.1c0-0.2,0-0.4,0-0.6C193.8,47.8,193.8,48,193.8,48.1z"/>
            <path class="st0" d="M1.1,19L1.1,19l0-0.2C1.1,18.8,1.1,18.9,1.1,19z"/>
            <path class="st0" d="M80.6,0.3c0.1,0,0.2,0.1,0.3,0.1C80.9,0.4,80.8,0.3,80.6,0.3z"/>
            <path class="st0" d="M104.6,0.7l-0.6,0C104.3,0.7,104.5,0.7,104.6,0.7z"/>
            <path class="st0" d="M68.1,0.7c-0.3,0-0.4-0.1-0.9,0c0,0,0.1,0,0.1,0C67.5,0.7,67.7,0.6,68.1,0.7z"/>
            <path class="st0" d="M55.1,0.7c0.1,0,0.2,0,0.2,0.1c0.1,0,0.3,0,0.4,0L55.1,0.7z"/>
            <path class="st0" d="M137.6,62.3c0.3,0.1,0.5,0.2,0.6,0.3C138,62.4,139.9,62.3,137.6,62.3z"/>
            <path class="st0" d="M193.9,48.5c-0.1-0.1-0.1-0.2-0.1-0.4c0,0.1,0,0.3,0,0.4C193.9,48.6,193.9,48.6,193.9,48.5z"/>
            <path class="st0" d="M67.6,2.9l-2.1,0C66.1,2.9,66.8,2.9,67.6,2.9z"/>
            <path class="st0" d="M44.4,62.3l0.5,0C44.7,62.3,44.5,62.3,44.4,62.3z"/>
            <path class="st0" d="M59.4,2.9c-0.4-0.1-0.8-0.2-1.2-0.2c-0.1,0-0.2,0-0.2,0.1L59.4,2.9z"/>
            <path class="st0" d="M138.2,62.6L138.2,62.6L138.2,62.6z"/>
            <path class="st0" d="M151.8,61.9c-2,0-0.9,0.4-1.3,0.6c-2.3,0.1-1.1-0.3-1.9-0.5c-1.5,0.1-2.6,0.4-3.7,0.4
              c-0.1-0.1-0.3-0.1,0-0.2c-1.5,0.3-4.6,0-6.4,0.4c-0.1,0-0.2-0.1-0.2-0.1c0.3,0.2,0.3,0.4,0.3,0.5c-0.9,0-1.6,0.2-2,0
              c0.5,0,0.6-0.1,0.8-0.2l-0.9,0.1c-0.8-0.3,1.3-0.1,1.3-0.4c-1.8,0.1-3.9,0.4-5.3,0.3c-0.3-0.3,3.2-0.1,1.4-0.4l2.1,0.1
              c-1.6-0.5,1.3,0-0.2-0.5c-2.8-0.1-3.1,0.2-5.9,0.1c-0.6,0.2,0.2,0.3-0.4,0.5c-4,0.3-3.1-0.9-6.1-0.4c-0.8,0.2-1.1,0.7-3.1,0.4
              l0.7-0.4c-2.7,0-1.6,0.6-4.4,0.3c0.5-0.2,2.1-0.1,1.7-0.2c-1.8-0.3-1.3,0.2-2.7,0.2l-0.3-0.3c-2.9,0.1-6.1,0.3-9.3,0.4
              c0.2-0.1,0.7-0.2,0-0.3c-4,0.2-8.6,0-12.5-0.2l-1.5,0.3c-0.3,0-0.6-0.1-0.3-0.2c-1.5-0.1-0.1,0.2-0.8,0.3
              c-0.9,0-1.1-0.2-0.6-0.3c-2.7,0.2-7.6,0.5-10.5,0.2l0.6-0.1c-2.2-0.1-2.5,0.6-4.5,0.3l0.4-0.1c-4.8-0.1-10.1,0.1-13.7-0.3
              c-0.7,0.4-4.7-0.2-5,0.4c-2.7-0.3-1.9-0.4-5.8-0.6c-1,0-1.5,0.4-2.8,0.4l0-0.3L47,62.6l-0.9-0.4l-1.2,0.1c0.5,0,1,0.1,0.9,0.2
              c-1.9,0.1-4.5-0.2-4.6-0.4l-4.4,0.3c0.1-0.1,0.8-0.2,1.4-0.2c-2.3,0.3-0.4-0.3-2.6,0c0.3,0.1-0.2,0.2-0.2,0.2
              c-1.1-0.2-3.5-0.2-5.3-0.1l0.3-0.2c-3.3-0.1-6.9,0.1-10.5,0.1c1.3,0.1,1,0.5-0.1,0.5l-0.4-0.3c-0.7,0.2,1.1,0.1-0.3,0.4
              c-1.4,0-0.9-0.4-0.1-0.5l-1.7,0.1c-0.1-0.1,0.3-0.1,0.4-0.3c-0.7,0.2-2.9-0.3-3.9,0L13.8,62c-3.7,0-5.3,0.1-8.3,0.1
              c-0.1,0.3-1.2,0.2-2.1,0.4c-0.2,0-0.2,0-0.3,0l-0.2,0l-0.3,0c0-0.2,0-0.3,0.1-0.5l0-0.1l0-0.3c0-0.2,0-0.5,0-0.7
              c0-0.9,0.1-1.9,0.1-2.8c-0.1-1.9-0.2-0.5-0.4-1.4c0.3-0.1,0.2-2.8,0.4-1.4c0-3.2-0.1-4-0.3-8.1c-0.1,0.4-0.2,0.9-0.2,0.7
              c0-0.7,0.1-1.7,0.2-1.6l0,0.2c-0.4-4.5,0.7-10.4,0.2-14l0,0.2L2.5,29c0-1.7,0.2,1,0.4-0.2c-0.4-4,0.1-6.3-0.2-9.6
              C3.4,16.5,2.6,10,3.1,6.6L2.9,6.8C2.8,5.9,3,5.7,3.1,5.1C2.9,5.1,2.9,6,2.8,5.5c0-0.9,0-1.9-0.1-2.8c1.2,0,2.4,0,3.7,0.1
              c1.6,0,3.2,0.1,4.9,0.1C14.5,2.9,17.8,3,21,3.1c2.8,0,1.6-0.9,5.2-0.5l-1,0.3c5.7-0.4,11.7,0,17.3-0.3
              c-0.3,0.1-0.3,0.2-0.9,0.2c1.2,0.2,4.4,0,4.4-0.2c0.9,0,0.2,0.2,0.7,0.3c1.2,0.1,3-0.3,3.6-0.1c0.1,0-0.3,0.1-0.5,0.1
              c0.8-0.1,3.6,0,2.9-0.2c2.1,0.1,4-0.1,5.7,0c1.1-0.3,3.6,0.1,3.9-0.3c-0.2,0.5,3.7,0.4,5,0.2c-0.4,0.1,1.2,0.1,0.6,0.3
              c1.5,0,2.9-0.1,2.6-0.3c2.8,0.5,5.6-0.4,7.2,0.3c4.5-0.2,8.7-0.4,12.7-0.5c-0.1,0.5-4.5,0-4.3,0.5c3.8-0.2,6.1-0.6,9.9-0.5
              c1,0.1-0.6,0.2-0.9,0.3c3.8-0.2,7.4,0,10.8-0.2c0,0-0.4,0.1-0.7,0.1c0.7,0,1.6,0.1,1.5-0.1l-0.7,0.1c-1.1-0.3,2.7-0.6,2.8-0.8
              c-1.1,0.6,3.4,0.1,1.6,0.9c0.4,0,1-0.1,0.9-0.3c0.7,0,0.9,0.1,0.2,0.3c2.4-0.1,1.6-0.3,3.7-0.3c0,0.1-0.4,0.1-0.7,0.3
              c1.1-0.2,2.2-0.4,4.1-0.3c-0.1,0.1,0.1,0.1-0.4,0.1c3.2,0,5.4-0.5,8.9-0.3c-1,0.4,1.2,0.1,1.4,0.5l1.9-0.1l-0.8-0.2
              c1.6,0,3.1-0.3,4.5-0.1l-1.2,0.2l3.1-0.1L134,2.1c1.7-0.2-0.2-0.5,2-0.4c-0.4,0,1.6,0,2.5,0.2l0,0c0.8-0.1,1.6-0.2,2.9-0.2
              c0.3,0.1-0.3,0.4,0,0.5c0.8-0.3,3.8-0.1,4.8-0.4c-0.3,0.1-0.4,0.3-0.2,0.3l0.7-0.3c0.8,0.1,0.9,0.1,0.7,0.3
              c2.3,0-0.7-0.5,2-0.3c-0.2,0-0.1,0.1-0.6,0.1c2.7,0.1,5.3-0.2,7.8,0c0.7,0.4-2.2,0.1-1.3,0.4c3.6-0.1,7.5-0.5,10.9-0.4l-0.6,0
              c0.5-0.5,2.6,0.3,4.4,0c-0.4,0-0.6,0.3-0.4,0.2c2.4,0.1,4.9-0.1,8.5-0.3l-0.4,0.1c1.4,0.1,3.7,0.1,5.2,0.1
              c0.5-0.1,1.3-0.1,0.8-0.3c2,0.3,3.9,0.3,5.7,0.2c0.9,0,1.8-0.1,2.7-0.1c0.4,0,0.9,0,1.3,0c0.3,0,0.7,0,1,0
              c0,0.3,0,0.5-0.1,0.7L194,3.4c0-0.1,0-0.3,0-0.4c0-0.1,0-0.1,0-0.2c0-0.1-0.1-0.1-0.1,0c0,0,0,0.1,0,0.3c0,0.3,0,0.8,0,1.2
              c0,0.9,0.1,1.8,0.1,1.8c0.2-0.3,0.1-0.5,0.3-1.2c0.1,0.4,0.2,1.4,0.2,2.3c-0.2-1.6-0.4,0-0.5,0.7c0.1-0.1,0.1,0.1,0.2,0.1
              c-0.4,1.9,0.5,0.3,0.2,2.8l-0.1-0.1c0.1,0.9,0.2,1.8,0.2,2.8c-0.3,0.4-0.1-1-0.3-1.1c0,1.4,0.5,2.8,0.2,4.1
              c-0.1-0.6-0.1-1.5-0.1-2.1c-0.3,1.4-0.2,1.6-0.3,2.6l0-0.1l-0.1,2.4l0.1-0.6c0.7,1.8,0.1,3.6,0.6,6.1
              c-0.4-2.3-0.2-0.4-0.6-0.6c-0.1,0.6-0.2,1.6-0.3,1.3c0.2,1.1-0.2,1.9,0.2,3.5c-0.1,0.1,0,1.2-0.3,1c0.1,1.5,0.2-0.4,0.3-0.2
              c0.3,2.3-0.4,5.4,0.1,8.7c0.2,2.8,0.5,3.4,0.7,6c-0.2,0.9-0.4-0.7-0.4-0.7c-0.1,1.4-0.1,2.5,0,3.9c-0.1-0.3-0.2,0-0.3,0.4
              c0,1.1,0.4,0.7,0.2,2.2c-0.1-0.2-0.3-0.6-0.4-1.1c0.1,1.3,0.3,2.5,0.4,3.9c-0.2,0.4-0.3-0.8-0.4-1.3c0.1,1.5,0.2,3.8,0.4,4.3
              l0.1-1c0,0.5-0.2,0.3-0.3-0.1c-0.2-1.3,0.1-1.8,0.2-1.9l0.1,0.9c0.6-1-0.1-3.8-0.1-5.7l0.4,0.8l-0.3-1.9
              c0.1-0.4,0.3-0.7,0.4,0.2c0.2-1.4-0.1-1.2,0.1-2.4c0-0.1,0.1-0.1,0.1,0l-0.1-1.3c0.1,0.3,0.3-0.2,0.2,0.6
              c0.2-2.4-0.3-3.8,0-4.7l0,0.2c-0.1-3.3-0.3-0.3-0.7-2.8l0.8-1.7l-0.3-0.3c0-0.3,0-1,0.2-0.9c-0.2-1.3-0.1,0.2-0.3-0.5
              c0.3-1.6-0.1-4.5,0.4-4.9c-0.2-0.6-0.2,1.6-0.3-0.2c0.5-0.5-0.1-2,0.2-3.5c0.3,0.5,0.1,1.9,0.4,0.4c-0.5-0.9,0.1-2.9,0-4.2
              c-0.4-0.1-0.2-2.8-0.3-4.9c0.1,0.1,0.2-4,0.3-6l0.1,0.1c-0.4-0.4-0.3-2.4-0.4-3.9c0.2,0.1,0.3,0.3,0.4,1.1l0-1.4
              c-0.1-0.3-0.2-0.8-0.2-1.7l0.3,0.4c0-0.6,0-1.1-0.1-1.7c0-0.8-0.1-1.6-0.1-2.4c-0.6,0-1.2,0-1.7,0c-0.3,0-0.5,0-0.8,0
              c-0.2,0-0.5,0-0.7,0c-0.1,0.3,1.9,0.7-0.6,0.9c-0.1-0.1-0.2-0.4,0.5-0.4c-0.2,0-0.8,0.1-1.2,0.1l1-0.2
              c-1.1-0.1-0.6,0.2-1.4,0.2c0-0.2-0.6-0.1-0.5-0.3c0.2,0,0.8,0.1,1.1,0c-1,0-2.2-0.2-2.6-0.3c0.1,0.1,0,0.3-0.7,0.3
              c-1.9,0-0.6-0.2-1.7-0.3c-0.4,0.1-1.6,0-1.7,0.3c-0.5,0-0.6-0.1-0.9-0.2c-1,0.1-4.5,0-3.4,0.4l0.2,0c0,0-0.1,0-0.2,0
              c0,0,0,0,0,0h0c-3.1,0.3-6.5-0.2-9.7,0l0-0.1c-1.9,0.1-4.1,0.1-5.5,0.3c-0.6,0-1.3-0.2-1.1-0.3c-1.4,0.1-1.6,0.2-3.6,0
              c1.4-0.2-0.5-0.2,1.5-0.1c-1.9-0.1-2.3-0.2-4.3,0c0.7-0.3-1.4-0.3-2.3-0.2l1.3,0.2c-1,0-1.9,0-2.7,0l0.5-0.3
              c-3.8-0.4-6.8,0.7-9.7,0c-1,0.2,2.1,0.2,1.2,0.4c-1.7,0-3.6-0.5-4.1-0.5c-2.4-0.2-2.2,0.5-4.7,0.4c0.3,0.1,0.6,0.4-1.2,0.5
              c-1.7,0-2.1-0.5-1-0.6c0.4,0,0.6,0,0.6,0.1c0.6,0,1.3-0.1,0.6-0.2l-0.2,0.1c-0.9-0.1-3.3-0.1-2.7-0.3
              c-1.3,0.1-0.6,0.2,0.4,0.3c-2.2-0.2-3.5,0-5.8-0.1c0.4,0.1,0.7,0.2,0.3,0.2c-3.4-0.1-1.5,0.2-3.8,0.3
              c-1.3-0.2,0.5-0.4-1.8-0.3c-1.4-0.1-0.3-0.3,0.3-0.4c-2.1,0.2-3.9-0.2-5.1-0.2l1.1-0.1c-0.7,0.1-1.2,0.1-1.8,0.1l0.6,0.2
              c-0.6,0-1.2,0-1.2-0.1c-0.7,0.2,0.5,0.4-0.8,0.6c-0.9-0.1-2.6,0.1-2.9-0.2c2.7,0.1-0.3-0.3,2-0.4c-0.4,0-1,0-1.6,0
              c-0.1,0,0.1-0.1,0.3-0.1c-2.6-0.3-1.2,0.4-3.9,0.3c0.3-0.2-0.6-0.3-1.1-0.3c1.1,0,0.5,0.3-0.5,0.4c-1.7-0.1-1.9,0.1-2.8,0.1
              l1,0.1c-0.4,0.2-1.2,0.2-2.4,0.2c-0.1-0.1,1.1-0.1,0.7-0.2c-1.3,0.3-3-0.3-4.9-0.1c-0.9-0.1-0.1-0.3-0.8-0.4
              c-2.1,0.2-2.3-0.2-4.5-0.1c0.6,0.2,0.7,0.2-0.8,0.4l3.6-0.2l-2.3,0.3c1.1,0,2.3-0.1,3-0.1c-1.1,0.2-1,0.1-0.5,0.3
              c-1.5-0.4-3,0.2-4.7,0L92,0.4c-2.6-0.3-4.6,0.3-8,0.2l1.1,0.1c-0.5,0.2-2.1,0-3.2,0.1c0.1-0.2-0.6-0.3-1-0.4
              c0.1,0.1-2.5,0-2.8,0.4l-1.5-0.3c-2.7-0.1-3.1,0.6-5.7,0.5c0.8-0.2-0.4-0.4,1.4-0.5c-0.9,0-1.7,0-1.7,0.1
              c-0.5-0.1-2.4,0.3-3.2,0.1C67,0.8,66.9,1,65.9,1c-0.1,0,0-0.1,0-0.1c0,0.1-1.5,0.1-0.7,0.4c-2.7-0.6-7.5,0-9.9-0.5
              c-1.9,0.1-4.2,0.1-5.9,0.1c0.1-0.1,0-0.1,0.3-0.1c-2.4-0.2-1.5,0.6-4.2,0.4C44.2,0.8,47,1,46.2,0.9C45.8,0.2,42.9,1,41,0.6
              l0.4,0c-1.4-0.2-3.4,0.2-5.7,0.2c0,0,0.1-0.1,0-0.1c-1.6,0.3-4.5,0.4-6.7,0.5c0.7-0.3,1-0.1,0.6-0.4c-1,0,0.3,0.4-1.7,0.5
              c-0.6-0.1-2.1-0.3-2.2-0.5l1.9,0c-0.9-0.4-2.4,0-3.4,0l0.1-0.2c-2.8,0.1-2.9,0.4-5.9,0.4l0.3,0.1c-1.7,0.4-1.4-0.2-3.1,0.1
              l-0.5-0.4c-1.1,0.1-3.9,0.4-5.8,0.5c1.1-0.3,3.4-0.4,4.9-0.6c-1.1,0-3.7,0-4.3,0.2c0.4,0,1-0.1,1.4-0.1C10,1,8.2,1.2,6.1,1.2
              c0.1-0.3-0.4-0.4-1.3-0.4c-0.4,0-0.9,0-1.5,0c-0.8,0-1.6,0-2.5,0c0,0.9,0,1.7-0.1,2.4c0,0.5-0.1,0.9-0.2,1.2
              c0.3,3.8-0.1,7.6-0.1,12.1c0.6-1.6,0,1.3,0.6,1c0,1,0,1.4,0,1.5l-0.4,3.2c-0.2,0.8-0.1-1-0.3-0.9c0,2.3-0.3,1-0.4,2.5
              c0.2-0.3,0.3,0.8,0.2,2.1L0.5,24c0.3,3.2-0.5,2.8-0.2,6l-0.2-1c0.1,1.7,0,6.1,0.5,7.7c-0.1,0.3-0.2,0.7-0.3,0
              c-0.1,3.9,0.5,8.8,0.2,11.9l-0.1-0.3c0,0.7,0.3,1.3,0.1,2.2c-0.1,0-0.1-0.3-0.2,0c0.1,0.4,0.3,2,0.2,2.9l-0.2-0.8
              c-0.2,3.9,0.4,5.9,0.5,9.1c-0.1,0-0.2,0.1-0.3,0.7c-0.1,0.6-0.1,1.4-0.2,2.3c1.3,0.1,2.9,0.1,3.9,0.2l-0.1,0.1
              c4.5,0.1,7.6-0.4,11.8-0.5c2.6,0.5,8.7,0.2,12.9,0.5c-0.6-0.1,0.1-0.3,0.8-0.4c1,0.1,2.7-0.3,2.5,0.1l-0.3,0
              c0.7,0.4,2.7,0.3,4.3,0.3l0.3-0.5c4.1,0.8,10.7-0.3,12.9,0.4c1-0.1,2.2-0.1,3.2-0.3l-0.1,0.3c2.7,0.1,4.1,0.1,7.5,0L59.3,65
              c1.9,0,2.4-0.8,4.2-0.8l0.5,0.4c3.3,0,6.7,0.4,10,0c-0.1,0.1-0.2,0.2-0.7,0.2c1.6,0,6,0.3,5.5-0.3c0,0.4,3.4,0,5.2-0.1
              l-0.3,0.3c1.5-0.4,1.6-0.5,3.7-0.6c0.5,0,0.4,0.2-0.2,0.2c1.7,0.1,1.3-0.3,3.3-0.1l-0.8,0.2c1.7,0,1.6-0.1,2.5-0.3
              c1.1-0.1,3.3,0.1,3.5,0.3c0.2-0.2,1.2-0.4,2.2-0.3c0.1,0.1-0.2,0.2-0.4,0.2c2.9,0.2,4.3-0.3,6.2-0.1c0,0.1,0.2,0.1,0.3,0.2
              c-2.3,0-4.1,0-3.9,0c0,0.3,1.8,0.3,0.4,0.7c1.5-0.2,4-0.6,5.8-0.5c0.1,0,0.2,0,0.2,0.1l-0.2,0c0.4,0,0.8,0,1.1,0
              c0.6,0,0.9,0.1,1.5,0.1c0.2,0.2,2.1,0.1,3,0.1c-0.1-0.3,1.1-0.2,0-0.5c0.1,0-0.2,0-0.8,0c-0.1,0-0.3,0-0.4,0c0,0,0,0,0.1,0
              c-0.6,0-1.4,0-2.3,0c0.7-0.1,1.5-0.3,2.5-0.1c0.5-0.2,1-0.4,1.3-0.5c1.3,0.4,3.7,0.6,4,0.8c2.8-0.2,6.6-0.1,8.4-0.6
              c0.8-0.1,0.9,0.2,1.2,0.2c-0.5,0.1-1,0-1.3,0.1c1.6-0.1,4.7-0.1,5.1-0.4c2,0.2-1.1,0.3,1.6,0.3l-0.4,0.1
              c5.4,0.6,8.8-0.9,14.9-0.2c-0.4,0-0.6-0.1-0.7-0.1c6.9,0.3,14.1-0.3,20.9,0.2c1.9,0.1,2.1-0.1,3.3-0.3l0.4,0.3l2-0.3
              c2.8-0.3,4.9,0.7,8.5,0.3l-0.5-0.2c1.3,0,4.1-0.1,3.9,0.1c0.1,0,0.4-0.2,0.9-0.1l0,0.2l3.2-0.3c2.5,0.1-0.4,0.6,3.2,0.7
              c1.3-0.1,3.8-0.5,3.3-0.6c-0.5,0-1.4-0.1-1.4-0.3l1.2-0.1c0.2-0.5,1.2-0.9-1.8-1.3l-2.1,0.3l-0.7-0.2l1.8,0
              c-1-0.2-1.6,0-2.3,0.1c-0.2-0.1-0.5-0.2-0.9-0.2l-2.1,0.4c-0.2-0.2,0.9-0.4-0.5-0.5c-1,0.2,0.9,0.4-0.7,0.5
              c-1-0.2-0.7-0.4-1.9-0.2c-0.2-0.1,0.1-0.2,0.5-0.2c-1,0.1-2.8,0.1-3.3,0.3c-1-0.3-3.5,0.1-3.4-0.4c-0.3,0.1-1.8,0.3-2.8,0.4
              c1.8-0.5-3.6,0-3.1-0.6c-1.3,0.5-4.7,0.2-7,0.5c0.1,0,0.4-0.1,0.6-0.1c-1.3,0-1.7-0.2-2.5-0.3c-0.2,0.4-2.2,0.5-3.3,0.7
              c-1.6-0.4,1-0.5,0.5-0.8c0.1,0.3-2.8,0.3-2.2,0.6c-1.2-0.2-1-0.1-1.7-0.4c-0.2,0.5-1.1,0.1-2.1,0.4c-1.8-0.2-0.5-0.5-2.4-0.3
              C150,62.1,151.8,61.9,151.8,61.9z M105.8,62.7L105.8,62.7c0.4,0,0.7,0,0.9,0C106.6,62.7,106.3,62.7,105.8,62.7z M102,62.7
              c0.5,0,1.1,0,1.7,0c0.1,0.1,0,0.2-0.4,0.2C103.5,62.9,102.6,62.8,102,62.7z M110.1,64.7c-0.6,0-0.8,0-0.9-0.1
              c0.3,0,0.6,0,1.1,0c0,0,0.1,0,0.1,0C110.3,64.6,110.3,64.7,110.1,64.7z"/>
            <path class="st0" d="M111.2,64.3c0.1,0,0.1,0,0.3,0c-0.1,0-0.2,0-0.4-0.1c-0.1,0-0.1,0.1-0.2,0.1
              C111,64.3,111.1,64.3,111.2,64.3z"/>
            <path class="st0" d="M179.9,1.1L179.9,1.1C179.8,1.1,179.9,1.1,179.9,1.1C179.9,1.1,179.9,1.1,179.9,1.1z"/>
            <polygon class="st0" points="48.7,62.2 48.7,62.3 49,62.2            "/>
            <path class="st0" d="M194.1,8c0,0-0.1,0.1-0.1,0.3C194,8.3,194,8.1,194.1,8z"/>
            <path class="st0" d="M194,17.2l-0.1,1.3C194,17.9,194,17.5,194,17.2z"/>
            <path class="st0" d="M193.9,24.2c0,0.1,0.1,0.1,0.1,0.1c0,0,0,0,0,0L193.9,24.2z"/>
            <path class="st0" d="M105.1,2.6c-0.1,0-0.2,0-0.3,0C104.2,2.6,104.6,2.6,105.1,2.6z"/>
            <path class="st0" d="M138.5,1.9C138.2,2,137.8,2,137.4,2C138,2.1,138.5,2.1,138.5,1.9z"/>
            <path class="st0" d="M67.8,2.9L67.8,2.9c-0.1,0-0.1,0-0.2,0L67.8,2.9z"/>
            <path class="st0" d="M135.9,2c0.6,0.1,1.1,0,1.6,0C137,2,136.4,2,135.9,2z"/>
            <path class="st0" d="M193.7,54.8l0,0.3c0,0,0,0,0,0L193.7,54.8z"/>
            <path class="st0" d="M193.8,55.2l0,0.4C193.8,55.4,193.8,55.3,193.8,55.2z"/>
            <path class="st0" d="M193.9,56.4l-0.1-0.8C193.8,55.9,193.8,56.2,193.9,56.4z"/>
            <path class="st0" d="M193.9,45.5l-0.1-0.1C193.8,45.4,193.8,45.5,193.9,45.5z"/>
            <path class="st0" d="M193.8,42.6c0,0.7-0.2,1.7-0.2,2.6l0.1,0.1C193.6,44.9,194,43.3,193.8,42.6z"/>
            <path class="st0" d="M195.1,30.8l-0.1,2.4c0.1-0.4,0.3-1,0.3,0.1C195.6,30.3,195.1,33.9,195.1,30.8z"/>
            <path class="st0" d="M195.3,23.4c0.1,1.3,0.2,0,0.2,0.1C195.4,22.7,195.4,22.5,195.3,23.4z"/>
            <path class="st0" d="M163.2,0.8l0.1-0.3C162.4,0.6,163.3,0.7,163.2,0.8z"/>
            <polygon class="st0" points="153,2.2 154,2.3 154.4,2.1            "/>
            <polygon class="st0" points="147,0.3 147.4,0.3 145.8,0.4            "/>
            <path class="st0" d="M57.4,0.4l0.3,0.3C58.4,0.7,58.5,0.3,57.4,0.4z"/>
            <path class="st0" d="M18.8,0.8c-0.4-0.2-1.5-0.3-2.2-0.1C17.5,0.7,18.3,0.8,18.8,0.8z"/>
            <polygon class="st0" points="38.4,64.7 37.7,64.8 39.1,64.7            "/>
          </g>
        </g>
      </g>
    </g>
  </g>
</g>
</svg>
