<!-- Generator: Adobe Illustrator 19.2.0, SVG Export Plug-In  -->
<svg version="1.1"
	 xmlns="http://www.w3.org/2000/svg" xmlns:xlink="http://www.w3.org/1999/xlink" xmlns:a="http://ns.adobe.com/AdobeSVGViewerExtensions/3.0/"
	 x="0px" y="0px" width="274.3px" height="92.7px" viewBox="0 0 274.3 92.7" style="enable-background:new 0 0 274.3 92.7;"
	 xml:space="preserve">
<style type="text/css">
	.st0{fill:#203679;}
</style>
<defs>
</defs>
<g>
	<g>
		<g>
			<g>
				<g>
					<path class="st0" d="M269.1,2c-0.1,0.1,0.1,0.3,0.4,0.1l0.1-0.4L269.1,2z"/>
					<path class="st0" d="M271.7,1.5c0.1-0.1,0.1-0.1,0.2-0.2l0.1,0.3c-0.4,0.2-0.7,0.4-0.4,0.6c0.2-0.1,0.3-0.2,0.4-0.2L271.7,1
						c-0.1,0.1-0.3,0.2-0.4,0.5c-0.3,0.2-0.7,0.2-0.7,0c-0.1,0.1-0.6,0.2-0.7,0.5c0.6,0,1.2-0.2,1.7-0.7
						C271.8,1.3,271.7,1.5,271.7,1.5z"/>
					<path class="st0" d="M234.2,1.1l0.2,0C234.4,1.1,234.3,1.1,234.2,1.1z"/>
					<path class="st0" d="M210.7,0.9c0.2,0,0.3,0,0.3-0.1C210.8,0.8,210.7,0.9,210.7,0.9z"/>
					<path class="st0" d="M206.7,0.5c0.1,0,0.2,0,0.2,0C206.9,0.5,206.8,0.5,206.7,0.5z"/>
					<path class="st0" d="M234.2,1.1L233.6,1C233.6,1.1,233.9,1,234.2,1.1z"/>
					<path class="st0" d="M267,2.3c0.1,0,0.2,0,0.3-0.1L267,2.3C267,2.3,267,2.3,267,2.3z"/>
					<path class="st0" d="M244.6,0.8l0.2,0c0.1,0,0.1-0.1,0.2-0.1L244.6,0.8z"/>
					<path class="st0" d="M252.6,0.7c-0.2,0-0.2,0.3-0.3,0.4c0.1-0.1,0.2-0.2,0.4-0.2C252.7,0.9,252.6,0.8,252.6,0.7z"/>
					<path class="st0" d="M265.2,1.2l0.2,0C265.4,1.2,265.3,1.2,265.2,1.2z"/>
					<path class="st0" d="M238.9,0.7c0,0,0-0.1-0.1-0.1C238.8,0.7,238.9,0.7,238.9,0.7z"/>
					<path class="st0" d="M16.4,3C16.4,3,16.4,3,16.4,3C16.3,3,16.3,3,16.4,3z"/>
					<path class="st0" d="M7.1,1.7l0.1,0c0-0.1,0-0.1,0-0.2L7.1,1.7z"/>
					<path class="st0" d="M199.4,0.2C199.4,0.2,199.4,0.2,199.4,0.2C199.6,0.2,199.5,0.2,199.4,0.2z"/>
					<path class="st0" d="M131.9,0.5c0.8,0.3-1.2,0.3-0.1,0.6C131.7,0.9,132.8,0.6,131.9,0.5z"/>
					<path class="st0" d="M266.8,2.3l-0.3,0C266.6,2.3,266.7,2.3,266.8,2.3z"/>
					<path class="st0" d="M131.8,1.1L131.8,1.1l0.1,0C131.9,1.1,131.8,1.1,131.8,1.1z"/>
					<path class="st0" d="M182.4,0.4c0,0,0.1,0.1,0.2,0.1C182.6,0.5,182.6,0.4,182.4,0.4z"/>
					<path class="st0" d="M195,0.8l-0.3,0C194.9,0.7,195,0.8,195,0.8z"/>
					<path class="st0" d="M175.9,0.8c-0.2,0-0.2-0.1-0.5,0c0,0,0,0,0.1,0C175.6,0.7,175.7,0.7,175.9,0.8z"/>
					<path class="st0" d="M169.1,0.8c0,0,0.1,0,0.1,0.1c0.1,0,0.1,0,0.2,0L169.1,0.8z"/>
					<path class="st0" d="M37.1,2.9c-0.1-0.1-0.2-0.2-0.3-0.3C36.9,2.8,35.9,2.9,37.1,2.9z"/>
					<path class="st0" d="M267,2.2c0,0.1-0.1,0.1-0.2,0.1c0.1,0,0.2,0,0.2,0C267,2.2,267,2.2,267,2.2z"/>
					<path class="st0" d="M175.6,3l-1.1,0C174.8,3,175.2,3,175.6,3z"/>
					<path class="st0" d="M86,2.8l-0.2,0C85.8,2.8,85.9,2.8,86,2.8z"/>
					<path class="st0" d="M171.3,3c-0.2-0.1-0.4-0.2-0.6-0.2c0,0-0.1,0-0.1,0.1L171.3,3z"/>
					<path class="st0" d="M36.8,2.6L36.8,2.6L36.8,2.6z"/>
					<path class="st0" d="M29.6,3.3c1,0,0.5-0.4,0.7-0.6c1.2-0.1,0.6,0.3,1,0.5c0.8-0.1,1.4-0.4,1.9-0.4c0,0.1,0.2,0.1,0,0.2
						c0.8-0.3,2.4,0,3.4-0.4c0.1,0,0.1,0.1,0.1,0.1c-0.2-0.2-0.2-0.4-0.1-0.5c0.5,0,0.9-0.2,1,0c-0.3,0-0.3,0.1-0.4,0.2l0.5-0.1
						C38.1,2.5,37,2.3,37,2.6c0.9-0.1,2-0.4,2.8-0.3c0.2,0.3-1.7,0.1-0.7,0.4L38,2.6c0.9,0.5-0.7,0,0.1,0.5c1.5,0.1,1.6-0.2,3.1-0.1
						c0.3-0.2-0.1-0.3,0.2-0.5c2.1-0.3,1.6,0.9,3.2,0.4c0.4-0.2,0.6-0.7,1.6-0.4l-0.4,0.4c1.4,0,0.8-0.6,2.3-0.3
						c-0.3,0.2-1.1,0.1-0.9,0.2c1,0.3,0.7-0.2,1.4-0.2l0.2,0.3c1.5-0.1,3.2-0.3,4.9-0.4c-0.1,0.1-0.4,0.2,0,0.3
						c2.1-0.2,4.5,0,6.6,0.2l0.8-0.3c0.2,0,0.3,0.1,0.1,0.2c0.8,0.1,0-0.2,0.4-0.3c0.5,0,0.6,0.2,0.3,0.3c1.4-0.3,4-0.5,5.5-0.2
						l-0.3,0.1c1.2,0.1,1.3-0.6,2.4-0.3l-0.2,0.1c2.5,0.1,5.3-0.1,7.2,0.3C76.9,2.4,79,3,79.2,2.4c1.4,0.3,1,0.4,3,0.6
						c0.5,0,0.8-0.4,1.5-0.4l0,0.3l0.9-0.3l0.5,0.4l0.6-0.1c-0.2,0-0.5-0.1-0.5-0.2c1-0.1,2.4,0.2,2.4,0.4L90,2.7
						c-0.1,0.1-0.4,0.2-0.7,0.2c1.2-0.3,0.2,0.3,1.4,0c-0.2-0.1,0.1-0.2,0.1-0.2c0.6,0.2,1.8,0.2,2.8,0.1l-0.2,0.2
						C95,3.1,96.9,3,98.8,3c-0.7-0.1-0.5-0.5,0-0.5l0.2,0.3c0.4-0.2-0.6-0.1,0.2-0.4c0.7,0,0.5,0.4,0.1,0.5l0.9-0.1
						c0.1,0.1-0.2,0.1-0.2,0.3c0.4-0.2,1.5,0.3,2,0l0,0.1c1.9,0,2.8-0.1,4.4-0.1c0-0.3,0.6-0.2,1.1-0.4c1.2,0.1,2.4,0.3,3.8,0.3
						c1-0.1,0.3-0.2,0.7-0.4c0.1,0.3,1.5,0.2,0.7,0.4c1.7,0,2.1-0.1,4.2-0.3c-0.2-0.1-0.5-0.1-0.4-0.2c0.4,0,0.9,0.1,0.8,0.2l-0.1,0
						c2.4-0.4,5.5,0.7,7.3,0.2l-0.1,0l1.9-0.3c0.9,0-0.5,0.2,0.1,0.4c2.1-0.4,3.3,0.1,5.1-0.2c1.3,0.8,4.8-0.1,6.6,0.4l-0.1-0.2
						c0.5-0.2,0.6,0.1,0.9,0.1c0-0.1-0.5-0.2-0.2-0.3c4-0.2,8.2,0.3,12.2,0.4c1.5,0,0.8-0.9,2.7-0.5L153.3,3c3-0.4,6.1,0,9.1-0.3
						c-0.2,0.1-0.2,0.2-0.5,0.2c0.6,0.2,2.3,0,2.3-0.2c0.5,0,0.1,0.2,0.4,0.3c0.6,0.1,1.6-0.3,1.9-0.1c0.1,0-0.2,0.1-0.3,0.1
						c0.4-0.1,1.9,0,1.5-0.2c1.1,0.1,2.1-0.1,3,0c0.6-0.3,1.9,0.1,2.1-0.3c-0.1,0.5,1.9,0.4,2.6,0.1c-0.2,0.1,0.6,0.1,0.3,0.3
						c0.8,0,1.5-0.1,1.4-0.3c1.5,0.5,2.9-0.4,3.8,0.3c2.4-0.2,4.5-0.4,6.7-0.5c-0.1,0.5-2.3,0-2.3,0.5c2-0.2,3.2-0.6,5.2-0.5
						c0.5,0.1-0.3,0.2-0.5,0.3c2-0.2,3.9,0,5.7-0.2c0,0-0.2,0.1-0.4,0.1c0.4,0,0.8,0.1,0.8-0.1l-0.3,0.1c-0.6-0.3,1.4-0.6,1.5-0.8
						c-0.6,0.6,1.8,0.1,0.8,0.9c0.2,0,0.5-0.1,0.5-0.3c0.3,0,0.5,0.1,0.1,0.3c1.3-0.1,0.8-0.3,2-0.3c0,0.1-0.2,0.1-0.4,0.3
						c0.6-0.2,1.2-0.4,2.1-0.3c-0.1,0.1,0.1,0.1-0.2,0.1c1.7,0,2.8-0.5,4.7-0.3c-0.5,0.4,0.6,0.1,0.7,0.5l1-0.1l-0.4-0.2
						c0.9,0,1.6-0.3,2.4-0.1l-0.6,0.2l1.6-0.1l-0.9-0.1c0.9-0.2-0.1-0.5,1.1-0.4c-0.2,0,0.9,0,1.3,0.2l0,0c0.4-0.1,0.9-0.2,1.5-0.2
						c0.2,0.1-0.1,0.4,0,0.5c0.4-0.3,2-0.1,2.5-0.4c-0.2,0.1-0.2,0.3-0.1,0.3l0.4-0.3c0.4,0.1,0.5,0.1,0.4,0.3c1.2,0-0.4-0.5,1-0.3
						c-0.1,0-0.1,0.1-0.3,0.1c1.4,0.1,2.8-0.2,4.1,0c0.4,0.4-1.1,0.1-0.7,0.4c1.9-0.1,3.9-0.5,5.7-0.4L227,2c0.3-0.5,1.4,0.3,2.3,0
						c-0.2,0-0.3,0.3-0.2,0.2c1.3,0.1,2.6-0.1,4.5-0.3l-0.2,0.1c0.7,0.1,1.9,0.1,2.7,0.1c0.2-0.1,0.7-0.1,0.4-0.3
						c2.5,0.8,4.7-0.4,6.9,0.2c-0.3,0-0.6,0.1-0.4,0.1l1.9-0.1c-0.1-0.2-0.2-0.1-0.6-0.3c0.2-0.1,0.8-0.2,1.2-0.2
						c-0.8,0.2,0,0.4,0.4,0.5c-0.1-0.1,0.1-0.1,0-0.2c1,0.4,0.2-0.5,1.5-0.2l-0.1,0.1c0.5-0.1,1-0.2,1.5-0.2
						c0.2,0.3-0.5,0.1-0.6,0.3c0.8,0,1.5-0.5,2.2-0.2c-0.3,0.1-0.8,0.1-1.1,0.2c0.7,0.3,0.8,0.2,1.4,0.3l-0.1,0l1.3,0.1l-0.3-0.1
						c0.9-0.7,1.9-0.1,3.2-0.6c-1.2,0.4-0.2,0.3-0.3,0.6c0.3,0.1,0.8,0.2,0.7,0.3c0.6-0.2,1,0.2,1.8-0.2c0,0.1,0.6,0,0.5,0.3
						c0.8-0.1-0.2-0.2-0.1-0.3c1.2-0.3,2.8,0.4,4.5-0.1c1.5-0.2,1.8-0.5,3.1-0.7c0.5,0.2-0.4,0.4-0.4,0.4c0.8,0.1,1.3,0.1,2,0
						c-0.1,0.1,0,0.2,0.2,0.3c0.6,0,0.4-0.4,1.1-0.2c-0.1,0.1-0.3,0.3-0.6,0.4c0.7-0.1,1.3-0.3,2-0.4c0.2,0.2-0.4,0.3-0.7,0.4
						c0.8-0.1,2-0.2,2.3-0.4l-0.5-0.1c0.3,0,0.1,0.2-0.1,0.3c-0.7,0.2-1-0.1-1-0.2l0.5-0.1c-0.5-0.6-2,0.1-3,0.1l0.4-0.4l-1,0.3
						c-0.2-0.1-0.4-0.3,0.1-0.4c-0.7-0.2-0.6,0.1-1.2-0.1c-0.1,0,0-0.1,0-0.1l-0.7,0.1c0.1-0.1-0.1-0.3,0.3-0.2
						c-1.3-0.2-2,0.3-2.5,0l0.1,0c-1.7,0.1-0.2,0.3-1.5,0.7L260.1,1l-0.2,0.3c-0.2,0-0.5,0-0.5-0.2c-0.7,0.2,0.1,0.1-0.3,0.3
						c-0.9-0.3-2.4,0.1-2.6-0.4c-0.3,0.2,0.8,0.2-0.1,0.3c-0.3-0.5-1.1,0.1-1.9-0.1c0.2-0.3,1-0.1,0.2-0.4c-0.5,0.5-1.5-0.1-2.2,0
						c0,0.4-1.4,0.2-2.6,0.3c0.1-0.1-2.1-0.2-3.1-0.3l0-0.1c-0.2,0.4-1.3,0.3-2,0.4c0-0.2,0.2-0.3,0.6-0.4l-0.7,0
						c-0.2,0.1-0.4,0.2-0.9,0.2l0.2-0.3c-1,0-2,0.3-3.2,0.1c-0.1,0.3,1,0.7-0.3,0.9c0-0.1-0.1-0.4,0.2-0.4c-0.1,0-0.4,0.1-0.6,0.1
						l0.5-0.2c-0.6-0.1-0.3,0.2-0.8,0.2c0-0.2-0.3-0.1-0.3-0.3c0.1,0,0.4,0.1,0.6,0c-0.5,0-1.1-0.2-1.3-0.3c0,0.1,0,0.3-0.4,0.3
						c-1,0-0.3-0.2-0.9-0.3c-0.2,0.1-0.9,0-0.9,0.3c-0.3,0-0.3-0.1-0.4-0.2c-0.5,0.1-2.4,0-1.8,0.4l0.1,0c0,0-0.1,0-0.1,0l0,0l0,0
						c-1.7,0.3-3.4-0.2-5.1,0l0-0.1c-1,0.1-2.2,0.1-2.9,0.3c-0.3,0-0.7-0.2-0.6-0.3c-0.7,0.1-0.8,0.2-1.9,0c0.8-0.2-0.3-0.2,0.8-0.1
						c-1-0.1-1.2-0.2-2.2,0c0.4-0.3-0.7-0.3-1.2-0.2l0.7,0.2c-0.5,0-1,0-1.4,0l0.2-0.3c-2-0.4-3.6,0.7-5.1,0
						c-0.5,0.2,1.1,0.2,0.6,0.4c-0.9,0-1.9-0.5-2.2-0.5c-1.3-0.2-1.2,0.5-2.5,0.4c0.2,0.1,0.3,0.4-0.7,0.5c-0.9,0-1.1-0.5-0.5-0.6
						c0.2,0,0.3,0,0.3,0.1c0.3,0,0.7-0.1,0.3-0.2l-0.1,0.1c-0.5-0.1-1.7-0.1-1.4-0.3c-0.7,0.1-0.3,0.2,0.2,0.3c-1.2-0.2-1.8,0-3-0.1
						c0.2,0.1,0.4,0.2,0.2,0.2c-1.8-0.1-0.8,0.2-2,0.3c-0.7-0.2,0.2-0.4-1-0.3c-0.7-0.1-0.2-0.3,0.1-0.4c-1.1,0.2-2.1-0.1-2.7-0.2
						l0.6-0.1c-0.3,0.1-0.6,0.1-0.9,0.1l0.3,0.2c-0.3,0-0.6,0-0.6-0.1c-0.4,0.2,0.3,0.4-0.4,0.6c-0.5-0.1-1.4,0.1-1.5-0.2
						c1.4,0.1-0.2-0.3,1.1-0.4c-0.2,0-0.5,0-0.9,0c-0.1,0,0-0.1,0.1-0.1c-1.4-0.3-0.6,0.4-2,0.4c0.2-0.2-0.3-0.3-0.6-0.3
						c0.6,0,0.3,0.3-0.3,0.4c-0.9-0.1-1,0.1-1.5,0.1l0.5,0.1C195.4,1,194.9,1,194.3,1c-0.1-0.1,0.6-0.1,0.3-0.2
						c-0.7,0.3-1.6-0.3-2.6-0.1c-0.5-0.1,0-0.3-0.4-0.4c-1.1,0.2-1.2-0.2-2.3-0.1c0.3,0.2,0.4,0.2-0.4,0.4l1.9-0.2l-1.2,0.3
						c0.6,0,1.2-0.2,1.6-0.1c-0.6,0.2-0.5,0.1-0.2,0.3c-0.8-0.4-1.6,0.2-2.5,0l0-0.6c-1.4-0.3-2.4,0.3-4.2,0.2l0.6,0.1
						c-0.2,0.2-1.1,0-1.7,0.1c0.1-0.2-0.3-0.3-0.5-0.4c0,0.1-1.3,0-1.5,0.4l-0.8-0.3c-1.4-0.1-1.6,0.6-3,0.5
						c0.4-0.2-0.2-0.4,0.7-0.5c-0.5,0-0.9,0-0.9,0.1c-0.3-0.1-1.3,0.3-1.7,0.1c-0.2,0.1-0.3,0.3-0.8,0.3c-0.1,0,0-0.1,0-0.1
						c0,0.1-0.8,0.1-0.4,0.4c-1.4-0.6-3.9,0-5.2-0.5c-1,0.1-2.2,0.1-3.1,0.1c0.1-0.1,0-0.1,0.2-0.1c-1.3-0.2-0.8,0.6-2.2,0.4
						c-0.7-0.3,0.8-0.2,0.3-0.3c-0.2-0.6-1.7,0.1-2.7-0.3l0.2,0c-0.7-0.2-1.8,0.2-3,0.2c0,0,0.1-0.1,0-0.1c-0.8,0.3-2.4,0.4-3.5,0.5
						c0.4-0.3,0.5-0.1,0.3-0.4c-0.5,0,0.2,0.4-0.9,0.5c-0.3-0.1-1.1-0.3-1.2-0.5l1,0c-0.5-0.4-1.3,0-1.8,0l0.1-0.2
						c-1.5,0.1-1.5,0.4-3.1,0.4l0.2,0.1c-0.9,0.4-0.7-0.2-1.6,0.1l-0.3-0.4c-0.6,0.1-2,0.4-3.1,0.5c0.6-0.3,1.8-0.4,2.6-0.6
						c-0.6,0-1.9,0-2.2,0.2c0.2,0,0.5-0.1,0.7-0.1c-0.7,0.3-1.6,0.5-2.8,0.5c0.2-0.8-3-0.2-3.8-0.8c-2,0.3-4-0.1-6.4-0.1
						c0.8,0.6-0.7,0-0.5,0.6c-0.5,0-0.8,0-0.8,0l-1.7-0.4c-0.4-0.2,0.5-0.1,0.5-0.3c-1.2,0-0.5-0.3-1.3-0.4c0.2,0.2-0.4,0.3-1.1,0.2
						l1,0.3c-1.7,0.3-1.4-0.5-3.1-0.2l0.5-0.2c-0.9,0.1-3.2,0-4,0.5c-0.2-0.1-0.4-0.2,0-0.3c-2.1-0.1-4.6,0.5-6.2,0.2l0.2-0.1
						c-0.4,0-0.7,0.3-1.2,0.1c0-0.1,0.2-0.1,0-0.2c-0.2,0.1-1,0.3-1.5,0.2l0.4-0.2c-2-0.2-3.1,0.4-4.8,0.5c0-0.4-1.6-0.6-2.4-0.7
						l0-0.1c-2.4-0.1-4,0.4-6.2,0.5c-1.4-0.5-4.6-0.2-6.8-0.5c0.3,0.1-0.1,0.3-0.4,0.4c-0.5-0.1-1.4,0.3-1.3-0.1l0.2,0
						c-0.4-0.4-1.4-0.3-2.3-0.3l-0.1,0.5C88,0,84.5,1.1,83.3,0.4c-0.5,0.1-1.2,0.1-1.7,0.3l0-0.3c-1.4-0.1-2.1-0.1-3.9,0l0.4-0.2
						c-1,0-1.3,0.8-2.2,0.8l-0.3-0.4c-1.7,0-3.5-0.4-5.2,0c0-0.1,0.1-0.2,0.4-0.2c-0.8,0-3.2-0.3-2.9,0.3c0-0.4-1.8,0-2.7,0.1
						l0.1-0.3c-0.8,0.4-0.8,0.5-1.9,0.6c-0.3,0-0.2-0.2,0.1-0.2c-0.9-0.1-0.7,0.3-1.7,0.1l0.4-0.2c-0.9,0-0.8,0.1-1.3,0.3
						c-0.6,0.1-1.7-0.1-1.8-0.3c-0.1,0.2-0.6,0.4-1.1,0.3C57.8,1,58,1,58.1,0.9c-1.5-0.2-2.2,0.3-3.3,0.1c0-0.1-0.1-0.1-0.2-0.2
						c1.2,0,2.2,0,2.1,0c0-0.3-1-0.3-0.2-0.7c-0.8,0.2-2.1,0.6-3,0.5c0,0-0.1,0-0.1-0.1l0.1,0c-0.2,0-0.4,0-0.6,0
						c-0.3,0-0.5-0.1-0.8-0.1C52,0.3,51,0.4,50.5,0.4c0,0.3-0.6,0.2,0,0.5c-0.1,0,0.1,0,0.4,0c0.1,0,0.2,0,0.2,0l0,0
						c0.3,0,0.7,0,1.2,0C51.9,1,51.5,1.1,51,0.9c-0.2,0.2-0.5,0.4-0.7,0.5c-0.7-0.4-1.9-0.6-2.1-0.8c-1.5,0.2-3.5,0.1-4.4,0.6
						C43.4,1.3,43.3,1,43.1,1c0.2-0.1,0.5,0,0.7-0.1C43,1,41.3,0.9,41.1,1.3c-1.1-0.2,0.6-0.3-0.9-0.3l0.2-0.1
						c-2.9-0.6-4.6,0.9-7.8,0.2c0.2,0,0.3,0.1,0.4,0.1c-3.6-0.3-7.4,0.3-11-0.2c-1-0.1-1.1,0.1-1.7,0.3L20.1,1L19,1.3
						c-1.5,0.3-2.6-0.7-4.5-0.3l0.2,0.2c-0.7,0-2.2,0.1-2-0.1c-0.1,0-0.2,0.2-0.5,0.1l0-0.2l-1.7,0.3c-1.3-0.1,0.2-0.6-1.7-0.7
						c-0.7,0.1-2,0.5-1.7,0.6c0.3,0,0.7,0.1,0.7,0.3L7.3,1.6c-0.1,0.5-0.6,0.9,1,1.3l1.1-0.3l0.4,0.2l-0.9,0c0.5,0.2,0.9,0,1.2-0.1
						C10.1,2.9,10.2,3,10.4,3l1.1-0.4C11.7,2.7,11,2.9,11.8,3c0.5-0.2-0.5-0.4,0.4-0.5c0.5,0.2,0.4,0.4,1,0.2c0.1,0.1,0,0.2-0.3,0.2
						c0.5-0.1,1.5-0.1,1.7-0.3c0.5,0.3,1.9-0.1,1.8,0.4c0.2-0.1,1-0.3,1.5-0.4c-0.9,0.5,1.9,0,1.6,0.6c0.7-0.5,2.5-0.2,3.7-0.5
						c-0.1,0-0.2,0.1-0.3,0.1c0.7,0,0.9,0.2,1.3,0.3c0.1-0.4,1.1-0.5,1.7-0.7c0.8,0.4-0.5,0.5-0.2,0.8c0-0.3,1.4-0.3,1.2-0.6
						c0.6,0.2,0.5,0.1,0.9,0.4c0.1-0.5,0.6-0.1,1.1-0.4C29.7,2.9,29,3.1,30,3C30.5,3.1,29.6,3.3,29.6,3.3z M53.7,2.4L53.7,2.4
						c-0.2,0-0.4,0-0.5,0C53.3,2.5,53.5,2.4,53.7,2.4z M55.8,2.4c-0.2,0-0.6,0-0.9,0c-0.1-0.1,0-0.2,0.2-0.2
						C55,2.3,55.5,2.3,55.8,2.4z M51.5,0.5c0.3,0,0.4,0,0.5,0.1c-0.2,0-0.3,0-0.6,0c0,0,0,0,0,0C51.4,0.6,51.4,0.5,51.5,0.5z"/>
					<path class="st0" d="M50.9,0.9c0,0-0.1,0-0.1,0C50.8,0.9,50.9,0.9,50.9,0.9c0.1,0.1,0.1,0,0.2,0C51,0.9,50.9,0.9,50.9,0.9z"/>
					<path class="st0" d="M234.5,1.1L234.5,1.1C234.5,1.1,234.6,1.1,234.5,1.1C234.6,1.1,234.6,1.1,234.5,1.1z"/>
					<polygon class="st0" points="83.7,2.9 83.7,2.9 83.6,2.9 					"/>
					<path class="st0" d="M245.7,2.1c0,0,0.1,0.1,0.1,0.1C245.8,2.1,245.8,2.1,245.7,2.1z"/>
					<path class="st0" d="M250.5,2.1l0.7,0.1C250.9,2.2,250.7,2.1,250.5,2.1z"/>
					<path class="st0" d="M254.2,2.3c0,0,0.1-0.1,0.1-0.1l0,0L254.2,2.3z"/>
					<path class="st0" d="M195.3,2.6c0,0-0.1,0-0.1,0C194.8,2.7,195,2.7,195.3,2.6z"/>
					<path class="st0" d="M212.8,2c-0.2,0.1-0.4,0.1-0.6,0.1C212.6,2.1,212.8,2.1,212.8,2z"/>
					<polygon class="st0" points="175.7,3 175.7,3 175.6,3 					"/>
					<path class="st0" d="M211.5,2.1c0.3,0.1,0.6,0,0.8,0C212,2.1,211.7,2,211.5,2.1z"/>
					<path class="st0" d="M270.3,2.4l0.2,0c0,0,0,0,0,0L270.3,2.4z"/>
					<path class="st0" d="M270.5,2.3l0.2,0C270.6,2.3,270.5,2.3,270.5,2.3z"/>
					<path class="st0" d="M271.1,2.2l-0.4,0.1C270.8,2.3,271,2.3,271.1,2.2z"/>
					<path class="st0" d="M265.4,2.2l-0.1,0.1C265.3,2.3,265.4,2.3,265.4,2.2z"/>
					<path class="st0" d="M263.9,2.3c0.4,0,0.9,0.2,1.4,0.2l0-0.1C265.1,2.5,264.2,2.1,263.9,2.3z"/>
					<path class="st0" d="M257.7,1l1.2,0.1c-0.2-0.1-0.5-0.3,0.1-0.3C257.4,0.5,259.3,1.1,257.7,1z"/>
					<path class="st0" d="M253.8,0.9c0.7-0.1,0-0.2,0-0.2C253.4,0.7,253.3,0.8,253.8,0.9z"/>
					<path class="st0" d="M225.8,0.9l0.1-0.3C225.3,0.7,225.9,0.7,225.8,0.9z"/>
					<polygon class="st0" points="220.4,2.2 220.9,2.4 221.2,2.1 					"/>
					<polygon class="st0" points="217.3,0.4 217.5,0.4 216.6,0.5 					"/>
					<path class="st0" d="M170.3,0.5l0.2,0.3C170.8,0.8,170.8,0.4,170.3,0.5z"/>
					<path class="st0" d="M150,0.9c-0.2-0.2-0.8-0.3-1.1-0.1C149.3,0.8,149.7,0.9,150,0.9z"/>
					<polygon class="st0" points="89.1,0.4 89.5,0.3 88.7,0.4 					"/>
				</g>
			</g>
		</g>
	</g>
</g>
<g>
	<g>
		<g>
			<g>
				<g>
					<path class="st0" d="M7.6,83.7c0.1,0.1,0.3,0.1,0.3-0.1l-0.3-0.1L7.6,83.7z"/>
					<path class="st0" d="M8.3,83c-0.1-0.2-0.4-0.4-0.7-0.3c0.3,0.2,0.2,0.2,0.5,0.4c0,0.1-0.1,0.2-0.3,0.1C8,83.3,7.8,83.4,8,83.5
						c0.3-0.1,0.3-0.3,0.1-0.5C8.2,82.9,8.3,83,8.3,83z"/>
					<path class="st0" d="M10.4,71.8L10.4,71.8C10.3,71.8,10.3,71.8,10.4,71.8z"/>
					<path class="st0" d="M11.2,64.8C11.2,64.8,11.2,64.8,11.2,64.8C11.2,64.8,11.2,64.7,11.2,64.8z"/>
					<path class="st0" d="M11.7,63.6C11.6,63.6,11.6,63.6,11.7,63.6C11.7,63.6,11.7,63.6,11.7,63.6z"/>
					<path class="st0" d="M10.4,71.8l0.1-0.2C10.4,71.6,10.4,71.7,10.4,71.8z"/>
					<path class="st0" d="M7.8,81.3c0,0,0,0.1,0.1,0.1C7.8,81.4,7.8,81.4,7.8,81.3L7.8,81.3z"/>
					<path class="st0" d="M10.3,74.9L10.3,74.9c0,0.1,0.1,0.1,0.1,0.1L10.3,74.9z"/>
					<path class="st0" d="M10,77.3c0-0.1-0.3-0.1-0.4-0.1c0.1,0,0.2,0.1,0.2,0.1C9.9,77.3,9.9,77.3,10,77.3z"/>
					<path class="st0" d="M9,81L9,81C9,81,9,81,9,81z"/>
					<path class="st0" d="M10.5,73.2c0,0,0.1,0,0.1,0C10.6,73.2,10.6,73.2,10.5,73.2z"/>
					<path class="st0" d="M6.2,6.9C6.2,6.9,6.2,6.9,6.2,6.9C6.2,6.9,6.2,6.9,6.2,6.9z"/>
					<polygon class="st0" points="7,4 7,4 7.2,4 					"/>
					<path class="st0" d="M12.2,61.4C12.2,61.4,12.1,61.4,12.2,61.4C12.2,61.5,12.2,61.4,12.2,61.4z"/>
					<path class="st0" d="M12.3,41.1c-0.2,0.2-0.3-0.4-0.6,0C11.8,41,12.1,41.4,12.3,41.1z"/>
					<path class="st0" d="M7.8,81.3C7.8,81.2,7.8,81.2,7.8,81.3C7.8,81.2,7.8,81.2,7.8,81.3z"/>
					<path class="st0" d="M11.7,41.1L11.7,41.1L11.7,41.1C11.7,41.1,11.7,41.1,11.7,41.1z"/>
					<path class="st0" d="M12.2,56.3c0,0-0.1,0-0.1,0C12.1,56.3,12.2,56.3,12.2,56.3z"/>
					<path class="st0" d="M11.7,60.1L11.7,60.1C11.7,60,11.7,60,11.7,60.1z"/>
					<path class="st0" d="M11.9,54.3c0-0.1,0.1-0.1,0-0.1c0,0,0,0,0,0C12,54.2,12,54.2,11.9,54.3z"/>
					<path class="st0" d="M12,52.3C11.9,52.3,11.9,52.3,12,52.3l0,0.1L12,52.3z"/>
					<path class="st0" d="M7.3,13c0.1-0.1,0.2-0.1,0.2-0.1C7.4,12.9,7.3,12.7,7.3,13z"/>
					<path class="st0" d="M7.9,81.3c-0.1,0-0.1,0-0.1-0.1l0,0.1C7.9,81.3,7.9,81.4,7.9,81.3z"/>
					<path class="st0" d="M9.7,54.2l0.1-0.3C9.7,53.9,9.7,54,9.7,54.2z"/>
					<path class="st0" d="M9.2,27.5L9.2,27.5C9.1,27.4,9.1,27.5,9.2,27.5z"/>
					<path class="st0" d="M9.7,52.9c0.1-0.1,0.2-0.1,0.2-0.2c0,0,0,0-0.1,0L9.7,52.9z"/>
					<path class="st0" d="M7.6,12.9L7.6,12.9L7.6,12.9z"/>
					<path class="st0" d="M6.6,10.9C6.6,11.2,7,11,7.2,11c0.2,0.3-0.2,0.2-0.4,0.4c0.1,0.2,0.5,0.3,0.5,0.5c-0.1,0-0.1,0.1-0.2,0
						c0.3,0.2,0.1,0.7,0.5,0.9c0,0-0.1,0-0.1,0.1c0.2-0.1,0.4-0.1,0.5-0.1c0,0.1,0.3,0.2,0,0.3C8.1,13,8,13,7.9,13l0.1,0.1
						c-0.3,0.2-0.2-0.2-0.4-0.1c0.2,0.3,0.5,0.5,0.4,0.8c-0.3,0.1-0.2-0.5-0.4-0.2l0.1-0.4c-0.5,0.3,0-0.2-0.5,0.1
						c0,0.4,0.3,0.5,0.2,0.9c0.2,0.1,0.3-0.1,0.5,0c0.4,0.6-0.8,0.6-0.3,1c0.2,0.1,0.7,0.1,0.5,0.4l-0.4-0.1c0,0.4,0.6,0.2,0.4,0.6
						c-0.2-0.1-0.2-0.3-0.2-0.2c-0.3,0.3,0.2,0.2,0.3,0.4l-0.3,0.1c0.1,0.4,0.4,0.9,0.6,1.4c-0.1,0-0.2-0.1-0.3,0
						c0.3,0.6,0.1,1.3,0,2l0.3,0.2c0,0.1-0.1,0.1-0.2,0.1c-0.1,0.2,0.2,0,0.3,0.1c0,0.1-0.1,0.2-0.2,0.1C8.6,20.8,9,21.5,8.7,22
						l-0.1-0.1c-0.1,0.4,0.6,0.3,0.4,0.7L9,22.5c0,0.8,0.3,1.6-0.1,2.2c0.4,0.1-0.1,0.8,0.5,0.7c-0.3,0.5-0.4,0.3-0.5,1
						c0,0.2,0.4,0.2,0.5,0.4l-0.3,0L9.4,27L9,27.2l0.1,0.2c0-0.1,0.1-0.2,0.2-0.2C9.5,27.5,9.2,28,9,28l0.3,0.7
						c-0.1,0-0.2-0.1-0.3-0.2c0.3,0.3-0.3,0.1,0,0.4c0.1-0.1,0.2,0,0.2,0c-0.2,0.2-0.1,0.6,0,0.8l-0.2,0c0,0.5,0.2,1.1,0.2,1.6
						c0.1-0.2,0.5-0.2,0.5,0l-0.3,0.1c0.2,0.1,0.1-0.2,0.4,0c0,0.2-0.4,0.2-0.5,0.1l0.1,0.3c-0.1,0-0.2,0-0.3,0
						c0.2,0.1-0.3,0.5,0.1,0.6l-0.1,0c0,0.6,0.2,0.8,0.2,1.3c0.3,0,0.2,0.2,0.5,0.3c-0.1,0.3-0.3,0.7-0.2,1.2
						c0.2,0.3,0.2,0.1,0.4,0.2c-0.3,0-0.2,0.4-0.4,0.2c0.1,0.5,0.1,0.6,0.3,1.2c0.1-0.1,0.1-0.2,0.2-0.1c0,0.1-0.1,0.3-0.2,0.3l0,0
						c0.4,0.7-0.7,1.7-0.1,2.2l0,0l0.3,0.6c0,0.3-0.2-0.2-0.3,0c0.4,0.6,0,1,0.3,1.5c-0.7,0.4,0.1,1.4-0.4,2l0.2,0
						c0.2,0.1-0.1,0.2-0.1,0.3c0.1,0,0.2-0.2,0.3-0.1c0.2,1.2-0.2,2.4-0.4,3.6c0,0.4,0.9,0.2,0.5,0.8l-0.3-0.2
						c0.4,0.9,0,1.8,0.3,2.7c-0.1-0.1-0.2-0.1-0.2-0.1c-0.2,0.2,0,0.7,0.2,0.7c0,0.1-0.2,0-0.3,0.1c-0.1,0.2,0.3,0.5,0.1,0.6
						c0,0-0.1-0.1-0.1-0.1c0.1,0.1,0,0.6,0.2,0.5c-0.1,0.3,0.1,0.6-0.1,0.9c0.3,0.2-0.2,0.6,0.3,0.6c-0.5,0-0.4,0.6-0.2,0.8
						c-0.1-0.1-0.1,0.2-0.3,0.1c0,0.2,0.1,0.5,0.3,0.4c-0.6,0.4,0.4,0.9-0.3,1.1c0.2,0.7,0.4,1.4,0.4,2c-0.4,0,0-0.7-0.5-0.7
						c0.2,0.6,0.5,1,0.4,1.6c-0.1,0.2-0.2-0.1-0.3-0.2c0.2,0.6-0.1,1.2,0.1,1.7c0,0-0.1-0.1-0.1-0.1c0,0.1-0.1,0.2,0.1,0.2l0-0.1
						c0.3-0.2,0.6,0.5,0.8,0.5c-0.6-0.2-0.2,0.5-0.9,0.2c0,0.1,0.1,0.2,0.3,0.2c0,0.1-0.1,0.1-0.3,0c0.1,0.4,0.3,0.3,0.3,0.6
						c-0.1,0-0.1-0.1-0.2-0.1c0.2,0.2,0.4,0.4,0.3,0.7c-0.1,0-0.1,0-0.1-0.1c0,0.5,0.5,0.9,0.2,1.4c-0.4-0.2-0.2,0.2-0.5,0.2L9.7,64
						l0.2-0.1c0,0.3,0.2,0.5,0.1,0.7l-0.1-0.2l0,0.5l0.2-0.3c0.2,0.3,0.5,0,0.3,0.3c0-0.1,0,0.3-0.3,0.4l0,0
						c0.1,0.1,0.2,0.3,0.1,0.5c-0.1,0-0.4-0.1-0.5,0c0.3,0.2,0,0.6,0.4,0.8c-0.1-0.1-0.3-0.1-0.3-0.1l0.2,0.1
						c-0.1,0.1-0.1,0.1-0.3,0.1C9.6,67,10.2,66.6,9.9,67c0,0-0.1,0-0.1-0.1c-0.1,0.4,0.1,0.8-0.1,1.2c-0.4,0.1-0.1-0.3-0.4-0.2
						c0,0.6,0.3,1.2,0.2,1.7l0.1-0.1c0.5,0.1-0.3,0.4-0.1,0.7c0-0.1-0.3-0.1-0.2-0.1c-0.1,0.4,0,0.8,0.2,1.4l-0.1-0.1
						c-0.1,0.2-0.1,0.6-0.2,0.8c0.1,0.1,0.1,0.2,0.3,0.2c-0.9,0.6,0.3,1.4-0.5,2c0-0.1-0.1-0.2-0.1-0.1l0.1,0.6
						c0.2,0,0.1-0.1,0.3-0.1c0.1,0.1,0.2,0.3,0.2,0.4c-0.1-0.3-0.4,0-0.5,0c0.1,0,0.1,0,0.2,0c-0.4,0.2,0.5,0.1,0.1,0.5l-0.1,0
						c0,0.2,0.2,0.3,0.1,0.5C9,76,9.2,75.8,9,75.8c0,0.2,0.4,0.5,0.2,0.7c-0.1-0.1,0-0.2-0.1-0.3c-0.3,0.2-0.3,0.2-0.3,0.4l0,0
						l-0.2,0.4l0.1-0.1c0.7,0.4,0.1,0.6,0.5,1c-0.4-0.4-0.2-0.1-0.5-0.2c-0.1,0.1-0.2,0.2-0.3,0.2C8.5,78,8,78,8.4,78.3
						c-0.1,0,0,0.2-0.3,0.1c0,0.2,0.2,0,0.3,0c0.3,0.4-0.5,0.8-0.1,1.4c0.1,0.5,0.4,0.6,0.5,1c-0.2,0.1-0.3-0.2-0.3-0.2
						c-0.2,0.2-0.2,0.4-0.1,0.6c-0.1-0.1-0.2,0-0.3,0c0,0.2,0.3,0.2,0.2,0.4c-0.1-0.1-0.3-0.1-0.4-0.2c0.1,0.2,0.2,0.4,0.3,0.7
						c-0.2,0-0.2-0.2-0.3-0.3c0,0.2,0.1,0.6,0.3,0.7l0.1-0.1c0,0.1-0.2,0-0.3-0.1c-0.2-0.2,0.1-0.3,0.2-0.3l0,0.2
						c0.6-0.1,0-0.6,0.1-0.9l0.4,0.2l-0.3-0.4c0.1,0,0.4-0.1,0.4,0.1c0.2-0.2-0.1-0.2,0.1-0.4c0,0,0.1,0,0.1,0l-0.1-0.2
						c0.1,0.1,0.3,0,0.2,0.1c0.3-0.3-0.2-0.6,0.1-0.7l0,0c-0.1-0.5-0.3-0.1-0.6-0.5l0.8-0.2l-0.3-0.1c0-0.1,0.1-0.2,0.2-0.1
						c-0.2-0.2-0.1,0-0.3-0.1c0.3-0.2,0-0.7,0.5-0.7c-0.2-0.1-0.2,0.2-0.3-0.1c0.5,0,0-0.3,0.2-0.5c0.3,0.1,0.1,0.3,0.4,0.1
						c-0.4-0.2,0.2-0.4,0.1-0.7c-0.4-0.1-0.1-0.5-0.2-0.8c0.1,0,0.3-0.6,0.5-0.9l0.1,0c-0.4-0.1-0.2-0.4-0.3-0.7
						c0.2,0,0.3,0.1,0.4,0.2l0-0.2c-0.1-0.1-0.2-0.1-0.2-0.3l0.3,0.1c0-0.3-0.2-0.6,0-1c-0.3-0.1-0.7,0.2-0.9-0.2
						c0.1,0,0.4,0,0.4,0.1c0,0-0.1-0.1,0-0.2l0.2,0.2c0.1-0.2-0.2-0.1-0.1-0.2c0.2,0,0.2-0.1,0.3,0c0,0-0.1,0.1,0,0.2
						c0.1-0.1,0.2-0.3,0.3-0.4c-0.1,0-0.3,0-0.3-0.1c0-0.3,0.2-0.1,0.4-0.2c-0.1-0.1,0-0.3-0.3-0.3c0-0.1,0.1-0.1,0.2-0.1
						c-0.1-0.2,0-0.7-0.3-0.6l0,0l0,0l0,0l0,0c-0.2-0.5,0.3-1,0.2-1.5l0.1,0c-0.1-0.3,0-0.7-0.2-0.9c0-0.1,0.2-0.2,0.3-0.1
						c-0.1-0.2-0.2-0.3,0-0.6c0.2,0.2,0.2-0.1,0.1,0.2c0.1-0.3,0.3-0.3,0-0.7c0.2,0.1,0.3-0.2,0.3-0.3l-0.2,0.2c0-0.2,0-0.3,0-0.4
						l0.3,0.1c0.5-0.6-0.6-1.1,0.1-1.5c-0.2-0.2-0.2,0.3-0.4,0.1c0.1-0.3,0.6-0.5,0.6-0.6c0.2-0.4-0.5-0.4-0.3-0.8
						c-0.1,0-0.4,0.1-0.5-0.2c0.1-0.3,0.5-0.3,0.6-0.1c0,0.1,0,0.1-0.1,0.1c0,0.1,0.1,0.2,0.2,0.1l-0.1,0c0.1-0.1,0.2-0.5,0.3-0.4
						c-0.1-0.2-0.2-0.1-0.3,0c0.2-0.3,0.1-0.5,0.2-0.9c-0.1,0.1-0.2,0.1-0.2,0c0.2-0.5-0.2-0.3-0.2-0.6c0.2-0.2,0.4,0.1,0.3-0.3
						c0.1-0.2,0.3,0,0.4,0.1c-0.2-0.3,0.2-0.6,0.2-0.8l0.1,0.2c-0.1-0.1,0-0.2,0-0.3l-0.2,0.1c0-0.1,0.1-0.2,0.2-0.2
						c-0.1-0.1-0.4,0.1-0.6-0.2c0.1-0.1-0.1-0.4,0.2-0.5c-0.1,0.4,0.3,0,0.3,0.3c0-0.1,0-0.2,0-0.3c0,0,0.1,0,0.1,0
						c0.3-0.4-0.3-0.2-0.3-0.6c0.2,0.1,0.3-0.1,0.3-0.2c0,0.2-0.3,0.1-0.4-0.1c0.2-0.3-0.1-0.3-0.1-0.4l-0.1,0.2
						c-0.2-0.1-0.1-0.2-0.2-0.4c0.1,0,0.1,0.2,0.1,0.1c-0.3-0.2,0.4-0.5,0.2-0.8c0.1-0.1,0.3,0,0.4-0.1c-0.2-0.3,0.3-0.3,0.1-0.7
						c-0.2,0.1-0.2,0.1-0.4-0.1l0.1,0.6l-0.3-0.4c0,0.2,0.1,0.4,0.1,0.5c-0.2-0.2-0.1-0.2-0.3-0.1c0.4-0.2-0.2-0.5,0.1-0.7l0.6,0
						c0.3-0.4-0.3-0.7-0.1-1.3L11.8,57c-0.2-0.1,0-0.3-0.1-0.5c0.2,0,0.3-0.1,0.4-0.1c-0.1,0,0-0.4-0.4-0.5l0.3-0.2
						c0.1-0.4-0.5-0.5-0.5-0.9c0.2,0.1,0.4-0.1,0.5,0.2c0-0.1,0-0.3-0.1-0.3c0.1-0.1-0.3-0.4-0.1-0.5c-0.1-0.1-0.3-0.1-0.3-0.2
						c0,0,0.1,0,0.1,0c-0.1,0-0.1-0.2-0.3-0.1c0.6-0.4,0-1.2,0.5-1.5c-0.1-0.3-0.1-0.7-0.1-0.9c0.1,0,0.1,0,0.1,0.1
						c0.2-0.4-0.6-0.2-0.4-0.7c0.3-0.2,0.2,0.2,0.3,0.1c0.7-0.1-0.1-0.5,0.3-0.8l0,0.1c0.2-0.2-0.2-0.5-0.2-0.9c0,0,0.1,0,0.1,0
						c-0.3-0.2-0.4-0.7-0.5-1.1c0.3,0.1,0.1,0.2,0.4,0.1c0-0.2-0.4,0-0.5-0.3c0.1-0.1,0.3-0.3,0.5-0.4l0,0.3c0.4-0.1,0-0.4,0-0.5
						l0.2,0c-0.1-0.4-0.4-0.5-0.4-0.9l-0.1,0.1c-0.4-0.3,0.2-0.2-0.1-0.5l0.4-0.1c-0.1-0.2-0.4-0.6-0.5-0.9c0.3,0.2,0.4,0.5,0.6,0.8
						c0-0.2,0-0.6-0.2-0.7c0,0.1,0.1,0.2,0.1,0.2c-0.3-0.2-0.5-0.5-0.5-0.8c0.8,0.1,0.2-0.9,0.8-1.2c-0.3-0.6,0.1-1.2,0-1.9
						c-0.6,0.3,0-0.2-0.6-0.1c0-0.2,0-0.2,0-0.2l0.4-0.5c0.2-0.1,0.1,0.2,0.3,0.1c0-0.4,0.3-0.2,0.4-0.4c-0.2,0.1-0.3-0.1-0.2-0.3
						l-0.3,0.3c-0.3-0.5,0.5-0.5,0.2-1l0.2,0.2c-0.1-0.3,0-1-0.5-1.2c0.1,0,0.2-0.1,0.3,0c0-0.6-0.6-1.4-0.3-1.9l0.2,0
						c0-0.1-0.3-0.2-0.1-0.3c0.1,0,0.2,0,0.2,0c-0.1-0.1-0.3-0.3-0.2-0.5l0.2,0.1c0.2-0.6-0.5-0.9-0.6-1.4c0.4,0,0.6-0.5,0.6-0.8
						l0.1,0c0-0.7-0.5-1.2-0.7-1.8c0.4-0.4,0.1-1.4,0.3-2.1c-0.1,0.1-0.3,0-0.4-0.1c0.1-0.2-0.3-0.4,0.1-0.4l0,0.1
						c0.4-0.1,0.3-0.5,0.2-0.7l-0.5,0c0.7-0.7-0.4-1.7,0.2-2.1c-0.1-0.1-0.2-0.3-0.3-0.5l0.3,0c0-0.4,0-0.7-0.1-1.2l0.2,0.1
						c0-0.3-0.8-0.3-0.9-0.6l0.4-0.1c-0.1-0.5,0.2-1.1-0.2-1.6c0.1,0,0.2,0,0.2,0.1c0-0.2,0.2-1-0.4-0.8c0.4,0,0-0.5-0.2-0.8l0.3,0
						c-0.4-0.2-0.5-0.2-0.6-0.5c0-0.1,0.2-0.1,0.2,0c0.1-0.3-0.3-0.2-0.2-0.5l0.2,0.1c0-0.3-0.1-0.2-0.3-0.4c-0.1-0.2,0-0.5,0.3-0.6
						c-0.2,0-0.4-0.1-0.3-0.3c0.1,0,0.2,0,0.2,0c0.1-0.5-0.4-0.6-0.2-1c0.1,0,0.1,0,0.2-0.1c0,0.4,0.1,0.6,0,0.6
						c0.3,0,0.3-0.3,0.6-0.1c-0.2-0.2-0.7-0.5-0.6-0.8c0,0,0,0,0.1,0l0,0c0-0.1,0-0.1-0.1-0.2c0-0.1,0.1-0.2,0-0.2
						c0.2-0.1,0.1-0.3,0.1-0.5c-0.3,0.1-0.3-0.1-0.5,0.1c0,0,0,0,0.1,0.1c0,0,0,0,0,0.1l0,0c0,0.1,0,0.2,0.1,0.4
						c-0.2-0.1-0.3-0.2-0.2-0.4c-0.2,0-0.4-0.1-0.5-0.1c0.4-0.2,0.5-0.7,0.7-0.7c-0.2-0.4-0.2-1-0.8-1.2c-0.1-0.1,0.1-0.2,0.2-0.2
						c0.1,0.1,0.1,0.2,0.1,0.2C9.5,14.5,9.5,14,9.1,14c0.1-0.3,0.4,0.1,0.2-0.3l0.1,0c0.4-0.9-1.2-1.2-0.6-2.3
						c0,0.1-0.1,0.1-0.1,0.1C9,10.4,8.2,9.4,8.5,8.3c0-0.3-0.2-0.3-0.4-0.5l0.3-0.1L8,7.4C7.7,7,8.6,6.5,8,6.1L7.8,6.2
						c0-0.2-0.2-0.6,0-0.6c0,0-0.2,0-0.1-0.1l0.2,0L7.5,4.9c0-0.4,0.6-0.1,0.6-0.6C7.9,4.1,7.5,3.8,7.4,3.9c0,0.1-0.1,0.2-0.2,0.3
						L7,4c-0.5,0.1-1,0-1.2,0.5l0.3,0.3L6,5L5.9,4.7C5.7,4.9,6,4.9,6.1,5C6,5.1,5.9,5.1,5.9,5.2l0.5,0.2C6.2,5.5,6,5.4,5.9,5.6
						c0.2,0.1,0.4-0.2,0.6,0C6.3,5.8,6.1,5.8,6.3,5.9c-0.1,0-0.2,0-0.3,0C6.3,6,6.2,6.3,6.5,6.3C6.3,6.5,6.7,6.9,6.2,6.9
						c0.1,0,0.4,0.2,0.4,0.4C6.1,7.1,6.7,7.9,6.2,7.9c0.5,0.1,0.3,0.7,0.7,1c0,0-0.1,0-0.1-0.1c0,0.2-0.1,0.3-0.2,0.4
						c0.4,0,0.5,0.3,0.8,0.4C7,9.9,6.8,9.6,6.5,9.7c0.3-0.1,0.4,0.4,0.6,0.2c-0.2,0.2-0.1,0.2-0.4,0.3c0.5,0,0.1,0.2,0.4,0.3
						C7,10.8,6.7,10.7,6.9,11C6.8,11.1,6.6,10.9,6.6,10.9z M8.5,17.9L8.5,17.9c0-0.1,0-0.1,0-0.1C8.5,17.7,8.5,17.8,8.5,17.9z
						 M8.6,18.5c0-0.1,0-0.2,0-0.3c0.1,0,0.2,0,0.2,0C8.7,18.2,8.7,18.4,8.6,18.5z M10.3,16.9c0.1,0.1,0,0.1-0.1,0.2
						c0,0,0-0.1-0.1-0.2l0,0C10.2,16.9,10.3,16.9,10.3,16.9z"/>
					<path class="st0" d="M9.9,16.8C9.9,16.8,9.9,16.8,9.9,16.8C9.9,16.8,9.9,16.8,9.9,16.8L9.9,16.8L9.9,16.8z"/>
					<path class="st0" d="M10.3,71.9L10.3,71.9C10.3,71.9,10.3,71.9,10.3,71.9C10.3,71.9,10.3,71.9,10.3,71.9z"/>
					<polygon class="st0" points="9,26.8 9,26.8 9,26.8 					"/>
					<path class="st0" d="M9,75.1C8.9,75.1,8.9,75.1,9,75.1C8.9,75.1,8.9,75.1,9,75.1z"/>
					<path class="st0" d="M8.7,76.5l-0.1,0.2C8.7,76.6,8.7,76.5,8.7,76.5z"/>
					<path class="st0" d="M8.4,77.6c0,0,0.1,0,0.1,0l0,0L8.4,77.6z"/>
					<path class="st0" d="M9.8,60C9.8,60,9.8,60,9.8,60C9.7,59.9,9.7,60,9.8,60z"/>
					<path class="st0" d="M10.1,65.3c0-0.1-0.1-0.1-0.1-0.2C9.9,65.2,9.9,65.3,10.1,65.3z"/>
					<polygon class="st0" points="9.7,54.2 9.7,54.2 9.7,54.2 					"/>
					<path class="st0" d="M10,64.9C9.9,65,9.9,65,10,65.1C10,65,10,65,10,64.9z"/>
					<path class="st0" d="M7.6,82.3L7.6,82.3C7.6,82.3,7.6,82.3,7.6,82.3L7.6,82.3z"/>
					<path class="st0" d="M7.6,82.4L7.6,82.4C7.7,82.4,7.7,82.4,7.6,82.4z"/>
					<path class="st0" d="M7.7,82.6l-0.1-0.1C7.6,82.5,7.6,82.5,7.7,82.6z"/>
					<path class="st0" d="M8,80.9L8,80.9C7.9,80.8,7.9,80.9,8,80.9z"/>
					<path class="st0" d="M8,80.4c0,0.1-0.3,0.2-0.2,0.4l0.1,0C7.7,80.7,8.1,80.5,8,80.4z"/>
					<path class="st0" d="M9.5,78.8l-0.1,0.4c0.1,0,0.3-0.1,0.3,0.1C10,78.8,9.4,79.2,9.5,78.8z"/>
					<path class="st0" d="M9.8,77.6c0,0.2,0.2,0,0.2,0C10,77.5,9.9,77.5,9.8,77.6z"/>
					<path class="st0" d="M10.8,69.3l0.3,0C11,69.2,11,69.3,10.8,69.3z"/>
					<polygon class="st0" points="9.6,67.5 9.5,67.7 9.7,67.8 					"/>
					<polygon class="st0" points="11.5,66.8 11.6,66.8 11.5,66.6 					"/>
					<path class="st0" d="M12.2,52.6l-0.3,0C11.9,52.8,12.3,52.8,12.2,52.6z"/>
					<path class="st0" d="M11.9,46.5c0.2-0.1,0.3-0.2,0.1-0.3C12,46.3,11.9,46.4,11.9,46.5z"/>
					<polygon class="st0" points="11.6,28.2 11.8,28.3 11.6,28.1 					"/>
				</g>
			</g>
		</g>
	</g>
</g>
<g>
	<g>
		<g>
			<g>
				<g>
					<path class="st0" d="M266.3,79.8c0.1,0,0.3,0,0.2-0.1l-0.3,0L266.3,79.8z"/>
					<path class="st0" d="M266.8,79c-0.2-0.1-0.5-0.2-0.8-0.1c0.3,0.1,0.2,0.1,0.6,0.2c0,0.1-0.1,0.2-0.2,0.2c0.1,0-0.1,0.2,0.2,0.2
						c0.2-0.2,0.2-0.4,0-0.5C266.6,78.9,266.7,79,266.8,79z"/>
					<path class="st0" d="M266.5,68L266.5,68C266.4,68.1,266.4,68,266.5,68z"/>
					<path class="st0" d="M266.3,61.2C266.3,61.3,266.3,61.3,266.3,61.2C266.3,61.3,266.3,61.2,266.3,61.2z"/>
					<path class="st0" d="M266.6,60.1C266.6,60.1,266.6,60.1,266.6,60.1C266.6,60.1,266.6,60.1,266.6,60.1z"/>
					<path class="st0" d="M266.5,68l0.1-0.2C266.4,67.8,266.5,67.9,266.5,68z"/>
					<path class="st0" d="M265.9,77.5C265.9,77.6,265.9,77.6,265.9,77.5C265.9,77.6,265.9,77.6,265.9,77.5L265.9,77.5z"/>
					<path class="st0" d="M266.9,71L266.9,71c0,0.1,0.1,0.1,0.1,0.1L266.9,71z"/>
					<path class="st0" d="M267.1,73.3c0-0.1-0.3,0-0.4-0.1c0.1,0,0.2,0.1,0.2,0.1C267,73.3,267.1,73.3,267.1,73.3z"/>
					<path class="st0" d="M266.9,76.9L266.9,76.9C267,77,267,76.9,266.9,76.9z"/>
					<path class="st0" d="M266.9,69.3C266.9,69.3,266.9,69.3,266.9,69.3C266.9,69.3,266.9,69.3,266.9,69.3z"/>
					<path class="st0" d="M267.5,5.1C267.5,5.1,267.5,5.1,267.5,5.1C267.5,5.1,267.5,5.1,267.5,5.1z"/>
					<polygon class="st0" points="269.2,2.7 269.2,2.7 269.4,2.8 					"/>
					<path class="st0" d="M266.9,57.9C266.9,57.9,266.9,58,266.9,57.9C267,58,266.9,58,266.9,57.9z"/>
					<path class="st0" d="M266.8,38.5c-0.3,0.2-0.3-0.4-0.6,0C266.3,38.5,266.6,38.8,266.8,38.5z"/>
					<path class="st0" d="M265.9,77.5C265.9,77.5,265.9,77.4,265.9,77.5C265.9,77.4,265.9,77.5,265.9,77.5z"/>
					<path class="st0" d="M266.2,38.5L266.2,38.5L266.2,38.5C266.2,38.5,266.2,38.5,266.2,38.5z"/>
					<path class="st0" d="M266.7,53.1c0,0-0.1,0-0.1,0.1C266.6,53.1,266.6,53.1,266.7,53.1z"/>
					<path class="st0" d="M266.3,56.7L266.3,56.7C266.3,56.7,266.3,56.7,266.3,56.7z"/>
					<path class="st0" d="M266.2,51.2c0,0,0.1-0.1,0-0.1c0,0,0,0,0,0C266.3,51.1,266.3,51.1,266.2,51.2z"/>
					<path class="st0" d="M266.2,49.2C266.2,49.2,266.2,49.3,266.2,49.2L266.2,49.2L266.2,49.2z"/>
					<path class="st0" d="M266.8,11.1c0.1,0,0.2,0,0.3-0.1C266.8,11,266.8,10.7,266.8,11.1z"/>
					<path class="st0" d="M266,77.5c-0.1,0-0.1,0-0.1,0l0,0.1C266,77.5,266,77.5,266,77.5z"/>
					<path class="st0" d="M264,51.1l0-0.3C264,50.9,264,51,264,51.1z"/>
					<path class="st0" d="M265.3,25.2L265.3,25.2C265.3,25.1,265.3,25.2,265.3,25.2z"/>
					<path class="st0" d="M264,49.9c0.1-0.1,0.2-0.1,0.2-0.2c0,0,0,0-0.1,0L264,49.9z"/>
					<path class="st0" d="M267,11L267,11L267,11z"/>
					<path class="st0" d="M266.6,8.9c0,0.3,0.3,0.2,0.5,0.3c0.1,0.4-0.3,0.1-0.5,0.2c0.1,0.2,0.4,0.4,0.3,0.6c-0.1,0-0.1,0-0.2,0
						c0.3,0.3-0.1,0.7,0.3,1c0,0-0.1,0-0.1,0c0.2,0,0.4,0,0.5,0c0,0.1,0.2,0.3,0,0.3c0-0.1-0.1-0.1-0.1-0.1l0.1,0.2
						c-0.4,0.1-0.1-0.2-0.3-0.2c0.1,0.3,0.3,0.6,0.2,0.8c-0.3,0,0-0.5-0.4-0.3l0.2-0.3c-0.6,0.2,0.1-0.2-0.5,0
						c-0.2,0.4,0.1,0.5,0,0.9c0.2,0.1,0.3,0,0.5,0.1c0.3,0.6-0.9,0.4-0.5,0.9c0.2,0.1,0.6,0.2,0.4,0.5l-0.4-0.2
						c-0.1,0.4,0.5,0.3,0.2,0.7c-0.1-0.1-0.1-0.3-0.1-0.3c-0.3,0.2,0.2,0.2,0.2,0.4l-0.3,0c0,0.4,0.2,1,0.2,1.4
						c-0.1,0-0.2-0.1-0.3,0c0.1,0.6-0.2,1.3-0.5,1.9L266,18c0,0.1-0.1,0.1-0.2,0c-0.1,0.2,0.2,0,0.3,0.2c0,0.1-0.2,0.2-0.3,0.1
						c0.2,0.4,0.4,1.2,0.1,1.6l-0.1-0.1c-0.2,0.3,0.6,0.4,0.3,0.7l0-0.1c-0.2,0.7,0,1.5-0.5,2c0.4,0.1-0.2,0.7,0.3,0.8
						c-0.3,0.4-0.4,0.3-0.7,0.8c0,0.2,0.3,0.3,0.4,0.5l-0.3,0l0.3,0.3l-0.4,0.1l0.1,0.2c0-0.1,0.2-0.1,0.2-0.1
						c0.1,0.3-0.3,0.7-0.4,0.7l0.2,0.7c-0.1,0-0.2-0.1-0.2-0.2c0.3,0.4-0.3,0-0.1,0.4c0.1,0,0.2,0,0.2,0.1c-0.2,0.1-0.2,0.5-0.2,0.8
						l-0.2-0.1c-0.1,0.5,0,1.1,0,1.6c0.1-0.2,0.5-0.1,0.5,0l-0.3,0c0.2,0.1,0.1-0.2,0.4,0.1c-0.1,0.2-0.4,0.1-0.5,0l0.1,0.3
						c-0.1,0-0.1-0.1-0.3-0.1c0.2,0.1-0.4,0.4,0,0.6l-0.1,0c0,0.6,0.1,0.8,0,1.3c0.3,0,0.2,0.2,0.4,0.3c-0.1,0.3-0.3,0.7-0.3,1.1
						c0.1,0.3,0.2,0.1,0.4,0.2c-0.3,0-0.3,0.4-0.4,0.2c0,0.5,0,0.6,0.2,1.2c0.1-0.1,0.2-0.1,0.2-0.1c0,0.1-0.1,0.2-0.2,0.2l0,0
						c0.3,0.7-0.8,1.5-0.3,2.1l0,0l0.3,0.6c-0.1,0.3-0.2-0.2-0.4,0c0.4,0.6-0.1,1,0.2,1.5c-0.8,0.4,0,1.4-0.5,1.9l0.2,0
						c0.2,0.1-0.1,0.2-0.2,0.3c0.1,0,0.2-0.1,0.3-0.1c0.2,1.2-0.3,2.4-0.5,3.5c-0.1,0.4,0.9,0.3,0.5,0.8l-0.3-0.2
						c0.4,0.9,0,1.8,0.3,2.6c-0.1-0.1-0.2-0.1-0.2-0.1c-0.2,0.2,0,0.7,0.2,0.7c0,0.1-0.2,0-0.3,0.1c-0.1,0.2,0.3,0.5,0.1,0.5
						c0,0-0.1-0.1-0.1-0.1c0.1,0.1,0,0.5,0.2,0.4c-0.1,0.3,0.1,0.6,0,0.9c0.3,0.2-0.2,0.5,0.3,0.6c-0.5,0-0.4,0.6-0.2,0.8
						c-0.1-0.1-0.1,0.2-0.3,0.1c0,0.2,0.1,0.4,0.3,0.4c-0.5,0.4,0.4,0.8-0.2,1.1c0.3,0.7,0.4,1.3,0.5,1.9c-0.5,0-0.1-0.7-0.5-0.6
						c0.2,0.6,0.6,0.9,0.5,1.5c-0.1,0.2-0.2-0.1-0.3-0.1c0.2,0.6,0,1.1,0.2,1.6c0,0-0.1-0.1-0.1-0.1c0,0.1-0.1,0.2,0.1,0.2l-0.1-0.1
						c0.3-0.2,0.6,0.4,0.8,0.4c-0.6-0.2-0.1,0.5-0.9,0.3c0,0.1,0.1,0.1,0.3,0.1c0,0.1-0.1,0.1-0.3,0c0.1,0.4,0.3,0.2,0.3,0.6
						c-0.1,0-0.1-0.1-0.3-0.1c0.2,0.2,0.4,0.3,0.3,0.6c-0.1,0-0.1,0-0.1-0.1c0,0.5,0.5,0.8,0.4,1.3c-0.4-0.1-0.1,0.2-0.5,0.2
						l0.1,0.3l0.2-0.1c0,0.2,0.3,0.5,0.2,0.7l-0.2-0.2l0.1,0.5l0.1-0.3c0.2,0.2,0.5,0,0.4,0.3c0-0.1,0,0.2-0.2,0.4l0,0
						c0.1,0.1,0.3,0.2,0.2,0.4c-0.1,0.1-0.4,0-0.5,0c0.3,0.1,0.1,0.6,0.5,0.7c-0.1,0-0.3,0-0.3,0l0.3,0.1c-0.1,0.1-0.1,0.1-0.3,0.1
						c0,0.3,0.5-0.1,0.3,0.3c0,0-0.1,0-0.1-0.1c-0.1,0.4,0.2,0.8,0.1,1.2c-0.4,0.1-0.1-0.3-0.4-0.2c0.1,0.5,0.5,1.1,0.4,1.6l0-0.1
						c0.5,0-0.2,0.4,0,0.7c0-0.1-0.3-0.1-0.2-0.1c-0.1,0.4,0.2,0.7,0.4,1.3l-0.1-0.1c-0.1,0.2,0,0.6-0.1,0.8
						c0.1,0.1,0.1,0.2,0.3,0.1c-0.7,0.8,0.5,1.3-0.1,2c0-0.1-0.1-0.2-0.1-0.1l0.2,0.5c0.2-0.1,0.1-0.1,0.3-0.2
						c0.1,0.1,0.3,0.2,0.3,0.3c-0.2-0.2-0.4,0-0.5,0.1c0.1,0,0.1,0,0.2,0c-0.4,0.3,0.5,0,0.2,0.4l-0.1,0c0.1,0.1,0.2,0.3,0.2,0.4
						c-0.3,0.1-0.1-0.1-0.4-0.1c0,0.2,0.5,0.4,0.3,0.6c-0.1-0.1-0.1-0.2-0.2-0.3c-0.3,0.2-0.2,0.3-0.3,0.4l0,0l-0.1,0.4l0.1-0.1
						c0.7,0.2,0.2,0.5,0.7,0.9c-0.5-0.3-0.3,0-0.6,0c-0.1,0.1-0.2,0.2-0.2,0.2c0.3,0.2-0.2,0.3,0.2,0.5c-0.1,0,0,0.2-0.2,0.2
						c0.1,0.2,0.2-0.1,0.3-0.1c0.4,0.3-0.3,0.8,0.2,1.3c0.2,0.4,0.6,0.5,0.8,0.8c-0.1,0.1-0.4-0.1-0.4-0.1c-0.1,0.2-0.1,0.4,0,0.6
						c-0.1,0-0.2,0-0.3,0.1c0,0.2,0.4,0.1,0.2,0.3c-0.1,0-0.3-0.1-0.4-0.1c0.1,0.2,0.3,0.4,0.4,0.6c-0.2,0.1-0.3-0.1-0.4-0.2
						c0.1,0.2,0.2,0.6,0.5,0.6l0.1-0.2c0,0.1-0.2,0.1-0.3,0c-0.2-0.2,0.1-0.3,0.2-0.3l0.1,0.1c0.6-0.2-0.1-0.6-0.1-0.9l0.4,0.1
						l-0.4-0.3c0.1-0.1,0.3-0.1,0.4,0c0.2-0.2-0.2-0.2,0-0.4c0,0,0.1,0,0.1,0l-0.1-0.2c0.1,0,0.3-0.1,0.2,0.1
						c0.2-0.4-0.4-0.6-0.1-0.7l0,0c-0.2-0.5-0.3,0-0.7-0.4l0.7-0.3l-0.3,0c0-0.1,0-0.2,0.1-0.1c-0.2-0.2-0.1,0-0.3-0.1
						c0.3-0.3-0.2-0.7,0.3-0.8c-0.2-0.1-0.2,0.3-0.3,0c0.5-0.1-0.1-0.3,0.1-0.5c0.3,0,0.1,0.3,0.4,0c-0.5-0.1,0.1-0.4,0-0.6
						c-0.4,0-0.2-0.4-0.3-0.7c0.1,0,0.2-0.6,0.3-0.9l0.1,0c-0.4,0-0.3-0.3-0.4-0.6c0.2,0,0.3,0,0.4,0.1l0-0.2
						c-0.1,0-0.2-0.1-0.2-0.2l0.3,0c0-0.3-0.4-0.5-0.2-0.9c-0.3,0-0.7,0.3-0.9,0c0.1,0,0.4-0.1,0.4,0c0,0-0.1-0.1-0.1-0.2l0.2,0.1
						c0.1-0.2-0.2-0.1-0.2-0.2c0.2,0,0.1-0.1,0.3-0.1c0,0-0.1,0.1,0,0.2c0-0.2,0.1-0.3,0.3-0.4c-0.1,0-0.3,0-0.3-0.1
						c0-0.3,0.2-0.1,0.3-0.3c-0.1-0.1,0-0.2-0.3-0.2c0-0.1,0.1-0.1,0.2-0.1c-0.1-0.1-0.1-0.7-0.4-0.5l0,0l0,0l0,0l0,0
						c-0.3-0.5,0.1-1,0-1.5l0.1,0c-0.1-0.3-0.1-0.6-0.3-0.8c0-0.1,0.2-0.2,0.3-0.2c-0.1-0.2-0.2-0.2-0.1-0.5
						c0.2,0.2,0.1-0.1,0.1,0.2c0.1-0.3,0.2-0.4-0.1-0.6c0.3,0.1,0.3-0.2,0.2-0.4l-0.2,0.2c0-0.1,0-0.3,0-0.4l0.3,0.1
						c0.4-0.6-0.7-1-0.1-1.5c-0.2-0.1-0.2,0.3-0.4,0.2c0-0.3,0.5-0.6,0.5-0.6c0.2-0.4-0.5-0.3-0.4-0.7c-0.1,0.1-0.4,0.1-0.6-0.2
						c0-0.3,0.5-0.3,0.6-0.2c0,0.1,0,0.1-0.1,0.1c0,0.1,0.1,0.2,0.2,0.1l-0.1,0c0.1-0.1,0.1-0.5,0.3-0.4c-0.1-0.2-0.2-0.1-0.3,0.1
						c0.2-0.3,0-0.5,0.1-0.9c-0.1,0.1-0.2,0.1-0.2,0.1c0.1-0.5-0.2-0.2-0.3-0.6c0.2-0.2,0.4,0.1,0.3-0.3c0.1-0.2,0.3-0.1,0.4,0
						c-0.2-0.3,0.1-0.6,0.2-0.8l0.1,0.2c-0.1-0.1-0.1-0.2-0.1-0.3l-0.2,0.1c0-0.1,0-0.2,0.1-0.2c-0.2-0.1-0.4,0.1-0.6-0.1
						c0.1-0.1-0.1-0.4,0.2-0.4c-0.1,0.4,0.3-0.1,0.4,0.3c0-0.1,0-0.1,0-0.2c0,0,0.1,0,0.1,0c0.3-0.4-0.4-0.2-0.4-0.6
						c0.2,0,0.3-0.1,0.3-0.2c0,0.2-0.3,0.1-0.4-0.1c0.1-0.3-0.1-0.3-0.1-0.4l-0.1,0.2c-0.2,0-0.2-0.2-0.2-0.4c0.1,0,0.1,0.2,0.2,0.1
						c-0.3-0.2,0.3-0.5,0.1-0.7c0.1-0.1,0.3,0,0.4-0.1c-0.2-0.3,0.2-0.3,0-0.7c-0.2,0.1-0.2,0.1-0.4-0.1l0.2,0.5l-0.4-0.3
						c0,0.2,0.2,0.3,0.1,0.4c-0.2-0.2-0.1-0.1-0.3-0.1c0.4-0.2-0.2-0.4,0-0.7l0.6,0c0.3-0.4-0.3-0.7-0.2-1.2l-0.1,0.2
						c-0.2-0.1,0-0.3-0.1-0.5c0.2,0,0.3-0.1,0.4-0.2c-0.1,0,0-0.4-0.4-0.4l0.3-0.2c0.1-0.4-0.6-0.5-0.5-0.9c0.2,0.1,0.4-0.1,0.5,0.2
						c0-0.1,0-0.3-0.1-0.3c0.1-0.1-0.3-0.4-0.1-0.5c-0.1-0.1-0.3-0.1-0.3-0.2c0,0,0.1,0,0.1,0c-0.1,0-0.1-0.2-0.4-0.1
						c0.6-0.4,0-1.1,0.5-1.5c-0.1-0.3-0.1-0.6-0.1-0.9c0.1,0,0.1,0,0.1,0.1c0.2-0.4-0.6-0.2-0.4-0.6c0.3-0.2,0.2,0.2,0.3,0.1
						c0.6-0.1-0.1-0.5,0.3-0.8l0,0.1c0.2-0.2-0.2-0.5-0.2-0.9c0,0,0.1,0,0.1,0c-0.3-0.2-0.4-0.7-0.5-1c0.3,0.1,0.1,0.2,0.4,0.1
						c0-0.1-0.4,0-0.5-0.3c0.1-0.1,0.3-0.3,0.5-0.3l0,0.3c0.4-0.1,0-0.4,0.1-0.5l0.2,0c0-0.4-0.4-0.4-0.4-0.9l-0.1,0
						c-0.4-0.3,0.2-0.2-0.1-0.5l0.4-0.1c-0.1-0.2-0.4-0.6-0.4-0.9c0.3,0.2,0.4,0.5,0.6,0.7c0-0.2,0-0.6-0.2-0.7
						c0,0.1,0.1,0.2,0.1,0.2c-0.3-0.2-0.5-0.5-0.4-0.8c0.8,0.1,0.2-0.9,0.8-1.1c-0.3-0.6,0.2-1.1,0.1-1.8c-0.6,0.2,0-0.2-0.6-0.2
						c0-0.2,0-0.2,0-0.2l0.4-0.5c0.2-0.1,0.1,0.2,0.3,0.1c0.1-0.3,0.3-0.1,0.4-0.4c-0.2,0-0.3-0.1-0.2-0.3l-0.3,0.3
						c-0.3-0.5,0.5-0.4,0.2-0.9l0.2,0.2c-0.1-0.3,0-0.9-0.4-1.2c0.1,0,0.2-0.1,0.3,0c0.1-0.6-0.5-1.4-0.1-1.8l0.1,0.1
						c0-0.1-0.3-0.2-0.1-0.3c0.1,0,0.1,0.1,0.2,0c0-0.1-0.2-0.3-0.2-0.5l0.2,0.1c0.2-0.6-0.4-0.9-0.4-1.4c0.4,0,0.6-0.4,0.7-0.6
						l0.1,0c0.1-0.7-0.3-1.2-0.4-1.8c0.5-0.4,0.3-1.3,0.6-1.9c-0.1,0.1-0.3,0-0.4-0.2c0.1-0.1-0.3-0.4,0.1-0.4l0,0.1
						c0.4-0.1,0.3-0.4,0.3-0.6l-0.5-0.1c0.8-0.6-0.1-1.6,0.6-1.9c-0.1-0.2-0.1-0.3-0.2-0.5l0.3,0c0.1-0.4,0.2-0.6,0.1-1.1l0.2,0.1
						c0-0.3-0.8-0.4-0.8-0.7l0.4,0c0-0.5,0.5-1,0.1-1.5c0.1,0,0.2,0,0.2,0.1c0-0.2,0.4-0.9-0.2-0.9c0.4,0,0.1-0.5,0-0.8l0.3,0.1
						c-0.3-0.3-0.4-0.3-0.5-0.6c0-0.1,0.2,0,0.1,0c0.2-0.2-0.2-0.2-0.1-0.5l0.2,0.1c0-0.3,0-0.2-0.2-0.4c-0.1-0.2,0.1-0.5,0.4-0.5
						c-0.1-0.1-0.3-0.2-0.3-0.4c0.1,0,0.1,0.1,0.2,0.1c0.2-0.4-0.2-0.7,0.1-0.9c0.1,0,0.1,0,0.2,0c0,0.3-0.1,0.6-0.1,0.6
						c0.3,0,0.3-0.2,0.7,0c-0.2-0.2-0.5-0.7-0.4-0.9c0,0,0.1,0,0.1,0l0,0c0-0.1,0-0.1,0-0.2c0.1-0.1,0.1-0.1,0.1-0.2
						c0.2,0,0.2-0.3,0.2-0.4c-0.3,0-0.2-0.2-0.5-0.1c0,0,0,0,0,0.1c0,0,0,0,0,0.1l0,0c0,0.1,0,0.2,0,0.3c-0.1-0.1-0.2-0.3-0.1-0.4
						c-0.2-0.1-0.3-0.2-0.4-0.2c0.4-0.1,0.7-0.5,0.9-0.5c-0.1-0.4,0-1-0.5-1.3c-0.1-0.1,0.2-0.1,0.3-0.2c0,0.1,0,0.2,0.1,0.2
						c-0.1-0.3,0-0.7-0.3-0.8c0.2-0.3,0.3,0.2,0.3-0.2l0.1,0.1c0.7-0.7-0.8-1.4,0.1-2.2c-0.1,0.1-0.1,0.1-0.1,0.1
						c0.5-1,0-2.2,0.6-3.1c0.1-0.3-0.1-0.3-0.2-0.5l0.3,0L269,6.1c-0.2-0.5,0.8-0.6,0.4-1.2l-0.2,0c0.1-0.2,0-0.6,0.2-0.6
						c0,0-0.2-0.1-0.1-0.2l0.2,0l-0.2-0.5c0.2-0.4,0.6,0.2,0.7-0.4c0-0.2-0.4-0.6-0.5-0.6c0,0.1-0.1,0.2-0.3,0.2l-0.1-0.2
						c-0.5-0.1-0.9-0.3-1.3,0.1l0.2,0.4l-0.2,0.1l0-0.3c-0.2,0.1-0.1,0.2,0.1,0.4c-0.1,0-0.2,0-0.3,0.1l0.4,0.4
						c-0.2,0-0.3-0.2-0.5,0c0.2,0.2,0.4-0.1,0.5,0.2c-0.2,0.1-0.4,0-0.2,0.3c-0.1,0-0.2,0-0.2-0.1c0.1,0.2,0,0.4,0.2,0.5
						c-0.3,0.1,0,0.5-0.4,0.5c0.1,0.1,0.3,0.3,0.3,0.5c-0.5-0.3-0.1,0.5-0.7,0.4c0.4,0.3,0.1,0.7,0.3,1.1c0,0-0.1-0.1-0.1-0.1
						c-0.1,0.2-0.2,0.2-0.3,0.3c0.4,0.1,0.4,0.4,0.6,0.6c-0.4,0.2-0.4-0.2-0.8-0.2c0.3,0,0.3,0.5,0.5,0.4c-0.3,0.2-0.1,0.1-0.5,0.2
						c0.5,0.1,0.1,0.2,0.3,0.4c-0.3,0.2-0.5,0-0.4,0.3C266.8,9.2,266.6,8.9,266.6,8.9z M266.6,15.9L266.6,15.9c0-0.1,0-0.1,0-0.1
						C266.6,15.8,266.6,15.8,266.6,15.9z M266.5,16.5c0-0.1,0-0.2,0-0.3c0.1,0,0.2,0,0.2,0.1C266.7,16.3,266.6,16.4,266.5,16.5z
						 M268.6,15.5c0,0.1,0,0.1-0.1,0.1c0,0,0-0.1,0-0.2l0,0C268.5,15.5,268.6,15.5,268.6,15.5z"/>
					<path class="st0" d="M268.3,15.3C268.3,15.3,268.3,15.3,268.3,15.3C268.2,15.3,268.2,15.3,268.3,15.3L268.3,15.3L268.3,15.3z"
						/>
					<path class="st0" d="M266.4,68.1L266.4,68.1C266.4,68.1,266.4,68.1,266.4,68.1C266.4,68.1,266.4,68.1,266.4,68.1z"/>
					<polygon class="st0" points="265.2,24.5 265.3,24.5 265.2,24.5 					"/>
					<path class="st0" d="M265.7,71.4C265.6,71.4,265.6,71.4,265.7,71.4C265.6,71.4,265.6,71.4,265.7,71.4z"/>
					<path class="st0" d="M265.7,72.8l-0.1,0.2C265.7,72.9,265.7,72.8,265.7,72.8z"/>
					<path class="st0" d="M265.6,73.9c0.1,0,0.1,0,0.1,0l0,0L265.6,73.9z"/>
					<path class="st0" d="M264.4,56.8C264.4,56.8,264.4,56.8,264.4,56.8C264.4,56.7,264.4,56.8,264.4,56.8z"/>
					<path class="st0" d="M265.3,61.9c-0.1-0.1-0.1-0.1-0.1-0.2C265.1,61.8,265.1,61.9,265.3,61.9z"/>
					<polygon class="st0" points="264,51.2 264,51.2 264,51.1 					"/>
					<path class="st0" d="M265.1,61.5c-0.1,0.1,0,0.2,0,0.2C265.1,61.7,265.2,61.6,265.1,61.5z"/>
					<path class="st0" d="M265.9,78.5L265.9,78.5C265.9,78.5,265.9,78.6,265.9,78.5L265.9,78.5z"/>
					<path class="st0" d="M266,78.6L266,78.6C266,78.6,266,78.6,266,78.6z"/>
					<path class="st0" d="M266.1,78.7l-0.1-0.1C266,78.6,266,78.7,266.1,78.7z"/>
					<path class="st0" d="M265.9,77.1l-0.1,0C265.8,77.1,265.9,77.1,265.9,77.1z"/>
					<path class="st0" d="M265.9,76.6c0,0.1-0.2,0.3-0.1,0.4l0.1,0C265.7,77,266,76.7,265.9,76.6z"/>
					<path class="st0" d="M266.9,74.7l-0.1,0.4c0.1-0.1,0.2-0.2,0.3,0C267.5,74.6,266.9,75.2,266.9,74.7z"/>
					<path class="st0" d="M267,73.6c0.1,0.2,0.2,0,0.2,0C267.1,73.5,267.1,73.5,267,73.6z"/>
					<path class="st0" d="M266.5,65.6l0.3,0C266.7,65.4,266.6,65.6,266.5,65.6z"/>
					<polygon class="st0" points="265.1,64.1 264.9,64.3 265.2,64.3 					"/>
					<polygon class="st0" points="266.9,63.1 266.9,63.2 266.8,62.9 					"/>
					<path class="st0" d="M266.5,49.6l-0.3,0C266.2,49.7,266.6,49.8,266.5,49.6z"/>
					<path class="st0" d="M266.2,43.7c0.2-0.1,0.3-0.2,0.1-0.3C266.3,43.5,266.2,43.7,266.2,43.7z"/>
					<polygon class="st0" points="267.6,26.3 267.7,26.4 267.6,26.2 					"/>
				</g>
			</g>
		</g>
	</g>
</g>
<g>
	<g>
		<g>
			<g>
				<g>
					<path class="st0" d="M265.1,77c0.1-0.1,0.1-0.3-0.3-0.2l-0.3,0.3L265.1,77z"/>
					<path class="st0" d="M262.7,76.4c-0.4,0.2-0.9,0.5-0.6,0.8c0.4-0.3,0.5-0.2,1-0.6c0.4,0,0.6,0.1,0.6,0.2
						c0.1-0.1,0.6,0.1,0.8-0.1c-0.5-0.3-1.1-0.3-1.7,0C262.5,76.5,262.6,76.4,262.7,76.4z"/>
					<path class="st0" d="M226.7,76.3l0.2,0C226.8,76.3,226.8,76.3,226.7,76.3z"/>
					<path class="st0" d="M204.4,76.5c0.2,0,0.2,0,0.2-0.1C204.5,76.5,204.4,76.5,204.4,76.5z"/>
					<path class="st0" d="M200.6,76.2c0.1,0,0.2,0,0.2,0C200.7,76.2,200.6,76.2,200.6,76.2z"/>
					<path class="st0" d="M226.7,76.3l-0.6-0.1C226,76.3,226.4,76.3,226.7,76.3z"/>
					<path class="st0" d="M257.7,77.2c0.1,0,0.2,0,0.3-0.1L257.7,77.2C257.7,77.2,257.7,77.2,257.7,77.2z"/>
					<path class="st0" d="M236.5,75.9l0.2,0c0.1,0,0.1-0.1,0.1-0.1L236.5,75.9z"/>
					<path class="st0" d="M244,75.7c-0.2,0-0.2,0.3-0.3,0.4c0.1-0.1,0.2-0.2,0.4-0.2C244.1,75.9,244.1,75.8,244,75.7z"/>
					<path class="st0" d="M256,76.1l0.2,0C256.2,76.1,256.1,76.1,256,76.1z"/>
					<path class="st0" d="M231.1,75.9C231.1,75.9,231.1,75.8,231.1,75.9C231,75.8,231.1,75.9,231.1,75.9z"/>
					<path class="st0" d="M20.5,85.5C20.5,85.5,20.5,85.5,20.5,85.5C20.4,85.5,20.4,85.5,20.5,85.5z"/>
					<path class="st0" d="M11.7,84.6l0.1,0c0-0.1,0-0.1,0-0.2L11.7,84.6z"/>
					<path class="st0" d="M193.6,76C193.6,76,193.6,76,193.6,76C193.8,76,193.7,76,193.6,76z"/>
					<path class="st0" d="M129.7,78.1c0.7,0.2-1.2,0.4-0.1,0.6C129.5,78.6,130.6,78.2,129.7,78.1z"/>
					<path class="st0" d="M257.5,77.2l-0.3,0C257.3,77.2,257.4,77.2,257.5,77.2z"/>
					<path class="st0" d="M129.6,78.7L129.6,78.7l0.1,0C129.7,78.7,129.7,78.7,129.6,78.7z"/>
					<path class="st0" d="M177.6,76.6c0,0,0.1,0.1,0.2,0.1C177.7,76.7,177.7,76.6,177.6,76.6z"/>
					<path class="st0" d="M189.5,76.7l-0.3,0C189.4,76.7,189.5,76.7,189.5,76.7z"/>
					<path class="st0" d="M171.4,77.1c-0.2,0-0.2-0.1-0.4,0c0,0,0,0,0.1,0C171.1,77.1,171.2,77.1,171.4,77.1z"/>
					<path class="st0" d="M164.9,77.3c0,0,0.1,0,0.1,0.1c0.1,0,0.1,0,0.2,0L164.9,77.3z"/>
					<path class="st0" d="M40.1,84.3c-0.1-0.1-0.2-0.2-0.3-0.2C39.9,84.3,38.9,84.4,40.1,84.3z"/>
					<path class="st0" d="M257.7,77.1c0,0.1-0.1,0.1-0.2,0.1c0.1,0,0.1,0,0.2,0C257.7,77.1,257.7,77.1,257.7,77.1z"/>
					<path class="st0" d="M171.2,79.4l-1,0C170.4,79.4,170.8,79.4,171.2,79.4z"/>
					<path class="st0" d="M86.3,82.1l-0.2,0C86.2,82.1,86.3,82.1,86.3,82.1z"/>
					<path class="st0" d="M167.1,79.5c-0.2-0.1-0.4-0.1-0.6-0.2c0,0-0.1,0-0.1,0.1L167.1,79.5z"/>
					<path class="st0" d="M39.8,84.1L39.8,84.1L39.8,84.1z"/>
					<path class="st0" d="M33,85.1c1,0,0.4-0.4,0.6-0.6c1.2-0.2,0.6,0.2,1,0.4c0.7-0.1,1.3-0.5,1.8-0.5c0,0.1,0.2,0.1,0,0.2
						c0.8-0.3,2.3-0.1,3.2-0.6c0.1,0,0.1,0.1,0.1,0.1c-0.2-0.2-0.2-0.4-0.2-0.5c0.4,0,0.8-0.3,1,0c-0.3,0-0.3,0.1-0.4,0.2l0.5-0.1
						C41,83.9,40,83.7,40,84c0.9-0.2,1.9-0.5,2.6-0.4c0.2,0.3-1.6,0.2-0.7,0.5l-1.1-0.1c0.8,0.5-0.6,0,0.1,0.5
						c1.4,0,1.6-0.3,2.9-0.2c0.3-0.2-0.1-0.3,0.2-0.5c2-0.4,1.6,0.8,3,0.3c0.4-0.2,0.5-0.7,1.5-0.5l-0.3,0.4c1.4,0,0.7-0.6,2.2-0.4
						c-0.2,0.2-1.1,0.2-0.8,0.2c0.9,0.3,0.6-0.2,1.3-0.3l0.2,0.3c1.4-0.1,3-0.4,4.6-0.6c-0.1,0.1-0.4,0.2,0,0.3
						c2-0.3,4.3-0.2,6.2-0.1l0.7-0.3c0.2,0,0.3,0.1,0.1,0.2c0.8,0.1,0-0.2,0.4-0.3c0.4,0,0.6,0.1,0.3,0.2c1.3-0.3,3.8-0.7,5.2-0.5
						l-0.3,0.1c1.1,0.1,1.2-0.7,2.2-0.4l-0.2,0.1c2.4,0,5-0.4,6.8,0c0.3-0.4,2.4,0.1,2.5-0.5c1.4,0.2,1,0.4,2.9,0.5
						c0.5,0,0.7-0.4,1.4-0.5l0,0.3l0.8-0.4l0.5,0.3l0.6-0.1c-0.2,0-0.5-0.1-0.5-0.2c0.9-0.2,2.3,0.1,2.3,0.3l2.2-0.4
						c0,0.1-0.4,0.2-0.7,0.3c1.2-0.4,0.2,0.3,1.3,0c-0.1-0.1,0.1-0.2,0.1-0.3c0.5,0.2,1.8,0.1,2.6,0L93.3,82c1.6,0,3.4-0.2,5.2-0.3
						c-0.7-0.1-0.5-0.4,0-0.5l0.2,0.3c0.3-0.2-0.6-0.1,0.1-0.4c0.7,0,0.5,0.4,0.1,0.5l0.8-0.1c0.1,0.1-0.1,0.2-0.2,0.3
						c0.3-0.2,1.4,0.3,1.9-0.1l0.1,0.1c1.8-0.1,2.6-0.2,4.1-0.3c0-0.3,0.6-0.2,1-0.5c1.1,0,2.3,0.2,3.6,0.2c0.9-0.2,0.3-0.2,0.7-0.4
						c0.1,0.3,1.4,0.2,0.7,0.4c1.6-0.1,2-0.1,4-0.4c-0.2-0.1-0.5-0.1-0.3-0.2c0.4-0.1,0.8,0.1,0.8,0.2l-0.1,0c2.2-0.5,5.2,0.6,6.9,0
						l-0.1,0l1.8-0.3c0.9,0-0.5,0.2,0.1,0.3c2-0.5,3.1,0,4.8-0.4c1.3,0.7,4.5-0.2,6.2,0.2l-0.1-0.2c0.4-0.2,0.5,0.1,0.9,0.1
						c-0.1-0.1-0.5-0.1-0.2-0.2c3.7-0.3,7.8,0,11.6,0c1.4,0,0.8-0.9,2.6-0.6l-0.5,0.3c2.8-0.5,5.8-0.2,8.6-0.6
						c-0.2,0.1-0.2,0.2-0.4,0.2c0.6,0.2,2.2-0.1,2.2-0.2c0.4,0,0.1,0.2,0.4,0.3c0.6,0.1,1.5-0.3,1.8-0.1c0.1,0-0.2,0.1-0.3,0.1
						c0.4-0.1,1.8,0,1.4-0.3c1,0.1,2-0.2,2.8,0c0.5-0.3,1.8,0.1,1.9-0.3c-0.1,0.5,1.8,0.3,2.5,0.1c-0.2,0.1,0.6,0.1,0.3,0.3
						c0.8,0,1.4-0.1,1.3-0.4c1.4,0.5,2.8-0.5,3.6,0.2c2.2-0.3,4.3-0.5,6.3-0.7c-0.1,0.5-2.2,0.1-2.1,0.6c1.9-0.2,3-0.6,4.9-0.6
						c0.5,0-0.3,0.2-0.4,0.3c1.9-0.2,3.7,0,5.4-0.3c0,0-0.2,0.1-0.4,0.1c0.3,0,0.8,0,0.7-0.2l-0.3,0.1c-0.5-0.3,1.3-0.7,1.4-0.8
						c-0.6,0.6,1.7,0.1,0.8,0.9c0.2,0,0.5-0.1,0.4-0.3c0.3,0,0.4,0.1,0.1,0.3c1.2-0.1,0.8-0.3,1.8-0.4c0,0.1-0.2,0.1-0.3,0.3
						c0.5-0.2,1.1-0.4,2-0.3c-0.1,0.1,0.1,0.1-0.2,0.1c1.6-0.1,2.7-0.6,4.4-0.4c-0.5,0.4,0.6,0.1,0.7,0.5l0.9-0.1l-0.4-0.2
						c0.8,0,1.5-0.3,2.2-0.2l-0.6,0.2l1.5-0.1l-0.9-0.1c0.8-0.2-0.1-0.5,1-0.4c-0.2,0,0.8,0,1.2,0.2l0,0c0.4-0.1,0.8-0.3,1.4-0.2
						c0.2,0.1-0.1,0.4,0,0.5c0.4-0.3,1.9-0.1,2.4-0.5c-0.2,0.1-0.2,0.3-0.1,0.3l0.3-0.3c0.4,0.1,0.4,0.1,0.4,0.3
						c1.1,0-0.4-0.5,1-0.3c-0.1,0-0.1,0.1-0.3,0.1c1.4,0.1,2.6-0.2,3.9-0.1c0.4,0.4-1.1,0.1-0.7,0.4c1.8-0.1,3.7-0.5,5.4-0.5l-0.3,0
						c0.2-0.5,1.3,0.2,2.2,0c-0.2,0-0.3,0.3-0.2,0.2c1.2,0.1,2.4-0.2,4.2-0.4l-0.2,0.1c0.7,0.1,1.8,0,2.6,0.1
						c0.2-0.1,0.7-0.1,0.4-0.3c2.3,0.7,4.4-0.5,6.5,0.1c-0.2,0-0.6,0.1-0.4,0.1l1.8-0.1c-0.1-0.2-0.2-0.1-0.6-0.3
						c0.2-0.1,0.7-0.3,1.2-0.3c-0.8,0.2,0,0.4,0.4,0.5c-0.1-0.1,0.1-0.1,0-0.2c0.9,0.4,0.1-0.5,1.4-0.2l-0.1,0.1
						c0.5-0.1,0.9-0.2,1.4-0.2c0.2,0.3-0.5,0.1-0.5,0.4c0.7,0,1.4-0.5,2-0.3c-0.3,0.1-0.7,0.1-1,0.2c0.7,0.3,0.8,0.2,1.3,0.3l-0.1,0
						l1.2,0.1l-0.3-0.1c0.9-0.7,1.8-0.2,3-0.6c-1.2,0.4-0.2,0.3-0.3,0.6c0.3,0.1,0.8,0.2,0.6,0.3c0.6-0.3,0.9,0.2,1.7-0.2
						c0,0.1,0.6,0,0.5,0.2c0.7-0.1-0.2-0.2-0.1-0.3c1.1-0.3,2.7,0.4,4.3-0.1c1.4-0.2,1.7-0.5,3-0.7c0.4,0.2-0.4,0.4-0.4,0.4
						c0.7,0.1,1.2,0.1,1.9,0c-0.1,0.1,0,0.2,0.2,0.3c0.5,0,0.4-0.4,1.1-0.2c-0.1,0.1-0.3,0.3-0.5,0.4c0.6-0.1,1.3-0.3,1.9-0.4
						c0.2,0.2-0.4,0.3-0.6,0.4c0.7-0.1,1.9-0.2,2.1-0.4l-0.5-0.1c0.3,0,0.1,0.2-0.1,0.3c-0.6,0.2-0.9-0.1-1-0.2l0.5-0.1
						c-0.5-0.6-1.9,0.1-2.8,0.1l0.4-0.4l-1,0.4c-0.2-0.1-0.3-0.3,0.1-0.4c-0.7-0.2-0.6,0.2-1.2-0.1c-0.1,0,0-0.1,0-0.1l-0.7,0.1
						c0.1-0.1-0.1-0.3,0.3-0.2c-1.2-0.2-1.9,0.3-2.4,0l0.1,0c-1.6,0.2-0.2,0.3-1.4,0.7l-0.8-0.7l-0.2,0.3c-0.2,0-0.5,0-0.4-0.2
						c-0.6,0.2,0.1,0.1-0.3,0.3c-0.8-0.3-2.2,0.2-2.4-0.3c-0.3,0.2,0.8,0.2-0.1,0.3c-0.3-0.5-1,0.1-1.8-0.1c0.2-0.3,0.9-0.1,0.2-0.4
						c-0.4,0.5-1.5-0.1-2.1,0c0,0.4-1.4,0.2-2.4,0.3c0.1-0.1-2-0.2-3-0.3l0-0.1c-0.2,0.4-1.2,0.3-1.9,0.4c0-0.2,0.2-0.3,0.6-0.4
						l-0.7,0c-0.2,0.1-0.4,0.2-0.8,0.2l0.2-0.3c-0.9,0-1.9,0.3-3,0.2c-0.1,0.3,1,0.7-0.3,0.9c0-0.1-0.1-0.4,0.2-0.4
						c-0.1,0-0.4,0.1-0.6,0.1l0.5-0.2c-0.5-0.1-0.3,0.2-0.7,0.2c0-0.2-0.3-0.1-0.3-0.3c0.1,0,0.4,0.1,0.5,0c-0.5,0-1.1-0.1-1.3-0.3
						c0,0.1,0,0.3-0.4,0.3c-0.9,0-0.3-0.2-0.9-0.3c-0.2,0.1-0.8,0-0.8,0.3c-0.3,0-0.3-0.1-0.4-0.2c-0.5,0.1-2.2,0.1-1.7,0.4l0.1,0
						c0,0,0,0-0.1,0l0,0l0,0c-1.6,0.3-3.3-0.1-4.8,0l0-0.1c-0.9,0.1-2.1,0.1-2.7,0.3c-0.3,0-0.7-0.2-0.5-0.3
						c-0.7,0.1-0.8,0.2-1.8,0.1c0.7-0.2-0.2-0.1,0.7-0.1c-0.9-0.1-1.1-0.2-2.1,0.1c0.3-0.3-0.7-0.3-1.1-0.2l0.6,0.2
						c-0.5,0-0.9,0-1.4,0l0.2-0.3c-1.9-0.4-3.4,0.8-4.8,0.1c-0.5,0.2,1,0.1,0.6,0.4c-0.9,0-1.8-0.5-2.1-0.5
						c-1.2-0.2-1.1,0.5-2.3,0.4c0.2,0.1,0.3,0.4-0.6,0.6c-0.9,0-1.1-0.5-0.5-0.6c0.2,0,0.3,0,0.3,0.1c0.3,0,0.6-0.1,0.3-0.2
						l-0.1,0.1c-0.4-0.1-1.6-0.1-1.3-0.3c-0.7,0.1-0.3,0.2,0.2,0.3c-1.1-0.1-1.7,0-2.9-0.1c0.2,0.1,0.4,0.2,0.2,0.2
						c-1.7-0.1-0.7,0.2-1.9,0.3c-0.7-0.2,0.2-0.4-0.9-0.3c-0.7-0.1-0.2-0.3,0.1-0.4c-1,0.3-2-0.1-2.6-0.1l0.5-0.1
						c-0.3,0.1-0.6,0.1-0.9,0.1l0.3,0.2c-0.3,0-0.6,0-0.6-0.1c-0.3,0.2,0.3,0.4-0.4,0.6c-0.4-0.1-1.3,0.2-1.5-0.2
						c1.4,0.1-0.2-0.3,1-0.4c-0.2,0-0.5,0-0.8,0c0,0,0-0.1,0.1-0.1c-1.3-0.3-0.6,0.4-1.9,0.4c0.2-0.2-0.3-0.3-0.5-0.3
						c0.5,0,0.3,0.3-0.2,0.4c-0.9-0.1-0.9,0.1-1.4,0.1l0.5,0.1c-0.2,0.2-0.6,0.2-1.2,0.2c-0.1-0.1,0.5-0.1,0.3-0.2
						c-0.7,0.3-1.5-0.3-2.4-0.1c-0.4-0.1,0-0.3-0.4-0.4c-1,0.3-1.1-0.2-2.2,0c0.3,0.2,0.4,0.2-0.4,0.4l1.8-0.2l-1.1,0.4
						c0.5,0,1.1-0.2,1.5-0.1c-0.5,0.2-0.5,0.1-0.2,0.3c-0.8-0.3-1.5,0.2-2.3,0l0-0.6c-1.3-0.2-2.3,0.4-4,0.3l0.5,0.1
						c-0.2,0.2-1,0.1-1.6,0.2c0-0.2-0.3-0.3-0.5-0.4c0,0.1-1.2,0-1.4,0.4l-0.8-0.2c-1.4-0.1-1.5,0.6-2.8,0.6
						c0.4-0.2-0.2-0.3,0.7-0.5c-0.4,0-0.8,0-0.8,0.1c-0.3-0.1-1.2,0.3-1.6,0.1c-0.2,0.1-0.2,0.3-0.7,0.3c-0.1,0,0-0.1,0-0.1
						c0,0.1-0.8,0.2-0.3,0.4c-1.4-0.6-3.7,0.2-4.9-0.3c-0.9,0.1-2.1,0.2-2.9,0.2c0.1-0.1,0-0.1,0.2-0.1c-1.2-0.1-0.7,0.6-2.1,0.4
						c-0.7-0.3,0.7-0.2,0.3-0.3c-0.2-0.6-1.6,0.1-2.5-0.2l0.2,0c-0.7-0.2-1.7,0.3-2.8,0.3c0,0,0.1-0.1,0-0.1
						c-0.8,0.4-2.2,0.5-3.3,0.6c0.3-0.3,0.5-0.2,0.3-0.4c-0.5,0.1,0.2,0.4-0.8,0.5c-0.3-0.1-1-0.2-1.1-0.5l0.9,0
						c-0.5-0.3-1.2,0-1.7,0l0.1-0.2c-1.4,0.1-1.4,0.5-2.9,0.5l0.2,0.1c-0.8,0.4-0.7-0.2-1.5,0.1l-0.3-0.4c-0.5,0.1-1.9,0.4-2.9,0.5
						c0.5-0.3,1.7-0.5,2.4-0.7c-0.5,0-1.8,0.1-2.1,0.3c0.2,0,0.5-0.2,0.7-0.1c-0.7,0.3-1.5,0.5-2.6,0.5c0.2-0.8-2.8-0.1-3.6-0.7
						c-1.9,0.3-3.8,0-6,0.1c0.8,0.6-0.6,0-0.5,0.6c-0.5,0.1-0.7,0.1-0.8,0l-1.6-0.3c-0.4-0.2,0.5-0.2,0.4-0.3
						c-1.1,0-0.5-0.2-1.2-0.4c0.2,0.2-0.4,0.3-1,0.3l0.9,0.3c-1.6,0.4-1.4-0.5-3-0.1l0.5-0.2c-0.8,0.1-3,0.1-3.8,0.6
						c-0.1-0.1-0.3-0.2,0-0.3c-2,0-4.3,0.7-5.9,0.4l0.1-0.2c-0.4,0.1-0.6,0.3-1.1,0.2c0-0.1,0.1-0.2,0-0.2c-0.2,0.1-1,0.3-1.5,0.2
						l0.4-0.2c-1.9-0.1-2.9,0.5-4.5,0.7c0-0.4-1.5-0.5-2.3-0.6l0-0.1c-2.2,0-3.8,0.5-5.8,0.8c-1.3-0.4-4.3,0-6.4-0.2
						c0.3,0.1,0,0.3-0.4,0.4c-0.5-0.1-1.3,0.4-1.3,0l0.2,0c-0.4-0.4-1.4-0.2-2.1-0.2l-0.1,0.5c-2.1-0.7-5.3,0.5-6.4-0.1
						c-0.5,0.2-1.1,0.2-1.6,0.3l0-0.3c-1.4,0-2,0-3.7,0.1l0.3-0.2c-0.9,0-1.2,0.9-2,0.9l-0.3-0.4c-1.6,0.1-3.3-0.2-4.9,0.2
						c0-0.1,0.1-0.2,0.3-0.2c-0.8,0-3-0.1-2.7,0.4c0-0.4-1.7,0-2.6,0.3l0.1-0.3c-0.7,0.4-0.8,0.5-1.8,0.6c-0.3,0-0.2-0.2,0.1-0.2
						c-0.8-0.1-0.6,0.3-1.6,0.2l0.4-0.2c-0.9,0-0.8,0.1-1.2,0.3c-0.5,0.1-1.6,0-1.8-0.2c-0.1,0.2-0.6,0.4-1.1,0.3
						c-0.1-0.1,0.1-0.2,0.2-0.2c-1.4-0.1-2.1,0.4-3.1,0.2c0-0.1-0.1-0.1-0.2-0.2c1.1,0,2-0.1,2-0.1c0-0.3-0.9-0.3-0.2-0.6
						c-0.7,0.2-2,0.7-2.9,0.6c0,0-0.1,0-0.1-0.1l0.1,0c-0.2,0-0.4,0-0.6,0.1c-0.3,0-0.5-0.1-0.7,0c-0.1-0.2-1.1-0.1-1.5,0
						c0.1,0.3-0.5,0.3,0,0.5c-0.1,0,0.1,0,0.4-0.1c0.1,0,0.1,0,0.2,0l0,0c0.3,0,0.7,0,1.1-0.1c-0.4,0.2-0.7,0.3-1.2,0.2
						c-0.2,0.2-0.5,0.4-0.6,0.5c-0.6-0.4-1.9-0.5-2-0.7c-1.4,0.2-3.3,0.3-4.1,0.8c-0.4,0.1-0.5-0.1-0.6-0.2c0.2-0.1,0.5-0.1,0.6-0.2
						c-0.8,0.2-2.3,0.2-2.5,0.5c-1-0.1,0.5-0.4-0.8-0.2l0.2-0.1c-2.7-0.4-4.3,1.2-7.4,0.6c0.2,0,0.3,0.1,0.4,0.1
						c-3.4-0.2-7,0.7-10.4,0.3c-1-0.1-1.1,0.2-1.6,0.4l-0.2-0.3l-1,0.4c-1.4,0.3-2.5-0.6-4.3,0l0.2,0.2c-0.6,0-2,0.2-1.9,0
						c-0.1,0-0.2,0.2-0.5,0.1l0-0.2l-1.6,0.4c-1.2,0,0.2-0.6-1.6-0.6c-0.7,0.1-1.9,0.6-1.6,0.7c0.3,0,0.7,0.1,0.7,0.2l-0.6,0.1
						c-0.1,0.5-0.5,1,1,1.2l1-0.3l0.3,0.2l-0.9,0.1c0.5,0.2,0.8,0,1.2-0.2c0.1,0.1,0.2,0.2,0.4,0.2l1-0.5c0.1,0.2-0.4,0.4,0.3,0.4
						c0.5-0.2-0.5-0.4,0.3-0.6c0.5,0.2,0.4,0.4,0.9,0.2c0.1,0.1,0,0.2-0.3,0.3c0.5-0.2,1.4-0.1,1.6-0.4c0.5,0.2,1.8-0.2,1.7,0.3
						c0.2-0.1,0.9-0.4,1.4-0.4c-0.8,0.6,1.8-0.1,1.6,0.5c0.6-0.5,2.3-0.3,3.4-0.7c-0.1,0-0.2,0.1-0.3,0.1c0.6,0,0.8,0.1,1.3,0.2
						c0.1-0.4,1.1-0.5,1.6-0.8c0.8,0.3-0.5,0.5-0.2,0.8c-0.1-0.3,1.4-0.4,1.1-0.6c0.6,0.2,0.5,0.1,0.9,0.4c0.1-0.5,0.6-0.1,1-0.4
						c0.9,0.2,0.2,0.4,1.2,0.2C33.9,84.9,33,85.1,33,85.1z M55.8,83.1L55.8,83.1c-0.2,0-0.4,0-0.5,0C55.4,83.1,55.6,83.1,55.8,83.1z
						 M57.7,83c-0.2,0-0.5,0-0.8,0c-0.1-0.1,0-0.2,0.2-0.2C57,82.9,57.4,82.9,57.7,83z M53.6,81.2c0.3-0.1,0.4,0,0.5,0.1
						c-0.1,0-0.3,0-0.5,0.1c0,0,0,0,0,0C53.5,81.3,53.5,81.3,53.6,81.2z"/>
					<path class="st0" d="M53,81.6c0,0-0.1,0-0.1,0C53,81.7,53,81.7,53,81.6c0.1,0,0.1,0,0.2,0C53.2,81.6,53.1,81.6,53,81.6z"/>
					<path class="st0" d="M227,76.4L227,76.4C226.9,76.4,227,76.4,227,76.4C227,76.4,227,76.4,227,76.4z"/>
					<polygon class="st0" points="84.2,82.3 84.2,82.2 84,82.3 					"/>
					<path class="st0" d="M237.5,77.2c0,0,0.1,0,0.1,0.1C237.7,77.2,237.6,77.2,237.5,77.2z"/>
					<path class="st0" d="M242.1,77.2l0.6,0.1C242.5,77.2,242.3,77.2,242.1,77.2z"/>
					<path class="st0" d="M245.6,77.3c0,0,0.1-0.1,0.1-0.1l0,0L245.6,77.3z"/>
					<path class="st0" d="M189.8,78.6c0,0-0.1,0-0.1,0C189.4,78.7,189.6,78.6,189.8,78.6z"/>
					<path class="st0" d="M206.4,77.6c-0.2,0.1-0.3,0.1-0.5,0.1C206.2,77.7,206.4,77.7,206.4,77.6z"/>
					<polygon class="st0" points="171.3,79.4 171.3,79.4 171.2,79.4 					"/>
					<path class="st0" d="M205.1,77.7c0.3,0.1,0.5,0,0.8,0C205.6,77.7,205.4,77.7,205.1,77.7z"/>
					<path class="st0" d="M260.8,77.2l0.2,0c0,0,0,0,0,0L260.8,77.2z"/>
					<path class="st0" d="M261,77.2l0.2,0C261.1,77.1,261,77.1,261,77.2z"/>
					<path class="st0" d="M261.6,77.1l-0.4,0.1C261.3,77.1,261.5,77.1,261.6,77.1z"/>
					<path class="st0" d="M256.2,77.1l-0.1,0.1C256.2,77.2,256.2,77.2,256.2,77.1z"/>
					<path class="st0" d="M254.8,77.2c0.3,0,0.8,0.2,1.3,0.1l0-0.1C255.9,77.4,255.1,77,254.8,77.2z"/>
					<path class="st0" d="M248.9,76L250,76c-0.2-0.1-0.5-0.2,0.1-0.3C248.6,75.5,250.4,76,248.9,76z"/>
					<path class="st0" d="M245.2,75.9c0.6-0.1,0-0.2,0-0.2C244.8,75.8,244.7,75.8,245.2,75.9z"/>
					<path class="st0" d="M218.7,76.3l0.1-0.3C218.2,76,218.7,76.1,218.7,76.3z"/>
					<polygon class="st0" points="213.6,77.7 214.1,77.8 214.3,77.6 					"/>
					<polygon class="st0" points="210.6,75.9 210.8,75.9 210,76 					"/>
					<path class="st0" d="M166.1,77l0.2,0.3C166.6,77.3,166.6,76.9,166.1,77z"/>
					<path class="st0" d="M146.9,77.9c-0.2-0.2-0.8-0.2-1.1-0.1C146.2,77.9,146.6,78,146.9,77.9z"/>
					<polygon class="st0" points="89.2,79.6 89.6,79.4 88.9,79.5 					"/>
				</g>
			</g>
		</g>
	</g>
</g>
<g>
	<g>
		<g>
			<g>
				<g>
					<path class="st0" d="M243.1,76.5c0.4-0.1,0.2-0.3-0.9-0.3l-0.8,0.3L243.1,76.5z"/>
					<path class="st0" d="M235.9,75.5c-1.3,0.1-2.8,0.3-2,0.6c1.3-0.2,1.6-0.1,3-0.4c1.1,0,1.9,0.2,1.7,0.3c0.4-0.1,1.7,0.2,2.3,0
						c-1.4-0.3-3.2-0.4-5.1-0.3C235.4,75.6,235.8,75.5,235.9,75.5z"/>
					<path class="st0" d="M129.9,75.2l0.7,0C130.4,75.2,130.2,75.2,129.9,75.2z"/>
					<path class="st0" d="M64.5,81.4c0.5-0.1,0.7-0.1,0.7-0.2C64.8,81.3,64.4,81.4,64.5,81.4z"/>
					<path class="st0" d="M53.3,82.6c0.2,0,0.4,0,0.7-0.1C53.7,82.5,53.5,82.6,53.3,82.6z"/>
					<path class="st0" d="M129.9,75.2l-1.8,0C128,75.3,129.1,75.2,129.9,75.2z"/>
					<path class="st0" d="M221.2,75.6c0.4,0,0.7,0,1,0C221.9,75.5,221.6,75.5,221.2,75.6C221.3,75.5,221.3,75.6,221.2,75.6z"/>
					<path class="st0" d="M158.8,73.6l0.5,0c0.2,0,0.3-0.1,0.4-0.1L158.8,73.6z"/>
					<path class="st0" d="M181.1,73.2c-0.5,0-0.7,0.3-0.9,0.4c0.3-0.1,0.7-0.2,1.1-0.2C181.3,73.4,181.2,73.3,181.1,73.2z"/>
					<path class="st0" d="M216.3,74.2l0.6,0C216.8,74.2,216.5,74.2,216.3,74.2z"/>
					<path class="st0" d="M142.9,74.2c0,0-0.1-0.1-0.2-0.1C142.7,74.1,142.8,74.1,142.9,74.2z"/>
					<path class="st0" d="M37.9,86.9C37.9,86.9,37.9,86.9,37.9,86.9C37.7,86.9,37.7,86.9,37.9,86.9z"/>
					<path class="st0" d="M12.1,85.3l0.4,0c0-0.1,0.1-0.1,0.1-0.2L12.1,85.3z"/>
					<path class="st0" d="M33,85.5C33,85.5,33,85.5,33,85.5C33.6,85.4,33.3,85.4,33,85.5z"/>
					<path class="st0" d="M171.8,87.8c-2.1-0.1,3.5-0.5,0.2-0.6C172.3,87.3,169.1,87.8,171.8,87.8z"/>
					<path class="st0" d="M220.7,75.5c-0.3,0-0.6,0-0.9,0C220.2,75.5,220.5,75.5,220.7,75.5z"/>
					<path class="st0" d="M172,87.2L172,87.2l-0.3,0C171.8,87.2,171.9,87.2,172,87.2z"/>
					<path class="st0" d="M30.7,92.5c-0.1,0-0.3-0.1-0.5-0.1C30.2,92.4,30.3,92.4,30.7,92.5z"/>
					<path class="st0" d="M21.2,88.1l-0.9,0.1C20.7,88.2,21,88.2,21.2,88.1z"/>
					<path class="st0" d="M49,91.8c0.5,0,0.6,0.1,1.3,0c-0.1,0-0.1,0-0.2,0C49.8,91.9,49.5,91.9,49,91.8z"/>
					<path class="st0" d="M68,91.5c-0.1,0-0.2,0-0.4,0c-0.2,0-0.4,0-0.6,0L68,91.5z"/>
					<path class="st0" d="M95.7,86.5c-0.4-0.1-0.7-0.2-0.9-0.2C95.2,86.5,92.4,86.6,95.7,86.5z"/>
					<path class="st0" d="M221.2,75.4c-0.1,0.1-0.3,0.1-0.6,0.1c0.2,0,0.4,0,0.6,0C221.4,75.5,221.4,75.4,221.2,75.4z"/>
					<path class="st0" d="M49.7,89.6l3,0C51.9,89.6,50.8,89.6,49.7,89.6z"/>
					<path class="st0" d="M232.3,82.7l-0.7,0.1C231.9,82.7,232.1,82.7,232.3,82.7z"/>
					<path class="st0" d="M61.7,89.4c0.5,0.1,1.1,0.1,1.7,0.2c0.1,0,0.3,0,0.3-0.1L61.7,89.4z"/>
					<path class="st0" d="M94.9,86.3C94.9,86.3,94.9,86.3,94.9,86.3C94.9,86.3,94.9,86.3,94.9,86.3z"/>
					<path class="st0" d="M74.9,87.1c2.9,0,1.4-0.4,2-0.6c3.4-0.1,1.6,0.3,2.8,0.4c2.1-0.1,3.8-0.5,5.4-0.5c0.1,0.1,0.4,0.1,0.1,0.2
						c2.3-0.3,6.7-0.1,9.4-0.5c0.2,0,0.3,0.1,0.3,0.1c-0.4-0.2-0.5-0.4-0.4-0.5c1.3,0,2.4-0.3,2.9,0c-0.8,0-0.9,0.1-1.2,0.2l1.4-0.1
						c1.2,0.3-1.8,0.1-1.8,0.4c2.6-0.1,5.7-0.5,7.7-0.4c0.4,0.3-4.7,0.2-2,0.4l-3.1-0.1c2.4,0.5-1.9,0,0.3,0.5
						c4.1,0,4.6-0.2,8.7-0.2c0.9-0.2-0.3-0.3,0.6-0.5c5.8-0.4,4.6,0.8,8.9,0.3c1.1-0.2,1.5-0.7,4.6-0.5l-1,0.4c4,0,2.3-0.6,6.4-0.4
						c-0.7,0.2-3.1,0.2-2.5,0.2c2.7,0.2,1.9-0.3,4-0.3l0.4,0.3c4.2-0.1,8.9-0.5,13.6-0.6c-0.3,0.1-1.1,0.2,0,0.3
						c5.9-0.3,12.7-0.2,18.4-0.2l2.2-0.4c0.5,0,0.9,0.1,0.4,0.2c2.2,0,0.1-0.2,1.2-0.3c1.3-0.1,1.7,0.1,0.9,0.2
						c3.9-0.3,11.2-0.9,15.3-0.7l-0.8,0.1c3.2,0,3.6-0.7,6.6-0.5l-0.6,0.1c7-0.1,14.7-0.7,20.1-0.4c1-0.5,6.9-0.1,7.4-0.7
						c4,0.1,2.9,0.3,8.5,0.2c1.5,0,2.2-0.5,4.1-0.6L226,83l2.5-0.4l1.4,0.3l1.7-0.2c-0.7,0-1.5-0.1-1.4-0.2c2.7-0.3,6.6-0.1,6.7,0.1
						l6.4-0.6c-0.1,0.1-1.2,0.2-2.1,0.3c3.4-0.5,0.6,0.3,3.8-0.1c-0.4,0,0.2-0.2,0.3-0.3c1.6,0.1,5.2-0.1,7.8-0.3l-0.5,0.2
						c4.1-0.2,8.7-0.5,13.3-0.8l-0.2-2.7c-0.7,0.1-1.4,0.1-2.1,0.2c1.9-0.1,1.5,0.3,0,0.5L263,79c-1,0.3,1.6,0-0.4,0.4
						c-2,0.1-1.4-0.3-0.2-0.5l-2.4,0.3c-0.2-0.1,0.4-0.2,0.6-0.3c-1,0.3-4.2,0-5.6,0.5l-0.1-0.1c-5.3,0.5-7.8,0.7-12.1,1.1
						c-0.1,0.3-1.8,0.4-3.1,0.7c-3.2,0.2-6.8,0.2-10.6,0.5c-2.7,0.3-0.8,0.3-2,0.6c-0.2-0.2-4.1,0.1-2.1-0.3
						c-4.6,0.4-5.9,0.5-11.8,1.1c0.6,0.1,1.4,0.1,1,0.2c-1.1,0.1-2.4,0.1-2.3-0.1l0.3,0c-6.5,0.9-15.2,0.3-20.4,1.1l0.3,0l-5.4,0.6
						c-2.5,0.1,1.5-0.3-0.4-0.3c-5.8,0.8-9.3,0.5-14.1,1c-3.8-0.5-13.3,0.8-18.3,0.6l0.3,0.2c-1.3,0.2-1.6,0-2.5,0
						c0.1,0.1,1.4,0.1,0.6,0.2c-11,0.8-22.8,0.8-34.2,1.1c-4.1,0.1-2.3,1-7.6,0.8l1.5-0.4c-8.3,0.7-17.1,0.6-25.3,1.1
						c0.5-0.1,0.5-0.2,1.3-0.2c-1.7-0.2-6.4,0.2-6.4,0.3c-1.3,0-0.3-0.2-1.1-0.2c-1.7-0.1-4.3,0.4-5.3,0.2c-0.2,0,0.5-0.1,0.8-0.1
						c-1.1,0.2-5.3,0.1-4.2,0.3c-3.1-0.1-5.9,0.2-8.3,0.1c-1.6,0.3-5.3,0-5.8,0.4c0.2-0.4-5.4-0.3-7.3,0c0.6-0.1-1.7-0.1-0.9-0.3
						c-2.2,0-4.3,0.2-3.9,0.4c-4.1-0.5-8.2,0.5-10.5-0.1c-6.6,0.3-12.7,0.5-18.6,0.6c0.2-0.5,6.6-0.1,6.3-0.5
						c-5.5,0.2-8.7,0.6-14.2,0.5l0.2,1.8c0.1,0,0.2,0,0.3,0c0.9-0.1,0.4,0-0.2,0.2l-0.2-2.1c0.4,0,0.8-0.1,1-0.1c-0.3,0-0.7,0-1,0
						l0.2,2.2c5.1-1.1,10-1.8,14.5-2.9c0,0-0.5,0.2-1,0.3c1-0.2,2.3-0.3,2.1-0.5l-0.9,0.2c-1.6,0,3.7-1.3,3.9-1.5
						c-1.5,0.9,4.9-0.7,2.4,0.5c0.6-0.1,1.4-0.4,1.2-0.5c1-0.1,1.3-0.1,0.3,0.2c3.5-0.7,2.2-0.7,5.3-1.3c0,0.1-0.6,0.2-0.9,0.4
						c1.6-0.5,3.1-0.9,5.8-1.3c-0.2,0.1,0.2,0.1-0.6,0.2c4.6-0.7,7.7-1.8,12.8-2.3c-1.4,0.6,1.7-0.1,2.1,0.2l2.7-0.5l-1.1,0
						c2.4-0.3,4.4-0.9,6.5-1.1l-1.7,0.4l4.4-0.7L64,82.7c2.4-0.5-0.3-0.4,2.9-0.8c-0.6,0.1,2.4-0.3,3.7-0.2l0,0
						c1.2-0.3,2.4-0.5,4.1-0.7c0.5,0.1-0.3,0.5,0,0.5c1.1-0.5,5.6-0.8,7-1.3c-0.5,0.1-0.5,0.3-0.3,0.4l0.9-0.4c1.1,0,1.3,0,1.1,0.2
						c3.3-0.3-1.1-0.4,2.9-0.6c-0.3,0.1-0.2,0.1-0.8,0.2c4-0.3,7.6-1,11.3-1.2c1.1,0.3-3.2,0.4-1.9,0.6c5.2-0.6,10.8-1.4,15.9-1.8
						l-1,0c0.7-0.6,3.8,0,6.4-0.5c-0.6,0.1-0.8,0.4-0.6,0.3c3.5-0.2,7.1-0.7,12.4-1.2l-0.6,0.2c2.1,0,5.4-0.2,7.6-0.3
						c0.7-0.2,1.9-0.2,1.1-0.4c3.4,0.2,6.7-0.1,9.9-0.3c3.2-0.2,6.2-0.5,9.3-0.3c-0.7,0-1.7,0.2-1.2,0.2c0,0,1.3-0.1,2.6-0.1
						c1.3-0.1,2.6-0.1,2.6-0.1c-0.4-0.2-0.7-0.1-1.8-0.3c0.7-0.2,2.1-0.3,3.4-0.3c-2.3,0.2,0,0.4,1,0.5c-0.2-0.1,0.2-0.2,0.1-0.2
						c2.7,0.3,0.4-0.5,4.1-0.3l-0.2,0.1c1.4-0.1,2.7-0.3,4.2-0.3c0.6,0.3-1.5,0.1-1.6,0.4c2.1-0.1,4.1-0.6,6-0.3
						c-0.9,0.1-2.2,0.1-3.1,0.2c2.1,0.3,2.3,0.2,3.8,0.2l-0.2,0l3.6,0.1l-0.9-0.1c2.6-0.7,5.3-0.2,8.9-0.6c-3.4,0.4-0.6,0.2-0.8,0.5
						c0.9,0.1,2.3,0.2,1.9,0.3c1.7-0.2,2.8,0.2,5.1-0.1c0.1,0.1,1.8,0,1.4,0.3c2.2-0.1-0.5-0.2-0.3-0.3c1.7-0.1,3.6-0.1,5.8,0.1
						c2.1,0.1,4.5,0.3,6.9,0.1c4.2-0.1,4.9-0.4,8.8-0.4c1.3,0.2-1.1,0.3-1.1,0.3c2.1,0.2,3.7,0.3,5.7,0.2c-0.4,0.1,0,0.2,0.6,0.3
						c1.6,0,1.1-0.3,3.2-0.1c-0.4,0.1-0.8,0.2-1.6,0.3c1.9,0,3.7-0.1,5.7-0.1c0.5,0.2-1.2,0.2-1.9,0.3c2.2,0,5.6,0.1,6.3-0.1
						l-1.4-0.2c0.8,0,0.4,0.3-0.2,0.3c-1.9,0.1-2.7-0.2-2.8-0.3l1.4,0c-1.4-0.7-5.5-0.1-8.3-0.3l1.2-0.4l-2.9,0.2
						c-0.6-0.1-1-0.4,0.4-0.4c-2-0.3-1.8,0.1-3.5-0.2c-0.2,0-0.1-0.1,0.1-0.1l-1.9,0c0.4-0.1-0.3-0.3,0.9-0.2
						c-3.5-0.4-5.6,0.2-6.9-0.2l0.3,0c-4.8,0-0.5,0.3-4.1,0.6l-2.4-0.8l-0.5,0.3c-0.5,0-1.5-0.1-1.3-0.2c-1.9,0.2,0.3,0.1-0.8,0.3
						c-2.4-0.3-6.6,0.1-7.2-0.4c-0.9,0.2,2.3,0.2-0.3,0.3c-0.7-0.5-3,0.1-5.2-0.2c0.7-0.3,2.8-0.1,0.6-0.4c-1.3,0.4-4.3-0.1-6.1,0
						c-0.1,0.4-4,0.2-7.1,0.3c0.2-0.1-5.9-0.2-8.8-0.2l0.1-0.1c-0.6,0.4-3.5,0.4-5.7,0.5c0.1-0.2,0.5-0.3,1.6-0.4l-2,0.1
						c-0.5,0.1-1.1,0.2-2.4,0.3l0.5-0.3c-2.7,0.1-5.5,0.5-9,0.5c-0.2,0.3,2.8,0.6-0.9,0.9c-0.1-0.1-0.3-0.4,0.7-0.5
						c-0.3,0-1.1,0.2-1.8,0.1l1.5-0.3c-1.6,0-0.8,0.2-2.1,0.3c0-0.2-0.9-0.1-0.8-0.3c0.3,0,1.1,0,1.6-0.1c-1.4,0-3.2,0-3.8-0.1
						c0.1,0.1,0,0.3-1,0.3c-2.7,0.1-0.9-0.2-2.5-0.2c-0.7,0.2-2.4,0.1-2.4,0.4c-0.8,0-0.9-0.1-1.3-0.1c-1.4,0.2-6.6,0.4-5,0.6l0.4,0
						c-0.1,0-0.1,0-0.2,0c0,0,0,0,0,0l0,0c-4.6,0.5-9.6,0.5-14.1,0.9l0-0.1c-2.7,0.3-6.1,0.5-8,0.9c-0.8,0.1-1.9,0-1.6-0.2
						c-2.1,0.3-2.3,0.4-5.3,0.5c2.1-0.4-0.7-0.1,2.1-0.3c-2.7,0.2-3.3,0.1-6.2,0.6c1-0.3-2.1-0.1-3.3,0.1l1.9,0
						c-1.4,0.2-2.7,0.3-4,0.4l0.7-0.4c-5.6,0.2-9.9,1.7-14.2,1.6c-1.4,0.4,3-0.2,1.7,0.2c-2.5,0.3-5.2,0.1-6,0.2
						c-3.5,0.2-3.2,0.9-6.8,1.2c0.5,0.1,1,0.3-1.7,0.8c-2.5,0.3-3.2-0.1-1.6-0.4c0.6-0.1,0.9-0.1,0.9-0.1c0.8-0.2,1.9-0.4,0.9-0.3
						l-0.3,0.2c-1.3,0.1-4.8,0.6-4,0.3c-1.9,0.4-0.8,0.3,0.6,0.2c-3.3,0.3-5.1,0.7-8.4,1.1c0.5,0,1.1,0.1,0.5,0.1
						c-4.9,0.5-2.1,0.5-5.4,1.1c-1.9,0.1,0.6-0.5-2.7,0.1c-2.1,0.2-0.5-0.2,0.3-0.5c-3,0.7-5.7,0.7-7.5,1l1.6-0.3
						c-0.9,0.2-1.7,0.3-2.5,0.5l1,0.1c-0.9,0.1-1.7,0.2-1.7,0.1c-0.9,0.3,0.8,0.3-1.1,0.8c-1.3,0.1-3.8,0.8-4.3,0.6
						c4-0.6-0.5-0.2,2.8-0.9c-0.6,0.1-1.4,0.3-2.4,0.4c-0.1,0,0.1-0.1,0.4-0.1c-3.8,0.4-1.7,0.7-5.6,1.3c0.5-0.3-1-0.2-1.6,0
						c1.6-0.3,0.8,0.2-0.6,0.5c-2.5,0.3-2.7,0.6-4,0.8l1.5-0.2c-0.5,0.3-1.7,0.5-3.5,0.9c-0.2-0.1,1.6-0.4,0.9-0.3
						c-1.9,0.7-4.4,0.5-7.1,1.2c-1.3,0.1-0.2-0.3-1.3-0.2C10.1,90,9.3,90,8.3,90.2l0.2,2.5c0.7,0.1,1.6,0.1,3,0
						c-0.9-0.2-1.1-0.2,1.2-0.4l-4.1,0.1l-0.2-1.9l1.1-0.3l-1.1,0.3l0.2,1.8l2.2-0.2c-0.7,0-1.5,0-2.2,0.1l-0.1-1.5
						c0.8-0.2,1.5-0.4,2.1-0.4c-1.6,0.5-1.4,0.4-0.6,0.5c-0.5,0-0.9,0.1-1.4,0.1l0.1,1.1c1.7,0,3.5-0.3,5.5-0.1l-0.1,0.6
						c3.8,0.2,6.8-0.3,11.7-0.2L24,92.1c0.7-0.2,3.1-0.1,4.7-0.2c-0.1,0.2,0.9,0.3,1.5,0.4c-0.1-0.1,3.6,0,4.1-0.4l2.2,0.2
						c4,0.1,4.5-0.6,8.4-0.6c-1.2,0.2,0.6,0.3-2,0.5c1.3,0,2.4,0,2.5-0.1c0.7,0.1,3.5-0.3,4.7-0.1c0.5-0.1,0.7-0.3,2.1-0.3
						c0.2,0,0,0.1,0,0.1c0-0.1,2.2-0.2,1-0.4c4,0.6,11-0.3,14.5,0.2c2.8-0.1,6.2-0.2,8.7-0.3c-0.2,0.1,0,0.1-0.5,0.1
						c3.5,0.1,2.1-0.6,6.1-0.5c2,0.3-2.1,0.2-0.8,0.3c0.6,0.6,4.8-0.2,7.5,0.1L88,91.2c2.1,0.2,5-0.4,8.3-0.5c0,0-0.2,0.1,0,0.1
						c2.3-0.4,6.6-0.6,9.8-0.8c-1,0.3-1.5,0.2-0.8,0.4c1.4-0.1-0.4-0.4,2.4-0.6c0.9,0.1,3,0.2,3.3,0.4l-2.7,0.1
						c1.4,0.3,3.5-0.1,4.9-0.1l-0.2,0.2c4.2-0.2,4.2-0.6,8.7-0.7l-0.5-0.1c2.4-0.5,2.1,0.1,4.5-0.3l0.8,0.4c1.6-0.2,5.6-0.6,8.5-0.8
						c-1.6,0.4-5,0.7-7.1,0.9c1.6-0.1,5.4-0.3,6.3-0.5c-0.6,0.1-1.5,0.2-2.1,0.2c1.9-0.4,4.5-0.6,7.7-0.8c-0.5,0.8,8.3-0.2,10.6,0.3
						c5.6-0.5,11.2-0.5,17.7-0.8c-2.4-0.5,1.9-0.1,1.5-0.7c1.5-0.1,2.1-0.2,2.2-0.1l4.7,0.1c1.1,0.1-1.4,0.2-1.3,0.3
						c3.3-0.1,1.4,0.2,3.6,0.2c-0.5-0.2,1.1-0.4,3.1-0.4l-2.7-0.1c4.7-0.6,4.1,0.3,8.8-0.3l-1.5,0.3c2.4-0.3,8.9-0.6,11.3-1.2
						c0.4,0,1,0.2-0.1,0.3c5.8-0.3,12.8-1.4,17.3-1.4l-0.4,0.2c1.1-0.1,1.9-0.4,3.2-0.4c-0.1,0.1-0.4,0.2,0.1,0.2
						c0.6-0.1,2.8-0.5,4.3-0.5l-1.2,0.3c5.6-0.2,8.6-1.1,13.3-1.5c0,0.4,4.5,0.2,6.7,0.1l-0.1,0.1c6.6-0.5,11.1-1.3,17.2-2
						c1.8,0.1,4.6-0.1,7.8-0.4l-0.2-2.4c-3.7,0.2-7.8,0.4-11,0.4c0.9,0-0.1,0.4-1.2,0.5c-1.4,0-3.9,0.5-3.7,0.1l0.5,0
						c-1.1-0.3-4-0.1-6.3,0l-0.4,0.5c-6-0.5-15.6,1-18.9,0.5c-1.4,0.2-3.2,0.3-4.6,0.5l0.1-0.3c-4,0.1-6,0.1-10.9,0.4l1-0.2
						c-2.8,0.1-3.5,1-6.1,1.1l-0.8-0.4c-4.9,0.2-9.8,0-14.6,0.5c0.1-0.1,0.2-0.2,1-0.2c-2.3,0.1-8.9,0-8,0.6c-0.1-0.4-5,0.1-7.6,0.4
						l0.4-0.3c-2.2,0.4-2.3,0.5-5.4,0.7c-0.7,0-0.6-0.2,0.3-0.2c-2.4-0.1-1.9,0.3-4.9,0.3l1.1-0.2c-2.5,0-2.3,0.1-3.7,0.4
						c-1.6,0.2-4.8,0.1-5.2-0.2c-0.3,0.2-1.7,0.4-3.2,0.4c-0.2-0.1,0.3-0.2,0.6-0.2c-4.2-0.1-6.2,0.5-9.1,0.3
						c-0.1-0.1-0.3-0.1-0.5-0.2c3.3-0.1,6-0.1,5.8-0.1c0-0.3-2.7-0.2-0.6-0.6c-2.2,0.2-5.9,0.8-8.5,0.7c-0.1,0-0.3,0-0.3-0.1l0.3,0
						c-0.6,0-1.2,0-1.7,0.1c-0.8,0-1.4,0-2.2,0c-0.3-0.2-3.1-0.1-4.4,0c0.1,0.3-1.6,0.3,0,0.5c-0.2,0,0.3,0,1.1-0.1
						c0.2,0,0.4,0,0.6,0c0,0-0.1,0-0.1,0c0.9,0,2-0.1,3.3-0.1c-1.1,0.2-2.2,0.3-3.7,0.2c-0.7,0.2-1.4,0.4-1.9,0.5
						c-1.8-0.4-5.4-0.5-5.9-0.7c-4.1,0.2-9.7,0.3-12.3,0.8c-1.2,0.1-1.3-0.1-1.8-0.2c0.7-0.1,1.5-0.1,1.8-0.1
						c-2.3,0.2-6.9,0.2-7.5,0.5c-2.9-0.1,1.7-0.4-2.4-0.3l0.5-0.1c-8-0.5-12.9,1.1-21.8,0.4c0.6,0,0.9,0.1,1,0.1
						c-10.1-0.2-20.7,0.4-30.7-0.1c-2.8-0.1-3.1,0.1-4.9,0.3l-0.6-0.3l-2.9,0.3c-4.2,0.2-7.2-0.8-12.5-0.3l0.7,0.2
						c-1.9,0-6,0.1-5.7-0.1c-0.2,0-0.6,0.2-1.4,0.1l-0.1-0.2l-4.7,0.2c-3.6-0.1,0.6-0.6-4.7-0.7c-2,0-5.6,0.4-4.9,0.5
						c0.8,0,2,0.1,2.1,0.3l-1.8,0.1c-0.3,0.5-1.7,0.9,2.7,1.3l3.1-0.3l1,0.2l-2.6,0c1.5,0.2,2.4,0,3.4-0.1c0.2,0.1,0.7,0.2,1.3,0.3
						l3-0.4c0.4,0.2-1.4,0.4,0.7,0.5c1.4-0.2-1.4-0.4,1-0.5c1.5,0.2,1,0.4,2.8,0.2c0.2,0.1-0.1,0.2-0.8,0.2c1.5-0.1,4.1,0,4.9-0.3
						c1.5,0.3,5.2,0,5,0.4c0.5-0.1,2.7-0.3,4.1-0.3c-2.6,0.5,5.3,0,4.6,0.6c1.9-0.5,6.9-0.2,10.3-0.5c-0.2,0-0.6,0.1-0.9,0.1
						c1.9,0,2.5,0.2,3.7,0.3c0.2-0.4,3.2-0.5,4.8-0.7c2.3,0.4-1.4,0.5-0.7,0.8c-0.1-0.3,4-0.3,3.3-0.6c1.8,0.2,1.5,0.1,2.5,0.4
						c0.3-0.5,1.7-0.1,3.1-0.4c2.6,0.2,0.7,0.5,3.5,0.3C77.4,86.9,74.9,87.1,74.9,87.1z M142.2,85.3L142.2,85.3
						c-0.6,0-1.1,0-1.4,0.1C141.1,85.4,141.5,85.4,142.2,85.3z M147.9,85.2c-0.7,0-1.5,0-2.5,0c-0.2-0.1,0-0.2,0.6-0.2
						C145.7,85.1,147.1,85.1,147.9,85.2z M135.9,83.5c0.9-0.1,1.2,0,1.3,0c-0.4,0-0.9,0-1.6,0.1c0,0-0.1,0-0.1,0
						C135.6,83.6,135.7,83.6,135.9,83.5z"/>
					<path class="st0" d="M134.3,83.9c-0.1,0-0.2,0-0.4,0c0.2,0,0.4,0,0.5,0.1c0.1,0,0.2-0.1,0.3-0.1
						C134.6,83.9,134.4,83.9,134.3,83.9z"/>
					<path class="st0" d="M130.7,75.2l-0.1,0c0.1,0,0.2,0,0.3,0C130.8,75.2,130.8,75.2,130.7,75.2z"/>
					<polygon class="st0" points="226,83.1 226,83 225.5,83.1 					"/>
					<path class="st0" d="M161.9,74.8c0.1,0,0.2,0,0.4,0.1C162.3,74.9,162.1,74.9,161.9,74.8z"/>
					<path class="st0" d="M175.3,74.7l1.9,0.1C176.4,74.7,175.8,74.7,175.3,74.7z"/>
					<path class="st0" d="M185.7,74.7c0.1,0,0.2-0.1,0.2-0.1l0,0L185.7,74.7z"/>
					<path class="st0" d="M22.2,89.9c-0.1,0-0.3,0.1-0.4,0.1C20.9,90.2,21.6,90,22.2,89.9z"/>
					<path class="st0" d="M70.5,81.7c-0.5,0.1-1,0.2-1.5,0.3C69.8,81.9,70.5,81.9,70.5,81.7z"/>
					<path class="st0" d="M49.4,89.6C49.4,89.6,49.4,89.6,49.4,89.6c0.1,0,0.2,0,0.3,0L49.4,89.6z"/>
					<path class="st0" d="M66.7,82.3c0.9-0.1,1.6-0.2,2.3-0.3C68.2,82.1,67.4,82.2,66.7,82.3z"/>
					<path class="st0" d="M230.4,76l0.5,0c0,0,0,0,0.1,0L230.4,76z"/>
					<path class="st0" d="M231,76l0.6,0C231.3,76,231.1,76,231,76z"/>
					<path class="st0" d="M232.7,76l-1.2,0C232,76,232.5,76.1,232.7,76z"/>
					<path class="st0" d="M216.8,75.3l-0.2,0.1C216.7,75.4,216.8,75.3,216.8,75.3z"/>
					<path class="st0" d="M212.6,75.2c1,0,2.5,0.3,3.9,0.3l0.1-0.1C216,75.5,213.6,75,212.6,75.2z"/>
					<path class="st0" d="M195.3,73.6l3.5,0.1c-0.6-0.1-1.4-0.3,0.2-0.3C194.6,73,199.9,73.6,195.3,73.6z"/>
					<path class="st0" d="M184.5,73.3c1.9,0,0-0.2,0.1-0.2C183.3,73.2,183.1,73.2,184.5,73.3z"/>
					<path class="st0" d="M106.3,76.8l0.2-0.3C105.1,76.7,106.5,76.6,106.3,76.8z"/>
					<polygon class="st0" points="91.6,79.5 93,79.5 93.7,79.2 					"/>
					<polygon class="st0" points="82.6,78.7 83.2,78.5 80.9,78.9 					"/>
					<path class="st0" d="M64.6,91.8l-0.4-0.3C63.2,91.6,63,91.9,64.6,91.8z"/>
					<path class="st0" d="M121.3,89.8c0.6,0.1,2.2,0.2,3.2,0C123.2,89.8,121.9,89.8,121.3,89.8z"/>
					<polygon class="st0" points="240.9,79.9 242,79.7 239.9,79.9 					"/>
				</g>
			</g>
		</g>
	</g>
</g>
<g>
	<g>
		<g>
			<g>
				<g>
					<path class="st0" d="M15.3,67.7c-0.1-0.3-0.3-0.1-0.2,0.7l0.3,0.6L15.3,67.7z"/>
					<path class="st0" d="M14.8,73.7c0.2,1,0.5,2.2,0.8,1.5c-0.3-1-0.2-1.3-0.6-2.4c-0.1-0.9,0.1-1.5,0.2-1.4
						c-0.1-0.3,0-1.4-0.2-1.8c-0.2,1.2-0.2,2.6,0,4.1C14.9,74,14.8,73.7,14.8,73.7z"/>
					<path class="st0" d="M10.3,63.7l0,0.8C10.4,64.3,10.4,64,10.3,63.7z"/>
					<path class="st0" d="M8,60c0-0.4-0.1-0.6-0.1-0.6C8,59.8,8,60.1,8,60z"/>
					<path class="st0" d="M8.3,69.1c0-0.2,0-0.4,0-0.5C8.3,68.8,8.3,69,8.3,69.1z"/>
					<path class="st0" d="M10.3,63.7l-0.1-2C10.2,62.6,10.3,63,10.3,63.7z"/>
					<path class="st0" d="M13.9,81.7c0,0.3,0.1,0.5,0.2,0.8C14,82.2,14,81.9,13.9,81.7C13.9,81.7,13.9,81.7,13.9,81.7z"/>
					<path class="st0" d="M11,59.5l0-0.2l0,0c0-0.5-0.1-0.9-0.1-1.3l0.1,0.8L11,59.5z"/>
					<path class="st0" d="M12.7,49c0-0.4-0.3-0.5-0.4-0.6l-0.8,0l0,0c0,0,0,0,0,0l0.8,0c0.1,0.2,0.2,0.5,0.2,0.8
						C12.6,49.2,12.6,49.2,12.7,49z"/>
					<path class="st0" d="M14.7,77.5l0.1,0.5C14.7,77.9,14.7,77.7,14.7,77.5z"/>
					<path class="st0" d="M10.9,65.6c0-0.3,0-0.7-0.1-1.2c0-0.1,0-0.3,0-0.4c0,0.1,0,0.1,0,0.6C10.8,64.8,10.9,65,10.9,65.6z"/>
					<path class="st0" d="M1.9,22.7C1.9,22.7,1.9,22.7,1.9,22.7C1.8,22.6,1.8,22.6,1.9,22.7z"/>
					<path class="st0" d="M7,9.7L6.8,9.9c0,0.1,0,0.1,0,0.2L7,9.7z"/>
					<path class="st0" d="M10.6,61.5C10.6,61.5,10.6,61.5,10.6,61.5C10.6,62,10.6,61.7,10.6,61.5z"/>
					<path class="st0" d="M8.8,61.2c-0.4-4.3-0.3-3.4-0.6-6.3c-0.2-2-0.4-4.3-0.7-6.5c0.1,0.9,0.4,3.7,0.6,6.3
						C8.4,56.8,8.2,55.3,8.8,61.2z"/>
					<path class="st0" d="M13.9,81.2c0-0.2,0-0.5-0.1-0.7C13.8,80.8,13.9,81,13.9,81.2z"/>
					<path class="st0" d="M7.5,48.4L7.5,48.4L7.5,48C7.5,48.2,7.5,48.3,7.5,48.4z"/>
					<path class="st0" d="M8.8,69.6c0-0.1,0.1-0.2,0.1-0.4C8.9,69.2,8.8,69.3,8.8,69.6z"/>
					<path class="st0" d="M9.6,51.7l0-0.7C9.6,51.3,9.6,51.5,9.6,51.7z"/>
					<path class="st0" d="M9.8,62.9c0-0.4,0-0.5-0.1-1c0,0.1,0,0.1,0,0.2C9.8,62.2,9.8,62.4,9.8,62.9z"/>
					<path class="st0" d="M8.1,47.5c0,0.1,0,0.2,0,0.3c0,0.2,0,0.3,0.1,0.5L8.1,47.5z"/>
					<path class="st0" d="M6.1,25.3c0-0.3,0.1-0.6,0.2-0.7C6,24.8,5.7,22.6,6.1,25.3z"/>
					<path class="st0" d="M14,81.6c-0.1-0.1-0.1-0.2-0.2-0.4c0,0.2,0,0.3,0.1,0.5C14,81.7,14,81.8,14,81.6z"/>
					<path class="st0" d="M7.6,62.5L7.3,60C7.4,60.7,7.5,61.6,7.6,62.5z"/>
					<path class="st0" d="M9.5,56.8l0,0.6C9.5,57.2,9.5,57,9.5,56.8z"/>
					<path class="st0" d="M6.5,52.8c0-0.4,0.1-0.9,0-1.4c0-0.1-0.1-0.2-0.1-0.3L6.5,52.8z"/>
					<path class="st0" d="M6.2,24.6C6.2,24.6,6.2,24.6,6.2,24.6C6.2,24.6,6.2,24.6,6.2,24.6z"/>
					<path class="st0" d="M6.6,8.8c0-0.1,0-0.1,0-0.2L3.5,8.8c0.3,2.1,0.5,0.9,0.8,1.3c0.5,2.8-0.1,1.3-0.2,2.3c0.3,1.7,0.8,3,1,4.3
						c0,0.1,0,0.4-0.2,0.1c0.5,1.8,0.7,5.4,1.4,7.5c0,0.2,0,0.2-0.1,0.3c0.1-0.4,0.3-0.4,0.5-0.4c0.1,1,0.5,1.9,0.3,2.3
						c-0.1-0.6-0.2-0.7-0.3-1l0.2,1.1c-0.2,1-0.3-1.5-0.6-1.4c0.4,2.1,1,4.5,1.1,6.2c-0.3,0.4-0.6-3.8-0.6-1.6l-0.2-2.5
						c-0.3,2-0.2-1.5-0.5,0.3c0.3,3.3,0.7,3.7,1,7c0.3,0.7,0.2-0.3,0.5,0.4c1,4.7-0.4,3.8,0.5,7.2c0.2,0.5,0.4,0.8,0.6,1.5l1.6-0.2
						c-0.2-0.5-0.3-1.1-0.4-2.2l0.5,0.8c-0.5-3.2-0.8-1.7-1.1-5.1c0.2,0.6,0.5,2.5,0.5,2c-0.1-2.2-0.5-1.5-0.7-3.2l0.3-0.4
						c-0.6-3.4-1.5-7.1-2.1-10.9c0.1,0.2,0.3,0.8,0.3-0.1c-0.5-2.7-1-5.7-1.4-8.6L4,16.1c0.1,2.2,0.1,4.3,0.2,6.2L4.6,24
						c0,0.4-0.1,0.8-0.2,0.3c0,1.8,0.2,0.1,0.4,0.9c0.1,1-0.1,1.4-0.2,0.7c0.5,3.2,1.1,9,1,12.4l-0.1-0.6c0,2.6,0.8,2.9,0.7,5.4
						L6,42.7C6.3,48.4,6.9,54.6,6.8,59c0.5,0.8,0.2,5.6,0.8,6c-0.1,2.1-0.1,2.4-0.2,3.7l2.3-0.1c0.1-0.6,0.1-1.5,0.1-3.2
						c0-1.2-0.4-1.8-0.5-3.3l0.3,0l-0.4-2l0.4-1.1l-0.1-1.4c0,0.6-0.1,1.2-0.2,1.1c-0.2-2.2,0.1-5.4,0.3-5.5l-0.3-5.2
						c0.1,0.1,0.2,1,0.3,1.7c-0.4-2.8,0.3-0.5,0-3.1c-0.1,0.3-0.2-0.2-0.2-0.2c0.2-1.3,0.1-4.2,0-6.3l0.2,0.4c0-1.3,0-2.6-0.1-4
						l-2.8,0.2c0.3,2.7,0.7,5.6,1,8.5c-0.1-1.6,0.3-1.2,0.5,0l-0.3,0.5c0.3,0.8,0-1.3,0.4,0.3c0.1,1.6-0.3,1.1-0.5,0.2L8,48
						c-0.1,0.1-0.2-0.3-0.3-0.4c0.3,0.8,0,3.4,0.5,4.6l-0.1,0.1c0.4,4.3,0.7,6.3,1.1,9.8c0.3,0,0.4,1.4,0.7,2.5
						c0.2,2.3,0.2,4.8,0.5,7.5l2.4-0.3c-0.1-0.6-0.2-1.2-0.2-1.8c-0.3-1.8-0.4-1.9-0.4-1.8c-0.1,0.1-0.1,0.4-0.2-0.2
						c0.1-0.3,0-1.7-0.1-2.8c-0.1-1.1-0.2-1.9,0.1-0.7c-0.4-3-0.7-5-1-7.1c-0.3-2-0.6-4.1-1.1-6.9c0.1,1.6,0.2,2.8,0.2,3
						c-0.1-0.4-0.2-1.3-0.3-2.3c-0.1-0.9-0.1-1.9-0.1-2.3l0,0.1C9.1,47,8.6,43.1,8,37.9c-0.2-1.9-0.5-3.6-0.7-4.4
						c-0.2-0.9-0.3-0.9-0.4-0.1l0-0.1c0,0-0.1,0.2-0.2,0.2c-0.1,0-0.2-0.2-0.2-0.2c-0.1-0.5-0.1-0.5-0.1-0.6c0-0.1,0-0.3,0-0.8
						c-0.1,0.1-0.2-0.1-0.3-0.3c-0.1-0.3-0.2-0.6-0.3-0.8c0,0.3-0.1,0.5-0.1,0.8c0,0.3-0.1,0.6-0.1,1.2c-0.2-0.8-0.4-0.9-0.6-0.1
						c-0.1,0.4-0.1,0.9-0.2,1.2C5,34,4.9,34,4.7,33c0,0.1,0,0.2,0,0.2L5,35c0.4,3.7-0.1,0.8-0.1,1.6c0.2,1.4,0.2,0,0.4,2.2
						c0.5,7.7,0.8,13.4,1,19.7C6.5,65.5,6.8,72.4,7,79.2l3.2-0.2c0-0.4,0-0.8,0-1.2c-0.1-3.4-1-1.9-0.8-6.1L9.8,73
						C9,66.2,9.1,59.1,8.4,52.5c0.1,0.4,0.2,0.4,0.2,1c0.2-1.4-0.3-5.2-0.5-5.2c0-1,0.2-0.2,0.2-0.9c0.1-1.4-0.5-3.5-0.3-4.3
						c0-0.1,0.1,0.4,0.1,0.6c-0.1-0.3-0.1-0.8-0.1-1.3l-2.7,0.2c0.2,1.2,0.3,2.6,0.4,2c0.1,2.5,0.7,4.7,0.7,6.7
						C7,52.7,6.9,55.7,7.3,56c-0.5-0.1,0.1,4.4,0.5,5.9c-0.2-0.5,0,1.4-0.2,0.8c0.2,1.8,0.5,3.4,0.7,3.1c-0.2,3,0.9,6,0.8,7.9
						l2.4-0.2c0-0.2,0.1-0.4,0.1-0.6c-0.6-5.3-1-10.3-1.4-15.1c0.5,0.1,0.4,5.3,0.8,5.1c-0.5-4.5-1-7.2-1.1-11.7
						c0-1.2,0.2,0.7,0.3,1c-0.2-2.1-0.3-4.1-0.4-6l-2.2,0.1c0.1,2.3,0.2,4.6,0.4,6.8c0,0-0.1-0.4-0.2-0.9c0,0.8,0,1.9,0.2,1.8
						l-0.1-0.8c0.3-1.3,0.7,3.2,0.9,3.3c-0.6-1.3,0,4-0.8,1.9C8,59,8.2,59.7,8.3,59.6c0,0.8-0.1,1-0.3,0.2c0.2,2.9,0.4,1.8,0.5,4.4
						c-0.1,0-0.2-0.5-0.3-0.8c0.2,1.3,0.5,2.6,0.5,4.8c-0.1-0.1-0.1,0.1-0.2-0.5c0.1,2.2,0.3,4,0.5,5.9l1.2-0.1
						c-0.2-1.4-0.3-2.9-0.4-4.6c0.5,1.2,0-1.4,0.4-1.7L10,65.1L9.9,66c-0.1-1.9-0.5-3.6-0.5-5.3l0.3,1.4l-0.3-3.6l0,2.1
						c-0.3-2-0.5,0.2-0.5-2.3c0.1,0.5-0.1-1.9,0-3l0,0c-0.2-1-0.4-1.9-0.4-3.4c0.1-0.4,0.4,0.3,0.5,0c-0.4-0.9-0.4-4.5-0.8-5.7
						c0.1,0.4,0.3,0.4,0.3,0.3L8,45.6c0-0.9,0-1,0.2-0.9c-0.2-2.7-0.4,0.9-0.4-2.3c0,0.3,0.1,0.1,0.1,0.6c-0.1-1.9-0.3-3.7-0.4-5.4
						l-0.9,0.1C6.7,39,6.9,40.2,7,41.5c-0.3,0.9-0.4-2.6-0.6-1.5c0.3,2.1,0.6,4.3,1,6.5c0.2,1.1,0.3,2.2,0.5,3.2
						c0.1,0.5,0.1,1.1,0.2,1.6c0.1,0.6,0.1,1.2,0.2,1.8l-0.1-1c0.3,0.3,0.3,1.1,0.4,2.4c0,1.3,0.1,3.2,0.4,4.2
						c-0.1-0.5-0.3-0.1-0.2,0c0.2,2,0.4,3.8,0.6,5.6c0.2,1.5,0.5,3.2,0.8,5.2c0,0.1,0.1,0.3,0.1,0.4l-0.1,0.7c0.1,1,0.2,1.8,0.3,2.5
						c0.1,0.7,0.3,1.5,0.4,2c0.1-0.3,0.2,0.6,0.1-0.6c0.2,2.3,0.4,3.1,0.6,4.2c0.1-1,0.2-2.3,0.2-3.7c0.1-1.3,0.1-2.8,0.3-2.5
						c0,0.4,0,1.5,0,1.3c0,0,0-0.8,0.1-1.6c0-0.9,0.1-1.8,0.1-1.8c-0.2-1.7-0.2-0.8-0.3-1.5c-0.1-0.9-0.1-1.9-0.1-2.9
						c0-0.6,0-1.2,0-1.6c0.1,1.6,0.1,2.4,0.2,2.7c0.1,0.3,0.2,0.2,0.2,0.1c-0.1-0.3-0.1-1.3-0.2-1.7c0.2,0.2,0.1-0.8,0-1.9
						c-0.1-1.1-0.3-2.3-0.1-3.1l0.1,0.9c0-1.7-0.2-3.5-0.1-4.6c0.3,0.5,0.1,1.8,0.3,2.9c0-1.1-0.1-2.6-0.2-3.8
						c-0.1-1.2-0.1-2.1,0-2.6c0.1,1,0.1,2.1,0.1,3.2c0.2-0.4,0.2-0.9,0.3-1.4c0-0.5,0-0.9,0.1-1.7l0,0.1l0.2-3.6L12.5,51
						c-0.2-1.1-0.3-1.8-0.3-2.6l-0.6,0c0.2,1.5,0.2,3.2,0.7,5.2c-0.7-2.7-0.3-0.4-0.6-0.6c0,0.7,0,1.9-0.1,1.5
						c0.4,1.3,0,2.3,0.5,4.2c-0.1,0.1,0.1,1.4-0.2,1.2c0.2,1.8,0.1-0.4,0.3-0.3c0.6,2.7,0.1,6.4,0.9,10.3c0.5,3.3,0.9,3.9,1.3,7
						c-0.1,1.1-0.4-0.8-0.4-0.8c0,1.7,0.1,3,0.4,4.6c-0.1-0.3-0.2,0-0.2,0.5c0.1,1.3,0.4,0.8,0.4,2.4l0.7,0c0,0,0-0.1,0-0.1
						c0,0,0,0.1,0,0.1l-0.8,0c-0.1-0.3-0.3-0.6-0.5-1.2l0.2,1.2l1.4-0.1c-0.1-1.1-0.3-2.2-0.3-3.4c0.2-0.4,0.3,0.9,0.4,1.5
						c-0.1-1.8-0.2-4.6-0.5-5.1L15,77.7c0-0.6,0.2-0.3,0.3,0.1c0.2,1.5-0.1,2.2-0.1,2.3L15.1,79c-0.4,0.8-0.1,2.7,0,4.6l-0.5,0
						c-0.1-0.8-0.2-1.5-0.3-2.1l0.5,0.9l-0.5-2.3c0.1-0.5,0.3-0.9,0.4,0.2c0.1-1.6-0.3-1.4-0.2-2.8c0-0.2,0-0.1,0.1,0.1L14.4,76
						c0.1,0.3,0.3-0.3,0.3,0.7c0-2.8-0.7-4.5-0.5-5.6l0,0.2c-0.5-3.9-0.3-0.4-0.9-3.3l0.6-2l-0.3-0.4c0-0.4-0.1-1.2,0.1-1.1
						c-0.3-1.5-0.1,0.3-0.4-0.6c0.1-2-0.6-5.4-0.1-5.8c-0.3-0.7,0,1.9-0.4-0.2c0.5-0.6-0.3-2.4-0.2-4.2c0.3,0.5,0.3,2.2,0.4,0.4
						c-0.5-1-0.2-3.5-0.4-5c-0.1,0-0.2-0.3-0.3-0.8l-0.8,0c0,0.5,0,1.1,0,1.8c0,0.7,0,1.5,0,2.4c-0.1-0.2-0.1,0.7-0.2,1.6
						c-0.1,1-0.1,2-0.2,2.5l-0.1-0.4c0.3,2.4,0.3,4,0.3,6.1c-0.2-1.8-0.3-2.8-0.4-4.1l0,1.1c0,0,0,0.1,0,0.2c0.1,1.1,0.1,1.9,0.2,3
						L11,59.7c0,0.6,0.1,2,0.1,3.4c0,1.3,0.1,2.7,0,2.3c0.1,1,0.3,4.1,0.4,5.9c0.1,1,0.1,1,0.2,2.6c0,0.4,0,1,0,1.7
						c0-0.1,0-0.1,0-0.2l0-0.1c0-0.1,0-0.2,0-0.3c-0.1-1.2-0.1-2.4-0.1-3.2c0,0.5,0.1,2.5,0,2.1l-0.2-4.4c-0.1-0.5,0.2,3.3,0.1,3.9
						c-0.1-1.1-0.2-2.8-0.3-4c0-0.5,0.1,0.6,0-0.8c0,0.3-0.1-0.6-0.3-2.9c0,1,0.1,1.2,0.2,3.2c0,0.8,0,1.2,0,1.2
						c-0.1-0.7-0.1-1.7-0.2-2.9c0-0.5,0-0.4-0.2-3.6c0.1,1.7-0.1-1,0,3c0-0.5-0.1-2.3-0.2-3.5c0,1.1-0.3-2.5-0.2,1.6l0,0.4
						c0,0,0,0,0,0c0,0,0,0,0,0l0,0c-0.1,0.1-0.2-0.9-0.3-2c-0.1-1.3-0.2-2.6-0.3-3.9c-0.1-1.2-0.2-2.2-0.3-3l0.1-0.3
						c-0.1-0.6-0.2-1.4-0.3-2.2c-0.1-0.4-0.1-0.8-0.2-1.2c-0.1-0.3-0.2-0.9-0.3-1.3c-0.1-0.7,0-1.6,0.2-1.3
						c-0.3-1.7-0.4-1.9-0.5-4.3c0.4,1.7,0.1-0.6,0.3,1.7c-0.2-2.2-0.1-2.7-0.6-5c0.3,0.8,0.1-1.7-0.1-2.7l0,1.6
						c-0.2-1.2-0.3-2.2-0.3-3.2l0.4,0.5c0-0.3,0-0.6,0-0.9l-2.2,0.2c0.1,4.1,1.3,7.4,0.9,10.6c0.3,1.2,0-2.5,0.3-1.4
						C7.2,49,6.9,51.2,7,51.9c0,2.8,0.7,2.6,0.8,5.6c0.1-0.4,0.4-0.8,0.7,1.4c0.1,2.1-0.3,2.6-0.5,1.3c0-0.5,0-0.7,0-0.7
						c-0.1-0.7-0.2-1.5-0.3-0.7L7.8,59c0,1,0.2,3.9-0.1,3.2c0.2,1.6,0.2,0.7,0.2-0.5c0,2.7,0.3,4.1,0.4,6.9c0-0.4,0.1-0.8,0.2-0.4
						c0.1,4,0.4,1.7,0.6,4.5c-0.1,1.2-0.3,0.2-0.3,1l1.7-0.1c0-0.2,0-0.6-0.1-1.2c0.1-1.7,0.3-0.4,0.4,0.3c-0.3-2.5,0-4.7,0-6.1
						l0.1,1.3c-0.1-0.8-0.1-1.4-0.1-2.1l-0.2,0.8c0-0.8,0-1.4,0.1-1.4c-0.2-0.8-0.4,0.6-0.6-0.9c0.1-1-0.2-3.1,0.1-3.5
						c0,3.2,0.3-0.4,0.5,2.4c-0.1-0.5-0.1-1.2-0.1-1.9c0-0.1,0.1,0.1,0.1,0.3c0.2-3.1-0.4-1.4-0.5-4.6c0.2,0.4,0.3-0.8,0.3-1.3
						c0,1.3-0.3,0.6-0.5-0.6c0.1-2.1-0.2-2.2-0.2-3.3l0,1.2c-0.2-0.4-0.2-1.4-0.3-2.9c0.1-0.1,0.1,1.3,0.2,0.8c-0.3-1.3,0-2.8,0-4.5
						l-1.7,0.1c0,0.4,0,0.9,0.1,1.3c-0.1,1-0.3,0.1-0.4,1c0.4,2.5-0.1,2.7,0.3,5.3C8,53.3,8,53.1,8.3,55l-0.4-4.3l0.5,2.7
						c-0.1-1.3-0.3-2.7-0.3-3.5c0.3,1.3,0.2,1.2,0.4,0.5C8.2,52.2,8.9,54,8.7,56l-0.6,0c-0.1,3.1,0.6,5.5,0.7,9.5l0-1.3
						c0.3,0.5,0.2,2.5,0.3,3.8C9,67.8,9,68.6,8.9,69.2c0.1-0.1,0.2,2.9,0.6,3.3l-0.1,1.2l1.7-0.1l0-0.6c-0.3-3.2-1-3.6-1.2-6.7
						c0.3,0.9,0.3-0.5,0.7,1.5c-0.1-1-0.2-2-0.3-2c0.1-0.6-0.6-2.8-0.5-3.8c-0.1-0.4-0.4-0.5-0.5-1.7c0-0.1,0.1,0,0.1,0
						c-0.1,0-0.3-1.8-0.4-0.8c0.3-3.2-1-8.9-0.8-11.7c-0.2-1.7-0.5-3.7-0.7-5.4l-1.2,0.1c0,0.7,0.1,1.2,0.1,1.7
						c-0.1-0.1-0.1,0-0.1-0.4c0,2.8,0.7,1.7,0.6,5c-0.2,1.7-0.3-1.7-0.3-0.7c-0.6,0.5,0.3,3.9,0,6.1l-0.1-0.5
						c-0.1,1.7,0.5,4,0.5,6.8c0,0-0.1-0.1-0.1,0c0.4,1.8,0.7,5.3,0.9,7.9c-0.3-0.8-0.2-1.2-0.4-0.7c0.1,1.2,0.4-0.4,0.6,2
						c-0.1,0.8-0.1,2.5-0.4,2.7l-0.1-2.2c-0.3,1.1,0.2,2.8,0.2,4L7.4,74c0.2,2.7,0.5,3.2,0.6,5.2l1.2-0.1c0-0.4-0.1-0.8-0.1-1.4
						L9,77.9c-0.2-0.9-0.2-1.3-0.2-1.6c0.1-0.3,0.1-0.4-0.1-1.5c0,0,0.4,0.4,0.4,0.5c-0.1-0.6-0.2-1.7-0.4-2.9
						c-0.2-1.3-0.3-2.9-0.4-4.2c0.4,2.8,0.7,5.3,1,6.8c0-0.8-0.2-2.7-0.4-4.2c0.1,0.6,0.2,1.4,0.2,1.5c-0.4-2.4-0.7-5.2-0.9-7.4
						c0.5,2.9,0.5,2.1,0.5,1c0-1-0.1-2.6,0.3,0.2c-0.1-1.3-0.2-2.3-0.3-2.9c0-0.8,0-0.8,0.1-0.6c0.1,0.2,0.1,0.6,0.1-0.3
						c-0.4-3.7-0.5-4.3-0.5-4.8c-0.1-0.8-0.1-0.9-0.1-1.1c0-0.4-0.1-0.9-0.7-7c-0.1-1.6-0.1-1.8,0-1c0,0,0.2,1.4,0.3,2.8
						c0.2,1.6,0.4,3.3,0.4,3.3c0.4,3.9,0.6,5.9,0.6,6.7c0,0.2,0.2,1.7,0.4,3.5c0.1,1,0.1,1.4,0.6,6.1c-0.2-1.7-0.1-1.5-0.4-4.6
						c-0.2-1.9-0.2-2.1-0.1-0.7l-0.7-7.3c-0.1-1.7-0.1-1.6,0-0.8c0.2,1.6,0.3,2.8,0.4,4c0.1,1.1,0.2,2.3,0.3,3.8
						c0.1,0.7,0.1,0.6-0.1-0.9L9.6,68c-0.1-1.1-0.1-0.9-0.1-1.5c-0.1-2.1-0.3-4.2-0.3-5.3c0.1,1.6,0,0.5,0.3,4.4
						c0.1,0.7,0.1,0.2,0.1-0.2c0-0.3,0.1-0.6,0.2-0.3c0.1,0.3,0.2,1,0.2,2.2l0,1c0,0,0-0.4,0.1-0.6c0-0.2,0.1-0.1,0.1,0.6
						c0,0.3,0,0.8,0,1c0-0.1,0.1-0.3,0.1-0.3c0,0,0.1,0.2,0.1,0.6c0,0-0.1,0.3-0.1,0.4c0,0.7,0.1,0.9,0.2,1.1c0.1,0.2,0.2,0.5,0.4,1
						l1.8-0.2c-0.2-1-0.4-2-0.5-3.2c0.4,0,0.2-3.6,0.1-5.4l0.1,0.1c-0.5-5.3-1.3-9-2-13.9c0.1-2.7-0.6-8.5-1-13.2l-2.6,0.2
						c0,0.7,0,1.5,0,2.1c0.1-0.8,0.3,0.1,0.4,1c-0.1,1.2,0.4,3.2,0,3l0-0.4c-0.4,0.9-0.2,3.3-0.2,5.1l0.5,0.3
						c-0.7,4.9,0.5,12.7-0.1,15.4c0.2,1.2,0.2,2.6,0.3,3.8l-0.3-0.1c0,0.8,0,1.5,0,2l2.6-0.1c-0.1-2.2-0.2-3.8-0.4-6.9l0.3,0.8
						c-0.1-2.3-1-2.8-1.1-4.9l0.4-0.7c-0.3-3.9-0.1-8-0.8-11.8c0.1,0.1,0.2,0.2,0.3,0.8c-0.1-1.9-0.2-7.2-0.7-6.5
						c0.4-0.1-0.2-4.1-0.5-6.2l0.3,0.3c-0.5-1.8-0.6-1.8-0.8-4.3c0-0.6,0.2-0.5,0.2,0.3c0-2-0.4-1.5-0.4-3.9l0.2,0.9
						c-0.1-2-0.2-1.9-0.5-3C6,22.1,6,19.5,6.2,19.2c-0.2-0.3-0.4-1.4-0.5-2.6c0.1-0.2,0.2,0.3,0.2,0.5c0-0.4,0-0.8,0-1.2l-1.6,0.2
						c0.4,2.6,1,4.1,1.1,6.1c-0.1,0.1-0.1,0.2-0.1,0.4C5,20,4.6,17.8,4.7,18c-0.3,0,0.1,2.2-0.6,0.5c0.5,1.7,1.4,4.6,1.6,6.7
						c0,0.1,0,0.2,0,0.3l-0.1-0.2c0.1,0.5,0.1,0.9,0.3,1.3c0.1,0.7,0.1,1.1,0.2,1.8c-0.2,0.3,0.3,2.5,0.5,3.6C6.8,31.9,7,33.3,7,32
						c0,0.2-0.1-0.2-0.2-0.9c0-0.2-0.1-0.4-0.1-0.5c0,0,0,0,0,0.1C6.6,30,6.4,29.1,6.3,28c0.3,0.8,0.5,1.7,0.6,2.9
						c0.3,0.5,0.6,1.1,0.7,1.4c-0.1,1.5,0.1,4.4-0.1,4.9c0.4,2,0.8,4.4,1.3,6.5l1.8-0.3c-0.3-1.3-0.5-2.5-0.8-3.3
						c-0.2-0.9,0-1.1,0-1.5c0.1,0.5,0.2,1.2,0.3,1.5c-0.4-1.9-0.8-5.6-1.2-6c-0.1-2.4,0.5,1.3,0-2l0.2,0.4
						c-0.3-6.5-2.3-10.3-2.5-17.5c0,0.5,0,0.7,0,0.9C6.3,13.5,6,11,5.7,8.5L4.4,8.6c0,2,0,4,0.1,6l1.1-0.1C4.9,12,4.2,9.6,3.7,7.2
						L2.5,2.6l0,4.8c0,1.3,0,2.7-0.1,4c0,2.3,0.2,2.5,0.4,3.9l-0.3,0.5L3,18.2c0.2,1.8,0,3.3-0.1,5l1.2-0.3c-0.5-1.4-1-2.9-1.7-4.7
						c0,0,0,0.1,0,0.3c0,0.1,0,0.3,0,0.3c-0.2-0.7-0.4-1.9-0.5-2.9c-0.1-1-0.1-1.7,0-1.6c0-0.2-0.2-0.5-0.1-1.1l0.2,0
						c0,0-0.1-0.9,0-1.8c0-0.4,0-0.7,0-1c0-0.3,0-0.5,0-0.5c0.3-1,0.4-0.6,0.5-0.4c0,0.1,0,0.1,0.1,0.2c0,0,0.1,0.1,0.1,0.2
						c0.1,0.2,0.1,0.5,0.4,0.8c0,0,0.1,0.1,0.2,0.2c0,0,0.1,0,0.1,0c0.1,0,0.2,0.1,0.2,0.1C3.7,10.9,4,11,4.3,11
						c0.6,0.1,1.2,0,1.8-0.2c0.5-0.2,0.9-0.4,1.1-0.6C7.3,10,7.3,9.9,7.2,10c-0.3,0.2-0.8,0.4-1.1,0.5c-0.4,0-0.7,0-0.7-0.1
						c0,0,0.4,0,0.7-0.2c0.4-0.1,0.7-0.3,0.7-0.3c0-0.3,0.1-0.6-0.1-0.7c-0.1,0-0.3,0-0.6,0C5.8,9.1,5.4,9.2,4.8,9
						C4.6,9,4.4,9,4,8.8C3.8,8.6,3.5,8.6,3.3,7.8L3.1,7.3L3,7L2.8,6.6L2.2,4.7L2.1,5.3L1.9,5.8c0,0-0.1,0.1-0.1,0.1
						c-0.1,0-0.1,0-0.2,0C1.5,5.9,1.5,5.8,1.5,5.8c0,0-0.1-0.1-0.1-0.1c0.1,0,0.2-0.3,0.7-2l0.6,2.1L3,6.7l0.2,0.5l0.3,1
						c0.1,0.2,0.2,0.2,0.3,0.3L3.7,8.4L3.6,8.3l0,0l0-0.1C3.4,7.7,3.3,7.4,3.2,7C3.1,6.8,3,6.6,3,6.4C2.9,6.1,2.8,5.7,2.7,5.4
						C2.5,4.7,2.3,4,2.1,3.3C1.8,4.1,1.6,4.9,1.4,5.6l0,0.1c0,0,0,0,0,0c0,0,0,0,0,0L1.3,6.2C1.2,6.2,1,6.7,0.8,7.4
						c0,0,0,0.3-0.1,0.7c-0.1,0.4-0.1,1-0.1,1.5c0,0.5-0.1,1-0.1,1.4c0,0.3,0,0.4,0,0.4c-0.2,0.3-0.3-1.2-0.5,0.5
						c0.1,1.2,0.5-1.1,0.5,0.9c-0.2,1.2-0.4,0.9-0.1,2.3c-0.1,0.2-0.2-0.1-0.3-0.7c0.2,1.3,0.4,3.4,0.9,4c0,0.7,0.3,1.7,0.6,2.6
						c0.3,0.9,0.6,1.6,0.4,1.6c0.1,0.1,0.4,0.5,0.7,1l2.9,4.7l-0.8-5.2c-0.1-0.7-0.2-1.6-0.2-2.2C5,23,4.3,16.6,4.9,17.2
						c-0.5-1.5-0.4-5.6-0.7-8.3c0,0.2,0.1,0.5,0.1,0.7c0-1.1,0.1-1.6,0.1-2.2L1.9,7.7C1.9,8,1.9,8.2,2,8.5c0.4,0.1,1.1,2.4,1.7,3.6
						c0.1,1.9-0.7-1-0.9-0.3C3,11.6,3.9,14.9,4,14.2c0,0.4,0.1,0.6,0,0.6l2-0.3c0.1-0.8,0.1-0.8,0.3-1.4c-0.5-0.3-0.1-1.3-0.4-2.5
						c0.2-1.8,0.4-0.9,0.4-2.1L3.7,8.8c0,0.2,0.1,0.4,0.1,0.8c0,0.9-0.3-0.3-0.4-0.7l3.2-0.2C6.6,8.7,6.6,8.8,6.6,8.8z M7.3,24.5
						L7.3,24.5c0.1,0.5,0.2,0.9,0.2,1.1C7.5,25.4,7.4,25,7.3,24.5z M6.6,19.9c0.1,0.6,0.2,1.2,0.3,2c-0.1,0.2-0.2,0-0.3-0.4
						C6.7,21.7,6.6,20.6,6.6,19.9z M6.2,29.8c-0.2-0.7-0.1-1-0.1-1.1c0.1,0.3,0.1,0.7,0.2,1.2c0,0,0,0.1,0,0.1
						C6.3,30,6.3,30,6.2,29.8z"/>
					<path class="st0" d="M6.8,31.1c0,0.1,0,0.2,0.1,0.3c0-0.2,0-0.3,0-0.4c0-0.1-0.1-0.2-0.1-0.2C6.7,30.8,6.8,30.9,6.8,31.1z"/>
					<path class="st0" d="M10.4,64.6l0-0.1c0,0.2,0,0.4,0,0.6C10.4,64.8,10.4,64.8,10.4,64.6z"/>
					<polygon class="st0" points="9.7,61.9 9.6,61.9 9.7,62.3 					"/>
					<path class="st0" d="M12.2,67.3C12.2,67.4,12.3,67.5,12.2,67.3C12.3,67.3,12.2,67.3,12.2,67.3z"/>
					<path class="st0" d="M12.4,53.6l0.1-1.9C12.5,52.6,12.4,53.1,12.4,53.6z"/>
					<path class="st0" d="M11.5,52.9c0.1,0.1,0.1,0.1,0.1,0.2l0,0L11.5,52.9z"/>
					<path class="st0" d="M7.8,52.3c0-0.1,0-0.2,0-0.3C7.7,51.3,7.7,51.8,7.8,52.3z"/>
					<path class="st0" d="M8.7,55.2C8.8,55.6,8.9,56,9,56.5C8.9,55.8,8.9,55.2,8.7,55.2z"/>
					<path class="st0" d="M7.6,62.7C7.6,62.7,7.6,62.7,7.6,62.7c0-0.1,0-0.2,0-0.3L7.6,62.7z"/>
					<path class="st0" d="M9.1,58.3C9.1,57.6,9,57,9,56.5C9,57,9,57.7,9.1,58.3z"/>
					<path class="st0" d="M15.7,78l0-0.4c0,0,0,0,0,0L15.7,78z"/>
					<path class="st0" d="M15.6,77.6l0-0.4C15.6,77.3,15.6,77.5,15.6,77.6z"/>
					<path class="st0" d="M15.5,76.2l0.1,0.9C15.6,76.8,15.6,76.4,15.5,76.2z"/>
					<path class="st0" d="M13.7,78l-0.1-0.1C13.6,78,13.6,78,13.7,78z"/>
					<path class="st0" d="M13.4,74.7c0,0.8,0,2,0.1,3.1l0.1,0.1C13.4,77.4,13.6,75.4,13.4,74.7z"/>
					<path class="st0" d="M13.4,60.5l0.2,2.8c0.1-0.5,0.2-1.2,0.3,0.1C13.9,59.9,13.7,64.2,13.4,60.5z"/>
					<path class="st0" d="M12.8,51.8c0.2,1.5,0.2,0,0.2,0C12.9,50.9,12.8,50.6,12.8,51.8z"/>
					<path class="st0" d="M8.9,49.3l0.3,0.1C9,48.2,9.1,49.4,8.9,49.3z"/>
					<polygon class="st0" points="7.7,38 7.8,37.6 6.3,37.7 6.3,38.5 6.6,39 6.4,37.7 7.7,37.6 					"/>
					<polygon class="st0" points="6.4,45.3 6.4,44.7 6.6,46.7 					"/>
					<path class="st0" d="M8.7,50.2l-0.3,0.4C8.5,51.4,8.9,51.5,8.7,50.2z"/>
					<path class="st0" d="M9.3,78.1c0.1-0.3,0.2-0.8,0-1.6C9.3,77.1,9.2,77.7,9.3,78.1z"/>
					<polygon class="st0" points="6.9,49.8 6.8,48.9 6.9,50.6 					"/>
				</g>
			</g>
		</g>
	</g>
</g>
</svg>
