<!-- Generator: Adobe Illustrator 19.2.0, SVG Export Plug-In  -->
<svg version="1.1"
   xmlns="http://www.w3.org/2000/svg" xmlns:xlink="http://www.w3.org/1999/xlink" xmlns:a="http://ns.adobe.com/AdobeSVGViewerExtensions/3.0/"
   x="0px" y="0px" width="23.8px" height="24px" viewBox="0 0 23.8 24" style="enable-background:new 0 0 23.8 24;"
   xml:space="preserve">
<style type="text/css">
  .st0{fill:#484B9F;}
</style>
<defs>
</defs>
<g>
  <g>
    <g>
      <g>
        <g>
          <path class="st0" d="M22,22.5c0.1,0,0.3,0,0.2-0.1l-0.3-0.1L22,22.5z"/>
          <path class="st0" d="M22.6,21.7c-0.2-0.1-0.4-0.3-0.7-0.2c0.3,0.1,0.2,0.2,0.6,0.3c0,0.1-0.1,0.2-0.2,0.2
            c0.1,0-0.1,0.2,0.1,0.3c0.3-0.2,0.3-0.4,0.1-0.6C22.4,21.6,22.5,21.7,22.6,21.7z"/>
          <path class="st0" d="M23.1,9.8L23.1,9.8C23.1,9.8,23.1,9.8,23.1,9.8z"/>
          <path class="st0" d="M23.3,2.1C23.3,2.2,23.3,2.2,23.3,2.1C23.3,2.1,23.3,2.1,23.3,2.1z"/>
          <path class="st0" d="M23,0.5c0,0,0.1,0,0.1,0C23.1,0.5,23.1,0.5,23,0.5z"/>
          <path class="st0" d="M23.1,9.8l0.1-0.2C23.1,9.5,23.1,9.7,23.1,9.8z"/>
          <path class="st0" d="M21.8,20c0,0,0,0.1,0.1,0.1C21.8,20.1,21.8,20.1,21.8,20L21.8,20z"/>
          <path class="st0" d="M23.4,13L23.4,13c0,0.1,0.1,0.1,0.1,0.1L23.4,13z"/>
          <path class="st0" d="M23.4,15.5c0-0.1-0.3-0.1-0.4-0.1c0.1,0,0.2,0.1,0.2,0.1C23.3,15.5,23.3,15.5,23.4,15.5z"/>
          <path class="st0" d="M22.9,19.5L22.9,19.5C22.9,19.5,22.9,19.5,22.9,19.5z"/>
          <path class="st0" d="M23.4,11.2c0,0,0.1,0,0.1,0C23.5,11.2,23.4,11.2,23.4,11.2z"/>
          <path class="st0" d="M19.7,21.2C19.7,21.2,19.7,21.2,19.7,21.2C19.7,21.2,19.7,21.2,19.7,21.2z"/>
          <polygon class="st0" points="22.6,22.6 22.6,22.6 22.6,22.7          "/>
          <path class="st0" d="M19.9,0.1C19.9,0.1,19.9,0.1,19.9,0.1C20,0.1,20,0.1,19.9,0.1z"/>
          <path class="st0" d="M0.5,4.3c0.3-0.2,0.3,0.4,0.6,0C0.9,4.4,0.6,4,0.5,4.3z"/>
          <path class="st0" d="M21.8,20c0,0,0-0.1,0-0.1C21.8,19.9,21.8,19.9,21.8,20z"/>
          <path class="st0" d="M1.1,4.4L1.1,4.4L1.1,4.4C1.1,4.3,1.1,4.4,1.1,4.4z"/>
          <path class="st0" d="M14.6,0.3c0,0,0,0.1,0.1,0.1C14.7,0.4,14.7,0.3,14.6,0.3z"/>
          <path class="st0" d="M18.6,0.7L18.6,0.7C18.5,0.7,18.6,0.7,18.6,0.7z"/>
          <path class="st0" d="M12.6,0.7c-0.1,0-0.1-0.1-0.1,0c0,0,0,0,0,0C12.5,0.7,12.5,0.6,12.6,0.7z"/>
          <path class="st0" d="M10.4,0.7C10.4,0.7,10.5,0.7,10.4,0.7l0.1,0L10.4,0.7z"/>
          <path class="st0" d="M13.2,21.3c0,0.1,0.1,0.2,0.1,0.3C13.3,21.4,13.6,21.3,13.2,21.3z"/>
          <path class="st0" d="M21.9,20c-0.1,0-0.1,0-0.1-0.1l0,0.1C21.9,20,21.9,20,21.9,20z"/>
          <path class="st0" d="M12.5,2.9l-0.3,0C12.2,2.9,12.4,2.9,12.5,2.9z"/>
          <path class="st0" d="M2.8,18.7L2.8,18.7C2.8,18.8,2.8,18.8,2.8,18.7z"/>
          <path class="st0" d="M11.1,2.9c-0.1-0.1-0.1-0.2-0.2-0.2c0,0,0,0,0,0.1L11.1,2.9z"/>
          <path class="st0" d="M13.3,21.6L13.3,21.6L13.3,21.6z"/>
          <path class="st0" d="M15.6,20.9c-0.3,0-0.2,0.4-0.2,0.6C15,21.6,15.2,21.2,15,21c-0.2,0.1-0.4,0.4-0.6,0.4c0-0.1,0-0.1,0-0.2
            c-0.3,0.3-0.8,0-1.1,0.4c0,0,0-0.1,0-0.1c0,0.2,0.1,0.4,0,0.5c-0.1,0-0.3,0.2-0.3,0c0.1,0,0.1-0.1,0.1-0.2L13,22
            c-0.1-0.3,0.2-0.1,0.2-0.4c-0.3,0.1-0.6,0.4-0.9,0.3c0-0.3,0.5-0.1,0.2-0.4l0.4,0.1c-0.3-0.5,0.2,0,0-0.5
            c-0.5-0.1-0.5,0.2-1,0.1c-0.1,0.2,0,0.3-0.1,0.5c-0.7,0.3-0.5-0.9-1-0.4c-0.1,0.2-0.2,0.7-0.5,0.4l0.1-0.4
            c-0.4,0-0.3,0.6-0.7,0.3c0.1-0.2,0.4-0.1,0.3-0.2c-0.3-0.3-0.2,0.2-0.4,0.2l0-0.3c-0.5,0.1-1,0.3-1.5,0.4c0-0.1,0.1-0.2,0-0.3
            c-0.7,0.2-1.4,0-2.1-0.2l-0.2,0.3c-0.1,0-0.1-0.1,0-0.2c-0.3-0.1,0,0.2-0.1,0.3c-0.1,0-0.2-0.2-0.1-0.3
            c-0.4,0.2-1.3,0.5-1.7,0.2l0.1-0.1c-0.2-0.1-0.3,0.1-0.4,0.2c0,0.1-0.1,0.1-0.2,0.2c0,0-0.1,0-0.1,0l0-0.1
            c-0.2-0.1-0.5,0-0.7,0c0-0.2,0.1-0.3,0.3-0.5c-0.2,0.1-0.2,0-0.1-0.1c0-0.1,0-0.1-0.3-0.1c0.3-0.4,0.4-0.3,0.6-1
            c0-0.2-0.4-0.3-0.4-0.5l0.3,0l-0.3-0.3L2.9,19l-0.1-0.2c0,0.1-0.1,0.2-0.2,0.2c-0.1-0.3,0.2-0.7,0.4-0.8l-0.3-0.7
            c0.1,0,0.2,0.1,0.2,0.2c-0.3-0.4,0.3-0.1,0-0.4c-0.1,0-0.2,0-0.2,0c0.2-0.2,0.2-0.6,0.1-0.9L3,16.5c0.1-0.5-0.1-1.1-0.1-1.7
            c-0.1,0.2-0.5,0.2-0.5,0l0.3-0.1c-0.2-0.1-0.1,0.2-0.4,0c0-0.2,0.4-0.2,0.5,0l-0.1-0.3c0.1,0,0.1,0,0.3,0.1
            c-0.2-0.1,0.3-0.5,0-0.6l0.1,0c0-0.6-0.1-0.9-0.1-1.4c-0.3,0-0.2-0.2-0.4-0.3c0.1-0.4,0.3-0.8,0.3-1.2
            c-0.1-0.3-0.2-0.1-0.4-0.2c0.3,0,0.2-0.5,0.4-0.2c0-0.5-0.1-0.7-0.3-1.3C2.5,9.1,2.4,9.2,2.3,9.1c0-0.1,0.1-0.3,0.2-0.3l0,0
            C2.2,8.2,3.3,7.2,2.8,6.6l0,0L2.5,6c0-0.3,0.2,0.2,0.4,0C2.5,5.3,3,4.9,2.7,4.4C3.1,4.2,3,3.8,3,3.4l0-0.3c0,0,0,0,0-0.1
            c0,0,0-0.1,0.2,0L2.9,3C2.8,2.8,3,3,3.1,3C2.9,2.9,2.9,2.9,2.8,2.9c0-0.1-0.1-0.2-0.1-0.2c0.2,0,0.4,0.1,0.5,0.2
            C3.7,2.9,4.3,3,4.8,3.1c0.5,0,0.3-0.9,0.9-0.5L5.5,2.9c0.9-0.4,1.9,0,2.8-0.3C8.3,2.7,8.3,2.8,8.2,2.8c0.2,0.2,0.7,0,0.7-0.2
            c0.1,0,0,0.2,0.1,0.3C9.2,3,9.5,2.6,9.6,2.8c0,0-0.1,0.1-0.1,0.1c0.1-0.1,0.6,0,0.5-0.2c0.3,0.1,0.7-0.1,0.9,0
            c0.2-0.3,0.6,0.1,0.6-0.3c0,0.5,0.6,0.4,0.8,0.2c-0.1,0.1,0.2,0.1,0.1,0.3c0.2,0,0.5-0.1,0.4-0.3c0.5,0.5,0.9-0.4,1.2,0.3
            c0.7-0.2,1.4-0.4,2.1-0.5c0,0.5-0.7,0-0.7,0.5c0.6-0.2,1-0.6,1.6-0.5c0.2,0.1-0.1,0.2-0.1,0.3c0.6-0.2,1.2,0,1.8-0.2
            c0,0-0.1,0.1-0.1,0.1c0.1,0,0.3,0.1,0.2-0.1l-0.1,0.1c-0.2-0.3,0.4-0.6,0.5-0.8c-0.2,0.6,0.6,0.1,0.3,0.9
            c0.1,0,0.2-0.1,0.1-0.3c0.1,0,0.1,0.1,0,0.3c0.4-0.1,0.3-0.3,0.6-0.3c0,0.1-0.1,0.1-0.1,0.3c0.2-0.2,0.4-0.4,0.7-0.3
            c0,0.1,0,0.1-0.1,0.1c0.1,0,0.1,0,0.2,0c0,0,0.1,0,0.1-0.1c0.1,0,0.1-0.1,0.2-0.2C21.5,2,21.7,1.9,21.8,2
            c-0.4,0.4,0,0.1-0.3,0.5l0.1,0c0,0,0,0,0.1,0l0.2-0.2c0,0.1,0.3,0.1,0.1,0.3c0,0-0.2,0-0.2,0l0.1,0.2c0,0,0.1-0.2,0.1-0.2
            c0.2,0.1,0.5-0.2,0.4,0.1c0-0.1,0,0.3-0.2,0.4l0,0c0.1,0.1,0.2,0.3,0.2,0.5c-0.1,0.1-0.4,0-0.5,0c0.3,0.1,0.1,0.6,0.4,0.8
            c-0.1-0.1-0.3-0.1-0.3,0l0.3,0.1c-0.1,0.1-0.1,0.1-0.3,0.1c0,0.4,0.5-0.1,0.3,0.3c0,0-0.1,0-0.1-0.1c-0.1,0.4,0.2,0.9,0,1.3
            c-0.4,0.1-0.1-0.4-0.4-0.2c0.1,0.6,0.5,1.2,0.4,1.8l0-0.1c0.5,0.1-0.3,0.4,0,0.7c0-0.1-0.3-0.1-0.2-0.1
            c-0.1,0.4,0.1,0.8,0.3,1.4l-0.1-0.1c-0.1,0.2-0.1,0.6-0.1,0.9c0.1,0.1,0.1,0.2,0.3,0.1c-0.8,0.8,0.4,1.5-0.2,2.2
            c0-0.1-0.1-0.2-0.1-0.1L22,13c0.2,0,0.1-0.1,0.3-0.2c0.1,0.1,0.2,0.2,0.2,0.4c-0.2-0.3-0.4,0-0.5,0.1c0.1,0,0.1,0,0.2,0
            c-0.4,0.3,0.5,0.1,0.2,0.5l-0.1,0c0.1,0.2,0.2,0.3,0.2,0.5c-0.3,0.1-0.1-0.2-0.3-0.2c0,0.2,0.5,0.5,0.2,0.7
            c-0.1-0.1-0.1-0.2-0.1-0.3c-0.3,0.2-0.2,0.3-0.3,0.4l0,0l-0.1,0.4l0.1-0.1c0.7,0.3,0.1,0.6,0.6,1c-0.4-0.4-0.2-0.1-0.6-0.1
            c-0.1,0.1-0.2,0.3-0.3,0.2c0.2,0.2-0.2,0.3,0.2,0.6c-0.1,0,0,0.2-0.3,0.2c0.1,0.2,0.2-0.1,0.3,0c0.3,0.4-0.4,0.9,0.1,1.4
            c0.2,0.5,0.5,0.6,0.7,1c-0.2,0.1-0.4-0.1-0.4-0.1c-0.1,0.2-0.1,0.4,0,0.6c-0.1,0-0.2,0-0.3,0.1c0,0.2,0.4,0.1,0.2,0.4
            c-0.1,0-0.3-0.1-0.4-0.2c0.1,0.2,0.3,0.4,0.4,0.6c-0.2,0.1-0.3-0.1-0.4-0.2c0.1,0.2,0.2,0.6,0.4,0.7l0.1-0.2c0,0.1-0.2,0-0.3,0
            c-0.2-0.2,0.1-0.3,0.2-0.3l0.1,0.2c0.6-0.2-0.1-0.6-0.1-0.9l0.4,0.1l-0.3-0.3c0.1-0.1,0.3-0.1,0.4,0c0.2-0.2-0.1-0.2,0.1-0.4
            c0,0,0.1,0,0.1,0l-0.1-0.2c0.1,0,0.3,0,0.2,0.1c0.2-0.4-0.3-0.6,0-0.8l0,0c-0.1-0.5-0.3-0.1-0.7-0.5l0.8-0.3l-0.3-0.1
            c0-0.1,0-0.2,0.2-0.1c-0.2-0.2-0.1,0-0.3-0.1c0.3-0.3-0.1-0.7,0.4-0.8c-0.2-0.1-0.2,0.3-0.3,0c0.5-0.1-0.1-0.3,0.2-0.6
            c0.3,0.1,0.1,0.3,0.4,0.1c-0.5-0.1,0.1-0.5,0-0.7c-0.4,0-0.2-0.5-0.3-0.8c0.1,0,0.2-0.7,0.3-1l0.1,0c-0.4-0.1-0.3-0.4-0.4-0.6
            c0.2,0,0.3,0.1,0.4,0.2l0-0.2c-0.1-0.1-0.2-0.1-0.2-0.3l0.3,0.1c0-0.3-0.3-0.6-0.1-1c-0.3,0-0.7,0.3-0.9-0.1
            c0.1,0,0.4,0,0.4,0.1c0,0-0.1-0.1-0.1-0.2l0.2,0.2c0.1-0.2-0.2-0.1-0.2-0.2c0.2,0,0.1-0.1,0.3-0.1c0,0-0.1,0.1,0,0.2
            c0-0.2,0.2-0.4,0.3-0.4c-0.1,0-0.3,0-0.3-0.1c0-0.3,0.2-0.1,0.3-0.3c-0.1-0.1,0-0.3-0.3-0.3c0-0.1,0.1-0.1,0.2-0.1
            c-0.1-0.2,0-0.7-0.4-0.6l0,0l0,0v0v0c-0.3-0.5,0.2-1.1,0-1.6l0.1,0C23,8,23.1,7.6,22.9,7.4c0-0.1,0.2-0.2,0.3-0.2
            c-0.1-0.2-0.2-0.3,0-0.6c0.2,0.2,0.2-0.1,0.1,0.2c0.1-0.3,0.2-0.4,0-0.7c0.3,0.1,0.3-0.2,0.2-0.4L23.3,6c0-0.2,0-0.3,0-0.5
            l0.3,0.1C24,5,23,4.5,23.6,4c-0.2-0.2-0.2,0.3-0.4,0.2c0-0.3,0.5-0.6,0.5-0.7c0.1-0.2,0-0.3-0.2-0.4c-0.1-0.1-0.3-0.3-0.2-0.6
            c-0.1,0.1-0.4,0.2-0.5-0.1c0-0.3,0.5-0.7,0.6-0.5c0,0.1,0,0.2-0.1,0.2c0,0.1,0.1,0.3,0.2,0.1l-0.1,0c0.1-0.3,0.1-0.9,0.3-0.9
            c-0.1-0.3-0.2,0-0.3,0.3c0.1-0.5,0.1-0.7,0.1-1.1c-0.1,0-0.3,0-0.4,0c0,0.1,0,0.2-0.1,0.2C22.3,0.6,22.5,0.9,22,1
            c-0.2-0.2,0.3-0.4-0.3-0.3c-0.3-0.1,0-0.3,0.2-0.4c-0.3,0.1-0.6,0.1-0.8,0c-0.2-0.1-0.3-0.2-0.4-0.2L20.8,0
            c-0.1,0.1-0.2,0.1-0.3,0.1l0.1,0.2c-0.1,0-0.2,0-0.2-0.1c-0.1,0.2,0.1,0.4-0.1,0.6c-0.1-0.1-0.4,0.1-0.5-0.2
            c0.4,0.1,0-0.3,0.3-0.4c-0.1,0-0.2,0-0.3,0c0,0,0-0.1,0-0.1c-0.4-0.3-0.2,0.4-0.6,0.3c0.1-0.2-0.1-0.3-0.2-0.3
            c0.2,0,0.1,0.3-0.1,0.4c-0.3-0.1-0.3,0.1-0.5,0.1l0.2,0.1c-0.1,0.2-0.2,0.2-0.4,0.2c0-0.1,0.2-0.1,0.1-0.2
            c-0.2,0.3-0.5-0.3-0.8-0.1c-0.1-0.1,0-0.3-0.1-0.4c-0.3,0.2-0.4-0.2-0.7-0.1c0.1,0.2,0.1,0.2-0.1,0.4l0.6-0.2l-0.4,0.3
            c0.2,0,0.4-0.1,0.5-0.1c-0.2,0.2-0.2,0.1-0.1,0.3c-0.2-0.4-0.5,0.2-0.8,0l0-0.6c-0.4-0.3-0.8,0.3-1.3,0.2l0.2,0.1
            c-0.1,0.2-0.3,0-0.5,0.1c0-0.2-0.1-0.3-0.2-0.4c0,0.1-0.4,0-0.5,0.4L14,0.5C13.5,0.4,13.5,1.1,13,1c0.1-0.2-0.1-0.4,0.2-0.5
            c-0.1,0-0.3,0-0.3,0.1c-0.1-0.1-0.4,0.3-0.5,0.1C12.4,0.8,12.4,1,12.2,1c0,0,0-0.1,0-0.1C12.2,1,12,1,12.1,1.2
            c-0.4-0.6-1.2,0-1.6-0.5c-0.3,0.1-0.7,0.1-1,0.1c0-0.1,0-0.1,0.1-0.1C9.2,0.6,9.3,1.4,8.9,1.2C8.6,0.8,9.1,1,9,0.9
            C8.9,0.2,8.4,1,8.1,0.6l0.1,0C8,0.3,7.6,0.8,7.2,0.7c0,0,0-0.1,0-0.1C7,1,6.5,1.1,6.1,1.2C6.3,0.9,6.3,1,6.2,0.8
            c-0.2,0,0,0.4-0.3,0.5C5.9,1.1,5.6,1,5.6,0.7l0.3,0c-0.2-0.4-0.4,0-0.6,0l0-0.2C4.9,0.6,4.9,1,4.4,0.9l0.1,0.1
            C4.2,1.4,4.2,0.8,3.9,1.1L3.8,0.7c-0.2,0.1-0.6,0.4-1,0.5C2.9,1,3.1,0.9,3.3,0.8c0.1-0.1,0.3-0.2,0.4-0.3c-0.1,0-0.2,0-0.4,0
            c-0.1,0-0.4,0.1-0.4,0.2c0.1,0,0.2-0.1,0.3-0.1C2.9,1,2.6,1.2,2.2,1.2C2,0.7,1.4,0.7,0.8,0.7c0,0.3-0.1,0.5-0.3,0.5
            c0.1,0.6,0.1,1.1,0.1,1.6c0,0.1,0,0.3,0,0.4l0,0.3c0,0.2,0,0.3,0,0.5c0.6-0.3,0,0.2,0.6,0.2c0,0.2,0,0.2,0,0.3L0.7,4.9
            C0.5,5,0.6,4.7,0.4,4.7c0,0.4-0.3,0.2-0.4,0.4c0.2-0.1,0.3,0.1,0.2,0.3l0.3-0.3c0.3,0.5-0.5,0.5-0.2,1L0.1,6
            c0.1,0.3,0,1,0.5,1.3c-0.1,0-0.2,0.1-0.3,0c-0.1,0.7,0.5,1.4,0.2,2l-0.1,0c0,0.1,0.3,0.2,0.1,0.4c-0.1,0-0.1,0-0.2,0
            C0.4,9.6,0.6,9.9,0.6,10L0.4,9.9c-0.2,0.6,0.4,1,0.5,1.5c-0.4,0-0.6,0.5-0.7,0.7l-0.1,0c-0.1,0.7,0.4,1.3,0.5,1.9
            c-0.5,0.4-0.2,1.4-0.5,2.1c0.1-0.1,0.3,0,0.4,0.1c-0.1,0.2,0.3,0.4-0.1,0.4l0-0.1c-0.4,0.1-0.3,0.4-0.3,0.7l0.5,0
            c-0.8,0.7,0.3,1.8-0.4,2.1c0.1,0.2,0.1,0.4,0.3,0.5l-0.3,0c0,0.2-0.1,0.4-0.1,0.6c0,0.1,0,0.5,0,1l-0.2-0.2
            c0,0.6,0.8,0.4,0.8,0.8c0,0-0.1,0.1-0.2,0.2c-0.1,0.1-0.2,0.2-0.2,0.2c0,0.3,0,0.6-0.1,0.9c0.6,0.1,1.3,0.2,2-0.1
            c0,0.1-0.1,0.2-0.3,0.2c0.2,0,0.7,0.1,1,0.1c0.2,0,0.4-0.1,0.3-0.4c0,0.4,0.6,0,0.9-0.1l0,0.3c0.2-0.4,0.3-0.5,0.6-0.6
            c0.1,0,0.1,0.2,0,0.2c0.3,0.1,0.2-0.3,0.5-0.1l-0.1,0.2c0.3,0,0.3-0.1,0.4-0.3c0.2-0.1,0.5,0.1,0.6,0.3c0-0.2,0.2-0.4,0.4-0.3
            c0,0.1,0,0.2-0.1,0.2c0.5,0.2,0.7-0.3,1-0.1c0,0.1,0,0.1,0.1,0.2c-0.4,0-0.7,0-0.6,0c0,0.3,0.3,0.3,0.1,0.7
            c0.2-0.2,0.7-0.6,1-0.5c0,0,0,0,0,0.1l0,0c0.1,0,0.1,0,0.2,0c0.1,0,0.2,0.1,0.2,0.1c0,0.2,0.3,0.1,0.5,0.1c0-0.3,0.2-0.2,0-0.5
            c0,0,0,0-0.1,0c0,0,0,0-0.1,0l0,0c-0.1,0-0.2,0-0.4,0c0.1-0.1,0.2-0.3,0.4-0.1c0.1-0.2,0.2-0.4,0.2-0.5
            c0.2,0.4,0.6,0.6,0.7,0.8c0.5-0.2,1.1-0.1,1.4-0.6c0.1-0.1,0.2,0.2,0.2,0.2c-0.1,0.1-0.2,0-0.2,0.1c0.3-0.1,0.8-0.1,0.8-0.4
            c0.3,0.2-0.2,0.3,0.3,0.3l-0.1,0.1c0.9,0.6,1.5-0.9,2.4-0.2c-0.1,0-0.1-0.1-0.1-0.1c1.1,0.3,2.3-0.3,3.4,0.2
            c0.3,0.1,0.4-0.1,0.5-0.3l0.1,0.3l0.3-0.3c0.5-0.3,0.8,0.7,1.4,0.3l-0.1-0.2c0.2,0,0.7-0.1,0.6,0.1c0,0,0.1-0.2,0.2-0.1l0,0.2
            l0.5-0.3c0.4,0.1-0.1,0.6,0.5,0.7c0.2-0.1,0.6-0.5,0.5-0.6c-0.1,0-0.2-0.1-0.2-0.3l0.2-0.1c0-0.5,0.2-0.9-0.3-1.3l-0.3,0.3
            l-0.1-0.2l0.3,0c-0.2-0.2-0.3,0-0.4,0.1c0-0.1-0.1-0.2-0.1-0.2l-0.3,0.4c0-0.2,0.2-0.4-0.1-0.5c-0.2,0.2,0.2,0.4-0.1,0.5
            c-0.2-0.2-0.1-0.4-0.3-0.2c0-0.1,0-0.2,0.1-0.2c-0.2,0.1-0.5,0.1-0.5,0.3c-0.2-0.3-0.6,0.1-0.6-0.4c-0.1,0.1-0.3,0.3-0.5,0.4
            c0.3-0.5-0.6,0-0.5-0.6c-0.2,0.5-0.8,0.2-1.2,0.5c0,0,0.1-0.1,0.1-0.1c-0.2,0-0.3-0.2-0.4-0.3c0,0.4-0.4,0.5-0.5,0.7
            c-0.3-0.4,0.2-0.5,0.1-0.8c0,0.3-0.5,0.3-0.4,0.6c-0.2-0.2-0.2-0.1-0.3-0.4c0,0.5-0.2,0.1-0.4,0.4c-0.3-0.2-0.1-0.5-0.4-0.3
            C15.3,21.1,15.6,20.9,15.6,20.9z M8,21.7L8,21.7c0.1,0,0.1,0,0.2,0C8.1,21.7,8.1,21.7,8,21.7z M7.4,21.7c0.1,0,0.2,0,0.3,0
            c0,0.1,0,0.2-0.1,0.2C7.6,21.9,7.5,21.8,7.4,21.7z M8.7,23.7c-0.1,0-0.1,0-0.1-0.1c0,0,0.1,0,0.2,0l0,0
            C8.7,23.6,8.7,23.7,8.7,23.7z"/>
          <path class="st0" d="M8.9,23.3C8.9,23.3,8.9,23.3,8.9,23.3C8.9,23.3,8.9,23.3,8.9,23.3L8.9,23.3L8.9,23.3z"/>
          <path class="st0" d="M23,9.8L23,9.8C23,9.8,23,9.9,23,9.8C23,9.9,23,9.9,23,9.8z"/>
          <polygon class="st0" points="2.9,19.5 2.8,19.5 2.9,19.5           "/>
          <path class="st0" d="M22.1,13.3C22,13.4,22,13.4,22.1,13.3C22,13.4,22,13.4,22.1,13.3z"/>
          <path class="st0" d="M22,14.9l-0.1,0.2C22,15,22,14.9,22,14.9z"/>
          <path class="st0" d="M21.9,16c0,0,0.1,0,0.1,0l0,0L21.9,16z"/>
          <path class="st0" d="M18.7,2.6C18.6,2.6,18.6,2.6,18.7,2.6C18.5,2.6,18.6,2.6,18.7,2.6z"/>
          <path class="st0" d="M22.2,3.1c-0.1,0-0.1-0.1-0.1-0.1C22,3,22,3.1,22.2,3.1z"/>
          <polygon class="st0" points="12.5,2.9 12.5,2.9 12.5,2.9           "/>
          <path class="st0" d="M22.1,2.8c-0.1,0.1,0,0.1,0,0.2C22.1,2.9,22.1,2.8,22.1,2.8z"/>
          <path class="st0" d="M21.7,21.1L21.7,21.1C21.7,21.1,21.8,21.1,21.7,21.1L21.7,21.1z"/>
          <path class="st0" d="M21.8,21.1L21.8,21.1C21.8,21.2,21.8,21.1,21.8,21.1z"/>
          <path class="st0" d="M21.9,21.3l-0.1-0.1C21.8,21.2,21.8,21.3,21.9,21.3z"/>
          <path class="st0" d="M21.9,19.5l-0.1,0C21.8,19.5,21.8,19.5,21.9,19.5z"/>
          <path class="st0" d="M21.8,19.1c0,0.1-0.2,0.3-0.2,0.4l0.1,0C21.6,19.4,22,19.2,21.8,19.1z"/>
          <path class="st0" d="M23.1,17.1L23,17.5c0.1-0.1,0.3-0.2,0.3,0C23.6,17,23.1,17.6,23.1,17.1z"/>
          <path class="st0" d="M23.3,15.9c0.1,0.2,0.2,0,0.2,0C23.4,15.8,23.4,15.7,23.3,15.9z"/>
          <path class="st0" d="M23.3,7.1l0.3,0C23.5,7,23.4,7.1,23.3,7.1z"/>
          <polygon class="st0" points="21.9,5.4 21.8,5.6 22,5.7           "/>
          <polygon class="st0" points="23.8,4.4 23.8,4.5 23.7,4.2           "/>
          <path class="st0" d="M10.8,0.4l0,0.3C11,0.7,11,0.3,10.8,0.4z"/>
          <path class="st0" d="M4.4,0.8C4.4,0.6,4.2,0.5,4.1,0.7C4.2,0.7,4.4,0.8,4.4,0.8z"/>
          <polygon class="st0" points="0.4,17.8 0.3,17.6 0.4,17.9           "/>
        </g>
      </g>
    </g>
  </g>
</g>
</svg>
