<!-- Generator: Adobe Illustrator 19.2.0, SVG Export Plug-In  -->
<svg version="1.1"
   xmlns="http://www.w3.org/2000/svg" xmlns:xlink="http://www.w3.org/1999/xlink" xmlns:a="http://ns.adobe.com/AdobeSVGViewerExtensions/3.0/"
   x="0px" y="0px" width="29px" height="24px" viewBox="0 0 29 24" style="enable-background:new 0 0 29 24;" xml:space="preserve">
<style type="text/css">
  .st0{fill:#484B9F;}
</style>
<defs>
</defs>
<g>
  <g>
    <g>
      <g>
        <g>
          <g>
            <path class="st0" d="M22,22.5c0.1,0,0.3,0,0.2-0.1l-0.3-0.1L22,22.5z"/>
            <path class="st0" d="M22.6,21.7c-0.2-0.1-0.4-0.3-0.7-0.2c0.3,0.1,0.2,0.2,0.6,0.3c0,0.1-0.1,0.2-0.2,0.2
              c0.1,0-0.1,0.2,0.1,0.3c0.3-0.2,0.3-0.4,0.1-0.6C22.4,21.6,22.5,21.7,22.6,21.7z"/>
            <path class="st0" d="M23.1,9.8L23.1,9.8C23.1,9.8,23.1,9.8,23.1,9.8z"/>
            <path class="st0" d="M23.3,2.1C23.3,2.2,23.3,2.2,23.3,2.1C23.3,2.1,23.3,2.1,23.3,2.1z"/>
            <path class="st0" d="M23,0.5c0,0,0.1,0,0.1,0C23.1,0.5,23.1,0.5,23,0.5z"/>
            <path class="st0" d="M23.1,9.8l0.1-0.2C23.1,9.5,23.1,9.7,23.1,9.8z"/>
            <path class="st0" d="M21.8,20c0,0,0,0.1,0.1,0.1C21.8,20.1,21.8,20.1,21.8,20L21.8,20z"/>
            <path class="st0" d="M23.4,13L23.4,13c0,0.1,0.1,0.1,0.1,0.1L23.4,13z"/>
            <path class="st0" d="M23.4,15.5c0-0.1-0.3-0.1-0.4-0.1c0.1,0,0.2,0.1,0.2,0.1C23.3,15.5,23.3,15.5,23.4,15.5z"/>
            <path class="st0" d="M22.9,19.5L22.9,19.5C22.9,19.5,22.9,19.5,22.9,19.5z"/>
            <path class="st0" d="M23.4,11.2c0,0,0.1,0,0.1,0C23.5,11.2,23.4,11.2,23.4,11.2z"/>
            <path class="st0" d="M19.7,21.2C19.7,21.2,19.7,21.2,19.7,21.2C19.7,21.2,19.7,21.2,19.7,21.2z"/>
            <polygon class="st0" points="22.6,22.6 22.6,22.6 22.6,22.7            "/>
            <path class="st0" d="M19.9,0.1C19.9,0.1,19.9,0.1,19.9,0.1C20,0.1,20,0.1,19.9,0.1z"/>
            <path class="st0" d="M0.5,4.3c0.3-0.2,0.3,0.4,0.6,0C0.9,4.4,0.6,4,0.5,4.3z"/>
            <path class="st0" d="M21.8,20c0,0,0-0.1,0-0.1C21.8,19.9,21.8,19.9,21.8,20z"/>
            <path class="st0" d="M1.1,4.4L1.1,4.4L1.1,4.4C1.1,4.3,1.1,4.4,1.1,4.4z"/>
            <path class="st0" d="M14.6,0.3c0,0,0,0.1,0.1,0.1C14.7,0.4,14.7,0.3,14.6,0.3z"/>
            <path class="st0" d="M18.6,0.7L18.6,0.7C18.5,0.7,18.6,0.7,18.6,0.7z"/>
            <path class="st0" d="M12.6,0.7c-0.1,0-0.1-0.1-0.1,0c0,0,0,0,0,0C12.5,0.7,12.5,0.6,12.6,0.7z"/>
            <path class="st0" d="M10.4,0.7C10.4,0.7,10.5,0.7,10.4,0.7l0.1,0L10.4,0.7z"/>
            <path class="st0" d="M13.2,21.3c0,0.1,0.1,0.2,0.1,0.3C13.3,21.4,13.6,21.3,13.2,21.3z"/>
            <path class="st0" d="M21.9,20c-0.1,0-0.1,0-0.1-0.1l0,0.1C21.9,20,21.9,20,21.9,20z"/>
            <path class="st0" d="M12.5,2.9l-0.3,0C12.2,2.9,12.4,2.9,12.5,2.9z"/>
            <path class="st0" d="M2.8,18.7L2.8,18.7C2.8,18.8,2.8,18.8,2.8,18.7z"/>
            <path class="st0" d="M11.1,2.9c-0.1-0.1-0.1-0.2-0.2-0.2c0,0,0,0,0,0.1L11.1,2.9z"/>
            <path class="st0" d="M13.3,21.6L13.3,21.6L13.3,21.6z"/>
            <path class="st0" d="M15.6,20.9c-0.3,0-0.2,0.4-0.2,0.6C15,21.6,15.2,21.2,15,21c-0.2,0.1-0.4,0.4-0.6,0.4c0-0.1,0-0.1,0-0.2
              c-0.3,0.3-0.8,0-1.1,0.4c0,0,0-0.1,0-0.1c0,0.2,0.1,0.4,0,0.5c-0.1,0-0.3,0.2-0.3,0c0.1,0,0.1-0.1,0.1-0.2L13,22
              c-0.1-0.3,0.2-0.1,0.2-0.4c-0.3,0.1-0.6,0.4-0.9,0.3c0-0.3,0.5-0.1,0.2-0.4l0.4,0.1c-0.3-0.5,0.2,0,0-0.5
              c-0.5-0.1-0.5,0.2-1,0.1c-0.1,0.2,0,0.3-0.1,0.5c-0.7,0.3-0.5-0.9-1-0.4c-0.1,0.2-0.2,0.7-0.5,0.4l0.1-0.4
              c-0.4,0-0.3,0.6-0.7,0.3c0.1-0.2,0.4-0.1,0.3-0.2c-0.3-0.3-0.2,0.2-0.4,0.2l0-0.3c-0.5,0.1-1,0.3-1.5,0.4c0-0.1,0.1-0.2,0-0.3
              c-0.7,0.2-1.4,0-2.1-0.2l-0.2,0.3c-0.1,0-0.1-0.1,0-0.2c-0.3-0.1,0,0.2-0.1,0.3c-0.1,0-0.2-0.2-0.1-0.3
              c-0.4,0.2-1.3,0.5-1.7,0.2l0.1-0.1c-0.2-0.1-0.3,0.1-0.4,0.2c0,0.1-0.1,0.1-0.2,0.2c0,0-0.1,0-0.1,0l0-0.1
              c-0.2-0.1-0.5,0-0.7,0c0-0.2,0.1-0.3,0.3-0.5c-0.2,0.1-0.2,0-0.1-0.1c0-0.1,0-0.1-0.3-0.1c0.3-0.4,0.4-0.3,0.6-1
              c0-0.2-0.4-0.3-0.4-0.5l0.3,0l-0.3-0.3L2.9,19l-0.1-0.2c0,0.1-0.1,0.2-0.2,0.2c-0.1-0.3,0.2-0.7,0.4-0.8l-0.3-0.7
              c0.1,0,0.2,0.1,0.2,0.2c-0.3-0.4,0.3-0.1,0-0.4c-0.1,0-0.2,0-0.2,0c0.2-0.2,0.2-0.6,0.1-0.9L3,16.5c0.1-0.5-0.1-1.1-0.1-1.7
              c-0.1,0.2-0.5,0.2-0.5,0l0.3-0.1c-0.2-0.1-0.1,0.2-0.4,0c0-0.2,0.4-0.2,0.5,0l-0.1-0.3c0.1,0,0.1,0,0.3,0.1
              c-0.2-0.1,0.3-0.5,0-0.6l0.1,0c0-0.6-0.1-0.9-0.1-1.4c-0.3,0-0.2-0.2-0.4-0.3c0.1-0.4,0.3-0.8,0.3-1.2
              c-0.1-0.3-0.2-0.1-0.4-0.2c0.3,0,0.2-0.5,0.4-0.2c0-0.5-0.1-0.7-0.3-1.3C2.5,9.1,2.4,9.2,2.3,9.1c0-0.1,0.1-0.3,0.2-0.3l0,0
              C2.2,8.2,3.3,7.2,2.8,6.6l0,0L2.5,6c0-0.3,0.2,0.2,0.4,0C2.5,5.3,3,4.9,2.7,4.4C3.1,4.2,3,3.8,3,3.4l0-0.3c0,0,0,0,0-0.1
              c0,0,0-0.1,0.2,0L2.9,3C2.8,2.8,3,3,3.1,3C2.9,2.9,2.9,2.9,2.8,2.9c0-0.1-0.1-0.2-0.1-0.2c0.2,0,0.4,0.1,0.5,0.2
              C3.7,2.9,4.3,3,4.8,3.1c0.5,0,0.3-0.9,0.9-0.5L5.5,2.9c0.9-0.4,1.9,0,2.8-0.3C8.3,2.7,8.3,2.8,8.2,2.8c0.2,0.2,0.7,0,0.7-0.2
              c0.1,0,0,0.2,0.1,0.3C9.2,3,9.5,2.6,9.6,2.8c0,0-0.1,0.1-0.1,0.1c0.1-0.1,0.6,0,0.5-0.2c0.3,0.1,0.7-0.1,0.9,0
              c0.2-0.3,0.6,0.1,0.6-0.3c0,0.5,0.6,0.4,0.8,0.2c-0.1,0.1,0.2,0.1,0.1,0.3c0.2,0,0.5-0.1,0.4-0.3c0.5,0.5,0.9-0.4,1.2,0.3
              c0.7-0.2,1.4-0.4,2.1-0.5c0,0.5-0.7,0-0.7,0.5c0.6-0.2,1-0.6,1.6-0.5c0.2,0.1-0.1,0.2-0.1,0.3c0.6-0.2,1.2,0,1.8-0.2
              c0,0-0.1,0.1-0.1,0.1c0.1,0,0.3,0.1,0.2-0.1l-0.1,0.1c-0.2-0.3,0.4-0.6,0.5-0.8c-0.2,0.6,0.6,0.1,0.3,0.9
              c0.1,0,0.2-0.1,0.1-0.3c0.1,0,0.1,0.1,0,0.3c0.4-0.1,0.3-0.3,0.6-0.3c0,0.1-0.1,0.1-0.1,0.3c0.2-0.2,0.4-0.4,0.7-0.3
              c0,0.1,0,0.1-0.1,0.1c0.1,0,0.1,0,0.2,0c0,0,0.1,0,0.1-0.1c0.1,0,0.1-0.1,0.2-0.2C21.5,2,21.7,1.9,21.8,2
              c-0.4,0.4,0,0.1-0.3,0.5l0.1,0c0,0,0,0,0.1,0l0.2-0.2c0,0.1,0.3,0.1,0.1,0.3c0,0-0.2,0-0.2,0l0.1,0.2c0,0,0.1-0.2,0.1-0.2
              c0.2,0.1,0.5-0.2,0.4,0.1c0-0.1,0,0.3-0.2,0.4l0,0c0.1,0.1,0.2,0.3,0.2,0.5c-0.1,0.1-0.4,0-0.5,0c0.3,0.1,0.1,0.6,0.4,0.8
              c-0.1-0.1-0.3-0.1-0.3,0l0.3,0.1c-0.1,0.1-0.1,0.1-0.3,0.1c0,0.4,0.5-0.1,0.3,0.3c0,0-0.1,0-0.1-0.1c-0.1,0.4,0.2,0.9,0,1.3
              c-0.4,0.1-0.1-0.4-0.4-0.2c0.1,0.6,0.5,1.2,0.4,1.8l0-0.1c0.5,0.1-0.3,0.4,0,0.7c0-0.1-0.3-0.1-0.2-0.1
              c-0.1,0.4,0.1,0.8,0.3,1.4l-0.1-0.1c-0.1,0.2-0.1,0.6-0.1,0.9c0.1,0.1,0.1,0.2,0.3,0.1c-0.8,0.8,0.4,1.5-0.2,2.2
              c0-0.1-0.1-0.2-0.1-0.1L22,13c0.2,0,0.1-0.1,0.3-0.2c0.1,0.1,0.2,0.2,0.2,0.4c-0.2-0.3-0.4,0-0.5,0.1c0.1,0,0.1,0,0.2,0
              c-0.4,0.3,0.5,0.1,0.2,0.5l-0.1,0c0.1,0.2,0.2,0.3,0.2,0.5c-0.3,0.1-0.1-0.2-0.3-0.2c0,0.2,0.5,0.5,0.2,0.7
              c-0.1-0.1-0.1-0.2-0.1-0.3c-0.3,0.2-0.2,0.3-0.3,0.4l0,0l-0.1,0.4l0.1-0.1c0.7,0.3,0.1,0.6,0.6,1c-0.4-0.4-0.2-0.1-0.6-0.1
              c-0.1,0.1-0.2,0.3-0.3,0.2c0.2,0.2-0.2,0.3,0.2,0.6c-0.1,0,0,0.2-0.3,0.2c0.1,0.2,0.2-0.1,0.3,0c0.3,0.4-0.4,0.9,0.1,1.4
              c0.2,0.5,0.5,0.6,0.7,1c-0.2,0.1-0.4-0.1-0.4-0.1c-0.1,0.2-0.1,0.4,0,0.6c-0.1,0-0.2,0-0.3,0.1c0,0.2,0.4,0.1,0.2,0.4
              c-0.1,0-0.3-0.1-0.4-0.2c0.1,0.2,0.3,0.4,0.4,0.6c-0.2,0.1-0.3-0.1-0.4-0.2c0.1,0.2,0.2,0.6,0.4,0.7l0.1-0.2
              c0,0.1-0.2,0-0.3,0c-0.2-0.2,0.1-0.3,0.2-0.3l0.1,0.2c0.6-0.2-0.1-0.6-0.1-0.9l0.4,0.1l-0.3-0.3c0.1-0.1,0.3-0.1,0.4,0
              c0.2-0.2-0.1-0.2,0.1-0.4c0,0,0.1,0,0.1,0l-0.1-0.2c0.1,0,0.3,0,0.2,0.1c0.2-0.4-0.3-0.6,0-0.8l0,0c-0.1-0.5-0.3-0.1-0.7-0.5
              l0.8-0.3l-0.3-0.1c0-0.1,0-0.2,0.2-0.1c-0.2-0.2-0.1,0-0.3-0.1c0.3-0.3-0.1-0.7,0.4-0.8c-0.2-0.1-0.2,0.3-0.3,0
              c0.5-0.1-0.1-0.3,0.2-0.6c0.3,0.1,0.1,0.3,0.4,0.1c-0.5-0.1,0.1-0.5,0-0.7c-0.4,0-0.2-0.5-0.3-0.8c0.1,0,0.2-0.7,0.3-1l0.1,0
              c-0.4-0.1-0.3-0.4-0.4-0.6c0.2,0,0.3,0.1,0.4,0.2l0-0.2c-0.1-0.1-0.2-0.1-0.2-0.3l0.3,0.1c0-0.3-0.3-0.6-0.1-1
              c-0.3,0-0.7,0.3-0.9-0.1c0.1,0,0.4,0,0.4,0.1c0,0-0.1-0.1-0.1-0.2l0.2,0.2c0.1-0.2-0.2-0.1-0.2-0.2c0.2,0,0.1-0.1,0.3-0.1
              c0,0-0.1,0.1,0,0.2c0-0.2,0.2-0.4,0.3-0.4c-0.1,0-0.3,0-0.3-0.1c0-0.3,0.2-0.1,0.3-0.3c-0.1-0.1,0-0.3-0.3-0.3
              c0-0.1,0.1-0.1,0.2-0.1c-0.1-0.2,0-0.7-0.4-0.6l0,0l0,0v0v0c-0.3-0.5,0.2-1.1,0-1.6l0.1,0C23,8,23.1,7.6,22.9,7.4
              c0-0.1,0.2-0.2,0.3-0.2c-0.1-0.2-0.2-0.3,0-0.6c0.2,0.2,0.2-0.1,0.1,0.2c0.1-0.3,0.2-0.4,0-0.7c0.3,0.1,0.3-0.2,0.2-0.4
              L23.3,6c0-0.2,0-0.3,0-0.5l0.3,0.1C24,5,23,4.5,23.6,4c-0.2-0.2-0.2,0.3-0.4,0.2c0-0.3,0.5-0.6,0.5-0.7c0.1-0.2,0-0.3-0.2-0.4
              c-0.1-0.1-0.3-0.3-0.2-0.6c-0.1,0.1-0.4,0.2-0.5-0.1c0-0.3,0.5-0.7,0.6-0.5c0,0.1,0,0.2-0.1,0.2c0,0.1,0.1,0.3,0.2,0.1l-0.1,0
              c0.1-0.3,0.1-0.9,0.3-0.9c-0.1-0.3-0.2,0-0.3,0.3c0.1-0.5,0.1-0.7,0.1-1.1c-0.1,0-0.3,0-0.4,0c0,0.1,0,0.2-0.1,0.2
              C22.3,0.6,22.5,0.9,22,1c-0.2-0.2,0.3-0.4-0.3-0.3c-0.3-0.1,0-0.3,0.2-0.4c-0.3,0.1-0.6,0.1-0.8,0c-0.2-0.1-0.3-0.2-0.4-0.2
              L20.8,0c-0.1,0.1-0.2,0.1-0.3,0.1l0.1,0.2c-0.1,0-0.2,0-0.2-0.1c-0.1,0.2,0.1,0.4-0.1,0.6c-0.1-0.1-0.4,0.1-0.5-0.2
              c0.4,0.1,0-0.3,0.3-0.4c-0.1,0-0.2,0-0.3,0c0,0,0-0.1,0-0.1c-0.4-0.3-0.2,0.4-0.6,0.3c0.1-0.2-0.1-0.3-0.2-0.3
              c0.2,0,0.1,0.3-0.1,0.4c-0.3-0.1-0.3,0.1-0.5,0.1l0.2,0.1c-0.1,0.2-0.2,0.2-0.4,0.2c0-0.1,0.2-0.1,0.1-0.2
              c-0.2,0.3-0.5-0.3-0.8-0.1c-0.1-0.1,0-0.3-0.1-0.4c-0.3,0.2-0.4-0.2-0.7-0.1c0.1,0.2,0.1,0.2-0.1,0.4l0.6-0.2l-0.4,0.3
              c0.2,0,0.4-0.1,0.5-0.1c-0.2,0.2-0.2,0.1-0.1,0.3c-0.2-0.4-0.5,0.2-0.8,0l0-0.6c-0.4-0.3-0.8,0.3-1.3,0.2l0.2,0.1
              c-0.1,0.2-0.3,0-0.5,0.1c0-0.2-0.1-0.3-0.2-0.4c0,0.1-0.4,0-0.5,0.4L14,0.5C13.5,0.4,13.5,1.1,13,1c0.1-0.2-0.1-0.4,0.2-0.5
              c-0.1,0-0.3,0-0.3,0.1c-0.1-0.1-0.4,0.3-0.5,0.1C12.4,0.8,12.4,1,12.2,1c0,0,0-0.1,0-0.1C12.2,1,12,1,12.1,1.2
              c-0.4-0.6-1.2,0-1.6-0.5c-0.3,0.1-0.7,0.1-1,0.1c0-0.1,0-0.1,0.1-0.1C9.2,0.6,9.3,1.4,8.9,1.2C8.6,0.8,9.1,1,9,0.9
              C8.9,0.2,8.4,1,8.1,0.6l0.1,0C8,0.3,7.6,0.8,7.2,0.7c0,0,0-0.1,0-0.1C7,1,6.5,1.1,6.1,1.2C6.3,0.9,6.3,1,6.2,0.8
              c-0.2,0,0,0.4-0.3,0.5C5.9,1.1,5.6,1,5.6,0.7l0.3,0c-0.2-0.4-0.4,0-0.6,0l0-0.2C4.9,0.6,4.9,1,4.4,0.9l0.1,0.1
              C4.2,1.4,4.2,0.8,3.9,1.1L3.8,0.7c-0.2,0.1-0.6,0.4-1,0.5C2.9,1,3.1,0.9,3.3,0.8c0.1-0.1,0.3-0.2,0.4-0.3c-0.1,0-0.2,0-0.4,0
              c-0.1,0-0.4,0.1-0.4,0.2c0.1,0,0.2-0.1,0.3-0.1C2.9,1,2.6,1.2,2.2,1.2C2,0.7,1.4,0.7,0.8,0.7c0,0.3-0.1,0.5-0.3,0.5
              c0.1,0.6,0.1,1.1,0.1,1.6c0,0.1,0,0.3,0,0.4l0,0.3c0,0.2,0,0.3,0,0.5c0.6-0.3,0,0.2,0.6,0.2c0,0.2,0,0.2,0,0.3L0.7,4.9
              C0.5,5,0.6,4.7,0.4,4.7c0,0.4-0.3,0.2-0.4,0.4c0.2-0.1,0.3,0.1,0.2,0.3l0.3-0.3c0.3,0.5-0.5,0.5-0.2,1L0.1,6
              c0.1,0.3,0,1,0.5,1.3c-0.1,0-0.2,0.1-0.3,0c-0.1,0.7,0.5,1.4,0.2,2l-0.1,0c0,0.1,0.3,0.2,0.1,0.4c-0.1,0-0.1,0-0.2,0
              C0.4,9.6,0.6,9.9,0.6,10L0.4,9.9c-0.2,0.6,0.4,1,0.5,1.5c-0.4,0-0.6,0.5-0.7,0.7l-0.1,0c-0.1,0.7,0.4,1.3,0.5,1.9
              c-0.5,0.4-0.2,1.4-0.5,2.1c0.1-0.1,0.3,0,0.4,0.1c-0.1,0.2,0.3,0.4-0.1,0.4l0-0.1c-0.4,0.1-0.3,0.4-0.3,0.7l0.5,0
              c-0.8,0.7,0.3,1.8-0.4,2.1c0.1,0.2,0.1,0.4,0.3,0.5l-0.3,0c0,0.2-0.1,0.4-0.1,0.6c0,0.1,0,0.5,0,1l-0.2-0.2
              c0,0.6,0.8,0.4,0.8,0.8c0,0-0.1,0.1-0.2,0.2c-0.1,0.1-0.2,0.2-0.2,0.2c0,0.3,0,0.6-0.1,0.9c0.6,0.1,1.3,0.2,2-0.1
              c0,0.1-0.1,0.2-0.3,0.2c0.2,0,0.7,0.1,1,0.1c0.2,0,0.4-0.1,0.3-0.4c0,0.4,0.6,0,0.9-0.1l0,0.3c0.2-0.4,0.3-0.5,0.6-0.6
              c0.1,0,0.1,0.2,0,0.2c0.3,0.1,0.2-0.3,0.5-0.1l-0.1,0.2c0.3,0,0.3-0.1,0.4-0.3c0.2-0.1,0.5,0.1,0.6,0.3c0-0.2,0.2-0.4,0.4-0.3
              c0,0.1,0,0.2-0.1,0.2c0.5,0.2,0.7-0.3,1-0.1c0,0.1,0,0.1,0.1,0.2c-0.4,0-0.7,0-0.6,0c0,0.3,0.3,0.3,0.1,0.7
              c0.2-0.2,0.7-0.6,1-0.5c0,0,0,0,0,0.1l0,0c0.1,0,0.1,0,0.2,0c0.1,0,0.2,0.1,0.2,0.1c0,0.2,0.3,0.1,0.5,0.1
              c0-0.3,0.2-0.2,0-0.5c0,0,0,0-0.1,0c0,0,0,0-0.1,0l0,0c-0.1,0-0.2,0-0.4,0c0.1-0.1,0.2-0.3,0.4-0.1c0.1-0.2,0.2-0.4,0.2-0.5
              c0.2,0.4,0.6,0.6,0.7,0.8c0.5-0.2,1.1-0.1,1.4-0.6c0.1-0.1,0.2,0.2,0.2,0.2c-0.1,0.1-0.2,0-0.2,0.1c0.3-0.1,0.8-0.1,0.8-0.4
              c0.3,0.2-0.2,0.3,0.3,0.3l-0.1,0.1c0.9,0.6,1.5-0.9,2.4-0.2c-0.1,0-0.1-0.1-0.1-0.1c1.1,0.3,2.3-0.3,3.4,0.2
              c0.3,0.1,0.4-0.1,0.5-0.3l0.1,0.3l0.3-0.3c0.5-0.3,0.8,0.7,1.4,0.3l-0.1-0.2c0.2,0,0.7-0.1,0.6,0.1c0,0,0.1-0.2,0.2-0.1l0,0.2
              l0.5-0.3c0.4,0.1-0.1,0.6,0.5,0.7c0.2-0.1,0.6-0.5,0.5-0.6c-0.1,0-0.2-0.1-0.2-0.3l0.2-0.1c0-0.5,0.2-0.9-0.3-1.3l-0.3,0.3
              l-0.1-0.2l0.3,0c-0.2-0.2-0.3,0-0.4,0.1c0-0.1-0.1-0.2-0.1-0.2l-0.3,0.4c0-0.2,0.2-0.4-0.1-0.5c-0.2,0.2,0.2,0.4-0.1,0.5
              c-0.2-0.2-0.1-0.4-0.3-0.2c0-0.1,0-0.2,0.1-0.2c-0.2,0.1-0.5,0.1-0.5,0.3c-0.2-0.3-0.6,0.1-0.6-0.4c-0.1,0.1-0.3,0.3-0.5,0.4
              c0.3-0.5-0.6,0-0.5-0.6c-0.2,0.5-0.8,0.2-1.2,0.5c0,0,0.1-0.1,0.1-0.1c-0.2,0-0.3-0.2-0.4-0.3c0,0.4-0.4,0.5-0.5,0.7
              c-0.3-0.4,0.2-0.5,0.1-0.8c0,0.3-0.5,0.3-0.4,0.6c-0.2-0.2-0.2-0.1-0.3-0.4c0,0.5-0.2,0.1-0.4,0.4c-0.3-0.2-0.1-0.5-0.4-0.3
              C15.3,21.1,15.6,20.9,15.6,20.9z M8,21.7L8,21.7c0.1,0,0.1,0,0.2,0C8.1,21.7,8.1,21.7,8,21.7z M7.4,21.7c0.1,0,0.2,0,0.3,0
              c0,0.1,0,0.2-0.1,0.2C7.6,21.9,7.5,21.8,7.4,21.7z M8.7,23.7c-0.1,0-0.1,0-0.1-0.1c0,0,0.1,0,0.2,0l0,0
              C8.7,23.6,8.7,23.7,8.7,23.7z"/>
            <path class="st0" d="M8.9,23.3C8.9,23.3,8.9,23.3,8.9,23.3C8.9,23.3,8.9,23.3,8.9,23.3L8.9,23.3L8.9,23.3z"/>
            <path class="st0" d="M23,9.8L23,9.8C23,9.8,23,9.9,23,9.8C23,9.9,23,9.9,23,9.8z"/>
            <polygon class="st0" points="2.9,19.5 2.8,19.5 2.9,19.5             "/>
            <path class="st0" d="M22.1,13.3C22,13.4,22,13.4,22.1,13.3C22,13.4,22,13.4,22.1,13.3z"/>
            <path class="st0" d="M22,14.9l-0.1,0.2C22,15,22,14.9,22,14.9z"/>
            <path class="st0" d="M21.9,16c0,0,0.1,0,0.1,0l0,0L21.9,16z"/>
            <path class="st0" d="M18.7,2.6C18.6,2.6,18.6,2.6,18.7,2.6C18.5,2.6,18.6,2.6,18.7,2.6z"/>
            <path class="st0" d="M22.2,3.1c-0.1,0-0.1-0.1-0.1-0.1C22,3,22,3.1,22.2,3.1z"/>
            <polygon class="st0" points="12.5,2.9 12.5,2.9 12.5,2.9             "/>
            <path class="st0" d="M22.1,2.8c-0.1,0.1,0,0.1,0,0.2C22.1,2.9,22.1,2.8,22.1,2.8z"/>
            <path class="st0" d="M21.7,21.1L21.7,21.1C21.7,21.1,21.8,21.1,21.7,21.1L21.7,21.1z"/>
            <path class="st0" d="M21.8,21.1L21.8,21.1C21.8,21.2,21.8,21.1,21.8,21.1z"/>
            <path class="st0" d="M21.9,21.3l-0.1-0.1C21.8,21.2,21.8,21.3,21.9,21.3z"/>
            <path class="st0" d="M21.9,19.5l-0.1,0C21.8,19.5,21.8,19.5,21.9,19.5z"/>
            <path class="st0" d="M21.8,19.1c0,0.1-0.2,0.3-0.2,0.4l0.1,0C21.6,19.4,22,19.2,21.8,19.1z"/>
            <path class="st0" d="M23.1,17.1L23,17.5c0.1-0.1,0.3-0.2,0.3,0C23.6,17,23.1,17.6,23.1,17.1z"/>
            <path class="st0" d="M23.3,15.9c0.1,0.2,0.2,0,0.2,0C23.4,15.8,23.4,15.7,23.3,15.9z"/>
            <path class="st0" d="M23.3,7.1l0.3,0C23.5,7,23.4,7.1,23.3,7.1z"/>
            <polygon class="st0" points="21.9,5.4 21.8,5.6 22,5.7             "/>
            <polygon class="st0" points="23.8,4.4 23.8,4.5 23.7,4.2             "/>
            <path class="st0" d="M10.8,0.4l0,0.3C11,0.7,11,0.3,10.8,0.4z"/>
            <path class="st0" d="M4.4,0.8C4.4,0.6,4.2,0.5,4.1,0.7C4.2,0.7,4.4,0.8,4.4,0.8z"/>
            <polygon class="st0" points="0.4,17.8 0.3,17.6 0.4,17.9             "/>
          </g>
        </g>
      </g>
    </g>
  </g>
  <g>
    <g>
      <g>
        <g>
          <g>
            <path class="st0" d="M29,2c0-0.1-0.2-0.2-0.2-0.1L29,2.1L29,2z"/>
            <path class="st0" d="M28.3,1.8c0.1,0.2,0.2,0.4,0.5,0.6c-0.2-0.3-0.1-0.2-0.3-0.5c0-0.1,0.1,0,0.2,0.1c0-0.1,0.1,0,0-0.2
              c-0.2-0.1-0.3-0.1-0.2,0.1C28.4,1.9,28.3,1.8,28.3,1.8z"/>
            <path class="st0" d="M24.5,4.9L24.5,4.9C24.5,4.9,24.5,4.9,24.5,4.9z"/>
            <path class="st0" d="M22.3,6.8C22.3,6.8,22.3,6.8,22.3,6.8C22.2,6.8,22.2,6.8,22.3,6.8z"/>
            <path class="st0" d="M21.6,7C21.7,7,21.7,6.9,21.6,7C21.6,6.9,21.6,6.9,21.6,7z"/>
            <path class="st0" d="M24.5,4.9l-0.1,0C24.5,4.9,24.5,4.9,24.5,4.9z"/>
            <path class="st0" d="M28.4,2.8C28.4,2.8,28.4,2.8,28.4,2.8C28.4,2.8,28.4,2.8,28.4,2.8L28.4,2.8z"/>
            <path class="st0" d="M25.3,3.7L25.3,3.7c0,0,0-0.1-0.1-0.1L25.3,3.7z"/>
            <path class="st0" d="M25.9,3c0,0,0.2,0.2,0.2,0.3c-0.1-0.1-0.1-0.1-0.1-0.2C26,3.1,26,3,25.9,3z"/>
            <path class="st0" d="M27.4,2.2L27.4,2.2C27.4,2.2,27.4,2.2,27.4,2.2z"/>
            <path class="st0" d="M24.7,4.2C24.7,4.2,24.6,4.2,24.7,4.2C24.6,4.2,24.7,4.2,24.7,4.2z"/>
            <path class="st0" d="M4.3,15.9C4.3,15.9,4.3,15.9,4.3,15.9C4.3,15.9,4.3,15.9,4.3,15.9z"/>
            <polygon class="st0" points="4.4,14.1 4.4,14.1 4.6,14             "/>
            <path class="st0" d="M20.7,7.4L20.7,7.4C20.7,7.3,20.7,7.3,20.7,7.4z"/>
            <path class="st0" d="M14.8,13.6c0.2,0.1,0.1,0.3,0.4,0.4C15.1,14,15,13.6,14.8,13.6z"/>
            <path class="st0" d="M28.3,2.8C28.3,2.8,28.3,2.9,28.3,2.8C28.3,2.9,28.3,2.8,28.3,2.8z"/>
            <path class="st0" d="M15.2,14L15.2,14L15.2,14C15.2,14,15.2,14,15.2,14z"/>
            <path class="st0" d="M19.3,9c0,0,0.1,0.1,0.1,0.1C19.4,9.1,19.4,9,19.3,9z"/>
            <path class="st0" d="M20.7,8.2L20.7,8.2C20.7,8.2,20.7,8.2,20.7,8.2z"/>
            <path class="st0" d="M19,9.9C19,9.9,18.9,9.9,19,9.9C19,9.9,19,9.9,19,9.9C19,9.9,19,9.9,19,9.9z"/>
            <path class="st0" d="M18.4,10.5C18.4,10.5,18.4,10.5,18.4,10.5L18.4,10.5L18.4,10.5z"/>
            <path class="st0" d="M6.2,17.7c0-0.1,0.1-0.1,0.2-0.2C6.2,17.6,6.1,17.6,6.2,17.7z"/>
            <path class="st0" d="M28.3,2.7c0,0.1,0.1,0.1,0.1,0.1L28.3,2.7C28.3,2.8,28.3,2.7,28.3,2.7z"/>
            <path class="st0" d="M20.5,11.5l-0.1,0.1C20.5,11.5,20.5,11.5,20.5,11.5z"/>
            <path class="st0" d="M12.3,19.4L12.3,19.4C12.3,19.4,12.3,19.4,12.3,19.4z"/>
            <path class="st0" d="M20.2,11.9c-0.1-0.1-0.1-0.1-0.2-0.1c0,0,0,0,0,0.1L20.2,11.9z"/>
            <path class="st0" d="M6.4,17.5L6.4,17.5L6.4,17.5z"/>
            <path class="st0" d="M5.3,17.3c0.1,0.1,0.3-0.2,0.5-0.3c0.2,0-0.1,0.2-0.2,0.4c0.1,0,0.4-0.2,0.5-0.1c0,0,0,0.1-0.1,0.1
              c0.3-0.1,0.2,0.2,0.6,0c0,0,0,0.1-0.1,0.1c0.1-0.1,0.2-0.3,0.3-0.4c0,0,0.2-0.1,0.1,0.1c0,0-0.1,0-0.2,0.1l0.1,0
              c-0.2,0.3-0.1,0-0.3,0.2c0.2,0,0.5-0.1,0.5,0c-0.2,0.3-0.2-0.1-0.4,0.2l0-0.2c-0.3,0.5,0-0.1-0.4,0.4c0.1,0.2,0.3,0,0.3,0.2
              c0.2-0.1,0.2-0.2,0.4-0.3c0.4-0.1-0.5,0.8,0,0.6c0.2-0.1,0.5-0.4,0.5-0.2L7,18.5c0.1,0.2,0.5-0.3,0.4,0c-0.1,0.1-0.2,0-0.2,0
              c-0.1,0.3,0.2-0.1,0.3,0l-0.2,0.3c0.2,0.1,0.5,0.1,0.7,0.2c-0.1,0.1-0.2,0.1-0.2,0.2c0.3,0.1,0.3,0.4,0.6,0.9L8.6,20
              c0,0,0,0.2-0.1,0.2C8.6,20.4,8.7,20,8.8,20c0.1,0,0,0.2-0.1,0.3c0.4,0,0.8,0,0.9,0.6l-0.1,0.1c0.2,0.3,0.3-0.6,0.4-0.1l0,0
              c0.1,0.1,0.1,0.2,0.2,0.3c0.3-0.3,0.5-0.7,0.9-0.5c-0.1-0.5,0.5-0.2,0.2-0.8c0.3,0.1,0.3,0.2,0.8,0.1c0.1-0.1-0.1-0.4-0.1-0.5
              l0.2,0.2L12,19.3l0.3,0.2l0-0.1c0,0-0.1-0.1-0.2-0.1c0-0.2,0.4-0.1,0.5,0l0-0.4c0.1,0.1,0.1,0.2,0.1,0.2
              c-0.1-0.3,0.2,0.2,0.1-0.1c-0.1,0-0.1-0.1-0.2-0.2c0.2,0.1,0.3,0,0.3-0.2l0.1,0.2c0.2-0.1,0.3-0.4,0.4-0.6
              c-0.1,0-0.4-0.3-0.4-0.4l0.3,0.2c-0.1-0.2-0.1,0-0.2-0.3c0.1,0,0.3,0.2,0.3,0.3l0-0.2c0.1,0.1,0.1,0.1,0.2,0.2
              c-0.1-0.2,0.4,0.1,0.2-0.2l0.1,0.1c0.2-0.2,0.2-0.3,0.3-0.5c-0.2-0.2-0.1-0.2-0.2-0.4c0.2,0,0.4,0,0.5-0.1
              c0-0.2-0.1-0.2-0.2-0.4c0.2,0.2,0.3,0,0.4,0.2c0.1-0.2,0.2-0.2,0.2-0.6c-0.1-0.1-0.2-0.1-0.2-0.1c0-0.1,0.2,0,0.2,0.1l0,0
              c-0.1-0.5,1,0,0.8-0.5l0,0l0-0.4c0.1,0,0.1,0.2,0.3,0.2c-0.1-0.5,0.3-0.3,0.3-0.6c0.7,0.4,0.4-0.5,0.9-0.3l-0.1-0.1
              c-0.1-0.2,0.1,0,0.2,0c-0.1-0.1-0.2-0.1-0.2-0.2c0.2-0.5,0.9-0.6,1.4-0.8c0.2-0.1-0.6-0.7-0.1-0.6l0.2,0.3
              c0-0.6,0.6-0.5,0.6-1c0,0.1,0.1,0.1,0.1,0.2c0.2,0.1,0.2-0.2,0.1-0.3c0.1,0,0.1,0.1,0.2,0.2c0.2,0-0.1-0.4,0.1-0.2
              c0,0,0,0.1,0,0.1c0-0.1,0.2-0.1,0-0.3c0.2,0,0.1-0.3,0.3-0.2c-0.2-0.3,0.3-0.1,0-0.4c0.3,0.3,0.4,0.1,0.3-0.1
              c0.1,0.1,0.2,0,0.3,0.2c0.1-0.1,0.1-0.2-0.1-0.4c0.5,0.3,0-0.6,0.5-0.2c0-0.4,0.1-0.7,0.2-1c0.3,0.3-0.2,0.2,0.2,0.6
              c0.1-0.3-0.1-0.7,0.1-0.8c0.1,0,0.1,0.2,0.2,0.2C21.7,9.7,22,9.7,22,9.3c0,0,0,0.1,0.1,0.1c0,0,0.1,0,0-0.2l0,0.1
              c-0.3-0.2-0.3-0.6-0.4-0.7c0.4,0.5,0.3-0.1,0.7,0.6c0,0,0-0.1-0.2-0.2c0.1,0,0.1,0,0.2,0.2c0-0.2-0.2-0.3-0.1-0.4
              c0.1,0.1,0.1,0.1,0.1,0.2c-0.1-0.2-0.2-0.4,0-0.4c0,0,0.1,0.1,0.1,0.1c0.1-0.2-0.1-0.6,0.2-0.7c0.3,0.4,0.2,0,0.4,0.3l0-0.2
              L23,8.1c0.1-0.1,0-0.3,0.1-0.3l0.1,0.2l0.1-0.2l-0.2,0c-0.1-0.2-0.3-0.3-0.2-0.4c0,0,0.1-0.1,0.3,0l0,0c0-0.1-0.1-0.3,0-0.2
              c0.1,0.1,0.3,0.3,0.3,0.4c-0.2-0.3,0.1-0.2-0.1-0.5c0,0.1,0.2,0.2,0.2,0.2L23.6,7c0.1,0,0.1,0,0.2,0.2
              c0.1-0.1-0.4-0.3-0.1-0.3c0,0,0,0,0,0.1c0.2-0.1,0.1-0.4,0.3-0.4c0.3,0.2,0,0.2,0.2,0.4c0.1-0.2,0-0.7,0.3-0.8l-0.1,0
              c-0.4-0.4,0.3,0.1,0.2-0.2c0,0,0.2,0.2,0.1,0.2c0.2-0.1,0.1-0.3,0.2-0.6l0.1,0.1c0.2,0,0.2-0.1,0.3-0.2
              c-0.1-0.1,0-0.1-0.2-0.3c0.8,0.3,0.1-0.7,0.8-0.5c0,0,0,0.1,0,0.1l0.1-0.3c-0.2-0.2-0.1-0.1-0.3-0.2c-0.1-0.1-0.1-0.2-0.1-0.3
              c0,0.2,0.3,0.3,0.4,0.3c-0.1,0-0.1-0.1-0.2-0.2c0.4,0.2-0.3-0.3,0-0.3l0.1,0.1c0-0.1-0.1-0.2,0-0.3c0.2,0.2,0,0.1,0.2,0.3
              c0.1-0.1-0.2-0.5,0-0.4c0,0.1,0,0.1,0,0.2c0.3,0.2,0.2,0.1,0.3,0.1l0,0l0.2,0l-0.1,0c-0.4-0.6,0.1-0.3-0.1-0.7
              c0.2,0.4,0.2,0.2,0.4,0.4c0.1,0,0.2,0.1,0.2,0.1c-0.1-0.2,0.2,0,0-0.3c0.1,0.1,0.1-0.1,0.2,0.1c0-0.1-0.1-0.1-0.2-0.2
              c-0.1-0.3,0.5,0,0.4-0.4c0-0.3-0.2-0.5-0.2-0.8c0.2,0.1,0.2,0.3,0.2,0.3c0.2,0,0.2,0,0.2-0.2c0,0.1,0.1,0.1,0.2,0.2
              c0-0.1-0.2-0.3,0-0.3c0.1,0.1,0.2,0.2,0.2,0.3c0-0.1-0.1-0.3-0.1-0.4c0.1,0.1,0.1,0.2,0.2,0.3c0-0.1,0.1-0.3-0.1-0.5l-0.1,0
              c0,0,0.2,0.2,0.2,0.2c0.1,0.2-0.2,0-0.2,0l0-0.1c-0.5-0.4-0.1,0.2-0.2,0.3l-0.3-0.3l0.2,0.3c-0.1-0.1-0.3-0.2-0.3-0.3
              c-0.2-0.1,0,0.2-0.2,0.1c0,0,0,0,0-0.1l0,0.2c0-0.1-0.2-0.2-0.1-0.2c-0.3-0.1,0,0.4-0.2,0.2l0,0c-0.1,0.3,0.2,0.2,0.3,0.6
              l-0.6-0.5L27,2.7c0,0-0.1,0-0.2-0.1c0.1,0.2,0.1,0.1,0.2,0.3c-0.3-0.1-0.1,0.3-0.5,0c0.1,0.2,0.2,0.1,0.2,0.2
              c-0.4-0.3,0,0.2-0.3,0.1c-0.2-0.2,0-0.2-0.2-0.3c0.3,0.4-0.2,0.1-0.2,0.2c0.3,0.3,0,0.2,0,0.4c-0.1-0.1-0.3,0-0.5,0l0,0
              c0.2,0.3,0.1,0.3,0.1,0.4c-0.2-0.2-0.2-0.2-0.2-0.3l-0.1,0.1c0.1,0.1,0.1,0.2,0.1,0.2l-0.2-0.2c-0.1,0.1,0.1,0.4-0.2,0.4
              c0.2,0.2,0.6,0.4,0.6,0.7c-0.1-0.1-0.3-0.3-0.3-0.3c0,0,0,0.1,0,0.1l-0.1-0.2c-0.1,0,0.1,0.2,0.1,0.2
              c-0.1-0.1-0.1-0.1-0.2-0.2c0,0,0.1,0,0.1,0c-0.1,0-0.2,0-0.3-0.1c0.1,0.1,0.2,0.2,0.2,0.2c-0.1,0.1-0.2-0.1-0.3-0.2
              c0.1,0.1-0.1,0.1,0.1,0.3c0,0-0.1-0.1-0.2-0.1c0,0.1-0.2,0.2,0.1,0.4l0,0c0,0,0,0,0,0l0,0l0,0c0.1,0.4-0.4,0.2-0.5,0.4L24,5.2
              c0,0.2-0.1,0.2-0.1,0.5c0,0-0.2-0.1-0.3-0.2c0,0.1,0.1,0.2-0.2,0.2c-0.1-0.2-0.1-0.1,0-0.2c-0.1,0-0.3-0.1-0.2,0.2
              c-0.1-0.2-0.3-0.2-0.3-0.1l0.2,0.1c0,0.1-0.1,0.1-0.1,0.1l-0.2-0.3c-0.5-0.1,0.2,0.8-0.5,0.5c0.1,0.2,0.2,0,0.4,0.3
              c-0.1,0.1-0.5-0.2-0.6-0.2c-0.2,0,0.2,0.4,0,0.5c0.1,0.1,0.3,0.3,0.3,0.4c-0.1,0.1-0.5-0.3-0.5-0.4c0,0,0,0,0.1,0
              c0-0.1,0-0.1-0.1-0.2l0.1,0.1c-0.1,0-0.2,0.1-0.3-0.1c0,0.1,0.1,0.2,0.2,0.2c-0.2,0-0.2,0.2-0.4,0.2c0.1,0,0.2,0.1,0.2,0.1
              c-0.3,0.1,0.1,0.2,0,0.4c-0.2-0.1-0.3-0.3-0.3-0.1c-0.2,0-0.2-0.2-0.3-0.3c0.1,0.3-0.3,0.1-0.4,0.1l0-0.1c0,0.1,0,0.1,0,0.1
              l0.2,0.1c-0.1,0-0.1,0-0.2,0c0.1,0.1,0.3,0.3,0.4,0.5c-0.1,0,0,0.2-0.3,0c0.2-0.1-0.2-0.2-0.2-0.4c0,0,0,0.1-0.1,0.1
              c0,0,0-0.1,0-0.1c-0.3-0.1,0.2,0.3,0.1,0.4c-0.1-0.1-0.3-0.2-0.3-0.2c0.1,0,0.2,0.2,0.3,0.3c-0.2,0,0,0.2-0.1,0.2l0.1,0
              c0.1,0.1,0.1,0.2,0,0.3c-0.1-0.1,0-0.1-0.1-0.1c0.2,0.3-0.4-0.1-0.3,0.2c-0.1,0-0.2-0.2-0.3-0.3c0.1,0.3-0.3-0.1-0.2,0.2
              c0.2,0.1,0.2,0.1,0.3,0.3l0.1-0.3l0.1,0.4c0.1,0,0-0.2,0.1-0.2c0.1,0.2,0,0.1,0.2,0.3c-0.3-0.2,0,0.3-0.2,0.2L20,8.6
              c-0.3-0.1,0,0.4-0.3,0.5l0.1,0c0.1,0.2-0.1,0.1-0.1,0.2c-0.1-0.1-0.2-0.2-0.3-0.2c0.1,0.1-0.1,0.1,0.1,0.4l-0.3-0.1
              c-0.2,0.1,0.3,0.5,0.1,0.6c-0.1-0.2-0.3-0.2-0.3-0.4c0,0-0.1,0.1,0,0.1C19,9.6,19.2,10,19,9.9c0,0.1,0.2,0.2,0.1,0.3
              c0,0-0.1-0.1-0.1-0.1c0.1,0.1,0,0.2,0.2,0.3c-0.6-0.3-0.3,0.4-0.8,0.1c0,0.1-0.1,0.3-0.2,0.4c0,0-0.1-0.1,0-0.1
              c-0.2,0,0.3,0.5,0.1,0.5c-0.3-0.2-0.1-0.2-0.2-0.2c-0.5-0.4-0.1,0.2-0.4,0l0,0c-0.2-0.1,0,0.3-0.1,0.4c0,0,0,0-0.1-0.1
              c0.2,0.3,0.1,0.5,0.1,0.7c-0.1-0.2,0-0.1-0.3-0.3c0,0.1,0.3,0.3,0.3,0.4c-0.1-0.1-0.3-0.1-0.5-0.3l0.1-0.1
              c-0.3-0.2-0.1,0.1-0.2,0.1l-0.1-0.1c-0.1,0.2,0.2,0.4,0,0.6l0.1,0.1c0.2,0.4-0.2-0.1-0.1,0.2l-0.3-0.3c0,0.1,0.1,0.5,0,0.6
              c-0.2-0.3-0.2-0.5-0.2-0.7c-0.1,0-0.2,0.2,0,0.4c0,0,0-0.1,0-0.1c0.2,0.3,0.2,0.5,0.1,0.6c-0.5-0.6-0.4,0.1-0.9-0.2
              c0,0.4-0.4,0.3-0.6,0.5c0.5,0.3,0,0.1,0.4,0.5c0,0.1,0,0.1-0.1,0.1l-0.4-0.1c-0.2-0.1,0-0.1-0.1-0.2c-0.1,0.1-0.2-0.1-0.4-0.2
              c0.2,0.1,0.2,0.3,0.1,0.3l0.3,0.1c0.1,0.4-0.5-0.2-0.4,0.1l-0.1-0.2c0,0.2-0.3,0.3,0,0.7c-0.1,0-0.2-0.1-0.2-0.2
              c-0.2,0.1,0,0.8-0.4,0.7l-0.1-0.1c0,0.1,0.1,0.3,0,0.2c0,0-0.1-0.1-0.1-0.1c0,0.1,0.1,0.3,0,0.3l-0.1-0.2
              c-0.3,0,0,0.6-0.1,0.8c-0.3-0.3-0.6-0.3-0.7-0.2l0,0c-0.3,0.2-0.1,0.6-0.2,0.9c-0.5-0.2-0.6,0.3-0.9,0.3
              c0.1,0,0.2,0.2,0.2,0.3c-0.1,0,0.1,0.3-0.2,0.1l0,0c-0.3-0.2-0.3-0.1-0.4,0l0.4,0.4c-0.7-0.4-0.3,0.7-0.9,0.3
              c0.1,0.1,0.1,0.1,0.1,0.2l-0.2-0.2c-0.1,0-0.1-0.1-0.1,0l-0.1-0.2c0,0,0.3,0.9,0.2,1l-0.1-0.5c-0.1,0.1-0.1-0.3-0.1,0
              c0,0,0,0.1,0,0.1c0-0.1,0-0.3,0-0.3c0,0,0-0.4-0.1,0.3c0.1-0.5,0-0.1-0.1,0l0.1-0.3c-0.1,0.4-0.2,0.5-0.3,0.5
              c0-0.1,0.1-0.2,0.1-0.1c0-0.2-0.2,0.2-0.1,0l0.1-0.1c0-0.1-0.1,0-0.2,0.2c-0.1,0.1-0.1-0.2,0.1-0.4c-0.1,0.1-0.3,0.2-0.3,0.1
              c0.1-0.1,0.1-0.1,0.1-0.1c0-0.3-0.4,0-0.3-0.3c0.1-0.1,0.1-0.1,0.1-0.1C9.4,17.9,9.4,18,9.4,18c0.2-0.2,0.1-0.3,0.4-0.5
              c-0.2,0.1-0.6,0.2-0.6,0.1c0,0,0,0,0.1-0.1l0,0c0,0,0,0-0.1,0c0-0.1,0-0.1,0-0.1c0.1-0.2,0-0.2-0.1-0.2
              c-0.2,0.2-0.2,0.1-0.3,0.3c0,0,0,0,0.1,0c0,0,0,0,0,0l0,0c0,0,0.1,0.1,0.1,0.1c-0.1,0.1-0.3,0.1-0.2,0
              c-0.2,0.1-0.3,0.2-0.4,0.3c0.2-0.3,0.3-0.6,0.4-0.8c-0.2,0-0.4-0.2-0.8,0.1c-0.1,0,0.1-0.2,0.1-0.2c0.1,0,0.1,0,0.1,0
              c-0.2,0-0.3-0.2-0.5,0.1c0-0.2,0.3-0.2,0.1-0.3L8,16.6c0.2-0.7-1.1,0.2-0.8-0.6c0,0.1,0,0.1-0.1,0.1C7,15.6,6.2,15.7,6.2,15
              c0-0.2-0.2,0-0.4,0.1l0.2-0.2L5.7,15c-0.3,0,0.3-0.8-0.2-0.6l-0.1,0.2c0-0.1-0.3-0.1-0.1-0.3c0,0-0.2,0.1-0.1,0l0.1-0.1
              l-0.3,0c0-0.2,0.5-0.4,0.3-0.6c-0.1,0-0.5,0.1-0.6,0.2c0,0,0,0.1-0.1,0.2l-0.1,0c-0.3,0.3-0.7,0.6-0.8,1L3.9,15l-0.1,0.2
              l-0.1-0.1c-0.1,0.2,0.1,0.1,0.2,0c-0.1,0.1-0.1,0.2-0.1,0.2l0.4-0.2c-0.1,0.1-0.3,0.2-0.3,0.3c0.2-0.1,0.2-0.3,0.4-0.4
              c-0.1,0.2-0.2,0.3-0.1,0.2c-0.1,0.1-0.1,0.1-0.2,0.2c0.2-0.1,0.2,0.1,0.4-0.1c-0.1,0.2,0.2,0.1-0.1,0.4
              c0.1-0.1,0.3-0.2,0.4-0.1c-0.5,0.3,0.1,0.2-0.3,0.6c0.4-0.3,0.4,0.1,0.7,0c0,0-0.1,0.1-0.1,0c0,0.1,0,0.2-0.1,0.3
              c0.3-0.3,0.4-0.2,0.7-0.4c-0.2,0.3-0.4,0.3-0.6,0.6c0.2-0.2,0.4-0.1,0.5-0.3c-0.1,0.2,0,0.1-0.2,0.4c0.4-0.3,0.1,0,0.4-0.2
              c-0.1,0.3-0.3,0.3-0.1,0.3C5.5,17.3,5.3,17.3,5.3,17.3z M8,18.9L8,18.9C8,18.9,8,18.9,8,18.9C8,18.9,8,18.9,8,18.9z M8.2,19.1
              C8.2,19,8.2,19,8.2,19.1c0-0.2,0.1-0.2,0.1-0.2C8.3,18.9,8.3,19,8.2,19.1z M9.2,17.3C9.3,17.3,9.2,17.3,9.2,17.3
              C9.2,17.4,9.2,17.4,9.2,17.3l-0.1,0.1C9.1,17.4,9.2,17.3,9.2,17.3z"/>
            <path class="st0" d="M8.9,17.5C8.9,17.5,8.9,17.5,8.9,17.5C8.9,17.5,8.9,17.6,8.9,17.5L8.9,17.5L8.9,17.5z"/>
            <path class="st0" d="M24.6,4.9L24.6,4.9C24.6,4.9,24.6,4.9,24.6,4.9C24.6,4.9,24.6,4.9,24.6,4.9z"/>
            <polygon class="st0" points="12.2,19.7 12.1,19.6 12.2,19.7            "/>
            <path class="st0" d="M26.3,4.5C26.3,4.6,26.3,4.6,26.3,4.5C26.3,4.6,26.3,4.6,26.3,4.5z"/>
            <path class="st0" d="M26.7,4.2l0.1,0C26.8,4.1,26.8,4.1,26.7,4.2z"/>
            <path class="st0" d="M27.2,3.9C27.1,3.9,27.1,3.8,27.2,3.9L27.2,3.9L27.2,3.9z"/>
            <path class="st0" d="M22.1,9.5C22.1,9.5,22.1,9.5,22.1,9.5C22.1,9.5,22.1,9.5,22.1,9.5z"/>
            <path class="st0" d="M23.2,7.4c0,0.1,0,0.1,0,0.1C23.3,7.5,23.3,7.5,23.2,7.4z"/>
            <polygon class="st0" points="20.6,11.5 20.6,11.5 20.5,11.5            "/>
            <path class="st0" d="M23.2,7.6C23.2,7.6,23.3,7.6,23.2,7.6C23.2,7.6,23.2,7.6,23.2,7.6z"/>
            <path class="st0" d="M28.7,2.6L28.7,2.6C28.7,2.5,28.7,2.5,28.7,2.6L28.7,2.6z"/>
            <path class="st0" d="M28.7,2.5L28.7,2.5C28.7,2.5,28.7,2.5,28.7,2.5z"/>
            <path class="st0" d="M28.7,2.4L28.7,2.4C28.7,2.5,28.7,2.5,28.7,2.4z"/>
            <path class="st0" d="M28.2,2.9L28.2,2.9C28.2,3,28.2,2.9,28.2,2.9z"/>
            <path class="st0" d="M28.1,3.1c0,0,0.2,0.1,0.2,0L28.2,3C28.3,3.1,28,2.9,28.1,3.1z"/>
            <path class="st0" d="M26.6,2.7l0.2-0.1c-0.1-0.1-0.2-0.1-0.2-0.2C26.2,2.4,26.8,2.6,26.6,2.7z"/>
            <path class="st0" d="M26.1,3c0-0.1-0.1-0.1-0.2-0.2C26,2.9,26,2.9,26.1,3z"/>
            <path class="st0" d="M23.6,5.5l-0.2-0.2C23.4,5.4,23.5,5.4,23.6,5.5z"/>
            <polygon class="st0" points="24.1,6.9 24.2,7 24.1,6.8             "/>
            <polygon class="st0" points="22.5,5.9 22.5,5.9 22.5,6             "/>
            <path class="st0" d="M18.3,10.2l0.2,0.2C18.6,10.3,18.3,10.1,18.3,10.2z"/>
            <path class="st0" d="M16.7,12.3c-0.1-0.1-0.3-0.1-0.2,0C16.6,12.3,16.7,12.3,16.7,12.3z"/>
            <polygon class="st0" points="10.9,17.4 10.8,17.3 10.8,17.4            "/>
          </g>
        </g>
      </g>
    </g>
  </g>
</g>
</svg>
