<!-- Generator: Adobe Illustrator 19.2.0, SVG Export Plug-In  -->
<svg version="1.1"
   xmlns="http://www.w3.org/2000/svg" xmlns:xlink="http://www.w3.org/1999/xlink" xmlns:a="http://ns.adobe.com/AdobeSVGViewerExtensions/3.0/"
   x="0px" y="0px" width="91.9px" height="92.3px" viewBox="0 0 91.9 92.3" style="enable-background:new 0 0 91.9 92.3;"
   xml:space="preserve">
<style type="text/css">
  .st0{fill:#484B9F;}
</style>
<defs>
</defs>
<g>
  <g>
    <g>
      <g>
        <g>
          <path class="st0" d="M90.4,46c0.1,0.1,0.3,0.1,0.2-0.3l-0.3-0.3L90.4,46z"/>
          <path class="st0" d="M90.8,43.3c-0.2-0.5-0.5-1-0.8-0.7c0.3,0.4,0.2,0.6,0.6,1.1c0.1,0.4-0.1,0.7-0.2,0.7
            c0.1,0.1,0,0.6,0.2,0.8c0.2-0.5,0.2-1.2,0-1.9C90.7,43.1,90.8,43.2,90.8,43.3z"/>
          <path class="st0" d="M72.4,9l0.2,0.2C72.5,9.1,72.4,9.1,72.4,9z"/>
          <path class="st0" d="M49,0.5c0.2,0,0.3,0,0.3-0.1C49.2,0.5,49,0.5,49,0.5z"/>
          <path class="st0" d="M44.7,0.1c0.1,0,0.2,0,0.3,0C44.9,0.1,44.8,0.1,44.7,0.1z"/>
          <path class="st0" d="M72.4,9l-0.5-0.5C71.8,8.6,72.1,8.8,72.4,9z"/>
          <path class="st0" d="M89.4,37.9c0,0.1,0.1,0.2,0.1,0.3L89.4,37.9C89.4,38,89.4,38,89.4,37.9z"/>
          <path class="st0" d="M80.7,16.3l0.1,0.2c0.1,0,0.1,0,0.2,0L80.7,16.3z"/>
          <path class="st0" d="M85.7,23.2c-0.1-0.2-0.4-0.1-0.5-0.1c0.2,0,0.3,0.1,0.4,0.3C85.6,23.4,85.6,23.3,85.7,23.2z"/>
          <path class="st0" d="M90.1,35.9l0.1,0.2C90.2,36.1,90.2,36,90.1,35.9z"/>
          <path class="st0" d="M76.5,11.9c0,0,0-0.1,0-0.1C76.4,11.8,76.4,11.8,76.5,11.9z"/>
          <path class="st0" d="M88.7,55.4C88.7,55.4,88.7,55.4,88.7,55.4C88.7,55.4,88.7,55.4,88.7,55.4z"/>
          <path class="st0" d="M91.1,46l0,0.1c0.1,0,0.1,0,0.2,0L91.1,46z"/>
          <path class="st0" d="M36.8,0.6C36.8,0.6,36.8,0.6,36.8,0.6C37,0.5,36.9,0.5,36.8,0.6z"/>
          <path class="st0" d="M0.9,55.8c0-0.8,0.6,1.2,0.6,0C1.5,55.9,0.8,54.8,0.9,55.8z"/>
          <path class="st0" d="M89.4,37.7l-0.1-0.3C89.4,37.5,89.4,37.7,89.4,37.7z"/>
          <path class="st0" d="M1.5,55.8L1.5,55.8l0-0.1C1.5,55.7,1.5,55.7,1.5,55.8z"/>
          <path class="st0" d="M20,7.8c0.1,0,0.1,0,0.2,0C20.2,7.8,20.2,7.8,20,7.8z"/>
          <path class="st0" d="M32.4,2.3l-0.3,0.1C32.2,2.3,32.3,2.3,32.4,2.3z"/>
          <path class="st0" d="M14.8,12.6c-0.1,0.1-0.2,0.1-0.4,0.3c0,0,0.1,0,0.1,0C14.5,12.8,14.6,12.7,14.8,12.6z"/>
          <path class="st0" d="M9.8,18c0,0,0.1,0,0.1-0.1c0-0.1,0.1-0.1,0.1-0.2L9.8,18z"/>
          <path class="st0" d="M79.4,74.3c0.2-0.1,0.3-0.1,0.4-0.1C79.6,74.2,80.3,73.4,79.4,74.3z"/>
          <path class="st0" d="M89.6,37.9c-0.1,0-0.1-0.1-0.2-0.2c0,0.1,0,0.2,0.1,0.2C89.5,38,89.5,38,89.6,37.9z"/>
          <path class="st0" d="M16.1,14.4l-0.9,0.7C15.5,14.9,15.8,14.7,16.1,14.4z"/>
          <path class="st0" d="M33.9,88.2l0.3,0C34.1,88.2,34,88.1,33.9,88.2z"/>
          <path class="st0" d="M13,17.6c-0.2,0.1-0.4,0.2-0.6,0.3c0,0,0,0.1,0,0.1L13,17.6z"/>
          <path class="st0" d="M79.9,74.3L79.9,74.3L79.9,74.3z"/>
          <path class="st0" d="M83.5,67.9c-0.6,0.9,0.1,0.6,0.1,0.9c-0.6,1.1-0.5,0.4-0.9,0.6c-0.2,0.4-0.3,0.7-0.3,1
            c-0.1,0.3-0.2,0.6-0.4,0.8c-0.1,0-0.2,0.1-0.1-0.1c-0.3,0.8-1.5,2-1.8,3c-0.1,0-0.1,0-0.2,0c0.2,0,0.4,0.1,0.5,0.2
            c-0.3,0.4-0.4,0.8-0.7,0.8c0.2-0.2,0.1-0.3,0.2-0.4l-0.3,0.4c-0.6,0.1,0.4-0.6,0.2-0.8c-0.6,0.8-1.1,1.8-1.7,2.3
            c-0.3-0.1,1.1-1.4,0.2-0.8l0.9-0.8c-1,0.3,0.5-0.5-0.5-0.3c-1.1,1-1,1.4-2.1,2.4c-0.1,0.4,0.3,0.1,0.2,0.5
            c-1.4,1.7-1.8,0.5-2.7,1.9c-0.2,0.4,0,0.9-1.1,1.4l0.1-0.5c-1.2,0.8-0.3,0.9-1.7,1.7c0.1-0.3,0.9-0.8,0.6-0.7
            c-1,0.4-0.4,0.6-1.1,1.1l-0.3-0.2c-0.7,0.4-1.3,0.9-2,1.4c-0.7,0.5-1.4,1.1-2.2,1.4c0-0.1,0.3-0.4-0.2-0.3
            c-0.9,0.5-2,1.1-3.1,1.5c-1.1,0.3-2.2,0.6-3.2,0.9l-0.7,0.6c-0.2,0.1-0.4,0-0.2-0.1c-0.8,0.1,0,0.2-0.3,0.4
            c-0.4,0.1-0.6,0-0.4-0.2c-0.7,0.3-1.6,0.7-2.6,1c-0.3,0.1-0.5,0.2-0.8,0.2c-0.3,0-0.5,0.1-0.8,0.1c-0.5,0.1-0.9,0.1-1.3,0.1
            l0.3-0.1c-1.2,0.1-1.3,0.8-2.4,0.7l0.2-0.1c-1.3,0.1-2.7,0.1-4,0.2c-0.3,0-0.6,0-0.9,0c-0.3,0-0.6-0.1-0.9-0.1
            c-0.6-0.1-1.1-0.2-1.6-0.3c-0.2,0.2-0.8,0.1-1.5,0.1c-0.6,0-1.2-0.2-1.3,0.1c-1.4-0.5-1-0.6-3-1.1c-0.5-0.1-0.9,0.2-1.6,0.1
            l0.1-0.3l-1,0.1l-0.4-0.5l-0.6-0.1c0.2,0.1,0.5,0.3,0.4,0.3c-0.5-0.1-1.1-0.3-1.5-0.5c-0.4-0.2-0.7-0.5-0.7-0.6L30,86.9
            c0.1-0.1,0.5,0,0.8,0c-1.3-0.1-0.1-0.4-1.3-0.5c0.1,0.1-0.1,0.1-0.2,0.2c-0.5-0.3-1.6-1-2.6-1.3l0.3-0.1
            c-1.6-0.7-3.3-1.7-5-2.7c0.5,0.4,0.2,0.7-0.3,0.4l0-0.4c-0.4,0,0.5,0.4-0.3,0.2c-0.6-0.5-0.2-0.6,0.2-0.4l-0.8-0.4
            c0-0.1,0.2,0,0.3-0.1c-0.4-0.1-1-1.2-1.7-1.2l0-0.1c-0.4-0.3-0.7-0.5-1.1-0.8c-0.3-0.2-0.6-0.5-0.8-0.7c-0.5-0.4-1-0.8-1.6-1.4
            c-0.2,0.2-0.6-0.3-1.2-0.4c-0.7-0.9-1.5-2.1-2.4-3.1c-0.8-0.7-0.4-0.1-0.8-0.3c0.2-0.2-0.7-1.3-0.1-0.9
            c-0.5-0.7-0.9-1.1-1.3-1.6c-0.2-0.2-0.4-0.5-0.7-0.8c-0.2-0.3-0.5-0.7-0.8-1.1c0,0.3,0.1,0.5,0,0.4c-0.2-0.3-0.4-0.8-0.2-0.8
            l0.1,0.1c-0.8-0.9-1.4-2.2-1.8-3.5c-0.2-0.6-0.4-1.3-0.7-1.8C6,63.5,5.9,63.3,5.8,63c-0.1-0.3-0.2-0.5-0.4-0.7l0.1,0.1l-1-1.8
            c-0.3-0.9,0.4,0.5,0.3-0.2c-0.3-0.5-0.5-0.9-0.7-1.3c-0.1-0.4-0.2-0.8-0.3-1.2c-0.2-0.8-0.3-1.5-0.7-2.4c0.1-0.7,0-1.9-0.2-3.2
            c-0.1-0.6-0.3-1.3-0.3-1.9c0-0.6,0-1.2,0.1-1.6l-0.2,0.1c-0.2-0.5,0.1-0.6,0.1-0.9c-0.1,0.1-0.1,0.5-0.2,0.2
            c-0.3-2,0-4.1,0.2-6.2c0.1-1,0.4-2.1,0.6-3.1l0.3-1.5c0.2-0.5,0.3-1,0.5-1.5c0.4-1.4-0.7-1.1,0.2-2.8l0.2,0.6
            c0.2-1.5,0.9-3,1.4-4.5c0.7-1.4,1.4-2.8,1.9-4.2c0,0.2,0,0.2-0.1,0.5c0.5-0.4,1.2-2,1-2.1c0.3-0.4,0.2,0,0.4-0.2
            c0.5-0.5,0.6-1.5,1-1.7c0.1,0,0,0.2-0.1,0.3c0.1-0.4,1.2-1.5,0.7-1.4c0.8-0.8,1.2-1.8,1.9-2.4c0.2-0.6,1.4-1.3,1.2-1.8
            c0.3,0.4,1.6-1.2,2-1.8c-0.1,0.3,0.6-0.3,0.5,0c0.6-0.6,1.1-1.1,0.8-1.2c1.4-0.6,2.1-2.3,3.2-2.2c0.5-0.4,0.9-0.8,1.3-1.2
            c0.5-0.3,0.9-0.7,1.4-1c0.5-0.3,0.9-0.7,1.4-1L25,7.2l0.7-0.4c0.1,0.2-0.5,0.5-1,0.8c-0.5,0.3-1,0.6-0.8,0.8
            c0.4-0.3,0.8-0.6,1.1-0.9c0.4-0.3,0.7-0.5,1-0.7c0.7-0.4,1.4-0.9,2.4-1.3C29,5.4,28.3,5.9,28.1,6C29,5.4,30,5.2,30.9,4.8
            c0.5-0.2,0.9-0.3,1.3-0.5c0.4-0.2,0.9-0.4,1.3-0.5c0,0-0.2,0.1-0.3,0.2c0.3-0.1,0.8-0.1,0.7-0.3l-0.3,0.1
            c-0.7-0.1,1.2-1,1.3-1.1c-0.5,0.7,1.8-0.3,1,0.7c0.2-0.1,0.5-0.3,0.4-0.4c0.4-0.1,0.5,0,0.2,0.2c0.6-0.2,0.8-0.3,1-0.4
            c0.2-0.1,0.3-0.2,0.9-0.3c0,0.1-0.2,0.2-0.3,0.3c0.6-0.3,1.1-0.6,2.1-0.6c-0.1,0.1,0.1,0.1-0.2,0.2c1.7-0.4,2.9-0.8,4.8-0.7
            c-0.5,0.5,0.6,0.1,0.8,0.5c0,0,0.3,0,0.5-0.1c0.3,0,0.5,0,0.5,0l-0.4-0.2c0.9,0.1,1.7-0.2,2.5,0L48,1.9l1.7,0l-0.9-0.2
            c0.9-0.1-0.1-0.5,1.1-0.3c-0.2,0,0.9,0,1.3,0.4l0,0c0.5-0.1,0.9-0.1,1.6,0.1c0.2,0.1-0.2,0.4-0.1,0.5c0.5-0.2,2.1,0.2,2.7,0
            c-0.2,0-0.2,0.2-0.2,0.3l0.4-0.2c0.4,0.2,0.4,0.2,0.3,0.4c1.2,0.4-0.3-0.6,1.1,0c-0.1,0-0.1,0-0.3,0c0.7,0.2,1.4,0.4,2.1,0.5
            c0.7,0.1,1.3,0.4,2,0.7c0.3,0.5-1.2-0.3-0.8,0.1c0.9,0.3,1.9,0.5,2.9,0.8c1,0.3,1.9,0.7,2.7,1.1l-0.3-0.2
            c0.5-0.4,1.2,0.8,2.1,1.1c-0.2-0.1-0.4,0.1-0.3,0.1c1.1,0.8,2.4,1.2,4.1,2.2l-0.3,0c0.5,0.6,1.6,1.3,2.2,1.8
            c0.3,0,0.6,0.3,0.5,0c0.2,0.3,0.4,0.5,0.6,0.7c0.2,0.2,0.4,0.5,0.6,0.7c0.4,0.4,0.9,0.8,1.4,1.1c0.5,0.4,1,0.7,1.4,1.1
            c0.4,0.4,0.7,0.9,1,1.4c-0.2-0.2-0.5-0.4-0.4-0.2l1.4,1.3c0.1-0.3-0.1-0.3-0.2-0.7c0.3,0.1,0.7,0.4,1,0.8
            c-0.7-0.5-0.3,0.2-0.1,0.6c0-0.1,0.2,0,0.2-0.1c0.3,1.1,0.5-0.2,1.1,1.1l-0.1,0c0.4,0.4,0.8,0.7,1.1,1.1
            c-0.1,0.3-0.4-0.4-0.6-0.3c0.5,0.6,1.4,0.9,1.5,1.7c-0.2-0.2-0.5-0.7-0.8-0.9c0.2,0.8,0.3,0.9,0.5,1.4l0-0.1l0.6,1.2l-0.1-0.3
            c0.6,0.2,0.8,0.7,1.1,1.1c0.1,0.2,0.3,0.5,0.5,0.7c0.1,0.3,0.3,0.5,0.6,0.8c-0.9-1-0.3-0.1-0.6,0c0.1,0.3,0.2,0.8,0.1,0.8
            c0.5,0.5,0.3,1,1,1.7c-0.1,0.1,0.3,0.6,0,0.6c0.4,0.7,0.1-0.2,0.2-0.2c0.5,0.5,0.6,1.2,0.8,2c0.2,0.8,0.4,1.6,1,2.4
            c0.6,1.4,1,1.6,1.5,3c0,0.5-0.4-0.3-0.4-0.3c0,0.8,0.3,1.4,0.5,2.1c-0.1-0.1-0.2,0-0.2,0.3c0.1,0.6,0.4,0.3,0.4,1.1
            c-0.1-0.1-0.3-0.3-0.5-0.5c0.2,0.7,0.5,1.3,0.7,2c-0.1,0.2-0.3-0.4-0.5-0.6c0.2,0.8,0.5,2.1,0.7,2.3l0.1-0.5
            c0,0.3-0.2,0.2-0.3,0c-0.3-0.7-0.1-1,0-1.1l0.1,0.5c0.5-0.6-0.4-2.1-0.5-3.1l0.5,0.4l-0.5-1c0.1-0.2,0.3-0.4,0.4,0.1
            c0.1-0.8-0.3-0.6-0.2-1.3c0-0.1,0-0.1,0.1,0l-0.3-0.7c0.1,0.1,0.3-0.2,0.3,0.3c-0.1-1.4-0.8-2-0.7-2.6l0.1,0.1
            c-0.7-1.7-0.3-0.1-1.1-1.3l0.4-1.1l-0.3-0.1c-0.1-0.2-0.2-0.5,0-0.5c-0.4-0.6-0.1,0.2-0.4-0.2c0-0.5-0.3-1.1-0.5-1.6
            c-0.2-0.5-0.4-0.9-0.2-1.1c-0.4-0.2,0.2,0.9-0.4,0.1c0.4-0.5-0.6-1-0.7-1.8c0.4,0.1,0.6,0.9,0.4,0c-0.3-0.1-0.5-0.5-0.6-0.9
            c-0.1-0.4-0.3-0.9-0.5-1.1c-0.3,0.2-0.9-1.2-1.6-2.2c0.2,0-1.1-1.9-1.7-2.9l0.1,0c-0.4,0.1-1-0.9-1.6-1.5
            c0.2-0.1,0.4-0.1,0.7,0.2c0,0-0.5-0.6-0.5-0.6c-0.2-0.1-0.4-0.2-0.8-0.5l0.3,0c-0.7-0.8-1.6-1.4-2.5-2.4
            c-0.2,0.1,0.3,1.2-0.9,0.4c0.1-0.1,0.2-0.3,0.5-0.1c-0.1-0.1-0.4-0.2-0.5-0.4l0.6,0.2c-0.4-0.5-0.4-0.1-0.7-0.4
            c0.1-0.1-0.2-0.3,0-0.4c0.1,0.1,0.3,0.3,0.4,0.4c-0.4-0.4-0.8-0.9-0.9-1.2c0,0.1-0.2,0.2-0.5-0.1c-0.8-0.7-0.1-0.4-0.5-0.9
            c-0.3-0.1-0.7-0.6-0.9-0.4c-0.2-0.2-0.2-0.3-0.2-0.5c-0.5-0.2-2-1.5-1.7-0.9l0.1,0.1c0,0,0,0-0.1,0l0,0l0,0
            c-0.4-0.2-0.8-0.4-1.1-0.7c-0.4-0.3-0.7-0.5-1.1-0.8c-0.7-0.5-1.5-1.1-2.3-1.5l0.1-0.1c-1-0.4-2.1-1-2.9-1.1
            C65,5,64.7,4.6,64.9,4.6C64.1,4.3,64,4.3,63,3.8c0.8,0.1-0.2-0.2,0.8,0.2c-0.9-0.4-1.1-0.7-2.3-0.8c0.4-0.1-0.6-0.6-1.1-0.7
            L61,2.9c-0.5-0.2-1-0.3-1.4-0.5L60,2.2c-1-0.5-2-0.6-2.9-0.7c-0.9-0.1-1.7-0.2-2.5-0.7C54,1,55.7,1.2,55.2,1.4
            c-1-0.2-1.9-0.8-2.2-0.9c-1.3-0.4-1.3,0.3-2.7,0C50.5,0.6,50.6,1,49.5,1c-1-0.1-1.2-0.6-0.5-0.6c0.2,0,0.3,0,0.3,0.1
            c0.3,0,0.7-0.1,0.4-0.2l-0.1,0.1C49.1,0.2,47.7,0.2,48,0c-0.8,0.1-0.3,0.2,0.2,0.3c-1.3-0.2-2-0.2-3.3-0.2
            c0.2,0.1,0.4,0.2,0.2,0.2c-1.9-0.1-0.8,0.3-2.1,0.4c-0.7-0.1,0.2-0.4-1.1-0.2c-0.8-0.1-0.2-0.3,0.1-0.4
            c-0.3,0.1-0.6,0.1-0.9,0.1c-0.3,0-0.5,0-0.8,0.1c-0.5,0-0.9,0-1.3,0L39.8,0c-0.4,0.1-0.7,0.2-1,0.2l0.4,0.2
            c-0.4,0-0.7,0.1-0.7,0c-0.4,0.2,0.3,0.3-0.4,0.7c-0.5,0-1.4,0.3-1.7,0.1c1.5-0.2-0.2-0.3,1-0.6c-0.2,0.1-0.5,0.1-0.9,0.1
            c-0.1,0,0-0.1,0.1-0.1c-1.5,0.1-0.6,0.5-2.1,0.9c0.1-0.2-0.4-0.2-0.7-0.1c0.6-0.2,0.4,0.2-0.1,0.5c-1,0.1-1,0.4-1.5,0.5L33,2.2
            c-0.1,0.2-0.6,0.3-1.2,0.6c-0.1-0.1,0.5-0.3,0.3-0.3c-0.6,0.6-1.7,0.3-2.6,0.8c-0.5,0.1-0.2-0.3-0.6-0.2c-1,0.6-1.3,0.3-2.3,1
            c0.4,0.1,0.5,0-0.2,0.6l1.8-1l-1,0.9c0.6-0.3,1.1-0.7,1.5-0.8c-0.5,0.4-0.5,0.4-0.1,0.4c-0.9,0-1.4,0.9-2.4,1.1l-0.2-0.5
            c-0.7,0.2-1.3,0.5-1.9,1c-0.6,0.4-1.2,0.9-2,1.4l0.6-0.2c-0.1,0.3-1,0.6-1.5,1c-0.1-0.2-0.4-0.1-0.7,0c0.1,0.1-1.1,0.8-1,1.2
            l-0.8,0.3c-1.3,0.8-1.1,1.5-2.2,2.4c0.2-0.5-0.4-0.1,0.2-0.9c-0.4,0.3-0.7,0.6-0.6,0.7c-0.3,0.1-0.8,1.1-1.3,1.3
            c-0.1,0.2,0,0.4-0.4,0.8c-0.1,0-0.1-0.1-0.1-0.1c0.1,0.1-0.5,0.7,0,0.5c-0.7,0.3-1.4,1.1-2.1,1.9c-0.3,0.4-0.7,0.8-1,1.1
            c-0.3,0.4-0.6,0.7-0.9,0.8c-0.6,0.9-1.3,2-1.9,2.8c0-0.1-0.1-0.1,0-0.2c-0.9,1,0,1-0.9,2.2c-0.7,0.5,0.3-0.8-0.1-0.4
            c-0.6-0.1-0.9,1.6-1.7,2.3l0.1-0.2c-0.5,0.6-0.6,1.8-1.2,3c0,0,0-0.1-0.1,0c-0.1,0.9-0.5,2.5-0.9,3.7c-0.1-0.4,0.1-0.6-0.3-0.4
            c-0.2,0.5,0.4,0,0.1,1c-0.2,0.3-0.7,1-0.9,1c0,0,0.3-1,0.3-1c-0.3,0.2-0.4,0.5-0.4,0.9c0,0.3-0.1,0.7-0.2,1l-0.1-0.1
            c-0.4,1.6,0,1.7-0.4,3.3l0.2-0.1c0.2,1-0.4,0.7-0.2,1.7l-0.4,0.2c0,0.6,0,2.2,0,3.3c-0.3-0.7-0.2-2-0.2-2.8
            c-0.1,0.6-0.3,2.1-0.1,2.4c0-0.2-0.1-0.6,0-0.8c0.2,0.8,0.3,1.8,0.2,3c-0.8-0.3-0.4,3.2-0.8,4.1c0.2,1.1,0.2,2.2,0.2,3.3
            c0.1,1.1,0.2,2.3,0.4,3.6c0.4-1,0.1,0.7,0.7,0.5c0.1,0.6,0.2,0.8,0.2,0.8l0.1,1.8c-0.1,0.5-0.3-0.5-0.4-0.4
            c0.3,1.3-0.1,0.6-0.1,1.5c0.2-0.2,0.4,0.4,0.5,1.1l0-1.1c0.4,0.8,0.4,1.2,0.4,1.7c0,0.4,0,0.8,0.5,1.6l-0.4-0.5
            c0.2,0.4,0.5,1.2,0.9,2c0.2,0.4,0.4,0.8,0.6,1.1c0.2,0.3,0.4,0.6,0.7,0.7c0,0.2,0,0.4-0.3,0.1c0.5,1,1.1,2.1,1.8,3.1
            c0.7,1,1.3,1.9,1.7,2.7l-0.2-0.1c0.3,0.3,0.6,0.5,0.8,1c-0.1,0-0.2-0.1-0.1,0.1c0.2,0.2,0.9,0.7,1.1,1.2l-0.4-0.3
            c0.6,0.9,1.2,1.6,1.8,2.1c0.6,0.5,1.3,0.9,1.9,1.6c-0.3,0.3,0.7,1.7,1.3,2.3l-0.1,0c0.9,0.9,1.8,1.6,2.7,2.2
            c0.9,0.6,1.8,1.1,2.8,1.7c0.2,0.3,0.6,0.7,1,1c0.4,0.4,1,0.7,1.6,1.1c1.2,0.7,2.4,1.5,3.4,2.1c-0.3-0.2,0.2-0.3,0.6-0.1
            c0.5,0.3,1.5,0.4,1.3,0.7l-0.2-0.1c0.2,0.5,1.3,1,2.1,1.3l0.3-0.4c0.9,0.7,2.4,1.3,3.7,1.6c1.4,0.3,2.6,0.5,3.1,1
            c0.6,0,1.3,0.1,1.8,0.1l-0.1,0.3c0.8,0.2,1.3,0.3,2,0.4c0.3,0,0.6,0.1,1,0.2c0.4,0.1,0.8,0.1,1.3,0.1l-0.4,0.2
            c1.1,0.1,1.4-0.7,2.4-0.7l0.3,0.4c1.9,0.2,3.8,0.3,5.6-0.1c0,0.1-0.1,0.2-0.4,0.2c0.9,0.1,3.5-0.1,3.1-0.6
            c0.1,0.4,1.9-0.2,2.9-0.6l-0.1,0.3c0.8-0.6,0.8-0.7,1.9-1.1c0.3,0,0.3,0.2-0.1,0.2c0.9-0.1,0.6-0.4,1.8-0.6L58.6,90
            c0.9-0.2,0.9-0.3,1.3-0.7c0.5-0.3,1.7-0.6,2-0.4c0.1-0.2,0.5-0.6,1.1-0.7c0.1,0.1-0.1,0.2-0.2,0.3c0.4-0.1,0.7-0.2,1-0.3
            c0.3-0.1,0.5-0.3,0.8-0.5c0.5-0.3,0.9-0.6,1.4-0.7c0.1,0.1,0.1,0.1,0.2,0.1c-1.2,0.6-2.1,1-2,0.9c0.1,0.2,1.1-0.2,0.5,0.5
            c0.7-0.5,1.8-1.5,2.8-1.9c0.1,0,0.1,0,0.2,0l-0.1,0.1c0.2-0.1,0.4-0.2,0.6-0.3c0.3-0.1,0.5-0.2,0.8-0.4
            c0.2,0.1,1.1-0.5,1.5-0.8c-0.2-0.2,0.4-0.5-0.2-0.4c0.1,0-0.1,0.1-0.4,0.3c-0.1,0-0.1,0.1-0.2,0.1l0,0
            c-0.3,0.2-0.7,0.4-1.1,0.7c0.3-0.3,0.6-0.7,1.2-0.8c0.1-0.3,0.3-0.6,0.4-0.8c0.8,0,2.1-0.6,2.4-0.5c0.6-0.5,1.3-1.1,2-1.7
            c0.3-0.3,0.6-0.6,0.9-0.8c0.2-0.3,0.4-0.6,0.5-0.9c0.3-0.4,0.5-0.2,0.7-0.3c-0.2,0.2-0.4,0.4-0.4,0.6c0.6-0.7,1.9-1.8,1.8-2.2
            c0.9-0.7-0.2,0.7,0.9-0.4l-0.1,0.2c1.2-0.9,1.9-2,2.6-3.1c0.6-1.1,1.2-2.3,2.6-3.5c-0.2,0.2-0.3,0.2-0.3,0.2
            c0.3-0.4,0.6-0.7,0.9-1.2c0.3-0.4,0.5-0.8,0.8-1.2c0.5-0.9,1-1.7,1.4-2.6c0.4-0.9,0.8-1.8,1.3-2.7c0.2-0.4,0.4-0.9,0.6-1.3
            c0.2-0.4,0.4-0.9,0.6-1.3c0.5-1,0.3-1.2,0.3-1.8l0.4-0.1c0,0,0-0.3,0-0.6c0-0.3,0-0.6,0-0.6c0.1-0.8,0.4-1.4,0.8-2.1
            c0.2-0.3,0.3-0.7,0.5-1.1c0.1-0.4,0.1-0.9,0.1-1.4l-0.2,0.2c0.1-0.7,0.2-2.3,0.4-2.1c0-0.1-0.2-0.3,0-0.5l0.2,0
            c0,0,0-0.4,0-0.9c0-0.5-0.1-0.9-0.1-0.9c0.2-1.4,0.6,0.3,0.7-1.8c0-0.8-0.4-2.2-0.5-1.9c0,0.3-0.1,0.8-0.3,0.8l0-0.7
            c-0.5-0.1-0.9-0.6-1.3,1l0.2,1.1l-0.2,0.4l0-1c-0.2,0.5-0.1,0.9,0,1.3c-0.1,0.1-0.2,0.2-0.3,0.5l0.4,1.2
            c-0.2,0.1-0.3-0.5-0.5,0.2c0.1,0.5,0.5-0.5,0.5,0.4c-0.3,0.5-0.4,0.3-0.4,1c-0.1,0.1-0.2-0.1-0.2-0.3c0.1,0.6-0.2,1.5,0,1.8
            c-0.2,0.3-0.2,0.7-0.3,1.1c-0.1,0.4-0.2,0.7-0.4,0.6c0.1,0.2,0.1,1,0,1.6c-0.3-1.1-0.5,1.9-1,1.5c0.3,0.8-0.6,2.4-0.8,3.7
            c0-0.1,0-0.2,0-0.3c-0.3,0.6-0.5,0.8-0.7,1.2c0.3,0.2-0.1,1.3-0.1,1.9c-0.7,0.6-0.2-0.7-0.6-0.6c0.3,0.1-0.4,1.5,0,1.3
            c-0.5,0.5-0.3,0.5-0.8,0.6c0.4,0.3-0.2,0.6-0.2,1.2c-0.7,0.7-0.5,0-0.9,0.9C83.2,68.7,83.5,67.9,83.5,67.9z M66.3,85.3
            L66.3,85.3c0.2-0.1,0.4-0.2,0.5-0.2C66.7,85.1,66.6,85.2,66.3,85.3z M64.4,86.2c0.2-0.1,0.5-0.2,0.8-0.4
            c0.1,0.1,0.1,0.2-0.1,0.3C65.2,86,64.8,86.2,64.4,86.2z M69.4,85.9c-0.3,0.2-0.4,0.2-0.5,0.2c0.1-0.1,0.3-0.2,0.5-0.3
            c0,0,0,0,0-0.1C69.4,85.7,69.4,85.8,69.4,85.9z"/>
          <path class="st0" d="M69.7,85.2c0,0,0.1-0.1,0.1-0.1C69.7,85.1,69.7,85.2,69.7,85.2c-0.1,0-0.1,0.1-0.2,0.1
            C69.6,85.3,69.7,85.2,69.7,85.2z"/>
          <path class="st0" d="M72.6,9.2L72.6,9.2C72.6,9.2,72.6,9.3,72.6,9.2C72.6,9.3,72.6,9.3,72.6,9.2z"/>
          <polygon class="st0" points="36.2,88.6 36.2,88.7 36.4,88.6          "/>
          <path class="st0" d="M80.5,18c0,0,0,0.1,0,0.2C80.5,18.1,80.5,18,80.5,18z"/>
          <path class="st0" d="M83.4,22.1l0.3,0.7C83.5,22.4,83.4,22.2,83.4,22.1z"/>
          <path class="st0" d="M85.2,25.5c0.1,0,0.1,0,0.1,0l0,0L85.2,25.5z"/>
          <path class="st0" d="M33.2,4c0,0-0.1,0-0.1,0C32.8,4.2,33,4.1,33.2,4z"/>
          <path class="st0" d="M51.2,1.8c-0.2,0-0.4,0-0.6,0C50.9,1.9,51.1,1.9,51.2,1.8z"/>
          <polygon class="st0" points="16.2,14.3 16.2,14.3 16.1,14.4          "/>
          <path class="st0" d="M49.7,1.8c0.3,0.1,0.6,0.1,0.8,0C50.3,1.8,50,1.7,49.7,1.8z"/>
          <path class="st0" d="M89.9,41.3l0,0.2c0,0,0,0,0,0L89.9,41.3z"/>
          <path class="st0" d="M90,41.5l0,0.2C90,41.6,90,41.6,90,41.5z"/>
          <path class="st0" d="M90.1,42.2L90,41.7C90,41.9,90,42.1,90.1,42.2z"/>
          <path class="st0" d="M89.2,36.3l-0.1,0C89.1,36.3,89.1,36.3,89.2,36.3z"/>
          <path class="st0" d="M88.8,34.8c0.1,0.4,0,0.9,0.2,1.4l0.1,0C88.8,36.1,89,35.1,88.8,34.8z"/>
          <path class="st0" d="M87.9,28.2c0,0,0.4,1.3,0.4,1.3c0-0.3,0.1-0.6,0.3,0C88.3,27.7,88.5,29.8,87.9,28.2z"/>
          <path class="st0" d="M86.2,24.4c0.4,0.6,0.1-0.1,0.2-0.1C86.1,24,86,23.9,86.2,24.4z"/>
          <path class="st0" d="M64.6,4.4l0.2-0.2C64.3,4,64.8,4.3,64.6,4.4z"/>
          <path class="st0" d="M58.9,3.6c0,0,0.5,0.3,0.5,0.3l0.3-0.1c0,0-0.2,0-0.4-0.1C59.1,3.6,58.9,3.6,58.9,3.6z"/>
          <polygon class="st0" points="56.1,1 56.3,1 55.4,0.9           "/>
          <path class="st0" d="M10.4,16.8l0.4,0.1C11,16.6,10.8,16.3,10.4,16.8z"/>
          <path class="st0" d="M1.3,36.4c-0.2,0.2-0.4,0.8-0.3,1.2C1.1,37.1,1.3,36.7,1.3,36.4z"/>
          <polygon class="st0" points="30,89.4 29.6,89.3 30.4,89.5          "/>
        </g>
      </g>
    </g>
  </g>
</g>
</svg>
