<!-- Generator: Adobe Illustrator 19.2.0, SVG Export Plug-In  -->
<svg version="1.1"
   xmlns="http://www.w3.org/2000/svg" xmlns:xlink="http://www.w3.org/1999/xlink" xmlns:a="http://ns.adobe.com/AdobeSVGViewerExtensions/3.0/"
   x="0px" y="0px" width="275.6px" height="45px" viewBox="0 0 275.6 45" style="enable-background:new 0 0 275.6 45;"
   xml:space="preserve">
<style type="text/css">
  .st0{fill:#484B9F;}
  .st1{fill:#2E3191;}
</style>
<defs>
</defs>
<g>
  <g>
    <g>
      <g>
        <g>
          <g>
            <path class="st0" d="M273.5,43.5c0.1,0.3,0.3,0.1,0.2-0.8l-0.3-0.6L273.5,43.5z"/>
            <path class="st0" d="M274.1,37.3c-0.2-1.1-0.4-2.3-0.7-1.6c0.3,1.1,0.2,1.3,0.6,2.5c0,0.9-0.1,1.6-0.2,1.4
              c0.1,0.3-0.1,1.4,0.1,1.9c0.3-1.2,0.3-2.7,0.1-4.3C273.9,36.9,274,37.3,274.1,37.3z"/>
            <path class="st0" d="M220.8,1l0.6,0C221.2,1,221,1,220.8,1z"/>
            <path class="st0" d="M165.5,0.8c0.4,0,0.6,0,0.6-0.1C165.7,0.8,165.4,0.8,165.5,0.8z"/>
            <path class="st0" d="M156.1,0.5c0.2,0,0.4,0,0.6,0C156.4,0.5,156.2,0.5,156.1,0.5z"/>
            <path class="st0" d="M220.8,1l-1.5-0.1C219.2,1,220.1,1,220.8,1z"/>
            <path class="st0" d="M273.3,25c0,0.3,0,0.6,0.1,0.8C273.3,25.6,273.3,25.4,273.3,25C273.3,25.1,273.3,25.1,273.3,25z"/>
            <path class="st0" d="M245.1,0.8l0.4,0c0.1,0,0.3-0.1,0.4-0.1L245.1,0.8z"/>
            <path class="st0" d="M263.8,0.7c-0.4,0-0.6,0.3-0.7,0.4c0.2-0.1,0.6-0.2,0.9-0.2C264,0.8,264,0.8,263.8,0.7z"/>
            <path class="st0" d="M274.4,20.9l0,0.5C274.4,21.2,274.4,21,274.4,20.9z"/>
            <path class="st0" d="M231.8,0.7c0,0-0.1-0.1-0.2-0.1C231.6,0.6,231.7,0.7,231.8,0.7z"/>
            <path class="st0" d="M252.4,42.2C252.4,42.2,252.5,42.2,252.4,42.2C252.6,42.2,252.6,42.2,252.4,42.2z"/>
            <path class="st0" d="M274.1,43.6l-0.3,0c0,0.1-0.1,0.1-0.1,0.2L274.1,43.6z"/>
            <path class="st0" d="M138.8,0.1C138.8,0.1,138.9,0.1,138.8,0.1C139.3,0.1,139.1,0.1,138.8,0.1z"/>
            <path class="st0" d="M0.5,22.8c0.3-1.8,0.3,2.9,0.6,0.2C0.9,23.3,0.6,20.6,0.5,22.8z"/>
            <path class="st0" d="M273.3,24.6c0-0.3,0-0.5,0-0.8C273.3,24.1,273.3,24.4,273.3,24.6z"/>
            <path class="st0" d="M1.1,23.1L1.1,23.1l0-0.3C1.1,22.9,1.1,23,1.1,23.1z"/>
            <path class="st0" d="M99,0.3c0.1,0,0.2,0.1,0.4,0.1C99.4,0.4,99.3,0.3,99,0.3z"/>
            <path class="st0" d="M128.7,0.7l-0.7,0C128.2,0.7,128.5,0.7,128.7,0.7z"/>
            <path class="st0" d="M83.6,0.7c-0.4,0-0.5-0.1-1.1,0c0.1,0,0.1,0,0.2,0C82.9,0.7,83.2,0.6,83.6,0.7z"/>
            <path class="st0" d="M67.6,0.7c0.1,0,0.2,0,0.3,0.1c0.2,0,0.3,0,0.5,0L67.6,0.7z"/>
            <path class="st0" d="M203.8,42.3c0.4,0.1,0.6,0.2,0.7,0.3C204.3,42.4,206.6,42.3,203.8,42.3z"/>
            <path class="st0" d="M273.4,25c-0.1-0.1-0.1-0.2-0.1-0.5c0,0.2,0,0.4,0,0.5C273.4,25.1,273.4,25.2,273.4,25z"/>
            <path class="st0" d="M83,2.9l-2.5,0C81.1,2.9,82.1,2.9,83,2.9z"/>
            <path class="st0" d="M88.8,42.3l0.6,0C89.2,42.3,89,42.3,88.8,42.3z"/>
            <path class="st0" d="M72.9,2.9c-0.5-0.1-0.9-0.2-1.4-0.2c-0.1,0-0.2,0-0.3,0.1L72.9,2.9z"/>
            <path class="st0" d="M204.5,42.6C204.5,42.6,204.5,42.6,204.5,42.6C204.5,42.6,204.5,42.6,204.5,42.6z"/>
            <path class="st0" d="M221.3,41.9c-2.4,0-1.1,0.4-1.7,0.6c-2.9,0.1-1.3-0.3-2.3-0.5c-1.8,0.1-3.2,0.4-4.5,0.4
              c-0.1-0.1-0.4-0.1-0.1-0.2c-1.9,0.3-5.7,0-7.9,0.4c-0.2,0-0.2-0.1-0.3-0.1c0.4,0.2,0.4,0.4,0.3,0.5c-1.1,0-2,0.2-2.4,0
              c0.7,0,0.7-0.1,1-0.2l-1.1,0.1c-1-0.3,1.6-0.1,1.6-0.4c-2.2,0.1-4.8,0.4-6.5,0.3c-0.4-0.3,4-0.1,1.7-0.4l2.6,0.1
              c-2-0.5,1.6,0-0.2-0.5c-3.5-0.1-3.9,0.2-7.3,0.1c-0.8,0.2,0.3,0.3-0.5,0.5c-4.9,0.3-3.9-0.9-7.5-0.4c-0.9,0.2-1.3,0.7-3.9,0.4
              l0.9-0.4c-3.4,0-1.9,0.6-5.4,0.3c0.6-0.2,2.6-0.1,2.1-0.2c-2.3-0.3-1.6,0.2-3.4,0.2l-0.4-0.3c-3.6,0.1-7.5,0.3-11.5,0.4
              c0.2-0.1,0.9-0.2,0-0.3c-5,0.2-10.7,0-15.5-0.2l-1.8,0.3c-0.4,0-0.8-0.1-0.3-0.2c-1.9-0.1-0.1,0.2-1,0.3
              c-1.1,0-1.4-0.2-0.7-0.3c-3.3,0.2-9.4,0.5-12.9,0.2l0.7-0.1c-2.7-0.1-3.1,0.6-5.6,0.3l0.5-0.1c-5.9-0.1-12.4,0.1-16.9-0.3
              c-0.9,0.4-5.8-0.2-6.2,0.4c-3.4-0.3-2.4-0.4-7.1-0.6c-1.3,0-1.9,0.4-3.5,0.4l0-0.3L92,42.6l-1.1-0.4l-1.5,0.1
              c0.6,0,1.2,0.1,1.2,0.2c-2.3,0.1-5.6-0.2-5.6-0.4l-5.4,0.3c0.1-0.1,1-0.2,1.7-0.2c-2.9,0.3-0.5-0.3-3.2,0
              c0.4,0.1-0.2,0.2-0.3,0.2c-1.3-0.2-4.3-0.2-6.6-0.1l0.4-0.2c-4-0.1-8.5,0.1-13,0.1c1.6,0.1,1.2,0.5-0.1,0.5l-0.5-0.3
              c-0.9,0.2,1.4,0.1-0.4,0.4c-1.7,0-1.1-0.4-0.2-0.5l-2.1,0.1c-0.1-0.1,0.4-0.1,0.5-0.3c-0.8,0.2-3.5-0.3-4.8,0L51.1,42
              c-4.5,0-6.6,0.1-10.2,0.1c-0.1,0.3-1.5,0.2-2.6,0.4c-2.7-0.1-5.7-0.3-9-0.3c-2.3,0.1-0.7,0.2-1.7,0.4
              c-0.2-0.3-3.4-0.2-1.7-0.4c-3.9,0-5,0.1-9.9,0.3c0.5,0.1,1.1,0.2,0.8,0.2c-0.9,0-2-0.1-1.9-0.2l0.2,0c-2.1,0.1-4.4,0.1-6.7,0
              c-1.2-0.1-2.3-0.1-3.5-0.2c-0.6,0-1.1-0.1-1.7-0.1c-0.1,0-0.2,0-0.3,0c0-0.1,0-0.1,0-0.2c0-0.2,0-0.3,0-0.5
              c0-0.6-0.1-1.2-0.1-1.8l0,0.2l-0.3-4.6c0-2.1,0.2,1.3,0.4-0.3C2.5,30.1,3,27.3,2.7,23.2C3.4,20.1,2.6,12,3.1,7.8L2.9,8
              C2.8,6.9,3,6.7,3.1,5.9C2.9,6,2.9,7.1,2.8,6.4c0-1.2,0-2.5-0.1-3.8c1.6,0,3.2,0,4.8,0.1c2,0,4,0.1,6,0.1c4,0.1,8,0.2,12,0.3
              c3.5,0,2-0.9,6.4-0.5l-1.2,0.3c7-0.4,14.4,0,21.3-0.3c-0.4,0.1-0.4,0.2-1.1,0.2c1.5,0.2,5.4,0,5.4-0.2c1.1,0,0.2,0.2,0.9,0.3
              c1.5,0.1,3.7-0.3,4.4-0.1c0.1,0-0.4,0.1-0.7,0.1c1-0.1,4.4,0,3.5-0.2c2.6,0.1,5-0.1,7,0c1.3-0.3,4.4,0.1,4.9-0.3
              c-0.2,0.5,4.5,0.4,6.2,0.2c-0.5,0.1,1.4,0.1,0.8,0.3c1.9,0,3.6-0.1,3.3-0.3c3.4,0.5,6.9-0.4,8.9,0.3
              c5.5-0.2,10.7-0.4,15.7-0.5c-0.2,0.5-5.5,0-5.3,0.5c4.7-0.2,7.5-0.6,12.2-0.5c1.2,0.1-0.7,0.2-1.1,0.3c4.7-0.2,9.1,0,13.4-0.2
              c0,0-0.5,0.1-0.9,0.1c0.8,0,1.9,0.1,1.8-0.1l-0.8,0.1c-1.3-0.3,3.3-0.6,3.4-0.8c-1.4,0.6,4.2,0.1,1.9,0.9
              c0.5,0,1.2-0.1,1.1-0.3c0.8,0,1.1,0.1,0.2,0.3c3-0.1,1.9-0.3,4.6-0.3c0,0.1-0.6,0.1-0.8,0.3c1.4-0.2,2.7-0.4,5-0.3
              c-0.1,0.1,0.1,0.1-0.6,0.1c3.9,0,6.7-0.5,10.9-0.3c-1.3,0.4,1.5,0.1,1.7,0.5l2.3-0.1l-0.9-0.2c2,0,3.8-0.3,5.5-0.1l-1.5,0.2
              l3.8-0.1l-2.1-0.1c2-0.2-0.2-0.5,2.5-0.4c-0.5,0,2,0,3.1,0.2l0,0c1-0.1,2-0.2,3.5-0.2c0.4,0.1-0.3,0.4-0.1,0.5
              c1-0.3,4.7-0.1,6-0.4c-0.4,0.1-0.4,0.3-0.3,0.3l0.8-0.3c0.9,0.1,1.1,0.1,0.9,0.3c2.8,0-0.9-0.5,2.4-0.3
              c-0.3,0-0.1,0.1-0.7,0.1c3.4,0.1,6.5-0.2,9.6,0c0.9,0.4-2.7,0.1-1.7,0.4c4.4-0.1,9.2-0.5,13.5-0.4l-0.8,0
              c0.6-0.5,3.2,0.3,5.4,0c-0.5,0-0.7,0.3-0.6,0.2c2.9,0.1,6-0.1,10.5-0.3l-0.6,0.1c1.7,0.1,4.6,0.1,6.4,0.1
              c0.6-0.1,1.6-0.1,1-0.3c5.8,0.8,11-0.4,16.2,0.2c-0.6,0-1.5,0.1-1,0.1l4.4-0.1c-0.3-0.2-0.6-0.1-1.5-0.3
              c0.6-0.1,1.8-0.2,2.9-0.2c-2,0.2,0,0.4,0.9,0.5c-0.1-0.1,0.1-0.1,0.1-0.2c2.3,0.4,0.4-0.5,3.5-0.2l-0.2,0.1
              c1.2-0.1,2.2-0.2,3.5-0.2c0.5,0.3-1.2,0.1-1.3,0.3c1.8,0,3.5-0.5,5.1-0.2c-0.7,0.1-1.8,0.1-2.6,0.1c1.7,0.3,1.9,0.2,3.2,0.3
              l-0.1,0l3,0.1l-0.8-0.1c2.2-0.7,4.5-0.1,7.5-0.6c-2.9,0.4-0.5,0.2-0.7,0.6c0.8,0.1,1.9,0.2,1.6,0.3c0.7-0.1,1.3-0.1,2,0
              c0.3,0,0.7,0,1.1,0c0.2,0,0.4-0.1,0.7-0.1c0,0,0,0,0.1,0c0,0.2,0,0.6-0.2,0.5c0,0.3,0.1,0.3,0.1,0.2c0-0.2,0.1-0.5,0.2-0.5
              c0,0.2,0.1,0.4,0.1,0.7c0,0.4,0,0.8,0,1.2c0,0.8-0.1,1.7-0.1,2.6c-0.1,1.8-0.2,3.8,0.1,5.8c0.2,3.5,0.5,4.1,0.7,7.4
              c-0.2,1.1-0.4-0.9-0.4-0.9c-0.1,1.8-0.1,3.1,0,4.8c-0.1-0.3-0.2,0-0.3,0.5c0,1.3,0.4,0.9,0.2,2.7c-0.1-0.3-0.3-0.7-0.4-1.3
              c0.1,1.6,0.3,3.1,0.4,4.8c-0.2,0.4-0.3-1-0.4-1.6c0.1,1.8,0.2,4.7,0.4,5.3l0.1-1.2c0,0.7-0.2,0.3-0.3-0.1
              c-0.2-1.6,0.1-2.3,0.2-2.4l0.1,1.2c0.6-1.2-0.1-4.7-0.1-7l0.4,1l-0.3-2.4c0.1-0.5,0.3-0.9,0.4,0.3c0.2-1.7-0.1-1.5,0.1-2.9
              c0-0.2,0.1-0.1,0.1,0.1l-0.1-1.6c0.1,0.3,0.3-0.3,0.2,0.7c0.2-2.9-0.3-4.7,0-5.8l0,0.2c-0.1-4.1-0.3-0.4-0.7-3.5l0.8-2.1
              l-0.3-0.4c0-0.4,0-1.3,0.2-1.1c-0.2-1.6-0.1,0.3-0.3-0.6c0.2-1.6,0-3.9,0.1-5.4c-0.4,0-0.7-0.1-0.8-0.2
              c-0.5,0.1,0.1,0.2,0.4,0.2c0.3,0,0.4,0.1-0.8,0.1c-0.7-0.5-2.5,0.1-4.4-0.2c0.6-0.3,2.3-0.1,0.5-0.4c-1.1,0.5-3.6-0.1-5.2,0
              c-0.1,0.4-3.4,0.2-6,0.3c0.2-0.1-4.9-0.2-7.4-0.3l0.1-0.1c-0.5,0.4-3,0.3-4.8,0.4c0.1-0.2,0.4-0.3,1.4-0.4l-1.7,0
              c-0.4,0.1-0.9,0.2-2.1,0.2l0.4-0.3c-2.3,0-4.6,0.3-7.6,0.1c-0.2,0.3,2.3,0.7-0.8,0.9c-0.1-0.1-0.2-0.4,0.6-0.4
              c-0.3,0-1,0.1-1.5,0.1l1.2-0.2c-1.3-0.1-0.7,0.2-1.8,0.2c0-0.2-0.8-0.1-0.6-0.3c0.3,0,0.9,0.1,1.3,0c-1.2,0-2.7-0.2-3.2-0.3
              c0.1,0.1,0,0.3-0.9,0.3c-2.3,0-0.8-0.2-2.1-0.3c-0.6,0.1-2,0-2.1,0.3c-0.7,0-0.8-0.1-1.1-0.2c-1.2,0.1-5.5,0-4.2,0.4l0.3,0
              c-0.1,0-0.1,0-0.2,0c0,0,0,0,0,0h0c-3.9,0.3-8.1-0.2-11.9,0l0-0.1c-2.3,0.1-5.1,0.1-6.8,0.3c-0.7,0-1.6-0.2-1.3-0.3
              c-1.8,0.1-2,0.2-4.5,0c1.8-0.2-0.6-0.2,1.8-0.1c-2.3-0.1-2.8-0.2-5.3,0c0.8-0.3-1.7-0.3-2.8-0.2l1.6,0.2c-1.2,0-2.3,0-3.4,0
              l0.6-0.3c-4.7-0.4-8.4,0.7-12,0c-1.2,0.2,2.5,0.2,1.4,0.4c-2.1,0-4.4-0.5-5.1-0.5c-2.9-0.2-2.7,0.5-5.8,0.4
              c0.4,0.1,0.8,0.4-1.5,0.5c-2.2,0-2.6-0.5-1.3-0.6c0.5,0,0.8,0,0.7,0.1c0.7,0,1.6-0.1,0.8-0.2l-0.3,0.1c-1.1-0.1-4-0.1-3.3-0.3
              c-1.6,0.1-0.7,0.2,0.5,0.3c-2.8-0.2-4.3,0-7.2-0.1c0.5,0.1,0.9,0.2,0.4,0.2c-4.2-0.1-1.8,0.2-4.7,0.3
              c-1.6-0.2,0.6-0.4-2.3-0.3c-1.7-0.1-0.4-0.3,0.3-0.4c-2.6,0.2-4.8-0.2-6.3-0.2l1.4-0.1c-0.8,0.1-1.5,0.1-2.2,0.1l0.8,0.2
              c-0.8,0-1.5,0-1.5-0.1c-0.8,0.2,0.6,0.4-1,0.6c-1.1-0.1-3.3,0.1-3.6-0.2c3.4,0.1-0.4-0.3,2.5-0.4c-0.5,0-1.2,0-2,0
              c-0.1,0,0.1-0.1,0.3-0.1c-3.2-0.3-1.5,0.4-4.8,0.3c0.4-0.2-0.8-0.3-1.3-0.3c1.3,0,0.6,0.3-0.6,0.4c-2.1-0.1-2.3,0.1-3.4,0.1
              l1.3,0.1c-0.4,0.2-1.5,0.2-3,0.2c-0.1-0.1,1.4-0.1,0.8-0.2c-1.7,0.3-3.7-0.3-6-0.1c-1.1-0.1-0.1-0.3-1-0.4
              c-2.6,0.2-2.8-0.2-5.5-0.1c0.8,0.2,0.9,0.2-1,0.4l4.5-0.2l-2.9,0.3c1.3,0,2.8-0.1,3.6-0.1c-1.4,0.2-1.2,0.1-0.6,0.3
              c-1.8-0.4-3.7,0.2-5.8,0l0.1-0.6c-3.2-0.3-5.7,0.3-9.8,0.2l1.3,0.1c-0.6,0.2-2.6,0-3.9,0.1c0.1-0.2-0.7-0.3-1.3-0.4
              c0.1,0.1-3,0-3.4,0.4l-1.9-0.3c-3.4-0.1-3.8,0.6-7.1,0.5c1-0.2-0.5-0.4,1.7-0.5c-1.1,0-2,0-2.1,0.1c-0.6-0.1-3,0.3-4,0.1
              C82.3,0.8,82.1,1,80.9,1c-0.1,0,0-0.1,0-0.1C80.9,1,79,1,80.1,1.2c-3.3-0.6-9.3,0-12.2-0.5c-2.4,0.1-5.2,0.1-7.3,0.1
              c0.1-0.1,0-0.1,0.4-0.1c-2.9-0.2-1.8,0.6-5.2,0.4c-1.7-0.3,1.8-0.2,0.7-0.3c-0.5-0.6-4,0.1-6.3-0.3l0.5,0
              c-1.7-0.2-4.2,0.2-7,0.2c0,0,0.1-0.1,0-0.1c-1.9,0.3-5.6,0.4-8.3,0.5c0.8-0.3,1.2-0.1,0.7-0.4c-1.2,0,0.4,0.4-2.1,0.5
              c-0.8-0.1-2.5-0.3-2.8-0.5l2.3,0c-1.2-0.4-3,0-4.2,0l0.2-0.2c-3.5,0.1-3.6,0.4-7.3,0.4l0.4,0.1C20.7,1.4,21,0.8,19,1.1
              l-0.6-0.4c-1.4,0.1-4.8,0.4-7.2,0.5c1.4-0.3,4.2-0.4,6-0.6c-1.3,0-4.6,0-5.3,0.2c0.5,0,1.2-0.1,1.8-0.1C12,1,9.8,1.2,7.1,1.2
              c0.2-0.3-0.5-0.4-1.6-0.4c-0.5,0-1.2,0-1.8,0c-0.9,0-1.9,0-2.8,0c0,0.5,0,1.1,0,1.6c0,0.3,0,0.5,0,0.7c0,0.2,0,0.3,0,0.5
              c0,0.6-0.1,1.1-0.2,1.4c0.3,4.7-0.1,9.4-0.1,14.9c0.6-2,0,1.6,0.6,1.3c0,1.3,0,1.8,0,1.9l-0.4,3.9c-0.2,0.9-0.1-1.2-0.3-1.1
              c0,2.8-0.3,1.2-0.4,3c0.2-0.4,0.3,1,0.2,2.6l0.3-2.3c0.3,3.9-0.5,3.4-0.2,7.4l-0.2-1.3c0,0.8,0.1,2.3,0.1,3.8
              c0,0.8,0,1.5,0.1,2.3c0,0.5,0,1.1,0.1,1.6c0,0.6,0.1,1.2,0.1,1.7c1-0.1,1.8-0.1,2.4-0.2c0.1,0,0.3,0,0.4,0.1
              c0.1,0,0.1,0.1,0.2,0.1s0,0.1-0.1,0.1c-0.1,0-0.1,0-0.2,0c-0.1,0-0.3,0-0.5,0c0.7,0,1.4,0,2.1,0c0.6,0,1.3,0,1.9,0
              c1.3,0,2.6-0.1,3.9-0.2c2.6-0.1,5-0.2,6.9,0l-0.4,0.1c0.9,0,1.6-0.3,2.7-0.1c-0.1,0.1-0.4,0.1,0.1,0.2
              c0.5-0.1,2.4-0.3,3.6-0.2l-1,0.2c4.8,0.2,7.3-0.4,11.3-0.5c0,0.4,3.7,0.6,5.6,0.7l-0.1,0.1c5.5,0.1,9.4-0.4,14.5-0.5
              c3.2,0.5,10.8,0.2,15.9,0.5c-0.8-0.1,0.1-0.3,1-0.4c1.2,0.1,3.3-0.3,3.1,0.1l-0.4,0c0.9,0.4,3.4,0.3,5.3,0.3l0.3-0.5
              c5,0.8,13.2-0.3,15.9,0.4c1.2-0.1,2.7-0.1,3.9-0.3l-0.1,0.3c3.4,0.1,5,0.1,9.2,0l-0.8,0.2c2.3,0,3-0.8,5.1-0.8l0.7,0.4
              c4.1,0,8.2,0.4,12.3,0c-0.1,0.1-0.2,0.2-0.8,0.2c1.9,0,7.5,0.3,6.8-0.3c0,0.4,4.2,0,6.4-0.1l-0.3,0.3c1.9-0.4,1.9-0.5,4.5-0.6
              c0.6,0,0.5,0.2-0.3,0.2c2.1,0.1,1.6-0.3,4.1-0.1l-0.9,0.2c2.1,0,1.9-0.1,3.1-0.3c1.3-0.1,4,0.1,4.3,0.3
              c0.3-0.2,1.4-0.4,2.7-0.3c0.2,0.1-0.3,0.2-0.5,0.2c3.5,0.2,5.3-0.3,7.7-0.1c0.1,0.1,0.2,0.1,0.4,0.2c-2.8,0-5.1,0-4.9,0
              c0,0.3,2.3,0.3,0.5,0.7c1.8-0.2,4.9-0.6,7.2-0.5c0.1,0,0.2,0,0.3,0.1l-0.2,0c0.5,0,1,0,1.4,0c0.7,0,1.2,0.1,1.8,0.1
              c0.3,0.2,2.6,0.1,3.7,0.1c-0.1-0.3,1.4-0.2,0-0.5c0.2,0-0.2,0-1,0c-0.2,0-0.4,0-0.5,0c0,0,0,0,0.1,0c-0.7,0-1.7,0-2.8,0
              c0.9-0.1,1.8-0.3,3.1-0.1c0.6-0.2,1.2-0.4,1.6-0.5c1.6,0.4,4.5,0.6,5,0.8c3.5-0.2,8.1-0.1,10.3-0.6c1-0.1,1.1,0.2,1.5,0.2
              c-0.6,0.1-1.2,0-1.6,0.1c2-0.1,5.8-0.1,6.3-0.4c2.5,0.2-1.4,0.3,2,0.3l-0.5,0.1c6.7,0.6,10.9-0.9,18.3-0.2
              c-0.5,0-0.8-0.1-0.9-0.1c8.5,0.3,17.5-0.3,25.8,0.2c2.4,0.1,2.6-0.1,4.1-0.3l0.5,0.3l2.5-0.3c3.5-0.3,6.1,0.7,10.5,0.3
              l-0.6-0.2c1.6,0,5.1-0.1,4.8,0.1c0.2,0,0.5-0.2,1.1-0.1l0,0.2l3.9-0.3c3,0.1-0.5,0.6,4,0.7c1.7-0.1,4.7-0.5,4.1-0.6
              c-0.7,0-1.7-0.1-1.8-0.3l1.5-0.1c0.3-0.5,1.4-0.9-2.3-1.3l-2.6,0.3l-0.8-0.2l2.2,0c-1.2-0.2-2,0-2.9,0.1
              c-0.2-0.1-0.6-0.2-1.1-0.2l-2.5,0.4c-0.3-0.2,1.1-0.4-0.6-0.5c-1.2,0.2,1.1,0.4-0.8,0.5c-1.2-0.2-0.9-0.4-2.3-0.2
              c-0.2-0.1,0.1-0.2,0.7-0.2c-1.3,0.1-3.4,0.1-4.1,0.3c-1.3-0.3-4.4,0.1-4.2-0.4c-0.4,0.1-2.3,0.3-3.5,0.4
              c2.2-0.5-4.4,0-3.9-0.6c-1.6,0.5-5.8,0.2-8.6,0.5c0.2,0,0.5-0.1,0.7-0.1c-1.6,0-2.1-0.2-3.1-0.3c-0.2,0.4-2.7,0.5-4,0.7
              c-2-0.4,1.2-0.5,0.6-0.8c0.1,0.3-3.4,0.3-2.7,0.6c-1.5-0.2-1.3-0.1-2.1-0.4c-0.3,0.5-1.4,0.1-2.6,0.4
              c-2.2-0.2-0.6-0.5-2.9-0.3C219.2,42.1,221.3,41.9,221.3,41.9z M164.6,42.7L164.6,42.7c0.5,0,0.9,0,1.2,0
              C165.6,42.7,165.2,42.7,164.6,42.7z M159.9,42.7c0.6,0,1.3,0,2.1,0c0.2,0.1,0,0.2-0.5,0.2C161.7,42.9,160.6,42.8,159.9,42.7z
               M169.9,44.7c-0.8,0-1,0-1.1-0.1c0.4,0,0.8,0,1.3,0c0,0,0.1,0,0.1,0C170.2,44.6,170.1,44.7,169.9,44.7z"/>
            <path class="st0" d="M171.3,44.3c0.1,0,0.2,0,0.3,0c-0.2,0-0.3,0-0.4-0.1c-0.1,0-0.2,0.1-0.3,0.1
              C171,44.3,171.2,44.3,171.3,44.3z"/>
            <path class="st0" d="M221.5,1.1l-0.1,0c0.1,0,0.2,0,0.2,0C221.5,1.1,221.5,1.1,221.5,1.1z"/>
            <polygon class="st0" points="94.1,42.2 94.1,42.3 94.6,42.2            "/>
            <path class="st0" d="M247.7,2c0,0,0.1,0.1,0.3,0.1C248,2.1,247.9,2.1,247.7,2z"/>
            <path class="st0" d="M259,2.1l1.6,0.1C259.9,2.1,259.4,2.1,259,2.1z"/>
            <path class="st0" d="M267.7,2.2c0.1,0,0.1-0.1,0.2-0.1l0,0L267.7,2.2z"/>
            <path class="st0" d="M129.3,2.6c-0.1,0-0.2,0-0.3,0C128.1,2.6,128.7,2.6,129.3,2.6z"/>
            <path class="st0" d="M170.5,1.9C170,2,169.6,2,169.1,2C169.9,2.1,170.4,2.1,170.5,1.9z"/>
            <path class="st0" d="M83.3,2.9C83.3,2.9,83.3,2.9,83.3,2.9c-0.1,0-0.2,0-0.3,0L83.3,2.9z"/>
            <path class="st0" d="M167.2,2c0.7,0.1,1.3,0,1.9,0C168.5,2,167.8,2,167.2,2z"/>
            <path class="st0" d="M273.2,32.8l0,0.4c0,0,0,0,0,0L273.2,32.8z"/>
            <path class="st0" d="M273.3,33.3l0,0.5C273.3,33.5,273.3,33.3,273.3,33.3z"/>
            <path class="st0" d="M273.4,34.7l-0.1-1C273.3,34.1,273.3,34.5,273.4,34.7z"/>
            <path class="st0" d="M273.4,21.3l-0.1-0.1C273.3,21.2,273.3,21.3,273.4,21.3z"/>
            <path class="st0" d="M273.3,17.8c0,0.8-0.2,2.1-0.2,3.3l0.1,0.1C273.1,20.6,273.5,18.6,273.3,17.8z"/>
            <path class="st0" d="M274.6,3.2l-0.1,2.9c0.1-0.5,0.3-1.2,0.3,0.1C275.1,2.5,274.6,7,274.6,3.2z"/>
            <path class="st0" d="M266.7,0.8c1.6-0.1,0-0.2,0.1-0.2C265.8,0.7,265.5,0.8,266.7,0.8z"/>
            <path class="st0" d="M200.9,0.8l0.2-0.3C199.9,0.6,201.1,0.7,200.9,0.8z"/>
            <polygon class="st0" points="188.3,2.2 189.5,2.3 190.1,2.1            "/>
            <polygon class="st0" points="180.9,0.3 181.4,0.3 179.4,0.4            "/>
            <path class="st0" d="M70.5,0.4l0.4,0.3C71.6,0.7,71.8,0.3,70.5,0.4z"/>
            <path class="st0" d="M22.8,0.8c-0.5-0.2-1.9-0.3-2.7-0.1C21.2,0.7,22.2,0.8,22.8,0.8z"/>
            <polygon class="st0" points="81.5,44.7 80.5,44.8 82.3,44.7            "/>
          </g>
        </g>
      </g>
    </g>
  </g>
  <g>
    <g>
      <g>
        <g>
          <g>
            <path class="st0" d="M273.5,43.5c0.1,0.1,0.3,0,0.2-0.2l-0.3-0.2L273.5,43.5z"/>
            <path class="st0" d="M274.1,42.1c-0.2-0.3-0.4-0.5-0.7-0.4c0.3,0.2,0.2,0.3,0.6,0.6c0,0.2-0.1,0.4-0.2,0.3
              c0.1,0.1-0.1,0.3,0.1,0.4c0.3-0.3,0.3-0.6,0.1-1C273.9,42,274,42,274.1,42.1z"/>
            <path class="st0" d="M274.6,21.2l0,0.1C274.6,21.3,274.6,21.3,274.6,21.2z"/>
            <path class="st0" d="M274.8,8.3c0,0.1,0,0.1,0.1,0.1C274.8,8.3,274.8,8.3,274.8,8.3z"/>
            <path class="st0" d="M275.1,6.1c0,0,0,0.1,0,0.1C275.1,6.2,275.2,6.1,275.1,6.1z"/>
            <path class="st0" d="M274.6,21.2l0.1-0.3C274.6,20.8,274.6,21,274.6,21.2z"/>
            <path class="st0" d="M273.3,39.2c0,0.1,0,0.1,0.1,0.2L273.3,39.2L273.3,39.2z"/>
            <path class="st0" d="M274.8,26.9l0,0.1c0,0,0.1,0.1,0.1,0.1L274.8,26.9z"/>
            <path class="st0" d="M274.9,31.3c0-0.1-0.3-0.1-0.4-0.2c0.1,0.1,0.2,0.1,0.2,0.2C274.8,31.3,274.8,31.3,274.9,31.3z"/>
            <path class="st0" d="M274.4,38.2l0,0.1C274.4,38.3,274.4,38.2,274.4,38.2z"/>
            <path class="st0" d="M274.9,23.8c0,0,0.1,0,0.1,0C275,23.7,274.9,23.7,274.9,23.8z"/>
            <path class="st0" d="M269.1,42.2C269,42.2,269.1,42.2,269.1,42.2C269.1,42.2,269.1,42.2,269.1,42.2z"/>
            <path class="st0" d="M274.1,43.6L274.1,43.6c-0.1,0.1-0.1,0.1-0.1,0.2L274.1,43.6z"/>
            <path class="st0" d="M275.5,1.2C275.5,1.2,275.5,1.2,275.5,1.2C275.5,1.4,275.5,1.3,275.5,1.2z"/>
            <path class="st0" d="M241.5,6.5c0.3-0.4,0.3,0.7,0.6,0.1C241.9,6.6,241.6,6,241.5,6.5z"/>
            <path class="st0" d="M273.3,39.1c0-0.1,0-0.1,0-0.2C273.3,39,273.3,39,273.3,39.1z"/>
            <path class="st0" d="M242.1,6.5L242.1,6.5L242.1,6.5C242.1,6.5,242.1,6.5,242.1,6.5z"/>
            <path class="st0" d="M265.4,0.3c0,0,0.1,0.1,0.1,0.1C265.5,0.4,265.5,0.3,265.4,0.3z"/>
            <path class="st0" d="M272.3,0.7l-0.2,0C272.2,0.7,272.3,0.7,272.3,0.7z"/>
            <path class="st0" d="M261.8,0.7c-0.1,0-0.1-0.1-0.3,0c0,0,0,0,0,0C261.6,0.7,261.7,0.6,261.8,0.7z"/>
            <path class="st0" d="M258,0.7C258.1,0.7,258.1,0.7,258,0.7c0.1,0.1,0.1,0,0.2,0L258,0.7z"/>
            <path class="st0" d="M257.7,42.3c0.1,0.1,0.1,0.2,0.2,0.3C257.8,42.4,258.3,42.3,257.7,42.3z"/>
            <path class="st0" d="M273.4,39.2c-0.1,0-0.1-0.1-0.1-0.1l0,0.1C273.4,39.2,273.4,39.2,273.4,39.2z"/>
            <path class="st0" d="M261.6,2.9l-0.6,0C261.2,2.9,261.4,2.9,261.6,2.9z"/>
            <path class="st0" d="M243.8,31.7l0,0.1C243.8,31.8,243.8,31.7,243.8,31.7z"/>
            <path class="st0" d="M259.3,2.9c-0.1-0.1-0.2-0.2-0.3-0.2c0,0-0.1,0-0.1,0.1L259.3,2.9z"/>
            <path class="st0" d="M257.8,42.6L257.8,42.6L257.8,42.6z"/>
            <path class="st0" d="M261.8,41.9c-0.6,0-0.3,0.4-0.4,0.6c-0.7,0.1-0.3-0.3-0.5-0.5c-0.4,0.1-0.7,0.4-1.1,0.4
              c0-0.1-0.1-0.1,0-0.2c-0.4,0.3-1.3,0-1.8,0.4c0,0-0.1-0.1-0.1-0.1c0.1,0.2,0.1,0.4,0.1,0.5c-0.3,0-0.5,0.2-0.6,0
              c0.2,0,0.2-0.1,0.2-0.2l-0.3,0.1c-0.2-0.3,0.4-0.1,0.4-0.4c-0.5,0.1-1.1,0.4-1.5,0.3c-0.1-0.3,0.9-0.1,0.4-0.4l0.6,0.1
              c-0.5-0.5,0.4,0-0.1-0.5c-0.8-0.1-0.9,0.2-1.7,0.1c-0.2,0.2,0.1,0.3-0.1,0.5c-1.1,0.3-0.9-0.9-1.7-0.4
              c-0.2,0.2-0.3,0.7-0.9,0.4l0.2-0.4c-0.8,0-0.4,0.6-1.3,0.3c0.1-0.2,0.6-0.1,0.5-0.2c-0.5-0.3-0.4,0.2-0.8,0.2l-0.1-0.3
              c-0.8,0.1-1.8,0.3-2.7,0.4c0.1-0.1,0.2-0.2,0-0.3c-1.2,0.2-2.5,0-3.6-0.2l-0.4,0.3c-0.1,0-0.2-0.1-0.1-0.2
              c-0.2-0.1-0.2,0-0.2,0.1c0,0.1,0,0.2,0,0.2c-0.1,0-0.1-0.2,0-0.3c-0.1,0.1-0.3,0.2-0.6,0.3c-0.1-0.2-0.1-0.5,0.1-0.7
              c0,0,0.1,0.1,0.1,0.1c0,0,0-0.2,0-0.3c0-0.1-0.1-0.2-0.2-0.3c-0.1-0.2-0.2-0.3-0.1-0.6l0.1,0.1c0.1-1.4-0.1-2.9,0.3-4
              c-0.4-0.2,0.2-1.4-0.4-1.5c0.3-0.8,0.4-0.6,0.6-1.7c0-0.3-0.4-0.4-0.4-0.8l0.3,0l-0.3-0.5l0.4-0.3l-0.1-0.3
              c0,0.1-0.1,0.3-0.2,0.3c-0.1-0.5,0.2-1.3,0.4-1.3l-0.3-1.3c0.1,0,0.2,0.2,0.2,0.4c-0.3-0.7,0.3-0.1,0-0.7
              c-0.1,0.1-0.2,0-0.2-0.1c0.2-0.3,0.2-1,0.1-1.5l0.2,0.1c0.1-0.9-0.1-2-0.1-3c-0.1,0.4-0.5,0.3-0.5,0l0.3-0.1
              c-0.2-0.2-0.1,0.3-0.4-0.1c0-0.4,0.4-0.3,0.5,0l-0.1-0.5c0.1,0,0.1,0.1,0.3,0.1c-0.2-0.2,0.3-0.8,0-1.1l0.1,0
              c0-1.1-0.1-1.5-0.1-2.4c-0.3,0-0.2-0.4-0.4-0.6c0.1-0.6,0.3-1.3,0.3-2.1c-0.1-0.5-0.2-0.2-0.4-0.4c0.3,0,0.2-0.8,0.4-0.4
              c0-0.9-0.1-1.2-0.3-2.3c-0.1,0.1-0.2,0.3-0.2,0.2c0-0.2,0.1-0.5,0.2-0.4l0,0.1c-0.4-1.3,0.7-3,0.2-4l0,0.1l-0.3-1.1
              c0-0.5,0.2,0.3,0.4-0.1c-0.4-1.2,0.1-1.8-0.2-2.8c0.4-0.4,0.4-1,0.3-1.7c0-0.3-0.1-0.7-0.1-1c0-0.2,0-0.3,0-0.5
              c0-0.1,0.1-0.3,0.1-0.3l-0.2,0C243.8,3,244,3,244.1,3c-0.1-0.1-0.2,0-0.3-0.1c0-0.1-0.1-0.2-0.1-0.4c0.1,0,0.3,0,0.4,0.1
              c0,0,0.3,0,0.5,0.1l0.7,0.1c0.9,0.1,1.9,0.2,2.8,0.3c0.8,0,0.5-0.9,1.5-0.5l-0.3,0.3c1.6-0.4,3.4,0,5-0.3
              c-0.1,0.1-0.1,0.2-0.3,0.2c0.3,0.2,1.3,0,1.3-0.2c0.3,0,0.1,0.2,0.2,0.3c0.3,0.1,0.9-0.3,1-0.1c0,0-0.1,0.1-0.2,0.1
              c0.2-0.1,1,0,0.8-0.2c0.6,0.1,1.2-0.1,1.6,0c0.3-0.3,1,0.1,1.1-0.3c0,0.5,1.1,0.4,1.4,0.2c-0.1,0.1,0.3,0.1,0.2,0.3
              c0.4,0,0.8-0.1,0.8-0.3c0.8,0.5,1.6-0.4,2.1,0.3c1.3-0.2,2.5-0.4,3.7-0.5c0,0.5-1.3,0-1.2,0.5c1.1-0.2,1.7-0.6,2.8-0.5
              c0.3,0.1-0.2,0.2-0.3,0.3c0.6-0.1,1.1-0.1,1.6-0.1c0.3,0,0.5,0,0.8,0c0.1,0,0.3,0,0.4,0l0.2,0c0.1,0,0.1,0,0.1,0
              c0,0,0,0.1-0.1,0.1c0.1,0,0.2,0.1,0.2-0.1l-0.1,0.1c0-0.1,0-0.3,0.2-0.4c0.2-0.1,0.5-0.3,0.6-0.3c-0.6,0.6,0.6,0.1-0.4,0.9
              c0,0,0.1,0,0.1-0.1c0,0,0.1-0.1,0.2-0.1c0,0.1-0.1,0.2-0.3,0.3c0.1,0.1,0.3-0.1,0.3,0.3c-0.1,0-0.1,0-0.3,0
              c0.1,0,0.2,0.1,0.3,0.2c0.1,0.1,0.1,0.4,0,0.6c-0.1,0-0.1,0-0.1-0.1c0,0.9,0.5,1.6,0.3,2.6c-0.4-0.3-0.1,0.3-0.5,0.4l0.1,0.5
              l0.2-0.2c0,0.5,0.3,0.9,0.1,1.3l-0.2-0.4l0.1,0.9l0.1-0.5c0.2,0.5,0.5-0.1,0.4,0.6c0-0.1,0,0.5-0.2,0.7l0,0
              c0.1,0.2,0.2,0.5,0.2,0.8c-0.1,0.1-0.4-0.1-0.5,0c0.3,0.2,0.1,1.1,0.4,1.4c-0.1-0.1-0.3-0.1-0.3-0.1l0.3,0.2
              c-0.1,0.2-0.1,0.3-0.3,0.2c0,0.7,0.5-0.2,0.3,0.6c0-0.1-0.1,0-0.1-0.2c-0.1,0.8,0.2,1.5,0,2.2c-0.4,0.2-0.1-0.6-0.4-0.4
              c0.1,1,0.5,2.2,0.4,3.2l0-0.2c0.5,0.1-0.3,0.7,0,1.3c0-0.1-0.3-0.2-0.2-0.1c-0.1,0.7,0.1,1.4,0.3,2.4l-0.1-0.1
              c-0.1,0.4-0.1,1.1-0.1,1.5c0.1,0.1,0.1,0.4,0.3,0.2c-0.8,1.4,0.4,2.6-0.2,3.8c0-0.1-0.1-0.3-0.1-0.2l0.1,1
              c0.2-0.1,0.1-0.1,0.3-0.3c0.1,0.1,0.2,0.4,0.2,0.7c-0.2-0.5-0.4,0-0.5,0.2c0.1,0,0.1,0,0.2,0c-0.4,0.5,0.5,0.1,0.2,0.8l-0.1,0
              c0.1,0.3,0.2,0.5,0.2,0.8c-0.3,0.1-0.1-0.3-0.3-0.3c0,0.4,0.5,0.8,0.2,1.2c-0.1-0.2-0.1-0.4-0.1-0.6c-0.3,0.4-0.2,0.5-0.3,0.8
              l0,0l-0.1,0.7l0.1-0.2c0.7,0.5,0.1,1.1,0.6,1.7c-0.4-0.7-0.2-0.1-0.6-0.2c-0.1,0.2-0.2,0.4-0.3,0.4c0.2,0.3-0.2,0.5,0.2,1
              c-0.1,0,0,0.4-0.3,0.3c0.1,0.4,0.2-0.1,0.3-0.1c0.3,0.7-0.4,1.5,0.1,2.5c0.2,0.8,0.5,1,0.7,1.7c-0.2,0.3-0.4-0.2-0.4-0.2
              c-0.1,0.4-0.1,0.7,0,1.1c-0.1-0.1-0.2,0-0.3,0.1c0,0.3,0.4,0.2,0.2,0.6c-0.1-0.1-0.3-0.2-0.4-0.3c0.1,0.4,0.3,0.7,0.4,1.1
              c-0.2,0.1-0.3-0.2-0.4-0.4c0.1,0.4,0.2,1.1,0.4,1.2l0.1-0.3c0,0.2-0.2,0.1-0.3,0c-0.2-0.4,0.1-0.5,0.2-0.5l0.1,0.3
              c0.6-0.3-0.1-1.1-0.1-1.6l0.4,0.2l-0.3-0.6c0.1-0.1,0.3-0.2,0.4,0.1c0.2-0.4-0.1-0.3,0.1-0.7c0,0,0.1,0,0.1,0l-0.1-0.4
              c0.1,0.1,0.3-0.1,0.2,0.2c0.2-0.7-0.3-1.1,0-1.4l0,0.1c-0.1-1-0.3-0.1-0.7-0.8l0.8-0.5l-0.3-0.1c0-0.1,0-0.3,0.2-0.3
              c-0.2-0.4-0.1,0.1-0.3-0.1c0.3-0.5-0.1-1.3,0.4-1.4c-0.2-0.2-0.2,0.5-0.3-0.1c0.5-0.1-0.1-0.6,0.2-1c0.3,0.1,0.1,0.5,0.4,0.1
              c-0.5-0.3,0.1-0.8,0-1.2c-0.4,0-0.2-0.8-0.3-1.4c0.1,0,0.2-1.2,0.3-1.7l0.1,0c-0.4-0.1-0.3-0.7-0.4-1.1c0.2,0,0.3,0.1,0.4,0.3
              l0-0.4c-0.1-0.1-0.2-0.2-0.2-0.5l0.3,0.1c0-0.5-0.3-1.1-0.1-1.8c-0.3,0-0.7,0.5-0.9-0.2c0.1,0,0.4-0.1,0.4,0.1
              c0-0.1-0.1-0.2-0.1-0.3l0.2,0.3c0.1-0.3-0.2-0.2-0.2-0.4c0.2,0,0.1-0.2,0.3-0.1c0,0.1-0.1,0.2,0,0.3c0-0.3,0.2-0.6,0.3-0.7
              c-0.1,0-0.3,0-0.3-0.2c0-0.5,0.2-0.2,0.3-0.5c-0.1-0.1,0-0.5-0.3-0.5c0-0.2,0.1-0.2,0.2-0.2c-0.1-0.3,0-1.3-0.4-1l0,0.1
              c0,0,0,0,0,0v0v0c-0.3-0.9,0.2-1.9,0-2.8l0.1,0c-0.1-0.5-0.1-1.2-0.3-1.6c0-0.2,0.2-0.4,0.3-0.3c-0.1-0.4-0.2-0.5,0-1.1
              c0.2,0.4,0.2-0.1,0.1,0.4c0.1-0.5,0.2-0.7,0-1.2c0.3,0.2,0.3-0.4,0.2-0.7l-0.2,0.4c0-0.3,0-0.5,0-0.8l0.3,0.1
              c0.4-1.1-0.7-2,0-2.8c-0.2-0.3-0.2,0.6-0.4,0.3c0-0.5,0.5-1,0.5-1.2c0.2-0.7-0.5-0.6-0.4-1.4c-0.1,0.1-0.4,0.2-0.5-0.4
              c0-0.5,0.5-0.6,0.6-0.3c0,0.1,0,0.2-0.1,0.2c0,0.2,0.1,0.4,0.2,0.2l-0.1-0.1c0.1-0.2,0.1-0.9,0.3-0.8
              c-0.1-0.4-0.2-0.2-0.3,0.1c0.2-0.6,0-1,0.1-1.7c-0.1,0.1-0.2,0.2-0.2,0.1c0.1-1-0.2-0.4-0.3-1.1c0.2-0.4,0.4,0.1,0.3-0.5
              c0.1-0.4,0.3-0.1,0.4,0.1c-0.2-0.6,0.2-1.1,0.2-1.5l0.1,0.3c-0.1-0.2-0.1-0.3-0.1-0.5l-0.2,0.2c0-0.1,0-0.5,0.1-0.5
              c-0.2-0.3-0.4,0.3-0.6-0.3c0.1-0.4-0.1-1,0.2-1.4c-0.1,0.6,0,0.6,0.1,0.5c0.1-0.1,0.2-0.3,0.2,0.3c0-0.2,0-0.5,0-0.8
              c0-0.1,0.1,0,0.1,0.1c0.1-0.8,0-0.9-0.1-1c-0.3,0.1-0.6,0.3-1.2,0.3c0.3-0.2-0.1-0.3-0.4-0.3c0.6,0,0.1,0.3-0.4,0.4
              c-0.7-0.1-0.9,0.1-1.1,0.1c0,0,0.1,0,0.1,0c0.1,0,0.2,0,0.2,0c-0.2,0.2-0.4,0.2-0.7,0.2c0-0.1,0.3-0.1,0.2-0.2
              c-0.4,0.3-0.9-0.3-1.4-0.1c-0.2-0.1,0-0.3-0.2-0.4c-0.6,0.2-0.7-0.2-1.3-0.1c0.2,0.2,0.2,0.2-0.2,0.4l1-0.2l-0.7,0.3
              c0.3,0,0.7-0.1,0.9-0.1c-0.3,0.2-0.3,0.1-0.1,0.3c-0.4-0.4-0.9,0.2-1.4,0l0-0.6c-0.7-0.3-1.3,0.3-2.3,0.2l0.3,0.1
              c-0.1,0.2-0.6,0-0.9,0.1c0-0.2-0.2-0.3-0.3-0.4c0,0.1-0.7,0-0.8,0.4l-0.4-0.3c-0.8-0.1-0.9,0.6-1.6,0.5
              c0.2-0.2-0.1-0.4,0.4-0.5c-0.3,0-0.5,0-0.5,0.1c-0.1-0.1-0.7,0.3-0.9,0.1c-0.1,0.1-0.1,0.3-0.4,0.3c0,0,0-0.1,0-0.1
              c0,0.1-0.4,0.1-0.2,0.4c-0.8-0.6-2.2,0-2.8-0.5c-0.5,0.1-1.2,0.1-1.7,0.1c0-0.1,0-0.1,0.1-0.1c-0.7-0.2-0.4,0.6-1.2,0.4
              c-0.4-0.3,0.4-0.2,0.2-0.3c-0.1-0.6-0.9,0.1-1.5-0.3l0.1,0c-0.4-0.2-1,0.2-1.6,0.2c0,0,0-0.1,0-0.1c-0.5,0.3-1.3,0.4-1.9,0.5
              c0.2-0.3,0.3-0.1,0.2-0.4c-0.3,0,0.1,0.4-0.5,0.5c-0.2-0.1-0.6-0.3-0.6-0.5l0.5,0c-0.3-0.4-0.7,0-1,0l0-0.2
              c-0.8,0.1-0.8,0.4-1.7,0.4l0.1,0.1c-0.5,0.4-0.4-0.2-0.9,0.1l-0.1-0.4c-0.3,0.1-1.1,0.4-1.7,0.5c0.3-0.3,1-0.4,1.4-0.6
              c-0.3,0-1.1,0-1.2,0.2c0.1,0,0.3-0.1,0.4-0.1c-0.2,0.2-0.4,0.3-0.7,0.3c-0.3,0.1-0.5,0.1-0.9,0.1c0-0.5-1-0.4-2-0.5
              c0,0.5-0.1,0.9-0.3,1.1c0.1,0.5,0.1,1,0.1,1.4c0,0.3,0,0.6,0,0.8c-0.1,0.6-0.1,1.2-0.1,1.8c0.6-0.5,0,0.4,0.6,0.3
              c0,0.3,0,0.4,0,0.4l-0.4,0.9c-0.2,0.2-0.1-0.3-0.3-0.3c0,0.7-0.3,0.3-0.4,0.7c0.2-0.1,0.3,0.2,0.2,0.6l0.3-0.5
              c0.3,0.9-0.5,0.8-0.2,1.7l-0.2-0.3c0.1,0.5,0,1.8,0.5,2.2c-0.1,0.1-0.2,0.2-0.3,0c-0.1,1.1,0.5,2.5,0.2,3.4l-0.1-0.1
              c0,0.2,0.3,0.4,0.1,0.6c-0.1,0-0.1-0.1-0.2,0c0.1,0.1,0.3,0.6,0.2,0.8l-0.2-0.2c-0.2,1.1,0.4,1.7,0.5,2.6
              c-0.4,0-0.6,0.9-0.7,1.3l-0.1,0c-0.1,1.3,0.4,2.2,0.5,3.4c-0.5,0.7-0.2,2.5-0.5,3.7c0.1-0.2,0.3,0,0.4,0.2
              c-0.1,0.3,0.3,0.8-0.1,0.7l0-0.1c-0.4,0.2-0.3,0.8-0.3,1.2l0.5,0.1c-0.8,1.2,0.3,3.1-0.4,3.7c0.1,0.3,0.1,0.6,0.3,0.9l-0.3,0
              c-0.1,0.8-0.1,1.2,0,2.2l-0.2-0.2c0,0.5,0.8,0.7,0.8,1.2l-0.4,0.2c0,1-0.4,1.9,0,2.9c-0.1,0-0.2,0-0.2-0.2
              c0,0.5-0.3,1.7,0.3,1.6c-0.2,0-0.2,0.2-0.1,0.8c0.1,0.5,0.2,1.1,0.3,1.4l-0.3,0.1c0.2,0.2,0.3,0.3,0.4,0.4
              c0.3-0.1,0.5-0.1,1-0.2c0.2,0,0,0.2-0.2,0.2c0.6,0.1,0.7-0.3,1.4-0.1l-0.3,0.2c0.8,0,0.6-0.1,0.9-0.3c0.3-0.1,0.9,0.1,1,0.3
              c0.1-0.2,0.3-0.4,0.6-0.3c0,0.1-0.1,0.2-0.1,0.2c0.8,0.2,1.2-0.3,1.8-0.1c0,0.1,0,0.1,0.1,0.2c-0.7,0-1.2,0-1.1,0
              c0,0.3,0.5,0.3,0.1,0.7c0.4-0.2,1.2-0.6,1.7-0.5c0,0,0,0,0.1,0.1l-0.1,0c0.1,0,0.2,0,0.3,0c0.2,0,0.3,0.1,0.4,0.1
              c0.1,0.2,0.6,0.1,0.9,0.1c0-0.3,0.3-0.2,0-0.5c0,0,0,0-0.2,0c0,0-0.1,0-0.1,0l0,0c-0.2,0-0.4,0-0.7,0c0.2-0.1,0.4-0.3,0.7-0.1
              c0.1-0.2,0.3-0.4,0.4-0.5c0.4,0.4,1.1,0.6,1.2,0.8c0.8-0.2,1.9-0.1,2.4-0.6c0.2-0.1,0.3,0.2,0.4,0.2c-0.1,0.1-0.3,0-0.4,0.1
              c0.5-0.1,1.4-0.1,1.5-0.4c0.6,0.2-0.3,0.3,0.5,0.3l-0.1,0.1c1.6,0.6,2.5-0.9,4.3-0.2c-0.1,0-0.2-0.1-0.2-0.1
              c2,0.3,4.1-0.3,6,0.2c0.6,0.1,0.6-0.1,1-0.3l0.1,0.3l0.6-0.3c0.8-0.3,1.4,0.7,2.5,0.3l-0.1-0.2c0.4,0,1.2-0.1,1.1,0.1
              c0,0,0.1-0.2,0.3-0.1l0,0.2l0.9-0.3c0.7,0.1-0.1,0.6,0.9,0.7c0.4-0.1,1.1-0.5,1-0.6c-0.2,0-0.4-0.1-0.4-0.3l0.4-0.1
              c0.1-0.5,0.3-0.9-0.5-1.3l-0.6,0.3l-0.2-0.2l0.5,0c-0.3-0.2-0.5,0-0.7,0.1c0-0.1-0.1-0.2-0.3-0.2l-0.6,0.4
              c-0.1-0.2,0.3-0.4-0.1-0.5c-0.3,0.2,0.3,0.4-0.2,0.5c-0.3-0.2-0.2-0.4-0.5-0.2c0-0.1,0-0.2,0.2-0.2c-0.3,0.1-0.8,0.1-1,0.3
              c-0.3-0.3-1,0.1-1-0.4c-0.1,0.1-0.5,0.3-0.8,0.4c0.5-0.5-1,0-0.9-0.6c-0.4,0.5-1.4,0.2-2,0.5c0,0,0.1-0.1,0.2-0.1
              c-0.4,0-0.5-0.2-0.7-0.3c0,0.4-0.6,0.5-0.9,0.7c-0.5-0.4,0.3-0.5,0.1-0.8c0,0.3-0.8,0.3-0.6,0.6c-0.4-0.2-0.3-0.1-0.5-0.4
              c-0.1,0.5-0.3,0.1-0.6,0.4c-0.5-0.2-0.1-0.5-0.7-0.3C261.3,42.1,261.8,41.9,261.8,41.9z M248.5,42.7L248.5,42.7
              c0.1,0,0.2,0,0.3,0C248.7,42.7,248.7,42.7,248.5,42.7z M247.4,42.7c0.1,0,0.3,0,0.5,0c0,0.1,0,0.2-0.1,0.2
              C247.8,42.9,247.6,42.8,247.4,42.7z M249.8,44.7c-0.2,0-0.2,0-0.3-0.1c0.1,0,0.2,0,0.3,0l0,0
              C249.8,44.6,249.8,44.7,249.8,44.7z"/>
            <path class="st0" d="M250.1,44.3C250.1,44.3,250.1,44.3,250.1,44.3C250.1,44.3,250.1,44.3,250.1,44.3L250.1,44.3
              C250,44.3,250.1,44.3,250.1,44.3z"/>
            <path class="st0" d="M274.5,21.4L274.5,21.4C274.5,21.4,274.5,21.4,274.5,21.4C274.5,21.4,274.5,21.4,274.5,21.4z"/>
            <polygon class="st0" points="243.9,32.9 243.8,32.9 243.9,33             "/>
            <path class="st0" d="M273.6,27.5C273.5,27.5,273.5,27.5,273.6,27.5C273.5,27.6,273.5,27.5,273.6,27.5z"/>
            <path class="st0" d="M273.5,30.1l-0.1,0.4C273.5,30.3,273.5,30.2,273.5,30.1z"/>
            <path class="st0" d="M273.4,32.2c0,0,0.1,0,0.1,0l0,0L273.4,32.2z"/>
            <path class="st0" d="M272.4,2.6C272.4,2.6,272.4,2.6,272.4,2.6C272.2,2.6,272.3,2.6,272.4,2.6z"/>
            <path class="st0" d="M273.7,9.4c-0.1-0.1-0.1-0.2-0.1-0.3C273.5,9.3,273.5,9.4,273.7,9.4z"/>
            <polygon class="st0" points="261.7,2.9 261.7,2.9 261.6,2.9            "/>
            <path class="st0" d="M273.6,8.7c-0.1,0.2,0,0.3,0,0.4C273.6,9,273.6,8.8,273.6,8.7z"/>
            <path class="st0" d="M273.2,41L273.2,41c0,0.1,0,0.1,0,0.1L273.2,41z"/>
            <path class="st0" d="M273.3,41.1l0,0.1C273.3,41.2,273.3,41.1,273.3,41.1z"/>
            <path class="st0" d="M273.4,41.4l-0.1-0.2C273.3,41.3,273.3,41.4,273.4,41.4z"/>
            <path class="st0" d="M273.4,38.3l-0.1,0C273.3,38.3,273.3,38.3,273.4,38.3z"/>
            <path class="st0" d="M273.3,37.5c0,0.2-0.2,0.5-0.2,0.8l0.1,0C273.1,38.1,273.5,37.7,273.3,37.5z"/>
            <path class="st0" d="M274.6,34.1l-0.1,0.7c0.1-0.1,0.3-0.3,0.3,0C275.1,33.9,274.6,35,274.6,34.1z"/>
            <path class="st0" d="M274.8,31.9c0.1,0.4,0.2,0,0.2,0C274.9,31.7,274.9,31.7,274.8,31.9z"/>
            <path class="st0" d="M274.8,16.6l0.3,0C275,16.3,274.9,16.6,274.8,16.6z"/>
            <polygon class="st0" points="273.4,13.6 273.3,13.9 273.5,14             "/>
            <polygon class="st0" points="275.3,11.9 275.3,12 275.2,11.5             "/>
            <path class="st0" d="M258.7,0.4l0.1,0.3C259,0.7,259,0.3,258.7,0.4z"/>
            <path class="st0" d="M247.6,0.8c-0.1-0.2-0.4-0.3-0.6-0.1C247.2,0.7,247.4,0.8,247.6,0.8z"/>
            <polygon class="st0" points="241.4,30 241.3,29.7 241.4,30.2             "/>
          </g>
        </g>
      </g>
    </g>
  </g>
  <g>
    <polygon class="st1" points="268.9,17.2 249.4,17.2 259.1,27     "/>
    <g>
      <g>
        <g>
          <g>
            <path class="st0" d="M269.3,17.7c0-0.1-0.2-0.2-0.2-0.1l0.2,0.3L269.3,17.7z"/>
            <path class="st0" d="M268.6,17.6c0.1,0.2,0.2,0.4,0.4,0.6c-0.2-0.3-0.1-0.2-0.3-0.5c0-0.1,0.2,0,0.2,0.1c0-0.1,0.1,0,0-0.2
              c-0.2-0.1-0.3,0-0.3,0.2C268.7,17.7,268.6,17.6,268.6,17.6z"/>
            <path class="st0" d="M263.5,22L263.5,22C263.5,21.9,263.5,21.9,263.5,22z"/>
            <path class="st0" d="M260.4,24.8C260.5,24.7,260.4,24.7,260.4,24.8C260.4,24.7,260.4,24.7,260.4,24.8z"/>
            <path class="st0" d="M259.7,25C259.7,25,259.7,25,259.7,25C259.7,25,259.7,25,259.7,25z"/>
            <path class="st0" d="M263.5,22l-0.2,0C263.4,22,263.4,22,263.5,22z"/>
            <path class="st0" d="M268.5,18.8c0,0,0-0.1,0-0.1C268.5,18.7,268.5,18.8,268.5,18.8L268.5,18.8z"/>
            <path class="st0" d="M264.6,20.5L264.6,20.5c0-0.1,0-0.1-0.1-0.1L264.6,20.5z"/>
            <path class="st0" d="M265.5,19.5c0,0,0.2,0.2,0.2,0.3c-0.1-0.1-0.1-0.2-0.1-0.2C265.7,19.5,265.6,19.5,265.5,19.5z"/>
            <path class="st0" d="M267.5,18.2L267.5,18.2C267.5,18.2,267.5,18.2,267.5,18.2z"/>
            <path class="st0" d="M263.8,21.1C263.8,21.1,263.8,21.1,263.8,21.1C263.8,21.1,263.8,21.1,263.8,21.1z"/>
            <path class="st0" d="M267.2,15.9C267.2,15.9,267.2,16,267.2,15.9C267.3,15.9,267.3,15.9,267.2,15.9z"/>
            <polygon class="st0" points="268.9,17.3 268.8,17.3 268.8,17.5             "/>
            <path class="st0" d="M259.2,25L259.2,25C259.2,25,259.2,25,259.2,25z"/>
            <path class="st0" d="M252.7,18.9c-0.3,0.1-0.5-0.1-0.8,0C252,18.9,252.5,18.9,252.7,18.9z"/>
            <path class="st0" d="M268.4,18.8C268.4,18.8,268.4,18.8,268.4,18.8C268.4,18.8,268.4,18.8,268.4,18.8z"/>
            <path class="st0" d="M251.8,18.9L251.8,18.9L251.8,18.9C251.8,18.9,251.8,18.9,251.8,18.9z"/>
            <path class="st0" d="M258.2,24.4c0,0,0,0.1-0.1,0.1C258.2,24.5,258.2,24.5,258.2,24.4z"/>
            <path class="st0" d="M259,25.8L259,25.8C259,25.7,259,25.8,259,25.8z"/>
            <path class="st0" d="M257.1,23.9C257.1,23.8,257.1,23.8,257.1,23.9C257.1,23.8,257.1,23.8,257.1,23.9
              C257.1,23.8,257.1,23.8,257.1,23.9z"/>
            <path class="st0" d="M256.3,23C256.3,23,256.3,23.1,256.3,23L256.3,23L256.3,23z"/>
            <path class="st0" d="M263.6,16.1c0,0.1,0,0.2,0.1,0.3C263.6,16.1,263.8,16,263.6,16.1z"/>
            <path class="st0" d="M268.4,18.7c0,0.1,0.1,0.1,0.1,0.1L268.4,18.7C268.4,18.7,268.4,18.7,268.4,18.7z"/>
            <path class="st0" d="M255.5,25.4l-0.1-0.2C255.4,25.3,255.5,25.3,255.5,25.4z"/>
            <path class="st0" d="M255,16.1L255,16.1C255,16.1,255,16.1,255,16.1z"/>
            <path class="st0" d="M255,24.9c0-0.1,0.1-0.2,0.1-0.2c0,0,0,0-0.1,0L255,24.9z"/>
            <path class="st0" d="M263.7,16.3L263.7,16.3L263.7,16.3z"/>
            <path class="st0" d="M264.9,15.6c-0.2,0-0.1,0.4-0.1,0.6c-0.2,0.1-0.1-0.3-0.2-0.5c-0.1,0.1-0.2,0.4-0.3,0.4
              c0-0.1,0-0.1,0-0.2c-0.1,0.3-0.4,0-0.6,0.4c0,0,0-0.1,0-0.1c0,0.2,0,0.4,0,0.5c-0.1,0-0.2,0.2-0.2,0c0,0,0.1-0.1,0.1-0.2
              l-0.1,0.1c-0.1-0.3,0.1-0.1,0.1-0.4c-0.2,0.1-0.4,0.4-0.5,0.3c0-0.3,0.3-0.1,0.1-0.4l0.2,0.1c-0.2-0.5,0.1,0,0-0.5
              c-0.3-0.1-0.3,0.2-0.5,0.1c-0.1,0.2,0,0.3,0,0.5c-0.4,0.3-0.3-0.9-0.6-0.4c-0.1,0.2-0.1,0.7-0.3,0.4l0.1-0.4
              c-0.3,0-0.1,0.6-0.4,0.3c0-0.2,0.2-0.1,0.2-0.2c-0.2-0.3-0.1,0.2-0.3,0.2l0-0.3c-0.3,0.1-0.6,0.3-0.9,0.4c0-0.1,0.1-0.2,0-0.3
              c-0.4,0.2-0.8,0-1.2-0.2l-0.1,0.3c0,0-0.1-0.1,0-0.2c-0.1-0.1,0,0.2-0.1,0.3c-0.1,0-0.1-0.2-0.1-0.3c-0.2,0.2-0.7,0.5-1,0.2
              l0.1-0.1c-0.2-0.1-0.2,0.6-0.4,0.3l0-0.1c-0.4-0.1-0.9,0.1-1.3-0.3c-0.1,0.4-0.4-0.2-0.5,0.4c-0.3-0.3-0.2-0.4-0.5-0.6
              c-0.1,0-0.1,0.4-0.3,0.4l0-0.3l-0.2,0.3l-0.1-0.4l-0.1,0.1c0,0,0.1,0.1,0.1,0.2c-0.2,0.1-0.4-0.2-0.4-0.4l-0.4,0.3
              c0-0.1,0.1-0.2,0.1-0.2c-0.2,0.3,0-0.3-0.2,0c0,0.1,0,0.2,0,0.2c-0.1-0.2-0.3-0.2-0.5-0.1l0-0.2c-0.2,0-0.3,0-0.5,0
              c-0.3,0-0.6,0.1-0.9,0.1c0.3,0.1,0.3,0.5,0.2,0.5l-0.2-0.3c0,0.2,0.2,0.1,0.1,0.4c-0.2,0-0.3-0.4-0.2-0.5l-0.2,0.1
              c-0.1-0.1,0-0.1-0.1-0.3c0,0.2-0.7-0.3-0.7,0l-0.1-0.1c-0.7,0-0.8,0.1-1.3,0.1c0.3,0.3,0.1,0.2,0.2,0.4
              c-0.4-0.1-1.1-0.3-1.5-0.3c-0.1,0.1,0.3,0.2,0.5,0.4c-0.5-0.3-0.8-0.2-1-0.4c-0.4,0-0.6,0.1-0.7,0.3c0.3,0.1,0.5,0.2,0.6,0.2
              c0,0-0.5-0.1-0.7-0.2l0,0c0,0,0,0.1,0,0.1c0.4,0.3,0.2,0.3,0.1,0.5c-0.1,0.1,0,0.4,0.7,0.7l-0.1,0l0.9,0.5
              c0.1,0.2-0.4-0.2-0.6-0.1c0.6,0.3,0.7,0.5,0.8,0.6c0.1,0.2,0.2,0.3,0.6,0.5c-0.4,0.2-0.1,0.5,0.3,0.7c0.3,0.3,0.7,0.5,0.7,0.9
              l0.1-0.1c0.3,0,0,0.2,0.1,0.3c0.1-0.1,0-0.2,0.2-0.2c0.1,0.1,0.3,0.2,0.3,0.3c0.1,0.1,0.1,0.1,0.2,0.2
              c0.1,0.1,0.2,0.3,0.3,0.5c0.2,0.3,0.3,0.7,0.5,1c0.2,0.2,0.8-0.5,0.7,0l-0.3,0.2c0.7,0.1,0.8,0.8,1.4,0.9
              c-0.1,0-0.1,0.1-0.2,0.1c-0.1,0.2,0.3,0.3,0.4,0.2c0,0.1-0.1,0.1-0.1,0.2c0,0.2,0.4,0,0.3,0.2c0,0-0.1,0-0.1,0
              c0.1,0,0.2,0.3,0.4,0c0,0.2,0.3,0.2,0.3,0.4c0.3-0.1,0.1,0.3,0.5,0.1c-0.3,0.3,0,0.5,0.2,0.4c-0.1,0.1,0,0.2-0.2,0.3
              c0.1,0.1,0.3,0.1,0.4-0.1c-0.2,0.6,0.7,0.1,0.3,0.7c0.5,0.1,0.8,0.3,1.2,0.5c-0.4,0.3-0.3-0.3-0.7,0.1
              c0.3,0.1,0.9,0.1,1.2,0.5c0.1,0.2-0.1,0.1-0.2,0.2c0.5,0.2,0.8,0.9,1.2,0.9c0,0.1,0,0.1-0.1,0.1c0.1,0.1,0.2,0.3,0.2,0l-0.1,0
              c-0.1-0.3,0.1-0.4,0.1-0.6c0.1-0.2,0.1-0.4,0.1-0.5c-0.1,0.9,0.3-0.1,0.2,1c0-0.1,0.1-0.3,0.1-0.4c0.1,0,0.1,0.1,0.1,0.3
              c0.2-0.4,0.1-0.6,0.3-0.8c0,0.1,0,0.2,0,0.4c0.1-0.3,0.1-0.6,0.3-0.7c0,0.1,0.1,0.1,0,0.2c0.3-0.4,0.3-1,0.6-1
              c0.2,0.4,0.2,0,0.5,0.3l0-0.2l-0.2-0.1c0.1-0.1,0-0.4,0.2-0.4l0,0.2l0.2-0.3l-0.2,0c0-0.2-0.3-0.3-0.1-0.4
              c0,0.1,0.1-0.1,0.3,0l0,0c0-0.1-0.1-0.3,0.1-0.3c0.1,0.1,0.3,0.3,0.3,0.4c-0.2-0.3,0.2-0.3,0-0.6c0,0.1,0.2,0.2,0.2,0.2
              l-0.1-0.2c0.1,0,0.1,0,0.2,0.1c0.2-0.1-0.4-0.3-0.1-0.3c0,0,0,0,0,0.1c0.3-0.1,0.2-0.5,0.5-0.5c0.3,0.2-0.1,0.2,0.2,0.4
              c0.2-0.3,0.2-0.8,0.5-1l-0.1,0c-0.3-0.4,0.4,0,0.3-0.3c0,0.1,0.2,0.2,0.1,0.2c0.2-0.1,0.2-0.4,0.3-0.8l0.1,0.1
              c0.2,0,0.3-0.2,0.4-0.2c-0.1-0.1,0-0.2-0.2-0.3c0.9,0.2,0.3-0.9,1-0.7c0,0,0,0.2,0,0.1l0.1-0.3c-0.2-0.1-0.1-0.1-0.3-0.1
              c-0.1-0.1-0.1-0.3,0-0.3c0,0.2,0.3,0.3,0.4,0.3c-0.1,0-0.1-0.1-0.2-0.2c0.4,0.2-0.3-0.3,0.1-0.3l0.1,0.1c0-0.1,0-0.3,0.1-0.3
              c0.2,0.2,0,0.2,0.2,0.3c0.1-0.1-0.2-0.5,0.1-0.4c0,0.1,0,0.2,0,0.2c0.3,0.1,0.3,0.1,0.4,0l0,0l0.3-0.1l-0.1,0
              c-0.4-0.6,0.1-0.3,0-0.8c0.2,0.5,0.2,0.2,0.4,0.4c0.1,0,0.2,0,0.3,0.1c-0.1-0.2,0.3,0,0.1-0.3c0.1,0.1,0.1-0.1,0.2,0.1
              c0-0.2-0.1-0.1-0.2-0.2c-0.1-0.4,0.6-0.1,0.5-0.6c0.1-0.3-0.1-0.6-0.1-0.9c0.2,0.1,0.2,0.3,0.2,0.3c0.2,0,0.2-0.1,0.3-0.2
              c0,0.1,0.1,0.1,0.2,0.2c0.1-0.1-0.2-0.3,0-0.3c0.1,0.1,0.2,0.2,0.2,0.3c0-0.1,0-0.4,0-0.5c0.1,0.1,0.1,0.2,0.2,0.3
              c0-0.2,0.1-0.4,0-0.6l-0.1,0c0,0,0.2,0.1,0.2,0.2c0.1,0.2-0.2,0.1-0.3,0l0-0.1c-0.5-0.3-0.2,0.3-0.3,0.4l-0.2-0.3l0.1,0.4
              c-0.1,0-0.3-0.2-0.3-0.3c-0.2-0.1,0,0.2-0.2,0.1c0,0,0,0,0-0.1l0,0.2c0-0.1-0.2-0.2-0.1-0.2c-0.3,0,0,0.5-0.3,0.3l0,0
              c-0.1,0.3,0.2,0.2,0.3,0.7l-0.6-0.4l0.2,0.2c0,0-0.1,0-0.2-0.1c0.1,0.2,0.1,0.1,0.2,0.3c-0.3-0.1-0.2,0.4-0.6,0.1
              c0.1,0.2,0.2,0,0.2,0.3c-0.4-0.3-0.1,0.2-0.3,0.1c-0.2-0.2,0-0.2-0.2-0.3c0.3,0.4-0.3,0.1-0.3,0.3c0.3,0.3-0.1,0.3-0.1,0.5
              c-0.1-0.1-0.4,0.1-0.6,0.2l0,0c0.2,0.3,0.1,0.4,0,0.5c-0.2-0.2-0.2-0.2-0.2-0.4l-0.1,0.1c0.1,0.1,0.1,0.2,0,0.3l-0.2-0.2
              c-0.1,0.1,0,0.5-0.3,0.5c0.2,0.2,0.6,0.4,0.6,0.7c-0.1-0.1-0.3-0.3-0.3-0.3c0,0,0,0.1,0,0.1l-0.1-0.2c-0.1,0,0.1,0.2,0,0.2
              c-0.1-0.1-0.1-0.1-0.2-0.2c0,0,0.1,0,0.1-0.1c-0.1,0-0.2,0-0.4,0c0.1,0.1,0.2,0.2,0.2,0.3c-0.1,0.1-0.2-0.1-0.4-0.1
              c0.1,0.1-0.1,0.1,0.1,0.3c0,0-0.1-0.1-0.2-0.1c0,0.2-0.3,0.3,0,0.5l0,0c0,0,0,0,0,0l0,0l0,0c0,0.4-0.5,0.3-0.7,0.6l-0.1-0.1
              c0,0.2-0.2,0.3-0.2,0.6c0,0-0.2,0-0.3-0.1c0,0.1,0,0.2-0.2,0.3c0-0.2-0.1-0.1,0-0.2c-0.2,0.1-0.3,0-0.3,0.3
              c-0.1-0.2-0.3-0.1-0.3,0l0.2,0c0,0.1-0.1,0.1-0.2,0.2l-0.2-0.3c-0.5,0,0,0.9-0.6,0.6c0.1,0.2,0.3,0,0.4,0.2
              c-0.1,0.1-0.6-0.1-0.6-0.1c-0.3,0,0.2,0.5-0.1,0.6c0.1,0.1,0.3,0.3,0.3,0.5c-0.1,0.1-0.5-0.2-0.5-0.4c0,0,0.1,0,0.1,0
              c0-0.1,0-0.2-0.1-0.2l0.1,0.1c-0.1,0-0.3,0.1-0.4,0c0,0.2,0.1,0.2,0.2,0.2c-0.3,0-0.2,0.2-0.5,0.3c0.1,0,0.2,0.1,0.2,0.1
              c-0.3,0.1,0,0.3,0,0.4c-0.2-0.1-0.3-0.3-0.2-0.1c-0.1-0.1-0.2-0.3-0.2-0.3c0.1,0.2-0.2-0.1-0.2-0.1l0-0.1c0,0.1,0,0.1,0,0.1
              l0.1,0.2c0,0,0,0-0.1-0.1c0,0.2,0.2,0.4,0.2,0.7c-0.1-0.1-0.1,0.2-0.1-0.1c0.1,0.1-0.1-0.4,0-0.5c0,0,0,0.1,0,0
              c0,0,0-0.1,0-0.1c-0.1-0.3,0.1,0.4,0,0.5c0-0.2,0-0.4,0-0.4c0,0,0,0.4,0,0.6c0,0,0,0,0,0c0-0.2-0.1,0.1-0.1,0.1l0,0.1
              c0,0.2-0.1,0.2-0.1,0.2c0-0.2,0.1-0.1,0.1-0.2c-0.1,0.3,0-0.5-0.1-0.3c0-0.2,0.1-0.4,0.1-0.5c-0.1,0.2,0.1-0.3,0-0.1
              c-0.1,0.2-0.1,0.2-0.3,0.3c0,0,0.2,0,0.2-0.1c0,0-0.2,0.3-0.2,0.3c0,0,0.2-0.1,0.2,0c-0.1,0.2-0.1,0.1-0.2,0.3
              c0.1-0.4-0.2,0-0.2-0.2l0.4-0.5c0.2-0.2-0.4,0-0.5-0.3l0,0.1c-0.2,0.1-0.2-0.1-0.3-0.1c0.1-0.1,0.2-0.2,0.2-0.3
              c-0.1,0.1-0.2-0.2-0.5,0.1l0.1-0.3c-0.1-0.3-0.6,0.2-0.7,0c0.2-0.1,0.2-0.3,0.4-0.3c-0.1-0.1-0.1-0.1-0.2,0
              c0.1-0.1-0.3,0-0.3-0.2c-0.1,0-0.2,0.2-0.3,0.1c0,0,0.1-0.1,0.1-0.1c-0.1,0.1-0.2,0-0.3,0.2c0.3-0.6-0.5-0.5-0.3-1
              c-0.2-0.1-0.4-0.2-0.5-0.3c0,0,0.1-0.1,0.1,0c0-0.3-0.5,0.3-0.5,0c0.1-0.3,0.2,0,0.2-0.2c0.4-0.5-0.3-0.2-0.1-0.5l0.1,0
              c0.1-0.2-0.4,0-0.5-0.2c0,0,0,0,0.1-0.1c-0.3,0.1-0.6,0-0.8-0.1c0.2-0.1,0.2,0,0.3-0.2c-0.1,0-0.3,0.3-0.5,0.2
              c0.1-0.1,0.1-0.3,0.2-0.5l0.1,0.1c0.2-0.3-0.2-0.1-0.2-0.3l0.1-0.1c-0.2-0.1-0.5,0.1-0.7-0.1l-0.1,0.1
              c-0.4,0.2,0.1-0.2-0.2-0.2l0.2-0.3c-0.1,0-0.5,0-0.7-0.1c0.3-0.1,0.5-0.1,0.8-0.1c-0.1-0.1-0.3-0.2-0.4-0.1c0.1,0,0.2,0,0.1,0
              c-0.3,0.1-0.5,0.1-0.7,0c0.3-0.3,0.2-0.4,0.1-0.5c-0.1-0.1-0.2-0.3,0-0.5c-0.2,0-0.2,0-0.2-0.1c0-0.1,0.1-0.1,0-0.2
              c-0.7,0.1,0,0-0.8,0.1c-0.1,0-0.1-0.1-0.1-0.1c0,0,0.4-0.1,0.4-0.1c0.2,0,0.2,0,0.4,0c0,0,0.4,0,0.6,0c-0.3,0-0.5-0.1-0.4,0
              c0,0-0.4,0-0.4,0c-0.6-0.2,0.8,0.1,0.2-0.1l0.4,0.1c-0.2-0.1,0,0-1-0.4c0.1,0,0.5,0.1,0.6,0.2c0.1,0-0.6-0.3-0.8-0.4
              c0,0,0,0,0.3,0.1l0.3,0.1c-0.1,0-0.6-0.3-0.2-0.1c0.1,0.1,0.3,0.1,0.3,0.2c-0.1-0.1-0.5-0.3-0.3-0.2l0.3,0.2
              c0.4,0.2-0.6-0.4-0.6-0.5c0.5,0.3,0.8,0.5,1,0.7l0.1,0.1c0.1,0.1-0.3-0.4-0.2-0.5c0.2,0.2,0.2,0.3,0.3,0.3c0,0,0.1,0,0.1,0
              c0.1,0,0.2,0.1,0.3,0.1c-0.1-0.1,0-0.3,0.1-0.4c0.1,0.1,0.2-0.3,0.2,0.1l0,0c0.1,0.4,0.3,0.3,0.4,0.3l0-0.5
              c0.4,0.8,1-0.3,1.2,0.4c0.1-0.1,0.2-0.1,0.3-0.3l0,0.3c0.3,0.1,0.4,0.1,0.7,0l-0.1,0.2c0.2,0,0.2-0.8,0.4-0.8l0,0.4
              c0.3,0,0.6,0.4,0.9,0c0,0.1,0,0.2-0.1,0.2c0.1,0,0.6,0.3,0.5-0.3c0,0.4,0.3,0,0.5-0.1l0,0.3c0.1-0.4,0.1-0.5,0.3-0.6
              c0,0,0,0.2,0,0.2c0.2,0.1,0.1-0.3,0.3-0.1l-0.1,0.2c0.2,0,0.1-0.1,0.2-0.3c0.1-0.1,0.3,0.1,0.3,0.3c0-0.2,0.1-0.4,0.2-0.3
              c0,0.1,0,0.2,0,0.2c0.3,0.2,0.4-0.3,0.6-0.1c0,0.1,0,0.1,0,0.2c-0.2,0-0.4,0-0.4,0c0,0.3,0.2,0.3,0,0.7
              c0.1-0.2,0.4-0.6,0.5-0.5c0,0,0,0,0,0.1l0,0c0,0,0.1,0,0.1,0c0.1,0,0.1,0.1,0.1,0.1c0,0.2,0.2,0.1,0.3,0.1
              c0-0.3,0.1-0.2,0-0.5c0,0,0,0-0.1,0c0,0,0,0,0,0l0,0c-0.1,0-0.1,0-0.2,0c0.1-0.1,0.1-0.3,0.2-0.1c0-0.2,0.1-0.4,0.1-0.5
              c0.1,0.4,0.3,0.6,0.4,0.8c0.3-0.2,0.6-0.1,0.8-0.6c0.1-0.1,0.1,0.2,0.1,0.2c0,0.1-0.1,0-0.1,0.1c0.1-0.1,0.4-0.1,0.5-0.4
              c0.2,0.2-0.1,0.3,0.2,0.3l0,0.1c0.5,0.6,0.8-0.9,1.4-0.2c0,0-0.1-0.1-0.1-0.1c0.6,0.3,1.3-0.3,1.9,0.2
              c0.2,0.1,0.2-0.1,0.3-0.3l0,0.3l0.2-0.3c0.3-0.3,0.5,0.7,0.8,0.3l0-0.2c0.1,0,0.4-0.1,0.4,0.1c0,0,0-0.2,0.1-0.1l0,0.2
              l0.3-0.3c0.2,0.1,0,0.6,0.3,0.7c0.1-0.1,0.4-0.5,0.3-0.6c0,0-0.1-0.1-0.1-0.3l0.1-0.1c0-0.5,0.1-0.9-0.2-1.3l-0.2,0.3
              l-0.1-0.2l0.2,0c-0.1-0.2-0.2,0-0.2,0.1c0-0.1,0-0.2-0.1-0.2l-0.2,0.4c0-0.2,0.1-0.4,0-0.5c-0.1,0.2,0.1,0.4-0.1,0.5
              c-0.1-0.2-0.1-0.4-0.2-0.2c0-0.1,0-0.2,0.1-0.2c-0.1,0.1-0.3,0.1-0.3,0.3c-0.1-0.3-0.3,0.1-0.3-0.4c0,0.1-0.2,0.3-0.3,0.4
              c0.2-0.5-0.3,0-0.3-0.6c-0.1,0.5-0.4,0.2-0.6,0.5c0,0,0-0.1,0.1-0.1c-0.1,0-0.2-0.2-0.2-0.3c0,0.4-0.2,0.5-0.3,0.7
              c-0.1-0.4,0.1-0.5,0-0.8c0,0.3-0.3,0.3-0.2,0.6c-0.1-0.2-0.1-0.1-0.2-0.4c0,0.5-0.1,0.1-0.2,0.4c-0.2-0.2,0-0.5-0.2-0.3
              C264.8,15.8,264.9,15.6,264.9,15.6z M260.7,16.5L260.7,16.5C260.7,16.5,260.7,16.5,260.7,16.5
              C260.7,16.5,260.7,16.5,260.7,16.5z M260.3,16.5c0,0,0.1,0,0.2,0c0,0.1,0,0.2,0,0.2C260.5,16.6,260.4,16.6,260.3,16.5z
               M261.1,18.4C261,18.5,261,18.4,261.1,18.4c-0.1-0.1,0-0.1,0-0.1l0,0C261.1,18.4,261.1,18.4,261.1,18.4z"/>
            <path class="st0" d="M261.2,18.1C261.2,18.1,261.2,18.1,261.2,18.1C261.2,18,261.2,18,261.2,18.1L261.2,18.1L261.2,18.1z"/>
            <path class="st0" d="M263.6,22L263.6,22C263.6,22,263.6,22,263.6,22C263.6,22,263.6,22,263.6,22z"/>
            <polygon class="st0" points="255.4,16 255.4,16 255.4,16             "/>
            <path class="st0" d="M265.6,21.2C265.7,21.3,265.7,21.3,265.6,21.2C265.7,21.3,265.7,21.3,265.6,21.2z"/>
            <path class="st0" d="M266.3,20.7l0.2,0C266.4,20.7,266.3,20.7,266.3,20.7z"/>
            <path class="st0" d="M266.8,20.3C266.8,20.3,266.8,20.3,266.8,20.3L266.8,20.3L266.8,20.3z"/>
            <path class="st0" d="M258.9,28.3C258.9,28.3,258.9,28.3,258.9,28.3C258.8,28.3,258.8,28.3,258.9,28.3z"/>
            <path class="st0" d="M261.5,25.2c0,0.1,0,0.1,0,0.2C261.5,25.4,261.6,25.4,261.5,25.2z"/>
            <polygon class="st0" points="255.5,25.4 255.5,25.4 255.5,25.4             "/>
            <path class="st0" d="M261.4,25.5c0.1,0,0.1,0,0.1-0.1C261.4,25.4,261.4,25.4,261.4,25.5z"/>
            <path class="st0" d="M268.9,18.4L268.9,18.4C268.9,18.4,268.9,18.4,268.9,18.4L268.9,18.4z"/>
            <path class="st0" d="M268.9,18.4L268.9,18.4C268.9,18.3,268.9,18.3,268.9,18.4z"/>
            <path class="st0" d="M268.9,18.2l0,0.1C268.9,18.3,269,18.3,268.9,18.2z"/>
            <path class="st0" d="M268.2,18.9L268.2,18.9C268.3,19,268.3,19,268.2,18.9z"/>
            <path class="st0" d="M268.1,19.1c0.1,0,0.3,0,0.3-0.1l-0.1-0.1C268.4,19.2,268,19,268.1,19.1z"/>
            <path class="st0" d="M266.4,19l0.2-0.1c-0.1,0-0.2-0.1-0.2-0.2C266,18.7,266.6,18.9,266.4,19z"/>
            <path class="st0" d="M265.8,19.4c0-0.1-0.1-0.1-0.2-0.2C265.7,19.4,265.7,19.4,265.8,19.4z"/>
            <path class="st0" d="M262.3,22.9l-0.2-0.2C262.1,22.8,262.2,22.8,262.3,22.9z"/>
            <polygon class="st0" points="262.6,24.5 262.8,24.5 262.6,24.3             "/>
            <polygon class="st0" points="260.9,23.6 260.9,23.5 260.9,23.7             "/>
            <path class="st0" d="M256.6,23l-0.2,0.2C256.5,23.2,256.7,23,256.6,23z"/>
            <path class="st0" d="M253.9,20.7c0.1-0.1,0.1-0.3-0.1-0.2C253.8,20.6,253.8,20.7,253.9,20.7z"/>
            <polygon class="st0" points="254.5,18.5 254.4,18.6 254.5,18.5             "/>
          </g>
        </g>
      </g>
    </g>
  </g>
</g>
</svg>
