<!-- Generator: Adobe Illustrator 19.2.0, SVG Export Plug-In  -->
<svg version="1.1"
   xmlns="http://www.w3.org/2000/svg" xmlns:xlink="http://www.w3.org/1999/xlink" xmlns:a="http://ns.adobe.com/AdobeSVGViewerExtensions/3.0/"
   x="0px" y="0px" width="22.1px" height="22.8px" viewBox="0 0 22.1 22.8" style="enable-background:new 0 0 22.1 22.8;"
   xml:space="preserve">
<style type="text/css">
  .st0{fill:#484B9F;}
  .st1{fill:#2E3191;}
</style>
<defs>
</defs>
<g>
  <g>
    <g>
      <g>
        <g>
          <g>
            <path class="st0" d="M20.5,11.4c0.1,0,0.3,0,0.2-0.1l-0.3-0.1L20.5,11.4z"/>
            <path class="st0" d="M21.1,10.8c-0.2-0.1-0.5-0.2-0.8-0.1c0.3,0.1,0.2,0.1,0.6,0.2c0,0.1-0.1,0.2-0.2,0.1
              c0.1,0-0.1,0.1,0.1,0.2c0.3-0.1,0.3-0.3,0-0.4C20.9,10.7,21,10.8,21.1,10.8z"/>
            <path class="st0" d="M17.2,2.9L17.2,2.9C17.3,2.9,17.3,2.9,17.2,2.9z"/>
            <path class="st0" d="M11.9,0.8C11.9,0.8,11.9,0.7,11.9,0.8C11.9,0.7,11.9,0.7,11.9,0.8z"/>
            <path class="st0" d="M10.9,0.4C10.9,0.4,10.9,0.4,10.9,0.4C10.9,0.4,10.9,0.4,10.9,0.4z"/>
            <path class="st0" d="M17.2,2.9l-0.1-0.2C17.1,2.8,17.2,2.8,17.2,2.9z"/>
            <path class="st0" d="M20.2,9.7C20.2,9.7,20.2,9.7,20.2,9.7C20.2,9.7,20.2,9.7,20.2,9.7L20.2,9.7z"/>
            <path class="st0" d="M19.3,4.4L19.3,4.4c0.1,0,0.1,0,0.2,0L19.3,4.4z"/>
            <path class="st0" d="M20.5,6c0,0-0.3,0.1-0.4,0.1c0.1,0,0.2,0,0.2,0C20.4,6.1,20.5,6.1,20.5,6z"/>
            <path class="st0" d="M21.2,9.1L21.2,9.1C21.2,9.1,21.2,9.1,21.2,9.1z"/>
            <path class="st0" d="M18.4,3.3C18.4,3.3,18.4,3.3,18.4,3.3C18.4,3.3,18.4,3.3,18.4,3.3z"/>
            <path class="st0" d="M19.7,13.2C19.7,13.2,19.7,13.2,19.7,13.2C19.7,13.2,19.7,13.2,19.7,13.2z"/>
            <polygon class="st0" points="21.3,11.4 21.3,11.4 21.4,11.4            "/>
            <path class="st0" d="M8.9,0.2C8.9,0.2,8.9,0.2,8.9,0.2C9,0.2,8.9,0.2,8.9,0.2z"/>
            <path class="st0" d="M0.3,13.7c0.2-0.2,0.4,0.2,0.6-0.1C0.8,13.7,0.4,13.5,0.3,13.7z"/>
            <path class="st0" d="M20.2,9.6C20.2,9.6,20.2,9.6,20.2,9.6C20.2,9.6,20.2,9.6,20.2,9.6z"/>
            <path class="st0" d="M0.9,13.6L0.9,13.6L0.9,13.6C0.9,13.6,0.9,13.6,0.9,13.6z"/>
            <path class="st0" d="M4.9,2.1c0,0,0.1,0.1,0.1,0.1C5,2.2,4.9,2.1,4.9,2.1z"/>
            <path class="st0" d="M8,1.1L8,1.1C7.9,1.1,7.9,1.1,8,1.1z"/>
            <path class="st0" d="M3.8,3.5c0,0-0.1,0-0.1,0.1C3.7,3.6,3.7,3.6,3.8,3.5C3.7,3.5,3.7,3.5,3.8,3.5z"/>
            <path class="st0" d="M2.6,4.8C2.7,4.8,2.7,4.8,2.6,4.8L2.6,4.8L2.6,4.8z"/>
            <path class="st0" d="M17.9,17.1c0.1,0,0.2,0.1,0.2,0.1C18,17.1,18.1,16.9,17.9,17.1z"/>
            <path class="st0" d="M20.3,9.7c-0.1,0-0.1,0-0.1,0c0,0,0,0,0,0C20.3,9.7,20.3,9.7,20.3,9.7z"/>
            <path class="st0" d="M5.3,5.1L5.1,5.3C5.2,5.2,5.2,5.2,5.3,5.1z"/>
            <path class="st0" d="M8.7,19.9L8.7,19.9C8.8,19.8,8.8,19.9,8.7,19.9z"/>
            <path class="st0" d="M4.7,5.8c-0.1,0-0.2,0-0.2,0c0,0,0,0,0,0.1L4.7,5.8z"/>
            <path class="st0" d="M18.1,17.2L18.1,17.2L18.1,17.2z"/>
            <path class="st0" d="M18.4,15.6c-0.1,0.2,0.3,0.3,0.4,0.4c0,0.3-0.3,0-0.5-0.1c0,0.2,0.2,0.5,0.1,0.6c-0.1,0-0.1,0-0.1-0.1
              c0.1,0.3-0.3,0.4-0.1,0.8c0,0-0.1,0-0.1,0c0.2,0.1,0.3,0.2,0.4,0.3c-0.1,0.1,0,0.3-0.2,0.2c0,0,0-0.1-0.1-0.2l0,0.1
              c-0.3-0.2,0-0.2-0.2-0.4c0,0.2,0,0.6-0.2,0.6c-0.3-0.2,0.2-0.4-0.2-0.4l0.3-0.1c-0.5-0.2,0.1-0.1-0.4-0.3
              c-0.3,0.1-0.1,0.4-0.4,0.5c0.1,0.2,0.2,0.2,0.3,0.4c-0.1,0.6-0.8-0.4-0.8,0.2c0.1,0.2,0.3,0.6,0,0.5l-0.2-0.4
              c-0.3,0.1,0.2,0.5-0.2,0.5c0-0.2,0.1-0.2,0.1-0.3c-0.3-0.1,0,0.3-0.1,0.4l-0.2-0.3c-0.2,0.2-0.4,0.6-0.7,0.8
              c0-0.1,0-0.2-0.1-0.3c-0.2,0.2-0.4,0.3-0.6,0.3c-0.2,0-0.5,0-0.7,0l-0.1,0.3c0,0-0.1-0.1-0.1-0.2c-0.2-0.1,0,0.2,0,0.3
              c-0.1,0-0.2-0.1-0.1-0.2c-0.2,0.3-0.7,0.7-1.1,0.5l0-0.1c-0.3-0.1-0.2,0.6-0.5,0.4l0-0.1c-0.5-0.1-1.1,0.2-1.5-0.3
              c-0.1,0.4-0.5-0.2-0.6,0.4c-0.3-0.3-0.2-0.4-0.5-0.7c-0.1,0-0.2,0.3-0.4,0.4l0.1-0.3l-0.3,0.3l0-0.4l-0.1,0c0,0,0.1,0.2,0,0.2
              c-0.2,0.1-0.4-0.3-0.4-0.5l-0.5,0.1c0.1-0.1,0.1-0.1,0.2-0.2c-0.4,0.2,0.1-0.3-0.2-0.1c0,0.1-0.1,0.2-0.1,0.2
              c0-0.2-0.3-0.3-0.5-0.3l0.1-0.2c-0.3-0.2-0.7-0.3-1-0.5c0.1,0.2-0.2,0.5-0.3,0.4l0.1-0.3c-0.2,0.1,0,0.2-0.2,0.3
              c-0.1-0.1,0.1-0.4,0.3-0.4l-0.2,0c0-0.1,0.1-0.1,0.2-0.2c-0.2,0.1,0-0.4-0.3-0.2L6,18.1c-0.3-0.2-0.5-0.3-0.7-0.5
              C5,17.8,5,17.7,4.8,17.8c-0.1-0.2-0.1-0.6-0.3-0.8c-0.2-0.1-0.2,0.1-0.4,0.1c0.2-0.2,0-0.4,0.2-0.4c-0.2-0.3-0.3-0.3-0.7-0.6
              c-0.1,0.1-0.1,0.2-0.2,0.2c-0.1,0,0-0.2,0.1-0.3l0,0c-0.6-0.3,0.1-1.3-0.5-1.5l0,0l-0.4-0.3c0-0.2,0.2,0,0.3-0.1
              c-0.6-0.3-0.1-0.7-0.5-0.9c0.3-0.2,0.3-0.4,0.2-0.7c-0.1-0.2-0.2-0.5,0-0.7l-0.2,0c-0.2-0.1,0.1-0.1,0.1-0.2
              c-0.1,0-0.2,0.1-0.3,0.1C2.1,11,2.7,10.1,3,9.4C3.2,9.1,2.2,9,2.7,8.7L3,8.9C2.9,8.6,3,8.3,3.1,8c0.1-0.3,0.3-0.5,0.3-0.9
              c0,0.1,0.1,0.1,0.1,0.2c0.3,0,0.2-0.4,0.1-0.5c0.1-0.1,0.2,0.1,0.3,0.1c0.2,0-0.1-0.4,0.1-0.4c0,0,0,0.1,0,0.1
              c0-0.1,0.3-0.3,0-0.4c0.2-0.1,0.2-0.4,0.4-0.5C4.3,5.4,4.8,5.6,4.5,5.2C4.9,5.5,5,5.2,5,4.9c0.1,0.1,0.2,0,0.3,0.2
              c0.1-0.1,0.2-0.3,0-0.4C5.9,4.9,5.5,4,6.1,4.4C6.3,3.9,6.6,3.6,7,3.2c0.2,0.4-0.4,0.3-0.2,0.7C7.1,3.5,7.1,3.1,7.6,3
              c0.1,0,0,0.2,0,0.3c0.3-0.3,0.8-0.3,1-0.6c0,0,0,0.1,0,0.1c0.1,0,0.2,0,0.1-0.2L8.6,2.7C8.4,2.5,8.8,2.1,8.7,1.9
              c0,0.6,0.4,0,0.4,0.8c0,0,0.1-0.2,0-0.3c0.1,0,0.1,0.1,0.1,0.3c0.2-0.2,0.1-0.4,0.3-0.4c0,0.1,0,0.1,0,0.3
              C9.7,2.4,9.8,2.1,10,2.2c0,0.1,0,0.1,0,0.1c0.3-0.1,0.6-0.6,1-0.4c-0.1,0.4,0.1,0.1,0.2,0.5c0,0,0.2-0.1,0.2-0.1l-0.1-0.2
              c0.2,0,0.4-0.2,0.5-0.1l-0.1,0.1l0.4-0.1L11.7,2c0.2-0.2,0-0.5,0.3-0.4c-0.1,0,0.2,0,0.3,0.3l0,0c0.1-0.1,0.2-0.2,0.4-0.1
              c0,0.1-0.1,0.4-0.1,0.5c0.1-0.3,0.4,0,0.6-0.3c-0.1,0.1-0.1,0.3-0.1,0.3L13.2,2c0.1,0.1,0.1,0.1,0,0.3c0.2,0.1,0-0.5,0.3-0.2
              c0,0,0,0.1-0.1,0.1c0.3,0.2,0.6,0,0.9,0.2c0,0.4-0.3,0-0.3,0.3c0.4,0.1,1-0.1,1.3,0.1l-0.1-0.1c0.3-0.4,0.2,0.4,0.5,0.2
              c-0.1,0-0.2,0.2-0.2,0.2c0.2,0.2,0.5,0.2,1,0.3l-0.1,0.1c0.1,0.2,0.3,0.3,0.4,0.5C17,4,17.1,4,17.1,3.8c0,0.5,0.2,0.6,0.5,0.6
              c0.3,0.1,0.5,0.2,0.5,0.6c0,0-0.2,0-0.1,0l0.4,0.2c0.2-0.2,0.1-0.1,0.1-0.3c0.1-0.1,0.3,0,0.4,0.1c-0.2,0-0.3,0.2-0.3,0.4
              c0-0.1,0.1-0.1,0.2-0.1C18.5,5.7,19.1,5,19,5.4l-0.1,0.1c0.1,0.1,0.3,0,0.4,0.2c-0.2,0.2-0.2,0-0.4,0.1c0.1,0.1,0.6,0,0.5,0.3
              c-0.1,0-0.2-0.1-0.3-0.1C19,6.2,19,6.2,19.1,6.3l0,0l0,0.3l0-0.1c0.7-0.2,0.3,0.3,0.9,0.3c-0.5-0.1-0.2,0.1-0.5,0.2
              c0,0.1-0.1,0.2-0.2,0.3c0.3,0-0.1,0.3,0.3,0.3c-0.1,0,0.1,0.1-0.2,0.2c0.1,0.1,0.1-0.1,0.3-0.1c0.4,0.1-0.2,0.7,0.4,0.9
              c0.3,0.3,0.6,0.2,0.8,0.5c-0.1,0.1-0.4,0-0.4,0c-0.1,0.2,0,0.3,0.1,0.4c-0.1,0-0.2,0-0.3,0.1c0,0.1,0.4,0,0.2,0.2
              c-0.1,0-0.3,0-0.4-0.1c0.1,0.1,0.3,0.2,0.4,0.4c-0.2,0.1-0.3-0.1-0.4-0.1c0.1,0.2,0.2,0.4,0.5,0.4l0.1-0.1
              c0,0.1-0.2,0.1-0.3,0c-0.2-0.1,0.1-0.2,0.2-0.2l0.1,0.1c0.5-0.2-0.2-0.4-0.2-0.7l0.4,0l-0.4-0.2c0.1-0.1,0.3-0.2,0.4-0.1
              c0.2-0.2-0.2-0.1,0-0.3c0,0,0.1,0,0.1,0L21,8.9c0.1,0,0.3-0.1,0.2,0c0.2-0.4-0.4-0.4-0.1-0.6l0,0c-0.3-0.4-0.3,0-0.7-0.1
              l0.6-0.4l-0.3,0.1c0,0,0-0.1,0.1-0.2c-0.3-0.1-0.1,0.1-0.3,0.1c0.2-0.3-0.3-0.5,0.1-0.7c-0.2,0-0.1,0.3-0.3,0.1
              c0.4-0.3-0.2-0.2-0.1-0.5c0.3-0.1,0.2,0.2,0.3-0.1c-0.5,0.1-0.1-0.4-0.2-0.5C20,6.3,20,5.9,19.8,5.7c0.1-0.1-0.1-0.5-0.2-0.8
              l0.1,0c-0.3,0.2-0.4-0.1-0.6-0.2c0.2-0.1,0.3-0.2,0.4-0.1l-0.1-0.1c-0.1,0-0.2,0-0.3,0l0.2-0.1c-0.2-0.2-0.6-0.1-0.7-0.5
              c-0.2,0.2-0.3,0.7-0.7,0.6c0.1-0.1,0.2-0.3,0.3-0.3c0,0-0.2,0-0.2-0.1l0.3-0.1c0-0.2-0.2,0.1-0.3,0c0.1-0.1,0-0.2,0.2-0.3
              c0,0,0,0.1,0.1,0.1c-0.1-0.1-0.1-0.3,0-0.4c-0.1,0.1-0.2,0.2-0.3,0.2c-0.2-0.2,0.1-0.2,0.1-0.4C18,3.1,18,2.9,17.8,3.2
              c-0.1,0,0-0.2,0-0.2c-0.2,0-0.5-0.3-0.6,0l0,0c0,0,0,0,0,0l0,0l0,0c-0.5,0-0.6-0.6-1-0.7l0-0.1c-0.3,0-0.5-0.2-0.8-0.1
              c-0.1,0-0.1-0.2,0-0.3c-0.2,0-0.3,0.1-0.4-0.2c0.2-0.1,0-0.2,0.2-0.1c-0.2-0.2-0.2-0.3-0.5-0.2C15,1.2,14.7,1,14.6,1.1
              l0.1,0.2c-0.1,0-0.2-0.1-0.3-0.1l0.2-0.3c-0.4-0.5-1,0.4-1.3-0.3c-0.2,0.2,0.2,0.2,0.1,0.5c-0.2-0.1-0.4-0.6-0.5-0.6
              c-0.3-0.2-0.4,0.4-0.7,0.3c0,0.1,0,0.4-0.2,0.5c-0.2-0.1-0.2-0.5-0.1-0.6c0.1,0,0.1,0,0.1,0.1c0.1,0,0.2-0.1,0.1-0.2l0,0.1
              c-0.1-0.1-0.4-0.1-0.3-0.3c-0.2,0.1-0.1,0.2,0,0.3c-0.3-0.2-0.5,0-0.8-0.1C11,0.5,11,0.6,11,0.6c-0.5-0.1-0.2,0.2-0.5,0.3
              c-0.2-0.2,0-0.4-0.3-0.3c-0.2-0.1-0.1-0.3,0-0.4C10,0.5,9.7,0.1,9.5,0.1L9.7,0C9.6,0.1,9.5,0.1,9.4,0.1l0.1,0.2
              c-0.1,0-0.2,0-0.2-0.1c-0.1,0.2,0.1,0.4,0,0.6C9.2,0.7,9,1,8.9,0.7c0.4,0-0.1-0.3,0.2-0.4c-0.1,0-0.1,0.1-0.2,0
              c0,0,0-0.1,0-0.1C8.5,0,8.8,0.6,8.5,0.7c0-0.2-0.2-0.3-0.2-0.3c0.1,0,0.1,0.3,0,0.4C8,0.8,8.1,1,8,1.1l0.2,0
              c0,0.2-0.1,0.2-0.2,0.3C7.8,1.3,8,1.2,7.9,1.2C7.8,1.6,7.4,1,7.3,1.3C7.1,1.2,7.1,1,7,1C6.8,1.3,6.6,0.9,6.4,1.2
              c0.2,0.2,0.2,0.1,0.1,0.4l0.4-0.4L6.7,1.7C6.9,1.6,6.9,1.4,7,1.4C7,1.7,7,1.6,7.1,1.7C6.8,1.5,6.9,2.1,6.6,2L6.3,1.4
              C5.8,1.4,5.9,2,5.4,2.1l0.2,0c0.1,0.2-0.2,0.2-0.3,0.3C5.2,2.3,5.1,2.3,5,2.2c0.1,0.1-0.3,0.2-0.1,0.5L4.6,2.6
              c-0.4,0.1,0,0.7-0.3,0.9C4.2,3.3,4,3.3,4.1,3C4,3.1,3.9,3.1,4,3.2c-0.1,0-0.1,0.4-0.3,0.3c0,0.1,0.2,0.3,0.1,0.3
              c0,0-0.1-0.1-0.1-0.1c0.1,0.1,0,0.2,0.2,0.3C3.2,4,3.3,4.9,2.7,4.8C2.6,5,2.5,5.3,2.4,5.5c0,0-0.1-0.1,0-0.1
              C2,5.6,2.7,5.9,2.3,6.1C2,6.1,2.3,5.8,2.1,5.8C1.6,5.6,2,6.3,1.5,6.3l0-0.1C1.3,6.3,1.6,6.7,1.4,7c0,0,0,0-0.1,0
              c0.2,0.3,0.2,0.7,0.2,1C1.3,7.8,1.4,7.8,1.1,7.8c0,0.1,0.4,0.1,0.4,0.4c-0.2,0-0.3,0.2-0.6,0.1C0.9,8.2,1,8,1,8
              C0.6,8,0.9,8.3,0.8,8.4L0.6,8.3c0,0.4,0.3,0.5,0.2,0.9l0.1,0c0.3,0.3-0.2,0.1,0,0.4l-0.4,0c0.1,0.2,0.3,0.6,0.3,0.8
              c-0.3-0.2-0.4-0.5-0.5-0.7c0,0.1,0,0.5,0.1,0.6c0-0.1-0.1-0.1,0-0.2c0.3,0.2,0.4,0.4,0.4,0.7c-0.8-0.1-0.2,0.7-0.8,0.9
              c0.2,0.3,0.1,0.5,0.1,0.8c0,0.3-0.1,0.6,0,0.9c0.6-0.3,0,0.2,0.6,0c0.1,0.1,0.1,0.2,0,0.2l-0.3,0.5c-0.1,0.1-0.2-0.1-0.3-0.1
              c0,0.3-0.2,0.2-0.3,0.4c0.2-0.1,0.3,0,0.3,0.2l0.2-0.3c0.4,0.3-0.4,0.5,0.1,0.8l-0.2-0.1C0.5,15.4,0.6,16,1.2,16
              c0,0.1-0.2,0.2-0.3,0.1c0.2,0.6,1,0.8,1,1.3l-0.1,0c0.1,0.1,0.3,0,0.3,0.2c-0.1,0-0.1,0.1-0.1,0.1c0.1,0,0.4,0.1,0.4,0.2
              l-0.2,0c0.2,0.6,0.8,0.4,1.2,0.6c-0.3,0.3-0.2,0.7,0,0.9l0,0c0.4,0.5,1,0.5,1.6,0.6c0,0.6,0.9,0.8,1.3,1.3
              c0-0.1,0.2-0.3,0.3-0.3c0.1,0.1,0.5-0.1,0.3,0.2l0,0c-0.1,0.4,0.2,0.4,0.4,0.5l0.2-0.5C7.3,21.9,7.7,22,8,22
              c0.3,0,0.7,0,0.7,0.4c0.2-0.1,0.3-0.1,0.5-0.2l-0.1,0.3c0.4,0.1,0.5,0.2,1,0.2l-0.1,0.2c0.3,0,0.4-0.8,0.6-0.8l0.1,0.4
              c0.4,0,0.9,0.4,1.4,0c0,0.1,0,0.2-0.1,0.2c0.2,0,0.9,0.2,0.7-0.4c0.1,0.4,0.5,0,0.7-0.2l0,0.3c0.1-0.4,0.1-0.5,0.4-0.7
              c0.1,0,0.1,0.2,0,0.2c0.3,0.1,0.1-0.3,0.4-0.2l0,0.2c0.2,0,0.2-0.1,0.2-0.4c0.1-0.2,0.4-0.1,0.5,0.1c0-0.2,0-0.4,0.2-0.4
              c0.1,0.1,0,0.2,0,0.2c0.4,0.1,0.4-0.5,0.7-0.4c0,0.1,0.1,0.1,0.1,0.1c-0.3,0.1-0.5,0.2-0.5,0.2c0.1,0.2,0.3,0.2,0.3,0.6
              c0.1-0.3,0.2-0.8,0.5-0.8c0,0,0,0,0.1,0.1l0,0c0.1,0,0.1,0,0.1-0.1c0.1,0,0.1,0,0.2,0c0.1,0.2,0.3-0.1,0.4-0.1
              c-0.2-0.2,0-0.3-0.2-0.4c0,0,0,0-0.1,0.1c0,0,0,0,0,0.1l0,0c-0.1,0-0.2,0.1-0.3,0.2c0-0.2,0-0.3,0.2-0.3
              c0-0.2-0.1-0.4-0.1-0.5c0.3,0.3,0.7,0.3,0.9,0.4c0.2-0.4,0.7-0.6,0.5-1.2c0-0.1,0.2,0,0.3,0.1c0,0.1-0.1,0.1,0,0.2
              c0.1-0.2,0.4-0.5,0.2-0.8c0.3-0.1,0.1,0.3,0.3,0l0,0.1c0.5-0.1,0.5-0.5,0.5-0.8c0-0.4,0-0.7,0.6-0.8c-0.1,0-0.1,0-0.2,0
              c0.8-0.6,0.7-1.7,1.4-2.3c0.2-0.2,0-0.3-0.1-0.5l0.3,0l-0.3-0.4c-0.2-0.4,0.9-0.4,0.5-1l-0.2,0c0.1-0.2,0-0.5,0.2-0.5
              c0,0-0.2-0.1-0.1-0.1l0.2,0c0,0-0.1-0.1-0.1-0.2c-0.1-0.1-0.1-0.2-0.1-0.2c0.1-0.3,0.6,0.1,0.7-0.4c-0.1-0.2-0.4-0.5-0.5-0.4
              c0,0.1-0.1,0.2-0.3,0.2l-0.1-0.2c-0.5,0-0.9-0.1-1.3,0.2l0.3,0.2L20,11.9l0-0.2c-0.2,0.1,0,0.2,0.1,0.3c-0.1,0-0.2,0-0.3,0.1
              l0.4,0.3c-0.2,0-0.3-0.1-0.5,0c0.2,0.1,0.4-0.1,0.5,0.1c-0.2,0.1-0.4,0-0.2,0.2c-0.1,0-0.2,0-0.2-0.1c0.1,0.1,0,0.3,0.2,0.4
              c-0.3,0.1,0,0.4-0.4,0.3c0.1,0.1,0.3,0.3,0.3,0.4c-0.5-0.3-0.1,0.4-0.7,0.2c0.4,0.3,0,0.5,0.2,0.9c0,0-0.1-0.1-0.1-0.1
              c-0.1,0.1-0.2,0.1-0.3,0.2c0.4,0.2,0.3,0.4,0.5,0.6c-0.4,0-0.4-0.3-0.7-0.4c0.3,0.1,0.2,0.4,0.4,0.5c-0.3,0-0.2,0.1-0.5,0
              c0.4,0.2,0,0.2,0.2,0.4c-0.3,0-0.4-0.2-0.4,0.1C18.5,15.8,18.4,15.6,18.4,15.6z M15.4,19.6L15.4,19.6
              C15.5,19.6,15.5,19.5,15.4,19.6C15.5,19.5,15.5,19.6,15.4,19.6z M15,19.8c0.1,0,0.1,0,0.2-0.1c0.1,0.1,0.1,0.2,0,0.2
              C15.2,19.8,15.1,19.8,15,19.8z M16.8,21c-0.1,0.1-0.1,0-0.1,0c0,0,0.1-0.1,0.1-0.1l0,0C16.8,20.9,16.8,21,16.8,21z"/>
            <path class="st0" d="M16.8,20.6C16.8,20.6,16.8,20.6,16.8,20.6C16.8,20.6,16.7,20.6,16.8,20.6L16.8,20.6L16.8,20.6z"/>
            <path class="st0" d="M17.3,2.9L17.3,2.9C17.3,2.9,17.3,3,17.3,2.9C17.3,3,17.3,2.9,17.3,2.9z"/>
            <polygon class="st0" points="9.2,19.9 9.2,19.9 9.2,19.9             "/>
            <path class="st0" d="M18.5,5.4C18.5,5.4,18.5,5.4,18.5,5.4C18.5,5.5,18.5,5.4,18.5,5.4z"/>
            <path class="st0" d="M19.1,6.3l0,0.2C19.1,6.4,19.1,6.3,19.1,6.3z"/>
            <path class="st0" d="M19.4,7.1c0,0,0.1,0,0.1,0l0,0L19.4,7.1z"/>
            <path class="st0" d="M8.6,2.8C8.6,2.8,8.6,2.9,8.6,2.8C8.5,2.9,8.5,2.9,8.6,2.8z"/>
            <path class="st0" d="M12.3,1.9c0,0-0.1,0.1-0.1,0.1C12.2,2,12.3,2,12.3,1.9z"/>
            <polygon class="st0" points="5.3,5.1 5.3,5.1 5.3,5.1            "/>
            <path class="st0" d="M12,2C12,2,12.1,2,12.1,2C12.1,2,12,1.9,12,2z"/>
            <path class="st0" d="M20.2,10.4L20.2,10.4C20.3,10.4,20.3,10.4,20.2,10.4L20.2,10.4z"/>
            <path class="st0" d="M20.3,10.4L20.3,10.4C20.3,10.5,20.3,10.4,20.3,10.4z"/>
            <path class="st0" d="M20.4,10.6L20.4,10.6C20.3,10.5,20.3,10.6,20.4,10.6z"/>
            <path class="st0" d="M20.2,9.3l-0.1,0C20.1,9.4,20.2,9.3,20.2,9.3z"/>
            <path class="st0" d="M20.1,9c0,0.1-0.2,0.2-0.1,0.3l0.1,0C19.9,9.3,20.3,9.1,20.1,9z"/>
            <path class="st0" d="M20.8,7.3l0,0.3c0.1-0.1,0.2-0.2,0.3-0.1C21.3,7,20.9,7.7,20.8,7.3z"/>
            <path class="st0" d="M20.5,6.3c0.1,0.1,0.1-0.1,0.2-0.1C20.6,6.2,20.6,6.2,20.5,6.3z"/>
            <path class="st0" d="M15.5,1.7l0.1-0.2C15.5,1.4,15.6,1.5,15.5,1.7z"/>
            <polygon class="st0" points="13.9,2.5 13.9,2.6 14.1,2.4             "/>
            <polygon class="st0" points="13.6,0.5 13.7,0.5 13.4,0.5             "/>
            <path class="st0" d="M2.6,4.4l0.3,0.2C2.9,4.4,2.7,4.2,2.6,4.4z"/>
            <path class="st0" d="M0.7,9.1c-0.2,0-0.3,0.1-0.2,0.3C0.6,9.3,0.7,9.2,0.7,9.1z"/>
            <polygon class="st0" points="7.3,21.9 7.2,22 7.4,22             "/>
          </g>
        </g>
      </g>
    </g>
  </g>
  <g>
    <circle class="st1" cx="11.2" cy="11.4" r="4.5"/>
    <g>
      <g>
        <g>
          <g>
            <path class="st0" d="M15,11.4c0.1,0,0.3,0,0.2,0L15,11.4L15,11.4z"/>
            <path class="st0" d="M15.6,11.1c-0.2,0-0.4-0.1-0.7,0c0.3,0,0.2,0,0.6,0.1c0,0-0.1,0.1-0.2,0.1c0.1,0-0.1,0.1,0.1,0.1
              c0.3-0.1,0.3-0.1,0-0.2C15.5,11.1,15.6,11.1,15.6,11.1z"/>
            <path class="st0" d="M14.1,7.3L14.1,7.3C14.1,7.4,14.1,7.3,14.1,7.3z"/>
            <path class="st0" d="M11.5,6.2C11.5,6.2,11.6,6.2,11.5,6.2C11.5,6.2,11.5,6.2,11.5,6.2z"/>
            <path class="st0" d="M11,5.9C11,5.9,11,5.9,11,5.9C11,5.9,11,5.8,11,5.9z"/>
            <path class="st0" d="M14.1,7.3l0-0.1C14,7.3,14,7.3,14.1,7.3z"/>
            <path class="st0" d="M14.8,10.7C14.8,10.7,14.8,10.7,14.8,10.7C14.8,10.7,14.8,10.7,14.8,10.7L14.8,10.7z"/>
            <path class="st0" d="M15.1,8L15.1,8c0,0,0.1,0,0.1-0.1L15.1,8z"/>
            <path class="st0" d="M15.8,8.7c0,0-0.2,0.1-0.4,0.2c0.1,0,0.2-0.1,0.2-0.1C15.6,8.8,15.7,8.8,15.8,8.7z"/>
            <path class="st0" d="M15.8,10.3L15.8,10.3C15.9,10.3,15.9,10.3,15.8,10.3z"/>
            <path class="st0" d="M14.7,7.4C14.7,7.4,14.7,7.4,14.7,7.4C14.7,7.4,14.7,7.4,14.7,7.4z"/>
            <path class="st0" d="M14.3,12.1C14.3,12.1,14.3,12.1,14.3,12.1C14.3,12.1,14.3,12.1,14.3,12.1z"/>
            <polygon class="st0" points="15.8,11.4 15.8,11.4 15.9,11.4            "/>
            <path class="st0" d="M10,5.6L10,5.6C10,5.6,10,5.6,10,5.6z"/>
            <path class="st0" d="M5.6,12.6c0.2-0.1,0.4,0.1,0.6-0.1C6.1,12.5,5.8,12.4,5.6,12.6z"/>
            <path class="st0" d="M14.8,10.7C14.8,10.7,14.8,10.7,14.8,10.7C14.8,10.7,14.8,10.7,14.8,10.7z"/>
            <path class="st0" d="M6.2,12.5L6.2,12.5L6.2,12.5C6.2,12.4,6.2,12.4,6.2,12.5z"/>
            <path class="st0" d="M8,6.7C8,6.7,8,6.7,8,6.7C8,6.7,8,6.7,8,6.7z"/>
            <path class="st0" d="M9.6,6.3L9.6,6.3C9.6,6.3,9.6,6.3,9.6,6.3z"/>
            <path class="st0" d="M7.6,7.5C7.5,7.5,7.5,7.5,7.6,7.5C7.5,7.5,7.5,7.5,7.6,7.5C7.5,7.5,7.5,7.5,7.6,7.5z"/>
            <path class="st0" d="M7,8.1C7,8.1,7,8.1,7,8.1L7,8.1L7,8.1z"/>
            <path class="st0" d="M13.7,13.5c0.1,0,0.1,0.1,0.2,0.1C13.8,13.5,13.8,13.4,13.7,13.5z"/>
            <path class="st0" d="M14.9,10.7c-0.1,0-0.1,0-0.1,0c0,0,0,0,0,0C14.9,10.7,14.9,10.7,14.9,10.7z"/>
            <path class="st0" d="M9.1,9.1L9.1,9.1C9,9.2,9,9.2,9.1,9.1z"/>
            <path class="st0" d="M10.3,14.6L10.3,14.6C10.3,14.6,10.3,14.6,10.3,14.6z"/>
            <path class="st0" d="M8.8,9.4C8.8,9.3,8.7,9.3,8.7,9.3c0,0,0,0,0,0.1L8.8,9.4z"/>
            <path class="st0" d="M13.9,13.7L13.9,13.7L13.9,13.7z"/>
            <path class="st0" d="M13.7,12.8c0,0.1,0.3,0.2,0.5,0.3c0,0.1-0.3-0.1-0.4-0.2c0.1,0.1,0.3,0.3,0.3,0.4c-0.1,0-0.1,0-0.1-0.1
              c0.2,0.2-0.1,0.2,0.1,0.5c0,0-0.1,0-0.1-0.1c0.2,0.1,0.3,0.2,0.4,0.3c0,0,0.1,0.2-0.1,0.1c0,0,0-0.1-0.1-0.1l0,0.1
              c-0.3-0.2,0-0.1-0.2-0.3c0,0.1,0.2,0.4,0.1,0.4c-0.3-0.2,0-0.2-0.3-0.3l0.2,0c-0.4-0.3,0.1,0-0.4-0.3c-0.1,0,0,0.2-0.1,0.2
              c0.1,0.2,0.2,0.2,0.3,0.3c0.1,0.4-0.7-0.5-0.5-0.1c0.1,0.2,0.4,0.5,0.2,0.4L13.2,14c-0.1,0,0.3,0.5,0,0.3
              c-0.1-0.1,0-0.2,0-0.2c-0.2-0.2,0.1,0.2,0,0.2L13,14.1c-0.1,0.1-0.1,0.4-0.2,0.5c0-0.1-0.1-0.2-0.1-0.3
              c-0.1,0.2-0.4,0.1-0.6,0l0,0.3c0,0-0.1-0.1-0.1-0.2c-0.1-0.1,0.1,0.2,0.1,0.3c0,0-0.1-0.2-0.1-0.2c0,0.3-0.2,0.6-0.4,0.3
              l0-0.1c-0.1-0.1,0,0.6-0.2,0.4l0-0.1c-0.2-0.1-0.5,0.2-0.6-0.3c-0.1,0.4-0.2-0.2-0.3,0.4c-0.1-0.3,0-0.4-0.2-0.6
              c0,0-0.1,0.3-0.2,0.4l0.1-0.3l-0.1,0.3l0.1-0.4l-0.1,0.1c0,0,0,0.1,0,0.2c-0.1,0.1-0.1-0.3-0.1-0.4l-0.3,0.2
              c0-0.1,0.1-0.1,0.1-0.2c-0.2,0.3,0.1-0.3-0.1-0.1c0,0.1-0.1,0.2-0.1,0.2c0-0.2-0.1-0.2-0.2-0.2l0.1-0.2
              c-0.1-0.1-0.3,0-0.4-0.1c0,0.1-0.2,0.4-0.3,0.4l0.2-0.3c-0.1,0.2,0,0.1-0.2,0.3c0-0.1,0.2-0.3,0.3-0.4l-0.1,0.1
              C9.3,14,9.3,14,9.4,13.9c-0.1,0.1,0.1-0.3-0.1-0.1l0.1-0.1c-0.1-0.1-0.2,0-0.3-0.1c-0.2,0.2-0.2,0.1-0.4,0.3
              c0-0.1,0.1-0.4,0-0.4c-0.2,0-0.2,0.1-0.4,0.2c0.2-0.2,0.1-0.2,0.3-0.3c-0.1-0.1-0.1-0.1-0.4-0.1c-0.1,0.1-0.1,0.1-0.2,0.2
              c-0.1,0,0.1-0.1,0.2-0.2l0,0c-0.5,0,0.5-0.7-0.1-0.6l0,0l-0.3,0c0-0.1,0.2,0,0.3-0.1c-0.5,0,0-0.3-0.3-0.3
              c0.7-0.2-0.1-0.4,0.4-0.6l-0.2,0c-0.2,0,0.1,0,0.1-0.1c-0.1,0-0.2,0-0.3,0c-0.2-0.3,0.3-0.6,0.5-0.8c0.1-0.1-0.9-0.3-0.4-0.3
              l0.3,0.1c-0.3-0.3,0.2-0.4,0-0.8c0.1,0,0.1,0.1,0.1,0.1c0.2,0.1,0.1-0.1-0.1-0.2c0,0,0.2,0.1,0.3,0.1c0.1,0-0.2-0.3,0-0.2
              c0,0,0.1,0.1,0.1,0.1C8.5,9.6,8.7,9.6,8.5,9.4c0.2,0,0-0.2,0.2-0.2C8.5,9,8.9,9.3,8.6,9c0.3,0.3,0.4,0.1,0.3,0
              C8.9,9,9,9,9.1,9.1c0,0,0-0.1-0.1-0.3c0.4,0.3-0.1-0.5,0.4,0c0-0.3,0.1-0.5,0.2-0.7c0.2,0.4-0.2,0.1,0.1,0.5
              c0-0.2,0-0.6,0.2-0.6c0.1,0,0.1,0.2,0.1,0.3c0.1-0.2,0.3-0.1,0.4-0.4c0,0,0,0.1,0,0.1c0,0,0.1,0,0-0.1l0,0.1
              c-0.1-0.3,0-0.6-0.1-0.8c0.1,0.6,0.2,0.1,0.3,0.8c0,0,0-0.1,0-0.3c0,0,0.1,0.1,0.1,0.3c0.1-0.1,0-0.3,0.1-0.3
              c0,0.1,0,0.1,0,0.3c0-0.2,0-0.4,0.1-0.3c0,0.1,0,0.1,0,0.1c0.1-0.1,0.2-0.5,0.4-0.4c0,0.4,0.1,0.1,0.1,0.5l0.1-0.1l0-0.2
              c0.1,0,0.2-0.3,0.2-0.1l-0.1,0.2l0.1-0.1l-0.1-0.1c0.1-0.2,0-0.5,0.1-0.4c0,0,0.1,0,0.1,0.2l0,0c0.1-0.1,0.1-0.2,0.2-0.1
              c0,0.1-0.1,0.4-0.1,0.5c0.1-0.3,0.2-0.1,0.3-0.4C12,7.4,12,7.6,12,7.6l0.1-0.2c0,0.1,0,0.1,0,0.3c0.1,0.1,0.1-0.5,0.2-0.2
              c0,0,0,0.1-0.1,0.1c0.1,0.1,0.3-0.1,0.4,0.1c-0.1,0.4-0.1,0.1-0.2,0.4c0.2,0,0.5-0.3,0.6-0.1l0-0.1c0.3-0.5,0,0.3,0.2,0.1
              c0,0-0.2,0.2-0.1,0.2c0.1,0.1,0.3,0,0.5,0l-0.1,0.1c0,0.1,0.1,0.2,0.1,0.3c0.1-0.1,0.1-0.1,0.2-0.2c-0.3,0.7,0.6,0,0.3,0.6
              c0,0-0.1,0-0.1,0.1l0.2,0c0.2-0.2,0.1-0.1,0.2-0.3c0.1-0.1,0.2-0.1,0.3-0.1c-0.2,0-0.3,0.2-0.4,0.3c0.1,0,0.1-0.1,0.2-0.1
              c-0.3,0.3,0.4-0.3,0.2,0l-0.1,0.1c0.1,0,0.2-0.1,0.2,0c-0.2,0.2-0.1,0-0.3,0.2c0.1,0,0.5-0.2,0.3,0c-0.1,0-0.1,0-0.2,0
              c-0.2,0.2-0.2,0.2-0.2,0.3l0,0l-0.1,0.2l0.1-0.1c0.6-0.3,0.2,0.1,0.7,0c-0.4,0.1-0.2,0.1-0.5,0.2c-0.1,0.1-0.1,0.1-0.2,0.2
              c0.2-0.1-0.1,0.2,0.2,0.1c-0.1,0,0,0.1-0.2,0.1c0.1,0,0.1-0.1,0.3-0.1c0.4,0-0.3,0.4,0.2,0.4c0.2,0.1,0.5,0,0.7,0.1
              c-0.1,0.1-0.4,0-0.4,0c-0.1,0.1-0.1,0.1,0,0.2c-0.1,0-0.2,0-0.3,0.1c0,0,0.4,0,0.2,0.1c-0.1,0-0.3,0-0.4,0
              c0.1,0,0.3,0.1,0.4,0.1c-0.2,0-0.3,0-0.4,0c0.1,0.1,0.2,0.2,0.4,0.2l0.1-0.1c0,0-0.2,0-0.3,0c-0.2,0,0.1-0.1,0.2-0.1l0.1,0
              c0.6-0.1-0.1-0.2-0.1-0.3l0.4,0l-0.4,0c0.1,0,0.3-0.1,0.4-0.1c0.2-0.1-0.2,0,0-0.1c0,0,0.1,0,0.1,0l-0.1,0
              c0.1,0,0.3-0.1,0.2,0c0.2-0.2-0.4-0.1-0.1-0.3l0,0c-0.2-0.1-0.3,0.1-0.7,0.1l0.7-0.3l-0.3,0.1c0,0,0-0.1,0.1-0.1
              c-0.2,0-0.1,0.1-0.3,0.1c0.2-0.2-0.2-0.2,0.2-0.4c-0.2,0.1-0.1,0.2-0.3,0.1c0.5-0.2-0.1-0.1,0-0.2c0.3-0.1,0.2,0,0.3-0.1
              c-0.4,0.2,0-0.2-0.1-0.2c-0.3,0.2-0.2-0.1-0.4-0.1c0.1-0.1,0-0.3,0.1-0.5l0.1,0c-0.3,0.2-0.3,0.1-0.4,0
              c0.2-0.1,0.2-0.2,0.4-0.2L15.2,8C15.1,8,15,8.1,14.9,8.1l0.2-0.2c-0.1-0.1-0.4,0-0.4-0.2c-0.2,0.2-0.4,0.6-0.6,0.6
              C14.2,8.2,14.4,8,14.5,8c0,0-0.1,0.1-0.1,0l0.2-0.1c0-0.1-0.2,0.1-0.2,0.1c0.1-0.1,0.1-0.1,0.2-0.2c0,0,0,0.1,0,0
              c0-0.1,0-0.2,0.1-0.3c-0.1,0.1-0.2,0.2-0.2,0.2c-0.1-0.1,0.1-0.2,0.1-0.3c-0.1,0.1-0.1-0.1-0.3,0.2c0,0,0.1-0.1,0.1-0.2
              c-0.1,0.1-0.3-0.1-0.4,0.2l0,0c0,0,0,0,0,0l0,0l0,0c-0.3,0.1-0.2-0.4-0.5-0.3l0-0.1c-0.2,0-0.3-0.1-0.4,0.1c0,0,0-0.2,0.1-0.3
              c-0.1,0-0.2,0.1-0.2-0.1c0.1-0.1,0-0.2,0.1-0.1c-0.1-0.1-0.1-0.3-0.3-0.1c0.1-0.2,0-0.3-0.1-0.3l0,0.2c-0.1,0-0.1,0-0.2-0.1
              l0.1-0.3c-0.2-0.5-0.6,0.5-0.6-0.1c-0.1,0.2,0.1,0.2,0,0.4c-0.1-0.1-0.1-0.5-0.2-0.6c-0.1-0.2-0.2,0.5-0.4,0.3
              c0,0.1,0,0.4-0.1,0.5c-0.1,0-0.1-0.5,0-0.6c0,0,0,0,0,0.1c0,0,0.1-0.1,0.1-0.2l0,0.1c0-0.1-0.2-0.1-0.2-0.3
              c-0.1,0.1,0,0.2,0,0.3c-0.1-0.2-0.2,0-0.4-0.1c0,0.1,0.1,0.2,0,0.2C10.9,6,11,6.3,10.9,6.4c-0.1-0.2,0-0.4-0.1-0.3
              c-0.1-0.1,0-0.3,0-0.4c-0.1,0.2-0.3-0.1-0.4-0.1l0.1-0.1c0,0.1-0.1,0.1-0.1,0.1l0.1,0.2c-0.1,0-0.1,0-0.1-0.1
              c0,0.2,0.1,0.4,0,0.6c-0.1-0.1-0.1,0.2-0.2-0.1c0.2,0.1-0.1-0.3,0.1-0.4c0,0-0.1,0-0.1,0c0,0,0-0.1,0-0.1C9.8,5.4,10,6,9.8,6
              c0-0.2-0.1-0.3-0.1-0.3c0.1,0,0.1,0.3,0.1,0.4C9.6,6.1,9.7,6.3,9.6,6.3l0.1,0c0,0.2,0,0.2-0.1,0.2c0-0.1,0-0.1,0-0.2
              c0,0.3-0.3-0.2-0.3,0C9.2,6.4,9.1,6.1,9.1,6.1c0,0.3-0.2-0.2-0.3,0.1c0.1,0.2,0.1,0.1,0.1,0.4L9,6.3l0,0.4
              c0.1,0,0.1-0.2,0.1-0.2c0,0.2,0,0.2,0.1,0.3C9,6.5,9.2,7.1,9,6.9L8.7,6.4C8.4,6.2,8.6,6.8,8.3,6.8l0.1,0.1
              C8.5,7,8.3,6.9,8.3,7C8.2,6.9,8.2,6.8,8.1,6.8c0.1,0.1-0.1,0.1,0.1,0.4L7.9,7c-0.2,0,0.2,0.6,0,0.6C7.8,7.4,7.7,7.4,7.7,7.2
              c0,0-0.1,0,0,0.1C7.5,7.3,7.7,7.6,7.5,7.5c0,0.1,0.2,0.2,0.1,0.3c0,0-0.1-0.1-0.1-0.1c0.1,0.1,0,0.2,0.2,0.3
              C7.3,7.7,7.5,8.4,7,8.2C7,8.3,7,8.4,6.9,8.5c0,0-0.1-0.1-0.1-0.1c-0.2,0,0.4,0.4,0.2,0.4C6.7,8.8,7,8.7,6.8,8.7
              c-0.6-0.3,0,0.2-0.4,0.1l0,0c-0.2,0,0.1,0.3,0,0.4c0,0,0,0-0.1,0c0.3,0.2,0.3,0.4,0.3,0.6C6.4,9.7,6.5,9.7,6.3,9.6
              c0,0.1,0.4,0.1,0.4,0.3c-0.1,0-0.3,0-0.6,0l0-0.1c-0.4-0.1,0,0.2-0.1,0.2L5.9,9.9c0,0.2,0.4,0.3,0.3,0.5l0.1,0
              c0.4,0.2-0.2,0,0,0.2l-0.4,0c0.1,0.1,0.3,0.3,0.4,0.4c-0.3-0.1-0.4-0.3-0.6-0.4c0,0.1,0,0.3,0.2,0.3c0,0-0.1-0.1-0.1-0.1
              c0.3,0.1,0.4,0.2,0.4,0.4c-0.8-0.1-0.2,0.3-0.8,0.5c0.3,0.2-0.1,0.5,0,0.8c0.6-0.2,0,0.1,0.6-0.1c0,0.1,0,0.1,0,0.1l-0.3,0.3
              c-0.2,0.1-0.1,0-0.3,0c0,0.2-0.2,0.1-0.4,0.3c0.2-0.1,0.3,0,0.3,0.1l0.2-0.2c0.4,0.1-0.4,0.3-0.1,0.5l-0.2,0
              c0.1,0.1,0.2,0.4,0.7,0.3c-0.1,0-0.2,0.1-0.3,0.1c0.1,0.3,0.7,0.3,0.6,0.6l-0.1,0.1c0.1,0,0.3-0.1,0.2,0.1
              c-0.1,0-0.1,0.1-0.1,0.1c0.1,0,0.3,0,0.3,0.1l-0.2,0.1c0,0.3,0.6,0.1,0.8,0.2C7,15.2,7,15.5,7.1,15.6l0,0
              c0.2,0.3,0.7,0.1,1,0.1c-0.1,0.5,0.4,0.5,0.5,0.9c0-0.1,0.2-0.3,0.2-0.3c0,0.1,0.3-0.2,0.1,0.2l0,0c-0.1,0.4,0.1,0.4,0.2,0.4
              l0.2-0.5c0,0.4,0.2,0.4,0.4,0.4c0.2,0,0.3-0.1,0.3,0.3c0.1-0.1,0.2-0.1,0.3-0.2l-0.1,0.3c0.2,0.1,0.3,0.2,0.5,0.1l-0.1,0.2
              c0.1,0,0.2-0.8,0.3-0.8l0,0.4c0.2,0,0.5,0.4,0.7,0c0,0.1,0,0.2,0,0.2c0.1,0,0.5,0.2,0.3-0.3c0.1,0.4,0.2,0,0.3-0.2l0,0.3
              c0-0.4,0-0.5,0.1-0.6c0,0,0.1,0.2,0,0.2c0.1,0.1,0-0.3,0.2-0.2l0,0.2c0.1,0,0.1-0.1,0.1-0.3c0-0.1,0.2,0,0.3,0.2
              c0-0.1-0.1-0.4,0-0.3c0,0.1,0,0.1,0,0.2c0.3,0.1,0.1-0.4,0.3-0.2c0,0.1,0.1,0.1,0.1,0.1c-0.1,0.1-0.3,0.1-0.3,0.1
              c0.1,0.2,0.2,0.2,0.3,0.6c0-0.2,0-0.7,0.2-0.6c0,0,0,0,0.1,0.1l0,0c0,0,0,0,0.1-0.1c0.1,0,0.1,0,0.1,0c0.1,0.2,0.2,0,0.2,0
              C14.1,16,14.1,16,14,15.9c0,0,0,0,0,0.1c0,0,0,0,0,0l0,0c0,0-0.1,0.1-0.1,0.1c0-0.1-0.1-0.3,0.1-0.2c-0.1-0.2-0.1-0.3-0.2-0.4
              c0.3,0.3,0.5,0.4,0.7,0.6c0.1-0.2,0.3-0.4,0-0.8c0-0.1,0.1,0.1,0.2,0.1c0,0.1,0,0.1,0,0.1c0-0.2,0.2-0.2,0-0.5
              c0.2,0,0.2,0.3,0.3,0.1l0.1,0.1c0.3,0.1,0.3-0.2,0.2-0.4c-0.1-0.3-0.2-0.5,0.3-0.4c-0.1,0-0.1,0-0.1,0
              c0.5-0.2,0.2-0.9,0.8-1.1c0.1-0.1-0.1-0.2-0.2-0.3l0.3,0.1l-0.3-0.2c-0.2-0.2,0.8-0.1,0.4-0.5l-0.2,0c0.1-0.1-0.1-0.3,0.1-0.2
              c0,0-0.2-0.1-0.1-0.1l0.2,0c0,0-0.1-0.1-0.1-0.1c-0.1-0.1-0.1-0.1-0.1-0.1c0.1-0.1,0.6,0.1,0.7-0.2c-0.1-0.1-0.4-0.3-0.6-0.2
              c0,0-0.1,0.1-0.3,0.1l-0.1-0.1c-0.5,0-0.9,0-1.3,0.1l0.3,0.1l-0.2,0l0-0.1c-0.2,0,0,0.1,0.1,0.1c-0.1,0-0.2,0-0.2,0l0.4,0.1
              c-0.2,0-0.4-0.1-0.5,0c0.2,0.1,0.4,0,0.5,0.1c-0.2,0-0.4,0-0.2,0.1c-0.1,0-0.2,0-0.2-0.1c0.1,0.1,0,0.1,0.3,0.2
              c-0.3,0,0,0.2-0.4,0.1c0.1,0,0.3,0.2,0.3,0.2c-0.5-0.2-0.1,0.1-0.6,0c0.4,0.2,0.1,0.2,0.4,0.4c0,0-0.1-0.1-0.1-0.1
              c-0.1,0-0.2,0-0.3,0c0.4,0.2,0.4,0.3,0.6,0.4c-0.4-0.1-0.4-0.2-0.7-0.4c0.3,0.1,0.2,0.2,0.5,0.3c-0.2-0.1-0.1,0-0.4-0.1
              c0.4,0.2,0.1,0.1,0.3,0.3C14,13,13.9,12.9,13.9,13C13.8,13,13.7,12.8,13.7,12.8z M12.9,14.7L12.9,14.7
              C12.9,14.7,12.9,14.7,12.9,14.7C12.9,14.7,12.9,14.7,12.9,14.7z M12.7,14.8C12.8,14.8,12.8,14.8,12.7,14.8
              c0.1,0.1,0.2,0.2,0.1,0.2C12.9,14.9,12.8,14.8,12.7,14.8z M14.1,16.3C14,16.3,14,16.3,14.1,16.3C14,16.2,14,16.2,14.1,16.3
              L14,16.2C14,16.2,14,16.3,14.1,16.3z"/>
            <path class="st0" d="M13.9,15.9C13.9,15.9,13.9,15.9,13.9,15.9C13.9,15.9,13.9,15.9,13.9,15.9L13.9,15.9L13.9,15.9z"/>
            <path class="st0" d="M14.1,7.4L14.1,7.4C14.1,7.4,14,7.4,14.1,7.4C14,7.4,14,7.4,14.1,7.4z"/>
            <polygon class="st0" points="10.5,14.5 10.4,14.6 10.5,14.5            "/>
            <path class="st0" d="M14.2,8.9C14.2,8.9,14.2,8.9,14.2,8.9C14.2,8.9,14.2,8.9,14.2,8.9z"/>
            <path class="st0" d="M14.4,9.3l-0.1,0.1C14.4,9.3,14.4,9.3,14.4,9.3z"/>
            <path class="st0" d="M14.5,9.6c0,0,0.1,0,0.1-0.1l0,0L14.5,9.6z"/>
            <path class="st0" d="M10.2,8.1C10.2,8.1,10.2,8.1,10.2,8.1C10.2,8.2,10.2,8.2,10.2,8.1z"/>
            <path class="st0" d="M11.6,7.3c0,0,0,0.1-0.1,0.1C11.6,7.5,11.6,7.5,11.6,7.3z"/>
            <polygon class="st0" points="9.1,9.1 9.1,9.1 9.1,9.1            "/>
            <path class="st0" d="M11.5,7.4C11.5,7.5,11.6,7.5,11.5,7.4C11.6,7.4,11.5,7.4,11.5,7.4z"/>
            <path class="st0" d="M14.8,11L14.8,11C14.8,11,14.8,11,14.8,11L14.8,11z"/>
            <path class="st0" d="M14.8,11L14.8,11C14.8,11,14.8,11,14.8,11z"/>
            <path class="st0" d="M14.9,11L14.9,11C14.8,11,14.8,11,14.9,11z"/>
            <path class="st0" d="M14.8,10.5l-0.1,0C14.8,10.6,14.8,10.6,14.8,10.5z"/>
            <path class="st0" d="M14.8,10.4c0,0-0.2,0.1-0.1,0.2l0.1,0C14.6,10.6,14.9,10.4,14.8,10.4z"/>
            <path class="st0" d="M15.8,9.4l0,0.2C15.8,9.5,16,9.4,16,9.5C16.2,9.2,15.8,9.6,15.8,9.4z"/>
            <path class="st0" d="M15.7,8.9c0.1,0,0.1-0.1,0.2-0.1C15.8,8.8,15.8,8.8,15.7,8.9z"/>
            <path class="st0" d="M13.3,6.7l0.1-0.2C13.3,6.5,13.3,6.5,13.3,6.7z"/>
            <polygon class="st0" points="12.3,7.7 12.3,7.9 12.4,7.7             "/>
            <polygon class="st0" points="12.4,5.9 12.4,5.8 12.3,5.9             "/>
            <path class="st0" d="M6.9,7.9L7.1,8C7.1,8,6.9,7.7,6.9,7.9z"/>
            <path class="st0" d="M6.1,10.3c-0.2,0-0.3,0-0.1,0.1C6,10.3,6.1,10.3,6.1,10.3z"/>
            <polygon class="st0" points="9.2,16.8 9.1,16.8 9.2,16.8             "/>
          </g>
        </g>
      </g>
    </g>
  </g>
</g>
</svg>
