<!-- Generator: Adobe Illustrator 19.2.0, SVG Export Plug-In  -->
<svg version="1.1"
   xmlns="http://www.w3.org/2000/svg" xmlns:xlink="http://www.w3.org/1999/xlink" xmlns:a="http://ns.adobe.com/AdobeSVGViewerExtensions/3.0/"
   x="0px" y="0px" width="227.5px" height="129.5px" viewBox="0 0 227.5 129.5" style="enable-background:new 0 0 227.5 129.5;"
   xml:space="preserve">
<style type="text/css">
  .st0{fill:#484B9F;}
</style>
<defs>
</defs>
<g>
  <g>
    <g>
      <g>
        <g>
          <path class="st0" d="M226,128c0.1,0.4,0.3,0.2,0.2-0.9l-0.3-0.7L226,128z"/>
          <path class="st0" d="M226.6,121.2c-0.2-1.2-0.4-2.6-0.7-1.8c0.3,1.2,0.2,1.5,0.6,2.8c0,1-0.1,1.8-0.2,1.6
            c0.1,0.4-0.1,1.6,0.1,2.1c0.3-1.3,0.3-3,0.1-4.8C226.4,120.7,226.5,121.1,226.6,121.2z"/>
          <path class="st0" d="M227.1,21.5l0,0.6C227.1,21.9,227.1,21.7,227.1,21.5z"/>
          <path class="st0" d="M184.8,0.8c0.5,0,0.7,0,0.7-0.1C185.1,0.8,184.7,0.8,184.8,0.8z"/>
          <path class="st0" d="M174.3,0.5c0.2,0,0.4,0,0.6,0C174.6,0.5,174.4,0.5,174.3,0.5z"/>
          <path class="st0" d="M227.1,21.5l0.1-1.7C227.1,19.7,227.1,20.6,227.1,21.5z"/>
          <path class="st0" d="M225.8,107.4c0,0.3,0,0.6,0.1,0.9C225.8,108,225.8,107.7,225.8,107.4C225.8,107.4,225.8,107.4,225.8,107.4
            z"/>
          <path class="st0" d="M227.3,48.7l0,0.5c0,0.1,0.1,0.3,0.1,0.4L227.3,48.7z"/>
          <path class="st0" d="M227.4,69.6c0-0.5-0.3-0.6-0.4-0.8c0.1,0.3,0.2,0.6,0.2,1C227.3,69.8,227.3,69.7,227.4,69.6z"/>
          <path class="st0" d="M226.9,102.7l0,0.6C226.9,103.2,226.9,102.9,226.9,102.7z"/>
          <path class="st0" d="M227.4,33.7c0,0,0.1-0.1,0.1-0.2C227.5,33.5,227.4,33.6,227.4,33.7z"/>
          <path class="st0" d="M202.4,126.7C202.4,126.7,202.4,126.7,202.4,126.7C202.5,126.7,202.6,126.7,202.4,126.7z"/>
          <path class="st0" d="M226.6,128.1l-0.3,0c0,0.1-0.1,0.1-0.1,0.2L226.6,128.1z"/>
          <path class="st0" d="M155,0.1C155,0.1,155,0.1,155,0.1C155.6,0.1,155.3,0.1,155,0.1z"/>
          <path class="st0" d="M0.5,25.3c0.3-2,0.3,3.3,0.6,0.2C0.9,25.9,0.6,22.8,0.5,25.3z"/>
          <path class="st0" d="M225.8,106.9c0-0.3,0-0.6,0-0.9C225.8,106.4,225.8,106.7,225.8,106.9z"/>
          <path class="st0" d="M1.1,25.6L1.1,25.6l0-0.3C1.1,25.4,1.1,25.5,1.1,25.6z"/>
          <path class="st0" d="M110.5,0.3c0.1,0,0.3,0.1,0.5,0.1C110.9,0.4,110.8,0.3,110.5,0.3z"/>
          <path class="st0" d="M143.6,0.7l-0.8,0C143.1,0.7,143.4,0.7,143.6,0.7z"/>
          <path class="st0" d="M93.3,0.7c-0.4,0-0.6-0.1-1.2,0c0.1,0,0.1,0,0.2,0C92.5,0.7,92.8,0.6,93.3,0.7z"/>
          <path class="st0" d="M75.4,0.7c0.1,0,0.2,0,0.3,0.1c0.2,0,0.4,0,0.6,0L75.4,0.7z"/>
          <path class="st0" d="M148,126.8c0.4,0.1,0.6,0.2,0.8,0.3C148.5,126.9,151.2,126.8,148,126.8z"/>
          <path class="st0" d="M225.9,107.4c-0.1-0.1-0.1-0.3-0.1-0.5c0,0.2,0,0.4,0,0.6C225.9,107.5,225.9,107.5,225.9,107.4z"/>
          <path class="st0" d="M92.6,2.9l-2.8,0C90.5,2.9,91.5,2.9,92.6,2.9z"/>
          <path class="st0" d="M19.5,126.9l0.7,0C19.9,126.8,19.7,126.8,19.5,126.9z"/>
          <path class="st0" d="M81.3,2.9c-0.5-0.1-1-0.2-1.6-0.2c-0.1,0-0.3,0-0.3,0.1L81.3,2.9z"/>
          <path class="st0" d="M148.8,127.1C148.8,127.1,148.8,127.1,148.8,127.1C148.8,127.1,148.8,127.1,148.8,127.1z"/>
          <path class="st0" d="M167.5,126.4c-2.7,0-1.3,0.4-1.8,0.6c-3.2,0.1-1.5-0.3-2.6-0.5c-2,0.1-3.6,0.4-5.1,0.4
            c-0.1-0.1-0.4-0.1-0.1-0.2c-2.1,0.3-6.3,0-8.8,0.4c-0.2,0-0.3-0.1-0.3-0.1c0.4,0.2,0.5,0.4,0.4,0.5c-1.2,0-2.3,0.2-2.7,0
            c0.7,0,0.8-0.1,1.2-0.2l-1.3,0.1c-1.1-0.3,1.7-0.1,1.7-0.4c-2.5,0.1-5.4,0.4-7.3,0.3c-0.4-0.3,4.4-0.1,1.9-0.4l2.9,0.1
            c-2.2-0.5,1.8,0-0.3-0.5c-3.9-0.1-4.3,0.2-8.2,0.1c-0.9,0.2,0.3,0.3-0.6,0.5c-5.5,0.3-4.3-0.9-8.4-0.4c-1,0.2-1.5,0.7-4.3,0.4
            l1-0.4c-3.8,0-2.1,0.6-6.1,0.3c0.7-0.2,2.9-0.1,2.4-0.2c-2.5-0.3-1.8,0.2-3.8,0.2l-0.4-0.3c-4,0.1-8.4,0.3-12.8,0.4
            c0.2-0.1,1-0.2,0-0.3c-5.6,0.2-11.9,0-17.3-0.2l-2.1,0.3c-0.5,0-0.9-0.1-0.4-0.2c-2.1-0.1-0.1,0.2-1.1,0.3
            c-1.2,0-1.6-0.2-0.8-0.3c-3.7,0.2-10.5,0.5-14.4,0.2l0.8-0.1c-3-0.1-3.4,0.6-6.2,0.3l0.5-0.1c-6.6-0.1-13.9,0.1-18.9-0.3
            c-1,0.4-6.5-0.2-6.9,0.4c-3.8-0.3-2.7-0.4-8-0.6c-1.4,0-2.1,0.4-3.9,0.4l0-0.3l-2.4,0.3l-1.3-0.4l-1.6,0.1
            c0.7,0,1.4,0.1,1.3,0.2c-2.6,0.1-6.2-0.2-6.3-0.4L9.1,127c0.1-0.1,1.2-0.2,2-0.2c-3.2,0.3-0.6-0.3-3.6,0
            c0.4,0.1-0.2,0.2-0.3,0.2c-0.6-0.1-1.4-0.1-2.4-0.1c-0.5,0-1,0-1.5,0c-0.1,0-0.2,0-0.4,0l0-0.2l0-0.1c0,0,0,0,0-0.2
            c0,0,0.1,0.2,0.1,0.2c0.1,0,0.1,0,0.1,0c0-1,0-2.1,0-3.2c0-1.2,0-2.4,0-3.6c0-2.4,0-4.9-0.1-7.5c-0.1,1.8-0.5,1.4-0.5-0.1
            l0.3-0.6c-0.2-1-0.1,1.5-0.4-0.4c0-1.9,0.4-1.3,0.5-0.2l-0.1-2.3c0.1-0.1,0.1,0.4,0.3,0.5c-0.2-0.9,0.3-4,0-5.3l0.1-0.1
            c0-5-0.1-7.3-0.1-11.4c-0.3-0.1-0.2-1.7-0.4-2.9c0.1-3,0.3-6.4,0.3-10c-0.1-2.6-0.2-0.7-0.4-1.9c0.3-0.2,0.2-3.8,0.4-1.9
            c0-4.4-0.1-5.6-0.3-11.1c-0.1,0.6-0.2,1.3-0.2,0.9c0-1,0.1-2.3,0.2-2.1l0,0.3c-0.4-6.2,0.7-14.3,0.2-19.3l0,0.3l-0.3-5.1
            c0-2.4,0.2,1.4,0.4-0.3C2.5,33.5,3,30.3,2.7,25.8c0.8-3.5-0.1-12.5,0.4-17.2L2.9,8.8C2.8,7.6,3,7.3,3.1,6.4
            C2.9,6.5,2.9,7.7,2.8,7c0-1.4,0-2.9-0.1-4.3c1.8,0,3.6,0,5.5,0.1c2.2,0,4.5,0.1,6.7,0.1c4.5,0.1,8.9,0.2,13.4,0.3
            c3.9,0,2.2-0.9,7.1-0.5L34,2.9c7.9-0.4,16.1,0,23.8-0.3c-0.5,0.1-0.5,0.2-1.2,0.2c1.6,0.2,6,0,6-0.2c1.2,0,0.3,0.2,1,0.3
            c1.6,0.1,4.1-0.3,5-0.1c0.1,0-0.5,0.1-0.8,0.1c1.1-0.1,5,0,3.9-0.2c2.9,0.1,5.5-0.1,7.8,0c1.5-0.3,5,0.1,5.4-0.3
            c-0.2,0.5,5.1,0.4,6.9,0.2c-0.6,0.1,1.6,0.1,0.9,0.3c2.1,0,4-0.1,3.6-0.3c3.8,0.5,7.7-0.4,9.9,0.3c6.2-0.2,11.9-0.4,17.5-0.5
            c-0.2,0.5-6.2,0-5.9,0.5c5.3-0.2,8.3-0.6,13.6-0.5c1.4,0.1-0.8,0.2-1.2,0.3c5.3-0.2,10.2,0,14.9-0.2c0,0-0.5,0.1-1,0.1
            c0.9,0,2.2,0.1,2.1-0.1l-0.9,0.1c-1.5-0.3,3.7-0.6,3.8-0.8c-1.6,0.6,4.6,0.1,2.1,0.9c0.6,0,1.4-0.1,1.2-0.3
            c0.9,0,1.2,0.1,0.3,0.3c3.3-0.1,2.1-0.3,5.2-0.3c0,0.1-0.6,0.1-0.9,0.3c1.5-0.2,3.1-0.4,5.6-0.3c-0.2,0.1,0.1,0.1-0.6,0.1
            c4.4,0,7.4-0.5,12.2-0.3c-1.4,0.4,1.6,0.1,1.9,0.5l2.6-0.1l-1-0.2c2.3,0,4.3-0.3,6.2-0.1l-1.7,0.2l4.2-0.1l-2.4-0.1
            c2.3-0.2-0.2-0.5,2.8-0.4c-0.6,0,2.3,0,3.4,0.2l0,0c1.1-0.1,2.3-0.2,3.9-0.2c0.4,0.1-0.3,0.4-0.1,0.5c1.1-0.3,5.3-0.1,6.7-0.4
            c-0.5,0.1-0.5,0.3-0.3,0.3l0.9-0.3c1,0.1,1.2,0.1,1,0.3c3.1,0-1-0.5,2.7-0.3c-0.3,0-0.2,0.1-0.8,0.1c3.7,0.1,7.2-0.2,10.7,0
            c1,0.4-3,0.1-1.8,0.4c2.2,0,4.4-0.1,6.7-0.2c1.1,0,2.2-0.1,3.3-0.1c0.9,0,1.9,0,2.8-0.1c0,0.4,0,0.9,0,1.3l0-0.7
            c0.1,0.1,0.2,0.3,0.2,0.7c0,0.4,0,0.9-0.1,1.5c-0.1,1.1-0.2,2.5-0.1,3.7c0-0.6-0.3-0.8-0.2-0.6c-0.1,3.3,0.1,6.7,0.3,11.7
            l-0.1-0.6c-0.1,1.9-0.1,5.1-0.1,7.2c0.1,0.6,0.1,1.8,0.3,1.1c-0.8,6.5,0.4,12.3-0.2,18.1c0-0.7-0.1-1.6-0.1-1.1L226,49
            c0.2-0.4,0.1-0.6,0.3-1.7c0.1,0.6,0.2,2,0.2,3.2c-0.2-2.2-0.4,0-0.5,1c0.1-0.2,0.1,0.2,0.2,0.1c-0.4,2.6,0.5,0.4,0.2,3.9
            l-0.1-0.2c0.1,1.3,0.2,2.5,0.2,3.9c-0.3,0.6-0.1-1.4-0.3-1.5c0,2,0.5,3.9,0.2,5.7c-0.1-0.8-0.1-2-0.1-2.9
            c-0.3,1.9-0.2,2.2-0.3,3.6l0-0.1l-0.1,3.3l0.1-0.9c0.7,2.5,0.1,5,0.6,8.4c-0.4-3.2-0.2-0.5-0.6-0.8c-0.1,0.8-0.2,2.1-0.3,1.8
            c0.2,1.6-0.2,2.6,0.2,4.8c-0.1,0.1,0,1.7-0.3,1.3c0.1,2,0.2-0.5,0.3-0.3c0.3,3.2-0.4,7.4,0.1,11.9c0.2,3.9,0.5,4.6,0.7,8.3
            c-0.2,1.2-0.4-1-0.4-1c-0.1,2-0.1,3.5,0,5.3c-0.1-0.4-0.2,0-0.3,0.6c0,1.5,0.4,1,0.2,3c-0.1-0.3-0.3-0.8-0.4-1.5
            c0.1,1.8,0.3,3.5,0.4,5.3c-0.2,0.5-0.3-1.1-0.4-1.7c0.1,2,0.2,5.3,0.4,5.9l0.1-1.3c0,0.7-0.2,0.4-0.3-0.2
            c-0.2-1.8,0.1-2.5,0.2-2.6l0.1,1.3c0.6-1.3-0.1-5.2-0.1-7.8l0.4,1.1l-0.3-2.7c0.1-0.6,0.3-1,0.4,0.3c0.2-1.9-0.1-1.7,0.1-3.3
            c0-0.2,0.1-0.1,0.1,0.1l-0.1-1.8c0.1,0.4,0.3-0.3,0.2,0.8c0.2-3.3-0.3-5.3,0-6.5l0,0.3c-0.1-4.6-0.3-0.4-0.7-3.9l0.8-2.3
            l-0.3-0.4c0-0.5,0-1.4,0.2-1.2c-0.2-1.7-0.1,0.3-0.3-0.7c0.3-2.3-0.1-6.2,0.4-6.7c-0.2-0.8-0.2,2.2-0.3-0.3
            c0.5-0.7-0.1-2.8,0.2-4.9c0.3,0.6,0.1,2.6,0.4,0.5c-0.5-1.2,0.1-4,0-5.8c-0.4-0.1-0.2-3.8-0.3-6.7c0.1,0.2,0.2-5.5,0.3-8.2
            l0.1,0.1c-0.4-0.5-0.3-3.3-0.4-5.4c0.2,0.1,0.3,0.4,0.4,1.6l0-1.9c-0.1-0.5-0.2-1.1-0.2-2.3l0.3,0.5c0-2.6-0.3-5.2-0.1-8.4
            c-0.3-0.2-0.7,2.6-0.9-0.9c0.1-0.1,0.4-0.3,0.4,0.7c0-0.3-0.1-1.1-0.1-1.7l0.2,1.4c0.1-1.5-0.2-0.8-0.2-2
            c0.2,0,0.1-0.9,0.3-0.7c0,0.3-0.1,1,0,1.5c0-1.4,0.2-3,0.3-3.5c-0.1,0.1-0.3,0-0.3-1c0-2.6,0.2-0.9,0.3-2.4
            c-0.1-0.6,0-2.3-0.3-2.3c0-0.7,0.1-0.9,0.2-1.2c-0.1-1.3,0-6.2-0.4-4.7l0,0.3c0-0.1,0-0.1,0-0.2c0,0,0,0,0,0v0
            c-0.3-4.3,0.2-9,0-13.3l0.1,0c-0.1-1.3-0.1-2.7-0.1-4c0-0.7,0-1.3-0.1-1.9c0-0.7-0.1-1.4-0.1-1.8c0,0,0,0,0,0
            c-0.4,0-0.9,0-1.3-0.1c-0.4-0.1-0.6-0.1-0.4-0.2c-2,0.1-2.2,0.2-5.1,0c2-0.2-0.7-0.2,2-0.1c-2.6-0.1-3.1-0.2-5.9,0
            c0.9-0.3-1.9-0.3-3.1-0.2l1.8,0.2c-1.4,0-2.6,0-3.8,0l0.7-0.3c-5.2-0.4-9.4,0.7-13.4,0c-1.4,0.2,2.8,0.2,1.6,0.4
            c-2.4,0-4.9-0.5-5.7-0.5c-3.3-0.2-3.1,0.5-6.5,0.4c0.4,0.1,0.9,0.4-1.7,0.5c-2.4,0-3-0.5-1.4-0.6c0.6,0,0.9,0,0.8,0.1
            c0.8,0,1.8-0.1,0.8-0.2L186,0.7c-1.2-0.1-4.5-0.1-3.7-0.3c-1.8,0.1-0.8,0.2,0.6,0.3c-3.1-0.2-4.8,0-8-0.1
            c0.5,0.1,1,0.2,0.5,0.2c-4.7-0.1-2.1,0.2-5.2,0.3c-1.8-0.2,0.6-0.4-2.5-0.3c-1.9-0.1-0.4-0.3,0.4-0.4c-2.9,0.2-5.4-0.2-7.1-0.2
            l1.5-0.1c-0.9,0.1-1.7,0.1-2.4,0.1l0.9,0.2c-0.9,0-1.7,0-1.6-0.1c-0.9,0.2,0.7,0.4-1.1,0.6c-1.2-0.1-3.6,0.1-4-0.2
            c3.8,0.1-0.4-0.3,2.8-0.4c-0.6,0-1.4,0-2.3,0c-0.1,0,0.1-0.1,0.4-0.1c-3.6-0.3-1.7,0.4-5.4,0.3c0.5-0.2-0.9-0.3-1.5-0.3
            c1.5,0,0.7,0.3-0.7,0.4c-2.4-0.1-2.6,0.1-3.8,0.1l1.4,0.1c-0.5,0.2-1.7,0.2-3.3,0.2c-0.1-0.1,1.5-0.1,0.9-0.2
            c-1.8,0.3-4.2-0.3-6.7-0.1c-1.2-0.1-0.1-0.3-1.2-0.4c-2.9,0.2-3.1-0.2-6.2-0.1c0.9,0.2,1,0.2-1.1,0.4l5-0.2l-3.2,0.3
            c1.5,0,3.2-0.1,4.1-0.1c-1.5,0.2-1.4,0.1-0.6,0.3c-2.1-0.4-4.1,0.2-6.5,0l0.1-0.6c-3.6-0.3-6.4,0.3-11,0.2l1.5,0.1
            c-0.6,0.2-2.9,0-4.4,0.1c0.1-0.2-0.8-0.3-1.4-0.4c0.1,0.1-3.4,0-3.8,0.4L105,0.5c-3.8-0.1-4.3,0.6-7.9,0.5
            c1.1-0.2-0.6-0.4,1.9-0.5c-1.2,0-2.3,0-2.3,0.1c-0.7-0.1-3.3,0.3-4.4,0.1c-0.5,0.1-0.7,0.3-2,0.3c-0.1,0,0-0.1,0-0.1
            c0,0.1-2.1,0.1-0.9,0.4c-3.7-0.6-10.4,0-13.6-0.5c-2.6,0.1-5.8,0.1-8.2,0.1c0.2-0.1,0-0.1,0.5-0.1c-3.3-0.2-2,0.6-5.8,0.4
            c-1.9-0.3,2-0.2,0.8-0.3c-0.5-0.6-4.5,0.1-7-0.3l0.6,0c-1.9-0.2-4.7,0.2-7.8,0.2c0,0,0.2-0.1,0-0.1c-2.2,0.3-6.2,0.4-9.3,0.5
            c0.9-0.3,1.4-0.1,0.8-0.4c-1.4,0,0.4,0.4-2.3,0.5c-0.9-0.1-2.8-0.3-3.1-0.5l2.6,0c-1.3-0.4-3.3,0-4.7,0L33,0.5
            C29,0.6,29,1,24.8,0.9l0.4,0.1c-2.3,0.4-1.9-0.2-4.2,0.1l-0.7-0.4c-1.5,0.1-5.3,0.4-8,0.5C13.8,0.9,17,0.7,19,0.6
            c-1.5,0-5.1,0-5.9,0.2c0.6,0,1.4-0.1,2-0.1C13.2,1,10.8,1.2,7.8,1.2C7.9,0.9,7.2,0.8,6,0.8c-0.6,0-1.3,0-2,0c-1,0-2.1,0-3.1,0
            c0,0.6,0,1.2,0,1.7c0,0.3,0,0.5,0,0.8c0,0.2,0,0.4,0,0.5c0,0.7-0.1,1.2-0.2,1.6C0.8,10.6,0.4,15.9,0.4,22
            c0.6-2.2,0,1.8,0.6,1.4c0,1.4,0,2,0,2.1l-0.4,4.4c-0.2,1-0.1-1.4-0.3-1.2c0,3.2-0.3,1.3-0.4,3.4c0.2-0.4,0.3,1.1,0.2,2.9
            l0.3-2.5c0.3,4.4-0.5,3.8-0.2,8.2l-0.2-1.4c0.1,2.3,0,8.4,0.5,10.6c-0.1,0.4-0.2,0.9-0.3-0.1C0.3,55.3,0.9,62,0.6,66.2
            l-0.1-0.4c0,1,0.3,1.8,0.1,3c-0.1-0.1-0.1-0.4-0.2,0.1c0.1,0.5,0.3,2.7,0.2,4l-0.2-1.2C0.2,77.1,0.8,80,0.9,84.4
            c-0.4,0-0.6,4.2-0.7,6.3l-0.1-0.1c-0.1,6.2,0.4,10.5,0.5,16.2c-0.5,3.6-0.2,12-0.5,17.8c0.1-0.9,0.3,0.1,0.4,1.2
            c0,0.2,0,0.3,0,0.5c0,0.3,0,0.6,0,0.9c0,0.6,0,1.2,0.1,1.8c1.2,0,2.1,0,1.9,0.2l-0.8,0c0.2,0,0.4,0.1,0.7,0.1
            c0.3,0,0.6,0.1,0.9,0.1c0.4,0,0.9,0.1,1.5,0.1c1.1,0,2.3,0,3.4,0l0.4-0.5c5.6,0.8,14.7-0.3,17.8,0.4c1.4-0.1,3-0.1,4.4-0.3
            l-0.1,0.3c3.8,0.1,5.6,0.1,10.3,0l-0.9,0.2c2.6,0,3.3-0.8,5.7-0.8l0.7,0.4c4.6,0,9.2,0.4,13.7,0c-0.1,0.1-0.2,0.2-0.9,0.2
            c2.2,0,8.3,0.3,7.6-0.3c0.1,0.4,4.7,0,7.2-0.1l-0.4,0.3c2.1-0.4,2.2-0.5,5.1-0.6c0.7,0,0.6,0.2-0.3,0.2
            c2.3,0.1,1.8-0.3,4.6-0.1l-1,0.2c2.4,0,2.2-0.1,3.5-0.3c1.5-0.1,4.5,0.1,4.8,0.3c0.3-0.2,1.6-0.4,3-0.3
            c0.2,0.1-0.3,0.2-0.6,0.2c4,0.2,5.9-0.3,8.6-0.1c0.1,0.1,0.2,0.1,0.5,0.2c-3.1,0-5.7,0-5.4,0c0,0.3,2.5,0.3,0.5,0.7
            c2-0.2,5.5-0.6,8-0.5c0.1,0,0.2,0,0.3,0.1l-0.3,0c0.6,0,1.1,0,1.6,0c0.8,0,1.3,0.1,2.1,0.1c0.3,0.2,2.9,0.1,4.2,0.1
            c-0.1-0.3,1.6-0.2,0-0.5c0.2,0-0.2,0-1.1,0c-0.2,0-0.4,0-0.5,0c0,0,0.1,0,0.1,0c-0.8,0-1.9,0-3.1,0c1-0.1,2-0.3,3.4-0.1
            c0.7-0.2,1.4-0.4,1.8-0.5c1.7,0.4,5.1,0.6,5.5,0.8c3.9-0.2,9.1-0.1,11.5-0.6c1.1-0.1,1.3,0.2,1.7,0.2c-0.6,0.1-1.4,0-1.7,0.1
            c2.2-0.1,6.5-0.1,7-0.4c2.8,0.2-1.6,0.3,2.2,0.3l-0.5,0.1c7.5,0.6,12.2-0.9,20.5-0.2c-0.6,0-0.9-0.1-1-0.1
            c9.5,0.3,19.5-0.3,28.8,0.2c2.7,0.1,2.9-0.1,4.6-0.3l0.6,0.3l2.8-0.3c3.9-0.3,6.8,0.7,11.8,0.3l-0.6-0.2c1.8,0,5.7-0.1,5.4,0.1
            c0.2,0,0.6-0.2,1.3-0.1l0.1,0.2l4.4-0.3c3.4,0.1-0.5,0.6,4.4,0.7c1.8-0.1,5.3-0.5,4.6-0.6c-0.7,0-1.9-0.1-2-0.3l1.7-0.1
            c0.3-0.5,1.6-0.9-2.5-1.3l-2.9,0.3l-0.9-0.2l2.4,0c-1.4-0.2-2.3,0-3.2,0.1c-0.2-0.1-0.6-0.2-1.2-0.2l-2.8,0.4
            c-0.3-0.2,1.3-0.4-0.6-0.5c-1.3,0.2,1.3,0.4-0.9,0.5c-1.4-0.2-1-0.4-2.6-0.2c-0.2-0.1,0.1-0.2,0.8-0.2
            c-1.4,0.1-3.8,0.1-4.6,0.3c-1.4-0.3-4.9,0.1-4.7-0.4c-0.5,0.1-2.5,0.3-3.9,0.4c2.4-0.5-5,0-4.3-0.6c-1.8,0.5-6.5,0.2-9.6,0.5
            c0.2,0,0.5-0.1,0.8-0.1c-1.8,0-2.3-0.2-3.5-0.3c-0.2,0.4-3,0.5-4.5,0.7c-2.2-0.4,1.3-0.5,0.6-0.8c0.1,0.3-3.8,0.3-3.1,0.6
            c-1.7-0.2-1.4-0.1-2.3-0.4c-0.3,0.5-1.6,0.1-2.9,0.4c-2.4-0.2-0.6-0.5-3.3-0.3C165.2,126.6,167.5,126.4,167.5,126.4z
             M104.2,127.3L104.2,127.3c0.5,0,1,0,1.3,0C105.3,127.3,104.9,127.3,104.2,127.3z M98.9,127.3c0.6,0,1.5,0,2.3,0
            c0.2,0.1,0,0.2-0.6,0.2C101,127.4,99.7,127.4,98.9,127.3z M110.2,129.2c-0.8,0-1.1,0-1.2-0.1c0.4,0,0.9,0,1.5,0
            c0,0,0.1,0,0.1,0C110.4,129.1,110.3,129.2,110.2,129.2z"/>
          <path class="st0" d="M111.7,128.9c0.1,0,0.2,0,0.3,0c-0.2,0-0.3,0-0.5-0.1c-0.1,0-0.2,0.1-0.3,0.1
            C111.4,128.9,111.5,128.9,111.7,128.9z"/>
          <path class="st0" d="M227,22.2l0-0.1c0,0.1,0,0.2,0,0.2C227,22.3,227,22.3,227,22.2z"/>
          <polygon class="st0" points="25.4,126.7 25.4,126.8 25.9,126.7           "/>
          <path class="st0" d="M226.1,51.5c0,0.1-0.1,0.2-0.1,0.4C226,51.9,226,51.7,226.1,51.5z"/>
          <path class="st0" d="M226,64.2l-0.1,1.8C226,65.2,226,64.6,226,64.2z"/>
          <path class="st0" d="M225.9,73.9c0,0.1,0.1,0.2,0.1,0.2l0,0L225.9,73.9z"/>
          <path class="st0" d="M144.3,2.6c-0.1,0-0.3,0-0.4,0C143,2.6,143.6,2.6,144.3,2.6z"/>
          <path class="st0" d="M190.3,1.9c-0.5,0.1-1,0.1-1.5,0.1C189.7,2.1,190.3,2.1,190.3,1.9z"/>
          <path class="st0" d="M92.9,2.9C92.9,2.9,92.9,2.9,92.9,2.9c-0.1,0-0.2,0-0.3,0L92.9,2.9z"/>
          <path class="st0" d="M186.7,2c0.8,0.1,1.5,0,2.1,0C188.2,2,187.4,2,186.7,2z"/>
          <path class="st0" d="M225.7,116.1l0,0.5c0,0,0,0,0,0.1L225.7,116.1z"/>
          <path class="st0" d="M225.8,116.6l0,0.5C225.8,116.9,225.8,116.7,225.8,116.6z"/>
          <path class="st0" d="M225.9,118.2l-0.1-1.1C225.8,117.5,225.8,118,225.9,118.2z"/>
          <path class="st0" d="M225.9,103.2l-0.1-0.1C225.8,103.1,225.8,103.2,225.9,103.2z"/>
          <path class="st0" d="M225.8,99.3c0,0.9-0.2,2.3-0.2,3.6l0.1,0.1C225.6,102.4,226,100.2,225.8,99.3z"/>
          <path class="st0" d="M227.1,82.9l-0.1,3.3c0.1-0.6,0.3-1.3,0.3,0.2C227.6,82.3,227.1,87.2,227.1,82.9z"/>
          <path class="st0" d="M227.3,72.8c0.1,1.8,0.2,0,0.2,0.1C227.4,71.7,227.4,71.5,227.3,72.8z"/>
          <path class="st0" d="M224.4,0.8l0.2-0.3C223.2,0.6,224.6,0.7,224.4,0.8z"/>
          <polygon class="st0" points="210.3,2.2 211.7,2.3 212.3,2.1          "/>
          <polygon class="st0" points="202,0.3 202.6,0.3 200.4,0.4          "/>
          <path class="st0" d="M78.6,0.4L79,0.8C79.9,0.7,80.1,0.3,78.6,0.4z"/>
          <path class="st0" d="M25.3,0.8c-0.6-0.2-2.1-0.3-3-0.1C23.5,0.7,24.6,0.8,25.3,0.8z"/>
          <polygon class="st0" points="11.3,129.3 10.2,129.4 12.3,129.3           "/>
        </g>
      </g>
    </g>
  </g>
</g>
</svg>
