<!-- Generator: Adobe Illustrator 19.2.0, SVG Export Plug-In  -->
<svg version="1.1"
   xmlns="http://www.w3.org/2000/svg" xmlns:xlink="http://www.w3.org/1999/xlink" xmlns:a="http://ns.adobe.com/AdobeSVGViewerExtensions/3.0/"
   x="0px" y="0px" width="293.4px" height="45px" viewBox="0 0 293.4 45" style="enable-background:new 0 0 293.4 45;"
   xml:space="preserve">
<style type="text/css">
  .st0{fill:#484B9F;}
</style>
<defs>
</defs>
<g>
  <g>
    <g>
      <g>
        <g>
          <path class="st0" d="M292,43.5c0.1,0.3,0.3,0.2,0.2-0.8l-0.3-0.7L292,43.5z"/>
          <path class="st0" d="M292.6,37c-0.2-1.1-0.4-2.4-0.7-1.7c0.3,1.1,0.2,1.4,0.6,2.6c0,1-0.1,1.7-0.2,1.5c0.1,0.3-0.1,1.5,0.1,2
            c0.3-1.3,0.3-2.9,0.1-4.5C292.4,36.6,292.5,36.9,292.6,37z"/>
          <path class="st0" d="M233.7,1l0.6,0C234.1,1,233.9,1,233.7,1z"/>
          <path class="st0" d="M175.2,0.8c0.4,0,0.6,0,0.7-0.1C175.4,0.8,175.1,0.8,175.2,0.8z"/>
          <path class="st0" d="M165.2,0.5c0.2,0,0.4,0,0.6,0C165.5,0.5,165.3,0.5,165.2,0.5z"/>
          <path class="st0" d="M233.7,1l-1.6-0.1C232,1,232.9,1,233.7,1z"/>
          <path class="st0" d="M291.8,24c0,0.3,0,0.6,0.1,0.8C291.8,24.5,291.8,24.3,291.8,24C291.8,24,291.8,24,291.8,24z"/>
          <path class="st0" d="M259.5,0.8l0.5,0c0.1,0,0.3-0.1,0.4-0.1L259.5,0.8z"/>
          <path class="st0" d="M279.3,0.7c-0.4,0-0.6,0.3-0.8,0.4c0.3-0.1,0.6-0.2,1-0.2C279.5,0.8,279.4,0.8,279.3,0.7z"/>
          <path class="st0" d="M292.9,19.5l0,0.6C292.9,19.9,292.9,19.7,292.9,19.5z"/>
          <path class="st0" d="M245.3,0.7c0,0-0.1-0.1-0.2-0.1C245.1,0.6,245.2,0.7,245.3,0.7z"/>
          <path class="st0" d="M269.7,42.2C269.7,42.2,269.7,42.2,269.7,42.2C269.8,42.2,269.8,42.2,269.7,42.2z"/>
          <path class="st0" d="M292.6,43.6l-0.3,0c0,0.1-0.1,0.1-0.1,0.2L292.6,43.6z"/>
          <path class="st0" d="M146.9,0.1C146.9,0.1,146.9,0.1,146.9,0.1C147.4,0.1,147.2,0.1,146.9,0.1z"/>
          <path class="st0" d="M0.5,24.1c0.3-1.9,0.3,3.1,0.6,0.2C0.9,24.6,0.6,21.7,0.5,24.1z"/>
          <path class="st0" d="M291.8,23.5c0-0.3,0-0.5,0-0.8C291.8,23,291.8,23.3,291.8,23.5z"/>
          <path class="st0" d="M1.1,24.3L1.1,24.3l0-0.3C1.1,24.1,1.1,24.2,1.1,24.3z"/>
          <path class="st0" d="M104.7,0.3c0.1,0,0.3,0.1,0.4,0.1C105.2,0.4,105.1,0.3,104.7,0.3z"/>
          <path class="st0" d="M136.1,0.7l-0.8,0C135.7,0.7,135.9,0.7,136.1,0.7z"/>
          <path class="st0" d="M88.4,0.7c-0.4,0-0.6-0.1-1.1,0c0.1,0,0.1,0,0.2,0C87.7,0.7,88,0.6,88.4,0.7z"/>
          <path class="st0" d="M71.5,0.7c0.1,0,0.2,0,0.3,0.1c0.2,0,0.4,0,0.5,0L71.5,0.7z"/>
          <path class="st0" d="M218.1,42.3c0.4,0.1,0.6,0.2,0.8,0.3C218.6,42.4,221.1,42.3,218.1,42.3z"/>
          <path class="st0" d="M291.9,24c-0.1-0.1-0.1-0.2-0.1-0.5c0,0.2,0,0.4,0,0.6C291.9,24.1,291.9,24.1,291.9,24z"/>
          <path class="st0" d="M87.8,2.9l-2.7,0C85.8,2.9,86.8,2.9,87.8,2.9z"/>
          <path class="st0" d="M96.4,42.3l0.6,0C96.8,42.3,96.6,42.3,96.4,42.3z"/>
          <path class="st0" d="M77.1,2.9c-0.5-0.1-1-0.2-1.5-0.2c-0.1,0-0.2,0-0.3,0.1L77.1,2.9z"/>
          <path class="st0" d="M218.9,42.6C218.9,42.6,218.9,42.6,218.9,42.6C218.9,42.6,218.9,42.6,218.9,42.6z"/>
          <path class="st0" d="M236.7,41.9c-2.6,0-1.2,0.4-1.8,0.6c-3.1,0.1-1.4-0.3-2.5-0.5c-1.9,0.1-3.4,0.4-4.8,0.4
            c-0.1-0.1-0.4-0.1-0.1-0.2c-2,0.3-6,0-8.4,0.4c-0.2,0-0.3-0.1-0.3-0.1c0.4,0.2,0.4,0.4,0.4,0.5c-1.2,0-2.1,0.2-2.6,0
            c0.7,0,0.8-0.1,1.1-0.2l-1.2,0.1c-1.1-0.3,1.6-0.1,1.6-0.4c-2.4,0.1-5.1,0.4-6.9,0.3c-0.4-0.3,4.2-0.1,1.8-0.4l2.8,0.1
            c-2.1-0.5,1.7,0-0.3-0.5c-3.7-0.1-4.1,0.2-7.8,0.1c-0.8,0.2,0.3,0.3-0.6,0.5c-5.2,0.3-4.1-0.9-7.9-0.4c-1,0.2-1.4,0.7-4.1,0.4
            l0.9-0.4c-3.6,0-2,0.6-5.7,0.3c0.7-0.2,2.8-0.1,2.3-0.2c-2.4-0.3-1.7,0.2-3.6,0.2l-0.4-0.3c-3.8,0.1-7.9,0.3-12.1,0.4
            c0.2-0.1,0.9-0.2,0-0.3c-5.3,0.2-11.3,0-16.4-0.2l-1.9,0.3c-0.5,0-0.8-0.1-0.3-0.2c-2-0.1-0.1,0.2-1.1,0.3
            c-1.1,0-1.5-0.2-0.8-0.3c-3.5,0.2-10,0.5-13.7,0.2l0.7-0.1c-2.9-0.1-3.2,0.6-5.9,0.3l0.5-0.1c-6.2-0.1-13.1,0.1-17.9-0.3
            c-0.9,0.4-6.2-0.2-6.6,0.4c-3.6-0.3-2.5-0.4-7.6-0.6c-1.3,0-2,0.4-3.7,0.4l0-0.3l-2.3,0.3l-1.2-0.4l-1.6,0.1
            c0.6,0,1.3,0.1,1.2,0.2c-2.4,0.1-5.9-0.2-6-0.4l-5.7,0.3c0.1-0.1,1.1-0.2,1.9-0.2c-3.1,0.3-0.6-0.3-3.4,0
            c0.4,0.1-0.2,0.2-0.3,0.2c-1.4-0.2-4.6-0.2-6.9-0.1l0.5-0.2c-4.3-0.1-9,0.1-13.8,0.1c1.7,0.1,1.3,0.5-0.1,0.5l-0.6-0.3
            c-0.9,0.2,1.5,0.1-0.4,0.4c-1.8,0-1.2-0.4-0.2-0.5l-2.2,0.1c-0.1-0.1,0.4-0.1,0.5-0.3c-0.9,0.2-3.7-0.3-5,0L56.5,42
            c-4.8,0-6.9,0.1-10.8,0.1c-0.1,0.3-1.6,0.2-2.8,0.4c-2.9-0.1-6-0.3-9.5-0.3c-2.4,0.1-0.7,0.2-1.8,0.4c-0.2-0.3-3.6-0.2-1.8-0.4
            c-4.1,0-5.3,0.1-10.5,0.3c0.6,0.1,1.2,0.2,0.9,0.2c-0.9,0-2.2-0.1-2-0.2l0.3,0c-2.6,0.2-5.6,0-8.6-0.1
            c-1.5-0.1-2.9-0.1-4.3-0.2c-0.7,0-1.4,0-2,0l-0.3,0l-0.1,0c-0.1,0-0.1,0-0.2,0c0-0.1-0.1-0.2-0.1-0.3l0,0.1c0,0,0,0.1,0-0.5
            c0-0.5-0.1-1.1-0.1-1.7c-0.1-1.2-0.1-2.4-0.1-2.4c0-2.2,0.2,1.3,0.4-0.3C2.5,31.8,3,28.8,2.7,24.5c0.8-3.3-0.1-11.8,0.4-16.3
            L2.9,8.4C2.8,7.2,3,7,3.1,6.1C2.9,6.3,2.9,7.4,2.8,6.7c0-1.3,0-2.7-0.1-4.1c1.7,0,3.4,0,5.1,0.1c2.1,0,4.2,0.1,6.3,0.1
            c4.2,0.1,8.5,0.2,12.7,0.3c3.7,0,2.1-0.9,6.8-0.5l-1.3,0.3c7.5-0.4,15.3,0,22.6-0.3c-0.4,0.1-0.4,0.2-1.2,0.2
            c1.5,0.2,5.7,0,5.7-0.2c1.1,0,0.3,0.2,1,0.3c1.5,0.1,3.9-0.3,4.7-0.1c0.1,0-0.4,0.1-0.7,0.1c1-0.1,4.7,0,3.7-0.2
            c2.7,0.1,5.2-0.1,7.4,0c1.4-0.3,4.7,0.1,5.1-0.3c-0.2,0.5,4.8,0.4,6.5,0.2c-0.6,0.1,1.5,0.1,0.8,0.3c2,0,3.8-0.1,3.4-0.3
            c3.6,0.5,7.3-0.4,9.4,0.3c5.9-0.2,11.3-0.4,16.6-0.5c-0.2,0.5-5.8,0-5.6,0.5c5-0.2,7.9-0.6,12.9-0.5c1.3,0.1-0.7,0.2-1.2,0.3
            c5-0.2,9.7,0,14.1-0.2c0,0-0.5,0.1-0.9,0.1c0.9,0,2,0.1,1.9-0.1l-0.9,0.1c-1.4-0.3,3.5-0.6,3.6-0.8c-1.5,0.6,4.4,0.1,2,0.9
            c0.6,0,1.3-0.1,1.2-0.3c0.9,0,1.1,0.1,0.3,0.3c3.1-0.1,2-0.3,4.9-0.3c0,0.1-0.6,0.1-0.9,0.3c1.4-0.2,2.9-0.4,5.3-0.3
            c-0.1,0.1,0.1,0.1-0.6,0.1c4.1,0,7.1-0.5,11.6-0.3c-1.3,0.4,1.5,0.1,1.8,0.5l2.4-0.1l-1-0.2c2.1,0,4-0.3,5.9-0.1l-1.6,0.2
            l4-0.1l-2.3-0.1c2.2-0.2-0.2-0.5,2.6-0.4c-0.6,0,2.1,0,3.3,0.2l0,0c1.1-0.1,2.1-0.2,3.7-0.2c0.4,0.1-0.3,0.4-0.1,0.5
            c1-0.3,5-0.1,6.3-0.4c-0.4,0.1-0.5,0.3-0.3,0.3l0.9-0.3c1,0.1,1.1,0.1,1,0.3c3,0-0.9-0.5,2.6-0.3c-0.3,0-0.1,0.1-0.7,0.1
            c3.6,0.1,6.9-0.2,10.1,0c1,0.4-2.9,0.1-1.7,0.4c4.7-0.1,9.7-0.5,14.3-0.4l-0.8,0c0.6-0.5,3.4,0.3,5.7,0c-0.6,0-0.7,0.3-0.6,0.2
            c3.1,0.1,6.4-0.1,11.1-0.3l-0.6,0.1c1.8,0.1,4.8,0.1,6.8,0.1c0.6-0.1,1.7-0.1,1-0.3c6.1,0.8,11.7-0.4,17.1,0.2
            c-0.6,0-1.5,0.1-1,0.1l4.6-0.1c-0.4-0.2-0.6-0.1-1.6-0.3c0.6-0.1,1.9-0.2,3-0.2c-2.1,0.2,0,0.4,0.9,0.5
            c-0.2-0.1,0.2-0.1,0.1-0.2c2.4,0.4,0.4-0.5,3.7-0.2l-0.2,0.1c1.2-0.1,2.4-0.2,3.7-0.2c0.6,0.3-1.3,0.1-1.4,0.3
            c1.9,0,3.7-0.5,5.4-0.2c-0.8,0.1-1.9,0.1-2.7,0.1c1.8,0.3,2.1,0.2,3.4,0.3l-0.1,0l3.2,0.1l-0.8-0.1c2.3-0.7,4.8-0.1,7.9-0.6
            c-3.1,0.4-0.5,0.2-0.7,0.6c0.8,0.1,2,0.2,1.7,0.3c1.5-0.2,2.5,0.2,4.6-0.2c0.1,0.1,1.6,0,1.2,0.3c0.8-0.1,0-0.2-0.3-0.3
            c0.2,0,0.4,0,0.6-0.1c0.2,0,0.4,0,0.6,0c0,0.2,0,0.4,0,0.7c0,0.3,0,0.6,0,0.9c0,0.7-0.1,1.5-0.1,2.3c-0.1,1.6-0.1,3.3,0.1,5
            c0.2,3.7,0.5,4.4,0.7,7.8c-0.2,1.2-0.4-0.9-0.4-0.9c-0.1,1.9-0.1,3.3,0,5c-0.1-0.4-0.2,0-0.3,0.5c0,1.4,0.4,0.9,0.2,2.8
            c-0.1-0.3-0.3-0.7-0.4-1.4c0.1,1.7,0.3,3.3,0.4,5c-0.2,0.5-0.3-1-0.4-1.7c0.1,1.9,0.2,5,0.4,5.6l0.1-1.2c0,0.7-0.2,0.4-0.3-0.2
            c-0.2-1.7,0.1-2.4,0.2-2.5l0.1,1.2c0.6-1.3-0.1-4.9-0.1-7.4l0.4,1l-0.3-2.5c0.1-0.5,0.3-0.9,0.4,0.3c0.2-1.8-0.1-1.6,0.1-3.1
            c0-0.2,0.1-0.1,0.1,0.1l-0.1-1.7c0.1,0.3,0.3-0.3,0.2,0.8c0.2-3.1-0.3-5,0-6.2l0,0.3c-0.1-4.3-0.3-0.4-0.7-3.7l0.8-2.2
            l-0.3-0.4c0-0.4,0-1.3,0.2-1.2c-0.2-1.7-0.1,0.3-0.3-0.7c0.1-0.4,0.1-0.9,0.1-1.5c0-0.6,0-1.2,0-1.7c-1.8,0-3.2,0-3.5-0.3
            c-0.8,0.2,2.1,0.2-0.2,0.3c-0.7-0.5-2.6,0.1-4.6-0.2c0.6-0.3,2.5-0.1,0.5-0.4c-1.2,0.5-3.8-0.1-5.5,0c-0.1,0.4-3.6,0.2-6.4,0.3
            c0.2-0.1-5.2-0.2-7.8-0.3l0.1-0.1c-0.5,0.4-3.2,0.3-5.1,0.4c0.1-0.2,0.4-0.3,1.5-0.4l-1.8,0c-0.4,0.1-1,0.2-2.2,0.2l0.5-0.3
            c-2.4,0-4.9,0.3-8,0.1c-0.2,0.3,2.5,0.7-0.8,0.9c-0.1-0.1-0.2-0.4,0.6-0.4c-0.3,0-1,0.1-1.6,0.1l1.3-0.2
            c-1.4-0.1-0.7,0.2-1.9,0.2c0-0.2-0.8-0.1-0.7-0.3c0.3,0,1,0.1,1.4,0c-1.3,0-2.8-0.2-3.3-0.3c0.1,0.1,0,0.3-0.9,0.3
            c-2.4,0-0.8-0.2-2.2-0.3c-0.6,0.1-2.1,0-2.2,0.3c-0.7,0-0.8-0.1-1.1-0.2c-1.3,0.1-5.9,0-4.4,0.4l0.3,0c-0.1,0-0.1,0-0.2,0
            c0,0,0,0,0,0h0c-4.1,0.3-8.5-0.2-12.6,0l0-0.1c-2.4,0.1-5.4,0.1-7.2,0.3c-0.7,0-1.7-0.2-1.4-0.3c-1.9,0.1-2.1,0.2-4.8,0
            c1.9-0.2-0.6-0.2,1.9-0.1c-2.4-0.1-3-0.2-5.6,0c0.9-0.3-1.8-0.3-3-0.2l1.7,0.2c-1.3,0-2.4,0-3.6,0l0.6-0.3
            c-4.9-0.4-8.9,0.7-12.7,0c-1.3,0.2,2.7,0.2,1.5,0.4c-2.3,0-4.6-0.5-5.4-0.5c-3.1-0.2-2.9,0.5-6.2,0.4c0.4,0.1,0.8,0.4-1.6,0.5
            c-2.3,0-2.8-0.5-1.4-0.6c0.5,0,0.8,0,0.8,0.1c0.7,0,1.7-0.1,0.8-0.2l-0.3,0.1c-1.1-0.1-4.3-0.1-3.5-0.3
            c-1.7,0.1-0.7,0.2,0.5,0.3c-2.9-0.2-4.6,0-7.6-0.1c0.5,0.1,0.9,0.2,0.4,0.2c-4.4-0.1-1.9,0.2-4.9,0.3c-1.7-0.2,0.6-0.4-2.4-0.3
            c-1.8-0.1-0.4-0.3,0.3-0.4c-2.7,0.2-5.1-0.2-6.7-0.2L154,0c-0.9,0.1-1.6,0.1-2.3,0.1l0.8,0.2c-0.8,0-1.6,0-1.5-0.1
            c-0.9,0.2,0.7,0.4-1.1,0.6c-1.1-0.1-3.4,0.1-3.8-0.2c3.6,0.1-0.4-0.3,2.6-0.4c-0.6,0-1.3,0-2.1,0c-0.1,0,0.1-0.1,0.4-0.1
            c-3.4-0.3-1.6,0.4-5.1,0.3c0.4-0.2-0.8-0.3-1.4-0.3c1.4,0,0.7,0.3-0.6,0.4c-2.3-0.1-2.5,0.1-3.6,0.1l1.4,0.1
            c-0.5,0.2-1.6,0.2-3.2,0.2c-0.1-0.1,1.4-0.1,0.9-0.2c-1.7,0.3-4-0.3-6.4-0.1c-1.1-0.1-0.1-0.3-1.1-0.4c-2.7,0.2-3-0.2-5.8-0.1
            c0.8,0.2,1,0.2-1.1,0.4l4.7-0.2l-3,0.3c1.4,0,3-0.1,3.9-0.1c-1.4,0.2-1.3,0.1-0.6,0.3c-2-0.4-3.9,0.2-6.1,0l0.1-0.6
            c-3.4-0.3-6,0.3-10.4,0.2l1.4,0.1c-0.6,0.2-2.7,0-4.1,0.1c0.1-0.2-0.8-0.3-1.4-0.4c0.1,0.1-3.2,0-3.6,0.4l-2-0.3
            C96,0.4,95.5,1.1,92.1,1c1-0.2-0.5-0.4,1.8-0.5c-1.1,0-2.2,0-2.2,0.1c-0.7-0.1-3.2,0.3-4.2,0.1C87,0.8,86.8,1,85.6,1
            c-0.1,0,0-0.1,0-0.1c0,0.1-2,0.1-0.9,0.4c-3.5-0.6-9.8,0-12.9-0.5c-2.5,0.1-5.5,0.1-7.7,0.1c0.1-0.1,0-0.1,0.4-0.1
            c-3.1-0.2-1.9,0.6-5.5,0.4c-1.8-0.3,1.9-0.2,0.8-0.3c-0.5-0.6-4.3,0.1-6.7-0.3l0.6,0c-1.8-0.2-4.5,0.2-7.4,0.2
            c0,0,0.1-0.1,0-0.1c-2,0.3-5.9,0.4-8.8,0.5c0.9-0.3,1.3-0.1,0.8-0.4c-1.3,0,0.4,0.4-2.2,0.5c-0.8-0.1-2.7-0.3-2.9-0.5l2.4,0
            c-1.2-0.4-3.1,0-4.4,0l0.2-0.2c-3.7,0.1-3.8,0.4-7.7,0.4L24,1.1c-2.2,0.4-1.8-0.2-4,0.1l-0.7-0.4c-1.4,0.1-5,0.4-7.6,0.5
            c1.5-0.3,4.5-0.4,6.3-0.6c-1.4,0-4.8,0-5.6,0.2c0.6,0,1.3-0.1,1.9-0.1c-1.7,0.3-4,0.5-6.9,0.5c0.2-0.3-0.6-0.4-1.7-0.4
            c-0.6,0-1.2,0-1.9,0c-1,0-2,0-3,0c0,0.6,0,1.1,0,1.7c0,0.3,0,0.5,0,0.8c0,0.2,0,0.3,0,0.5c0,0.6-0.1,1.2-0.2,1.5
            c0.3,5-0.1,10-0.1,15.8c0.6-2.1,0,1.7,0.6,1.3c0,1.4,0,1.9,0,2l-0.4,4.1c-0.2,1-0.1-1.3-0.3-1.2c0,3-0.3,1.3-0.4,3.2
            c0.2-0.4,0.3,1,0.2,2.7l0.3-2.4C0.8,35,0,34.5,0.3,38.7l-0.2-1.3c0,0.6,0,1.6,0.1,2.7c0,1.5,0,3.2,0.1,4.8c0.7,0,1.5,0,2.1-0.1
            c0.3,0,0.6,0,0.9,0c0.2,0,0.4,0,0.5,0c0.7-0.1,1.3-0.1,1.7-0.2c0.4,0.1,0.9,0.2-0.1,0.3c5.2,0.1,11.5-0.5,15.5-0.2l-0.4,0.1
            c1,0,1.7-0.3,2.9-0.1c-0.1,0.1-0.4,0.1,0.1,0.2c0.5-0.1,2.6-0.3,3.8-0.2l-1.1,0.2c5,0.2,7.7-0.4,11.9-0.5
            c0,0.4,3.9,0.6,5.9,0.7L44,44.9c5.9,0.1,9.9-0.4,15.4-0.5c3.4,0.5,11.4,0.2,16.8,0.5c-0.8-0.1,0.1-0.3,1.1-0.4
            c1.3,0.1,3.5-0.3,3.3,0.1l-0.5,0c1,0.4,3.6,0.3,5.6,0.3l0.3-0.5c5.3,0.8,14-0.3,16.9,0.4c1.3-0.1,2.9-0.1,4.2-0.3l-0.1,0.3
            c3.6,0.1,5.3,0.1,9.7,0l-0.9,0.2c2.5,0,3.1-0.8,5.4-0.8l0.7,0.4c4.3,0,8.7,0.4,13,0c-0.1,0.1-0.2,0.2-0.9,0.2
            c2,0,7.9,0.3,7.2-0.3c0.1,0.4,4.5,0,6.8-0.1l-0.4,0.3c2-0.4,2-0.5,4.8-0.6c0.7,0,0.6,0.2-0.3,0.2c2.2,0.1,1.7-0.3,4.3-0.1
            l-1,0.2c2.2,0,2.1-0.1,3.3-0.3c1.4-0.1,4.3,0.1,4.6,0.3c0.3-0.2,1.5-0.4,2.9-0.3c0.2,0.1-0.3,0.2-0.5,0.2
            c3.7,0.2,5.6-0.3,8.2-0.1c0.1,0.1,0.2,0.1,0.4,0.2c-3,0-5.4,0-5.2,0c0,0.3,2.4,0.3,0.5,0.7c1.9-0.2,5.2-0.6,7.6-0.5
            c0.1,0,0.2,0,0.3,0.1l-0.2,0c0.5,0,1,0,1.5,0c0.7,0,1.2,0.1,1.9,0.1c0.3,0.2,2.8,0.1,4,0.1c-0.1-0.3,1.5-0.2,0-0.5
            c0.2,0-0.2,0-1,0c-0.2,0-0.4,0-0.5,0c0,0,0.1,0,0.1,0c-0.8,0-1.8,0-3,0c0.9-0.1,1.9-0.3,3.3-0.1c0.6-0.2,1.3-0.4,1.7-0.5
            c1.6,0.4,4.8,0.6,5.2,0.8c3.7-0.2,8.6-0.1,10.9-0.6c1-0.1,1.2,0.2,1.6,0.2c-0.6,0.1-1.3,0-1.6,0.1c2.1-0.1,6.2-0.1,6.7-0.4
            c2.6,0.2-1.5,0.3,2.1,0.3l-0.5,0.1c7.1,0.6,11.5-0.9,19.4-0.2c-0.5,0-0.8-0.1-0.9-0.1c9,0.3,18.5-0.3,27.3,0.2
            c2.5,0.1,2.8-0.1,4.3-0.3l0.5,0.3l2.6-0.3c3.7-0.3,6.4,0.7,11.2,0.3l-0.6-0.2c1.7,0,5.4-0.1,5.1,0.1c0.2,0,0.6-0.2,1.2-0.1
            l0.1,0.2l4.2-0.3c3.2,0.1-0.5,0.6,4.2,0.7c1.7-0.1,5-0.5,4.3-0.6c-0.7,0-1.8-0.1-1.9-0.3l1.6-0.1c0.3-0.5,1.5-0.9-2.4-1.3
            l-2.7,0.3l-0.9-0.2l2.3,0c-1.3-0.2-2.1,0-3.1,0.1c-0.2-0.1-0.6-0.2-1.1-0.2l-2.7,0.4c-0.3-0.2,1.2-0.4-0.6-0.5
            c-1.3,0.2,1.2,0.4-0.9,0.5c-1.3-0.2-0.9-0.4-2.5-0.2c-0.2-0.1,0.1-0.2,0.7-0.2c-1.4,0.1-3.6,0.1-4.3,0.3
            c-1.4-0.3-4.6,0.1-4.5-0.4c-0.4,0.1-2.4,0.3-3.7,0.4c2.3-0.5-4.7,0-4.1-0.6c-1.7,0.5-6.1,0.2-9.1,0.5c0.2,0,0.5-0.1,0.8-0.1
            c-1.7,0-2.2-0.2-3.3-0.3c-0.2,0.4-2.9,0.5-4.3,0.7c-2.1-0.4,1.3-0.5,0.6-0.8c0.1,0.3-3.6,0.3-2.9,0.6c-1.6-0.2-1.4-0.1-2.2-0.4
            c-0.3,0.5-1.5,0.1-2.8,0.4c-2.3-0.2-0.6-0.5-3.1-0.3C234.4,42.1,236.7,41.9,236.7,41.9z M176.7,42.7L176.7,42.7
            c0.5,0,1,0,1.2,0C177.7,42.7,177.3,42.7,176.7,42.7z M171.6,42.7c0.6,0,1.4,0,2.2,0c0.2,0.1,0,0.2-0.5,0.2
            C173.6,42.9,172.4,42.8,171.6,42.7z M182.3,44.7c-0.8,0-1.1,0-1.2-0.1c0.4,0,0.8,0,1.4,0c0,0,0.1,0,0.1,0
            C182.5,44.6,182.5,44.7,182.3,44.7z"/>
          <path class="st0" d="M183.7,44.3c0.1,0,0.2,0,0.3,0c-0.2,0-0.3,0-0.5-0.1c-0.1,0-0.2,0.1-0.3,0.1
            C183.5,44.3,183.6,44.3,183.7,44.3z"/>
          <path class="st0" d="M234.4,1.1l-0.1,0c0.1,0,0.2,0,0.2,0C234.4,1.1,234.4,1.1,234.4,1.1z"/>
          <polygon class="st0" points="102,42.2 102.1,42.3 102.5,42.2           "/>
          <path class="st0" d="M262.1,2c0.1,0,0.2,0.1,0.4,0.1C262.5,2.1,262.3,2.1,262.1,2z"/>
          <path class="st0" d="M274.1,2.1l1.7,0.1C275.1,2.1,274.6,2.1,274.1,2.1z"/>
          <path class="st0" d="M283.4,2.2c0.1,0,0.1-0.1,0.2-0.1l0,0L283.4,2.2z"/>
          <path class="st0" d="M136.8,2.6c-0.1,0-0.2,0-0.4,0C135.6,2.6,136.1,2.6,136.8,2.6z"/>
          <path class="st0" d="M180.4,1.9C179.9,2,179.5,2,179,2C179.8,2.1,180.4,2.1,180.4,1.9z"/>
          <path class="st0" d="M88.1,2.9C88.1,2.9,88.1,2.9,88.1,2.9c-0.1,0-0.2,0-0.3,0L88.1,2.9z"/>
          <path class="st0" d="M177,2c0.8,0.1,1.4,0,2,0C178.4,2,177.6,2,177,2z"/>
          <path class="st0" d="M291.7,32.2l0,0.4c0,0,0,0,0,0.1L291.7,32.2z"/>
          <path class="st0" d="M291.8,32.7l0,0.5C291.8,32.9,291.8,32.8,291.8,32.7z"/>
          <path class="st0" d="M291.9,34.2l-0.1-1C291.8,33.5,291.8,34,291.9,34.2z"/>
          <path class="st0" d="M291.9,20l-0.1-0.1C291.8,19.9,291.8,20,291.9,20z"/>
          <path class="st0" d="M291.8,16.3c0,0.9-0.2,2.2-0.2,3.5l0.1,0.1C291.6,19.3,292,17.1,291.8,16.3z"/>
          <path class="st0" d="M292.2,1l0.9,0L293,3.9c0.1-0.5,0.3-1.3,0.3,0.2c0-0.5,0.1-0.8,0.1-1.1c0-0.4,0-0.6,0-0.8
            c0-0.3,0-0.2-0.1-0.1c-0.1,0.3-0.2,0.6-0.2-1.1C292.8,1,292.5,1,292.2,1z"/>
          <path class="st0" d="M282.3,0.8c1.7-0.1,0-0.2,0.1-0.2C281.3,0.7,281,0.8,282.3,0.8z"/>
          <path class="st0" d="M212.6,0.8l0.2-0.3C211.5,0.6,212.8,0.7,212.6,0.8z"/>
          <polygon class="st0" points="199.3,2.2 200.6,2.3 201.2,2.1          "/>
          <polygon class="st0" points="191.5,0.3 192,0.3 189.9,0.4          "/>
          <path class="st0" d="M74.5,0.4l0.4,0.3C75.8,0.7,75.9,0.3,74.5,0.4z"/>
          <path class="st0" d="M24,0.8c-0.5-0.2-2-0.3-2.8-0.1C22.3,0.7,23.4,0.8,24,0.8z"/>
          <polygon class="st0" points="88.7,44.7 87.6,44.8 89.6,44.7          "/>
        </g>
      </g>
    </g>
  </g>
</g>
</svg>
